<?xml version="1.0" encoding="utf-8"?>
<!-- Generator: Adobe Illustrator 27.0.0, SVG Export Plug-In . SVG Version: 6.00 Build 0)  -->
<svg version="1.1" id="Layer_1" xmlns="http://www.w3.org/2000/svg" xmlns:xlink="http://www.w3.org/1999/xlink" x="0px" y="0px"
	 viewBox="0 0 120.3 120.3" style="enable-background:new 0 0 120.3 120.3;" xml:space="preserve">
<style type="text/css">
	.st0{fill:#FFFFFF;stroke:#009CEA;stroke-width:3;stroke-linecap:round;stroke-linejoin:round;stroke-miterlimit:10;}
	.st1{fill:none;stroke:#009CEA;stroke-width:3;stroke-linecap:round;stroke-linejoin:round;stroke-miterlimit:10;}
	.st2{fill:none;stroke:#662D91;stroke-width:3;stroke-miterlimit:10;}
	.st3{fill:#662D91;}
</style>
<path class="st0" d="M97.4,84.5v23.8c0.1,3.8-3,6.9-6.8,6.9l0,0H9.1c-3.8,0-6.9-3.1-6.9-6.9V33.9h95.2v9.9"/>
<path class="st1" d="M35.3,11.8h29.4"/>
<path class="st1" d="M75.2,11.8h17.7c2.6,0,4.6,2.1,4.6,4.6v17.5H2.2V16.4c0-2.6,2.1-4.6,4.6-4.6h17.6"/>
<g>
	<path class="st2" d="M70.2,5L70.2,5c2.6,0,4.6,1.6,4.6,3.6v12.9c0,2.1-2.1,3.6-4.6,3.6l0,0c-2.6,0-4.6-1.6-4.6-3.6V8.6
		C65.7,6.7,67.7,5,70.2,5z"/>
	<path class="st2" d="M29.6,5L29.6,5c2.6,0,4.6,1.6,4.6,3.6v12.9c0,2.1-2.1,3.6-4.6,3.6l0,0c-2.6,0-4.6-1.6-4.6-3.6V8.6
		C25,6.7,27,5,29.6,5z"/>
</g>
<line class="st1" x1="13.7" y1="51.2" x2="71.1" y2="51.2"/>
<line class="st1" x1="13.7" y1="66.4" x2="67.7" y2="66.4"/>
<line class="st1" x1="13.7" y1="81.7" x2="73.4" y2="81.7"/>
<line class="st1" x1="13.7" y1="97" x2="67.7" y2="97"/>
<circle class="st2" cx="98" cy="64.2" r="20"/>
<g>
	<path class="st3" d="M94.4,74.1c-0.7,0-1.5-0.3-2-0.8l-6.8-6.8c-1.1-1.1-1.1-2.9,0-4s2.9-1.1,4,0l4.7,4.7l12-12
		c1.1-1.1,2.9-1.1,4,0s1.1,2.9,0,4l-14,14C95.9,73.8,95.2,74.1,94.4,74.1z"/>
</g>
</svg>
