<?xml version="1.0" encoding="utf-8"?>
<!-- Generator: Adobe Illustrator 27.0.0, SVG Export Plug-In . SVG Version: 6.00 Build 0)  -->
<svg version="1.1" id="Layer_1" xmlns="http://www.w3.org/2000/svg" xmlns:xlink="http://www.w3.org/1999/xlink" x="0px" y="0px"
	 viewBox="0 0 158.2 158.8" style="enable-background:new 0 0 158.2 158.8;" xml:space="preserve">
<style type="text/css">
	.st0{fill:#FFFFFF;stroke:#009CEA;stroke-width:4;stroke-linecap:round;stroke-linejoin:round;stroke-miterlimit:10;}
	.st1{fill:#662D91;}
	.st2{fill:none;stroke:#009CEA;stroke-width:4;stroke-linecap:round;stroke-linejoin:round;stroke-miterlimit:10;}
</style>
<circle class="st0" cx="79.1" cy="79.4" r="49.1"/>
<path class="st0" d="M149,99.5l-5.5-3.4c1.4-5.3,2.1-11,2.1-16.7c0-5.8-0.7-11.4-2.1-16.7l5.5-3.4c2.9-1.8,3.8-5.6,2-8.5l-13.6-22.3
	c-1.8-2.9-5.6-3.8-8.5-2l-5.6,3.4c-7.1-6.4-15.6-11.2-25-14V9.3c0-3.4-2.8-6.2-6.2-6.2H66c-3.4,0-6.2,2.8-6.2,6.2v6.5
	c-9.4,2.8-17.9,7.7-25,14l-5.6-3.4c-2.9-1.8-6.7-0.9-8.5,2L7.2,50.8c-1.8,2.9-0.9,6.7,2,8.5l5.5,3.4c-1.4,5.3-2.1,11-2.1,16.7
	c0,5.8,0.7,11.4,2.1,16.7l-5.5,3.4c-2.9,1.8-3.8,5.6-2,8.5l13.6,22.3c1.8,2.9,5.6,3.8,8.5,2l5.6-3.4c7.1,6.4,15.6,11.2,25,14v6.5
	c0,3.4,2.8,6.2,6.2,6.2h26.2c3.4,0,6.2-2.8,6.2-6.2V143c9.4-2.8,17.9-7.7,25-14l5.6,3.4c2.9,1.8,6.7,0.9,8.5-2L151,108
	C152.8,105.1,151.9,101.3,149,99.5z M79.1,122.4c-23.8,0-43-19.3-43-43c0-23.8,19.3-43,43-43c23.8,0,43,19.3,43,43
	C122.2,103.2,102.9,122.4,79.1,122.4z"/>
<g>
	<path class="st1" d="M55.5,66.2l-7.1,24.7H52l1.6-6h8.8l1.6,6h3.7l-7.1-24.7H55.5z M54.5,81.5l3.3-12.4h0.3l3.3,12.4H54.5z"/>
	<path class="st1" d="M85.5,68.2c-1.6-1.4-3.9-2.1-7-2.1h-3.7h-0.3h-3.3v24.7h3.6v-7.7h3.7c3.1,0,5.4-0.8,7-2.3s2.4-3.7,2.4-6.6
		C87.9,71.6,87.1,69.6,85.5,68.2z M82.8,78.5c-1,0.9-2.4,1.4-4.3,1.4h-3.7V69.5h3.7c1.9,0,3.3,0.4,4.3,1.2c1,0.8,1.5,2,1.5,3.6
		C84.3,76.1,83.8,77.5,82.8,78.5z"/>
	<polygon class="st1" points="107.3,69.5 107.3,66.2 101.5,66.2 97.9,66.2 92.2,66.2 92.2,69.5 97.9,69.5 97.9,87.5 92.2,87.5 
		92.2,90.9 97.9,90.9 101.5,90.9 107.3,90.9 107.3,87.5 101.5,87.5 101.5,69.5 	"/>
</g>
<g>
	<path class="st2" d="M42.6,120c-1.3-1.2-2.6-2.4-3.8-3.7"/>
	<path class="st2" d="M79.1,134.1c-12,0-23.2-3.9-32.2-10.5"/>
	<path class="st2" d="M117.7,40.6c10,9.9,16.1,23.6,16.1,38.8"/>
	<path class="st2" d="M107.8,32.9c1.9,1.2,3.8,2.5,5.6,4"/>
</g>
</svg>
