<?xml version="1.0" encoding="utf-8"?>
<!-- Generator: Adobe Illustrator 21.0.0, SVG Export Plug-In . SVG Version: 6.00 Build 0)  -->
<svg version="1.1" id="Camada_1" xmlns="http://www.w3.org/2000/svg" xmlns:xlink="http://www.w3.org/1999/xlink" x="0px" y="0px"
	 viewBox="0 0 58.9 104.3" enable-background="new 0 0 58.9 104.3" xml:space="preserve">
<path fill="#FFFFFF" stroke="#009CEA" stroke-width="3" stroke-linecap="round" stroke-linejoin="round" stroke-miterlimit="10" d="
	M51.6,1.5H6.9c-3.1,0-5.4,2.6-5.4,5.7v5.6v78.7v5.6c0,3.1,2.5,5.5,5.7,5.5h44.6c3.1,0,5.6-2.5,5.6-5.7v-5.6V12.8V7.1
	C57.4,4,54.7,1.5,51.6,1.5z"/>
<path fill="#C7F3FF" d="M29.8,2.4H7.1c-3.1,0-4.8,2-4.7,5.1v6.1v77.3V97c0,3.1,1.9,4.9,5,4.8h22.5V2.4z"/>
<path fill="#26A6FE" d="M31.2,7.5c0,1-0.8,1.9-1.9,1.9c-1,0-1.9-0.8-1.9-1.9c0-1,0.8-1.9,1.9-1.9C30.4,5.6,31.2,6.4,31.2,7.5
	L31.2,7.5z M31.2,7.5"/>
<path fill="none" stroke="#009CEA" stroke-width="3" stroke-linecap="round" stroke-linejoin="round" stroke-miterlimit="10" d="
	M57.4,12.6V7.1c0-3.1-2.7-5.6-5.8-5.6H6.9c-3.1,0-5.4,2.6-5.4,5.7v5.3H57.4z"/>
<path fill="none" stroke="#009CEA" stroke-width="3" stroke-linecap="round" stroke-linejoin="round" stroke-miterlimit="10" d="
	M1.5,91.7v5.5c0,3.1,2.7,5.6,5.8,5.6H52c3.1,0,5.4-2.6,5.4-5.7v-5.3H1.5z"/>
<path fill="#26A6FE" d="M26.9,98.7h5.6c0.8,0,1.5-0.7,1.5-1.5c0-0.8-0.7-1.5-1.5-1.5h-5.6c-0.8,0-1.5,0.7-1.5,1.5
	C25.4,98,26.1,98.7,26.9,98.7L26.9,98.7z M26.9,98.7"/>
</svg>
