<?xml version="1.0" encoding="utf-8"?>
<!-- Generator: Adobe Illustrator 27.0.0, SVG Export Plug-In . SVG Version: 6.00 Build 0)  -->
<svg version="1.1" id="Layer_1" xmlns="http://www.w3.org/2000/svg" xmlns:xlink="http://www.w3.org/1999/xlink" x="0px" y="0px"
	 viewBox="0 0 120.3 120.3" style="enable-background:new 0 0 120.3 120.3;" xml:space="preserve">
<style type="text/css">
	.st0{fill:#FFFFFF;stroke:#009CEA;stroke-width:3;stroke-linecap:round;stroke-linejoin:round;stroke-miterlimit:10;}
	.st1{fill:none;stroke:#009CEA;stroke-width:3;stroke-linecap:round;stroke-linejoin:round;stroke-miterlimit:10;}
	.st2{fill:#FFFFFF;stroke:#662D91;stroke-width:3;stroke-linecap:round;stroke-linejoin:round;stroke-miterlimit:10;}
</style>
<polygon class="st0" points="78.2,31.4 78.2,23 2.2,23 2.2,56.1 78.2,56.1 78.2,45.2 86.9,36.4 "/>
<g>
	<line class="st1" x1="66.5" y1="33.7" x2="29.6" y2="33.7"/>
	<line class="st1" x1="66.5" y1="44" x2="13.3" y2="44"/>
</g>
<polygon class="st0" points="42.1,72.6 42.1,64.2 118,64.2 118,97.3 42.1,97.3 42.1,86.4 33.3,77.7 "/>
<g>
	<line class="st1" x1="53.7" y1="75" x2="90.7" y2="75"/>
	<line class="st1" x1="53.7" y1="85.2" x2="107" y2="85.2"/>
</g>
<path class="st2" d="M27.8,77c0,6.8-5.5,12.2-12.2,12.2C8.8,89.2,3.4,83.7,3.4,77c0-6.8,5.5-12.2,12.2-12.2
	C22.4,64.7,27.8,70.2,27.8,77L27.8,77z"/>
<path class="st2" d="M22.6,86.4V87c-2,1.4-4.4,2.2-7,2.2s-5-0.8-7-2.2v-0.7c0-3.9,3.1-7,7-7c1.9,0,3.7,0.8,5,2
	C21.8,82.7,22.6,84.5,22.6,86.4L22.6,86.4z"/>
<path class="st2" d="M20.2,74.7c0,2.5-2.1,4.6-4.6,4.6s-4.6-2-4.6-4.6s2.1-4.6,4.6-4.6S20.2,72.2,20.2,74.7L20.2,74.7z"/>
<path class="st2" d="M117.5,36.7c0,6.8-5.5,12.2-12.2,12.2c-6.8,0-12.2-5.5-12.2-12.2c0-6.8,5.5-12.2,12.2-12.2S117.5,30,117.5,36.7
	L117.5,36.7z"/>
<path class="st2" d="M112.3,46.1v0.7c-2,1.4-4.4,2.2-7,2.2s-5-0.8-7-2.2v-0.7c0-3.9,3.1-7,7-7c1.9,0,3.7,0.8,5,2
	C111.5,42.4,112.3,44.2,112.3,46.1L112.3,46.1z"/>
<path class="st2" d="M109.9,34.5c0,2.5-2.1,4.6-4.6,4.6s-4.6-2.1-4.6-4.6s2.1-4.6,4.6-4.6C107.8,29.8,109.9,31.9,109.9,34.5
	L109.9,34.5z"/>
</svg>
