<?xml version="1.0" encoding="utf-8"?>
<!-- Generator: Adobe Illustrator 27.0.0, SVG Export Plug-In . SVG Version: 6.00 Build 0)  -->
<svg version="1.1" id="Layer_1" xmlns="http://www.w3.org/2000/svg" xmlns:xlink="http://www.w3.org/1999/xlink" x="0px" y="0px"
	 viewBox="0 0 54 52.9" style="enable-background:new 0 0 54 52.9;" xml:space="preserve">
<style type="text/css">
	.st0{fill:none;}
	.st1{fill:none;stroke:#662D91;stroke-width:2;stroke-linecap:round;stroke-linejoin:round;stroke-miterlimit:10;}
	.st2{fill:#FFFFFF;stroke:#009BE9;stroke-width:2;stroke-linecap:round;stroke-linejoin:round;}
	.st3{fill:none;stroke:#009BE9;stroke-width:2;stroke-miterlimit:10;}
	.st4{fill:none;stroke:#009BE9;stroke-width:2;stroke-linecap:round;stroke-linejoin:round;}
</style>
<rect x="38.6" y="-17.1" class="st0" width="87.2" height="84.7"/>
<rect x="38.6" y="-17.1" class="st0" width="87.2" height="84.7"/>
<rect x="38.6" y="-17.1" class="st0" width="87.2" height="84.7"/>
<rect x="38.6" y="-17.1" class="st0" width="87.2" height="84.7"/>
<rect x="38.6" y="-17.1" class="st0" width="87.2" height="84.7"/>
<rect x="38.6" y="-17.1" class="st0" width="87.2" height="84.7"/>
<rect x="38.6" y="-17.1" class="st0" width="87.2" height="84.7"/>
<path class="st1" d="M46,21.8h4.7c1.1,0,1.9,0.9,1.9,1.9V33c0,1.1-0.9,1.9-1.9,1.9H46V21.8z"/>
<path class="st1" d="M3.2,35c-1.1,0-1.9-0.9-1.9-1.9v-9.3c0-1.1,0.9-1.9,1.9-1.9H8V35H3.2z"/>
<path class="st2" d="M42.8,14.2H11.3c-1.9,0-3.4,1.5-3.4,3.4v21.2c0,1.9,1.5,3.4,3.4,3.4h10.6l9.3,9.3v-9.3h11.6
	c1.9,0,3.4-1.5,3.4-3.4V17.6C46.2,15.8,44.6,14.2,42.8,14.2z"/>
<path class="st3" d="M27,8.7v4.5"/>
<path class="st1" d="M27,9.6c2.3,0,4.1-1.8,4.1-4.1S29.3,1.3,27,1.3s-4.1,1.8-4.1,4.1S24.8,9.6,27,9.6z"/>
<path class="st4" d="M21.2,33c0,0,4.8,3.4,11.6,0"/>
<path class="st4" d="M30.4,24.5c0-1.6,1.3-2.9,2.9-2.9c1.6,0,2.9,1.3,2.9,2.9"/>
<path class="st4" d="M17.5,24.5c0-1.6,1.3-2.9,2.9-2.9s2.9,1.3,2.9,2.9"/>
</svg>
