<?xml version="1.0" encoding="utf-8"?>
<!-- Generator: Adobe Illustrator 27.0.0, SVG Export Plug-In . SVG Version: 6.00 Build 0)  -->
<svg version="1.1" id="Layer_1" xmlns="http://www.w3.org/2000/svg" xmlns:xlink="http://www.w3.org/1999/xlink" x="0px" y="0px"
	 viewBox="0 0 112 123" style="enable-background:new 0 0 112 123;" xml:space="preserve">
<style type="text/css">
	.st0{fill:#FFFFFF;stroke:#662D91;stroke-width:4.0001;stroke-linecap:round;stroke-linejoin:round;stroke-miterlimit:10.0003;}
	.st1{fill:#FFFFFF;stroke:#009CEA;stroke-width:4;stroke-linecap:round;stroke-linejoin:round;stroke-miterlimit:10;}
	.st2{fill:#FFFFFF;stroke:#662D91;stroke-width:4;stroke-linecap:round;stroke-linejoin:round;stroke-miterlimit:10;}
</style>
<ellipse class="st0" cx="43.5" cy="82.6" rx="15.3" ry="15.3"/>
<path class="st1" d="M44.8,119.6L44.8,119.6c-3.9,1.5-8.3-0.4-9.8-4.3l-9.3-24c-1.5-3.9,0.4-8.3,4.3-9.8l0,0
	c3.9-1.5,8.3,0.4,9.8,4.3l9.3,23.9C50.7,113.6,48.8,118.1,44.8,119.6z"/>
<polygon class="st1" points="36.2,50.3 67.9,15.9 92.6,79.5 46.1,75.5 "/>
<path class="st2" d="M44.9,82.5l-25.3,9.8c-1.9,0.7-3.9-0.2-4.7-2L3.6,61c-0.7-1.9,0.2-3.9,2-4.7l25.3-9.8c1.9-0.7,3.9,0.2,4.7,2
	L47,77.9C47.7,79.8,46.8,81.8,44.9,82.5z"/>
<path class="st1" d="M29.8,64.7l-11,4.3c-1.5,0.6-3.3-0.2-3.9-1.7l0,0c-0.6-1.5,0.2-3.3,1.7-3.9l11-4.3c1.5-0.6,3.3,0.2,3.9,1.7l0,0
	C32.1,62.3,31.3,64.1,29.8,64.7z"/>
<path class="st1" d="M34.5,76.9l-11,4.3c-1.5,0.6-3.3-0.2-3.9-1.7l0,0c-0.6-1.5,0.2-3.3,1.7-3.9l11-4.3c1.5-0.6,3.3,0.2,3.9,1.7l0,0
	C36.8,74.6,36,76.3,34.5,76.9z"/>
<path class="st2" d="M107,83.4l-7.9,3.1c-1.9,0.7-4-0.2-4.8-2.1L66,11.7c-0.7-1.9,0.2-4,2.1-4.8L76,3.8c1.9-0.7,4,0.2,4.8,2.1
	l28.3,72.7C109.7,80.6,108.8,82.7,107,83.4z"/>
</svg>
