<?xml version="1.0" encoding="utf-8"?>
<!-- Generator: Adobe Illustrator 27.0.0, SVG Export Plug-In . SVG Version: 6.00 Build 0)  -->
<svg version="1.1" id="Layer_1" xmlns="http://www.w3.org/2000/svg" xmlns:xlink="http://www.w3.org/1999/xlink" x="0px" y="0px"
	 viewBox="0 0 120.3 120.3" style="enable-background:new 0 0 120.3 120.3;" xml:space="preserve">
<style type="text/css">
	.st0{fill:#FFFFFF;stroke:#009CEA;stroke-width:3;stroke-linecap:round;stroke-linejoin:round;stroke-miterlimit:10;}
	.st1{fill:none;stroke:#662D91;stroke-width:3;stroke-linecap:round;stroke-linejoin:round;stroke-miterlimit:10;}
</style>
<path class="st0" d="M83.1,112.6v-9.8h-46v9.8C37.1,112.6,82.2,112.6,83.1,112.6z"/>
<path class="st0" d="M69.4,102.8V93H50.8v9.8C50.8,102.8,69.1,102.8,69.4,102.8z"/>
<path class="st0" d="M110.7,93.5H9.5c-4.2,0-7.6-3.4-7.6-7.6V15.3c0-4.2,3.4-7.6,7.6-7.6h101.2c4.2,0,7.6,3.4,7.6,7.6v70.5
	C118.3,90,114.9,93.5,110.7,93.5z"/>
<path class="st1" d="M13.5,31.4h92.7c0.7,0,1.3-0.6,1.3-1.3V19.5c0-0.7-0.6-1.3-1.3-1.3H13.5c-0.7,0-1.3,0.6-1.3,1.3V30
	C12.2,30.8,12.8,31.4,13.5,31.4z"/>
<path class="st1" d="M13.5,57.3h40c0.7,0,1.3-0.6,1.3-1.3V40.2c0-0.7-0.6-1.3-1.3-1.3h-40c-0.7,0-1.3,0.6-1.3,1.3V56
	C12.2,56.7,12.8,57.3,13.5,57.3z"/>
<path class="st1" d="M65.7,82.3h40c0.7,0,1.3-0.6,1.3-1.3V40c0-0.7-0.6-1.3-1.3-1.3h-40c-0.7,0-1.3,0.6-1.3,1.3v41
	C64.4,81.7,65,82.3,65.7,82.3z"/>
<path class="st1" d="M13.5,82.8h40c0.7,0,1.3-0.6,1.3-1.3V65.7c0-0.7-0.6-1.3-1.3-1.3h-40c-0.7,0-1.3,0.6-1.3,1.3v15.8
	C12.2,82.2,12.8,82.8,13.5,82.8z"/>
</svg>
