<?xml version="1.0" encoding="utf-8"?>
<!-- Generator: Adobe Illustrator 21.0.0, SVG Export Plug-In . SVG Version: 6.00 Build 0)  -->
<svg version="1.1" id="Camada_1" xmlns="http://www.w3.org/2000/svg" xmlns:xlink="http://www.w3.org/1999/xlink" x="0px" y="0px"
	 viewBox="0 0 91.8 104" enable-background="new 0 0 91.8 104" xml:space="preserve">
<path fill="#C7F3FF" stroke="#009CEA" stroke-width="3" stroke-linecap="round" stroke-linejoin="round" stroke-miterlimit="10" d="
	M90.3,102.5v-6.7H1.5v6.7C1.5,102.5,88.4,102.5,90.3,102.5z"/>
<path fill="#FFFFFF" stroke="#009CEA" stroke-width="3" stroke-linecap="round" stroke-linejoin="round" stroke-miterlimit="10" d="
	M80.6,37.2v58.6H11.2V37.2C11.2,37.2,79.1,37.2,80.6,37.2z"/>
<path fill="#FFFFFF" stroke="#009CEA" stroke-width="3" stroke-linecap="round" stroke-linejoin="round" stroke-miterlimit="10" d="
	M73.8,18.2v77.6H18V18.2C18,18.2,72.6,18.2,73.8,18.2z"/>
<path fill="#C7F3FF" stroke="#009CEA" stroke-width="3" stroke-linecap="round" stroke-linejoin="round" stroke-miterlimit="10" d="
	M64,18.2v-8H27.8v8C27.8,18.2,63.3,18.2,64,18.2z"/>
<path fill="#C7F3FF" stroke="#009CEA" stroke-width="3" stroke-linecap="round" stroke-linejoin="round" stroke-miterlimit="10" d="
	M54.3,33.5v-6.7H18v6.7C18,33.5,53.5,33.5,54.3,33.5z"/>
<path fill="#C7F3FF" stroke="#009CEA" stroke-width="3" stroke-linecap="round" stroke-linejoin="round" stroke-miterlimit="10" d="
	M59.9,33.5v-6.7h7.2v6.7C67.1,33.5,60,33.5,59.9,33.5z"/>
<path fill="#C7F3FF" stroke="#009CEA" stroke-width="3" stroke-linecap="round" stroke-linejoin="round" stroke-miterlimit="10" d="
	M54.3,47.7V41H18v6.7C18,47.7,53.5,47.7,54.3,47.7z"/>
<path fill="#C7F3FF" stroke="#009CEA" stroke-width="3" stroke-linecap="round" stroke-linejoin="round" stroke-miterlimit="10" d="
	M59.9,47.7V41h7.2v6.7C67.1,47.7,60,47.7,59.9,47.7z"/>
<path fill="#C7F3FF" stroke="#009CEA" stroke-width="3" stroke-linecap="round" stroke-linejoin="round" stroke-miterlimit="10" d="
	M54.3,62.1v-6.7H18v6.7C18,62.1,53.5,62.1,54.3,62.1z"/>
<path fill="#C7F3FF" stroke="#009CEA" stroke-width="3" stroke-linecap="round" stroke-linejoin="round" stroke-miterlimit="10" d="
	M59.9,62.1v-6.7h7.2v6.7C67.1,62.1,60,62.1,59.9,62.1z"/>
<path fill="#C7F3FF" stroke="#009CEA" stroke-width="3" stroke-linecap="round" stroke-linejoin="round" stroke-miterlimit="10" d="
	M54.3,75.4v-6.7H18v6.7C18,75.4,53.5,75.4,54.3,75.4z"/>
<path fill="#C7F3FF" stroke="#009CEA" stroke-width="3" stroke-linecap="round" stroke-linejoin="round" stroke-miterlimit="10" d="
	M59.9,75.4v-6.7h7.2v6.7C67.1,75.4,60,75.4,59.9,75.4z"/>
<path fill="#C7F3FF" stroke="#009CEA" stroke-width="3" stroke-linecap="round" stroke-linejoin="round" stroke-miterlimit="10" d="
	M54.3,88.8v-6.7H18v6.7C18,88.8,53.5,88.8,54.3,88.8z"/>
<path fill="#C7F3FF" stroke="#009CEA" stroke-width="3" stroke-linecap="round" stroke-linejoin="round" stroke-miterlimit="10" d="
	M59.9,88.8v-6.7h7.2v6.7C67.1,88.8,60,88.8,59.9,88.8z"/>
<path fill="#FFFFFF" stroke="#009CEA" stroke-width="3" stroke-linecap="round" stroke-linejoin="round" stroke-miterlimit="10" d="
	M59,2.3v7.8H32.9V2.3C32.9,2.3,58.4,2.3,59,2.3z"/>
</svg>
