<?xml version="1.0" encoding="utf-8"?>
<!-- Generator: Adobe Illustrator 21.0.0, SVG Export Plug-In . SVG Version: 6.00 Build 0)  -->
<svg version="1.1" id="Camada_1" xmlns="http://www.w3.org/2000/svg" xmlns:xlink="http://www.w3.org/1999/xlink" x="0px" y="0px"
	 viewBox="0 0 134.5 98.8" enable-background="new 0 0 134.5 98.8" xml:space="preserve">
<path fill="#FFFFFF" stroke="#009CEA" stroke-width="3" stroke-linecap="round" stroke-linejoin="round" stroke-miterlimit="10" d="
	M120.2,91.4H14.3c-4.4,0-8-3.6-8-8V9.5c0-4.4,3.6-8,8-8h105.9c4.4,0,8,3.6,8,8v73.9C128.2,87.8,124.6,91.4,120.2,91.4z"/>
<path fill="#C7F3FF" stroke="#009CEA" stroke-width="3" stroke-linecap="round" stroke-linejoin="round" stroke-miterlimit="10" d="
	M133,92.5v-6.4H1.5l0,6.4c0,2.6,2.1,4.7,4.7,4.7h122.1C130.9,97.3,133,95.1,133,92.5z"/>
<path fill="#C7F3FF" d="M67.3,7.3H20.8c-6.3,0-9.7,1.4-9.7,3.7v4.4v56v4.4c0,2.2,3.9,3.5,10.2,3.5h46V7.3z"/>
<path fill="none" stroke="#009CEA" stroke-width="3" stroke-linecap="round" stroke-linejoin="round" stroke-miterlimit="10" d="
	M118.2,80.3H16.3c-2.6,0-4.7-2.1-4.7-4.7V11.4c0-2.6,2.1-4.7,4.7-4.7h101.8c2.6,0,4.7,2.1,4.7,4.7v64.1
	C122.9,78.1,120.8,80.3,118.2,80.3z"/>
</svg>
