<svg width="28" height="27" viewBox="0 0 28 27" fill="none" xmlns="http://www.w3.org/2000/svg">
<path d="M22.6189 0H5.1774C2.318 0 0 2.2516 0 5.02908V21.9709C0 24.7484 2.318 27 5.1774 27H22.6189C25.4783 27 27.7963 24.7484 27.7963 21.9709V5.02908C27.7963 2.2516 25.4783 0 22.6189 0Z" fill="url(#paint0_linear_14_568)"/>
<path d="M16.0912 12.7676L13.0811 9.70173C12.6282 9.23948 11.8656 9.24783 11.4241 9.72122L4.799 16.7998C4.56392 17.0532 4.87067 17.4319 5.18028 17.2676L11.341 13.9901C11.47 13.9233 11.6277 13.9483 11.7251 14.0541L14.6664 17.2955C15.0735 17.7438 15.7902 17.7549 16.2145 17.3205L23.0002 10.3199C23.2381 10.0749 22.9457 9.69059 22.6361 9.84097L16.461 12.8289C16.3378 12.8874 16.1916 12.8623 16.097 12.7676H16.0912Z" fill="white"/>
<defs>
<linearGradient id="paint0_linear_14_568" x1="1.51652" y1="25.5269" x2="25.5602" y2="0.774157" gradientUnits="userSpaceOnUse">
<stop stop-color="#0094FF"/>
<stop offset="0.51" stop-color="#9E33ED"/>
<stop offset="1" stop-color="#FD5C6A"/>
</linearGradient>
</defs>
</svg>
