<svg xmlns="http://www.w3.org/2000/svg" width="88.276" height="173" viewBox="0 0 88.276 173">
  <g id="Grupo_631" data-name="Grupo 631" transform="translate(-2063.292 -1145.418)">
    <path id="Caminho_812" data-name="Caminho 812" d="M2113.683,1227.138c7.128-1.905,16.013-8.2,16.013-21.287V1178.12s-.293-11.131-10.741-11.131v-10.153s19.626-.1,19.626,20.8v29.685s.782,21.7-24.9,29.195Z" transform="translate(8.396 1.703)" fill="#fff" stroke="#009cea" stroke-linecap="round" stroke-linejoin="round" stroke-width="3"/>
    <rect id="Retângulo_523" data-name="Retângulo 523" width="24.704" height="21.189" rx="2.958" transform="translate(2097.18 1223.763)" fill="#c7f3ff" stroke="#009cea" stroke-linecap="round" stroke-linejoin="round" stroke-width="3"/>
    <rect id="Retângulo_524" data-name="Retângulo 524" width="8.202" height="32.613" rx="3.5" transform="translate(2117.685 1146.918)" fill="#c7f3ff" stroke="#009cea" stroke-linecap="round" stroke-linejoin="round" stroke-width="3"/>
    <path id="Caminho_813" data-name="Caminho 813" d="M2095.81,1227.138c-7.127-1.905-16.014-8.2-16.014-21.287V1178.12s.292-11.131,10.741-11.131v-10.153s-19.627-.1-19.627,20.8v29.685s-.781,21.7,24.9,29.195Z" transform="translate(1.051 1.703)" fill="#fff" stroke="#009cea" stroke-linecap="round" stroke-linejoin="round" stroke-width="3"/>
    <rect id="Retângulo_525" data-name="Retângulo 525" width="8.202" height="32.613" rx="3.5" transform="translate(2101.254 1179.531) rotate(180)" fill="#c7f3ff" stroke="#009cea" stroke-linecap="round" stroke-linejoin="round" stroke-width="3"/>
    <path id="Caminho_814" data-name="Caminho 814" d="M2104.152,1231.625v11.131c0,2.344.073,10.766,10.765,10.766H2129.2s15.343.146,15.343,15.342c0,14.318-14.61,14.61-14.61,14.61h-32.955" transform="translate(5.527 14.547)" fill="none" stroke="#009cea" stroke-linecap="round" stroke-linejoin="round" stroke-width="3"/>
    <circle id="Elipse_105" data-name="Elipse 105" cx="19.334" cy="19.334" r="19.334" transform="translate(2064.792 1278.251)" fill="#fff" stroke="#009cea" stroke-linecap="round" stroke-linejoin="round" stroke-width="3"/>
    <circle id="Elipse_106" data-name="Elipse 106" cx="8.642" cy="8.642" r="8.642" transform="translate(2075.484 1288.943)" fill="#c7f3ff" stroke="#009cea" stroke-linecap="round" stroke-linejoin="round" stroke-width="3"/>
  </g>
</svg>
