<?xml version="1.0" encoding="utf-8"?>
<!-- Generator: Adobe Illustrator 21.0.0, SVG Export Plug-In . SVG Version: 6.00 Build 0)  -->
<svg version="1.1" id="Camada_1" xmlns="http://www.w3.org/2000/svg" xmlns:xlink="http://www.w3.org/1999/xlink" x="0px" y="0px"
	 viewBox="0 0 21.7 88" enable-background="new 0 0 21.7 88" xml:space="preserve">
<path fill="#00BC59" d="M19.9,28.9c0,0.5-0.2,0.7-0.7,0.5c-5.7-1.7-10.4-4.8-13.7-9.9c-0.2-0.3-1.8-2.8-2.7-5.7
	c-0.9-2.6-1.4-5.2-1.6-8C1,4.5,1,3,1.1,1.5c0-0.6,0.2-0.7,0.8-0.6c3.6,0.7,6.7,2.4,9.4,4.9c2.1,2,3.7,4.3,5,6.9c0,0.1,0.8,1.7,0.9,2
	C18,17.1,19.9,23.1,19.9,28.9z"/>
<g>
	<path fill="#20242F" d="M20.7,70.4c0-0.1,0-0.2,0-0.3c0-11,0-22,0-33.1c0-0.1,0-0.3,0-0.4c0-0.3-0.1-0.6-0.2-0.9
		c-0.2-0.5-0.5-0.9-1-1c-0.2-0.2-0.5-0.2-0.8-0.2c-5.1,0-10.1,0-15.2,0l0,0l0,0c-1.2,0-2.2,0.7-2.4,1.8c-0.1,0.2-0.1,0.4-0.1,0.6
		c0,1.2,0,2.3,0,3.5c0,0.5-0.1,1,0.1,1.5l0,0c-0.1,0.2,0,0.4,0.1,0.6l0,0c0.1,0.5,0.4,0.9,0.9,1.1c0.3,0.2,0.7,0.3,1,0.3
		c1.5,0,3.1,0,4.6,0c0.8,0,1.5,0.1,2.3,0c0.6,0,0.9,0.2,0.9,0.8c0,0.2,0,0.4,0,0.6c0,6.7,0,13.5,0,20.2c0,2,0,3.9,0,5.9
		c0,0.1-0.1,0.2-0.1,0.3c-0.1,1.4-0.7,2.7-1.7,3.7c-0.8,0.9-1.9,1.6-3,2l0,0v0l0,0h0c-1,0.3-2.1,0.3-3.2,0.4c-0.3,0-0.5,0.1-0.7,0.2
		l0,0C2,78,1.9,78.2,1.7,78.4c-0.2,0-0.2,0.2-0.3,0.3l0,0l0,0v0l0,0l0,0c-0.3,0.4-0.4,0.9-0.4,1.4c0,1.6,0,3.3,0,4.9
		c0,0.3,0,0.6,0.2,0.9l0,0c0.3,0.9,0.8,1.3,2.1,1.3c4.1,0.1,7.9-1,11.2-3.6c1.8-1.4,3.2-3.1,4.2-5.2c0.1-0.1,0.2-0.3,0.2-0.4
		c0.6-1.1,1.1-2.4,1.3-3.6l0,0v0v0l0,0c0.1-0.4,0.2-0.7,0.2-1.1c0-0.1,0-0.2,0-0.3C20.6,72.1,20.7,71.3,20.7,70.4z M1.5,78.7
		C1.5,78.6,1.5,78.6,1.5,78.7C1.5,78.6,1.5,78.6,1.5,78.7C1.5,78.7,1.5,78.6,1.5,78.7L1.5,78.7L1.5,78.7L1.5,78.7z M20.5,71.6
		L20.5,71.6C20.5,71.5,20.6,71.5,20.5,71.6C20.6,71.5,20.5,71.6,20.5,71.6z"/>
</g>
</svg>
