<svg width="28" height="27" viewBox="0 0 28 27" fill="none" xmlns="http://www.w3.org/2000/svg">
<path d="M23.5122 0H4.44817C2.03683 0 0.0820618 1.89877 0.0820618 4.24103V22.759C0.0820618 25.1012 2.03683 27 4.44817 27H23.5122C25.9236 27 27.8783 25.1012 27.8783 22.759V4.24103C27.8783 1.89877 25.9236 0 23.5122 0Z" fill="url(#paint0_linear_45_4)"/>
<path d="M17.8647 22.2661H10.09C7.25762 22.2661 4.95273 20.0272 4.95273 17.276V9.72401C4.95273 6.97277 7.25762 4.73391 10.09 4.73391H17.8647C20.6971 4.73391 23.002 6.97277 23.002 9.72401V17.276C23.002 20.0272 20.6971 22.2661 17.8647 22.2661ZM10.09 6.24041C8.11192 6.24041 6.50079 7.80538 6.50079 9.7268V17.2788C6.50079 19.2002 8.11192 20.7652 10.09 20.7652H17.8647C19.8428 20.7652 21.4539 19.2002 21.4539 17.2788V9.7268C21.4539 7.80538 19.8428 6.24041 17.8647 6.24041H10.09Z" fill="white"/>
<path d="M13.9802 17.9889C11.4317 17.9889 9.35898 15.9756 9.35898 13.5C9.35898 11.0244 11.4317 9.01114 13.9802 9.01114C16.5288 9.01114 18.6015 11.0244 18.6015 13.5C18.6015 15.9756 16.5288 17.9889 13.9802 17.9889ZM13.9802 10.5149C12.286 10.5149 10.907 11.8543 10.907 13.5C10.907 15.1457 12.286 16.4851 13.9802 16.4851C15.6745 16.4851 17.0534 15.1457 17.0534 13.5C17.0534 11.8543 15.6745 10.5149 13.9802 10.5149Z" fill="white"/>
<path d="M19.9087 8.75495C19.9087 9.35087 19.4128 9.83261 18.7993 9.83261C18.1858 9.83261 17.6898 9.35087 17.6898 8.75495C17.6898 8.15903 18.1858 7.67729 18.7993 7.67729C19.4128 7.67729 19.9087 8.16182 19.9087 8.75495Z" fill="white"/>
<defs>
<linearGradient id="paint0_linear_45_4" x1="1.36064" y1="25.758" x2="25.8664" y2="0.529598" gradientUnits="userSpaceOnUse">
<stop stop-color="#5342D5"/>
<stop offset="0.35" stop-color="#B629A7"/>
<stop offset="0.67" stop-color="#F1203E"/>
<stop offset="1" stop-color="#FDBF53"/>
</linearGradient>
</defs>
</svg>
