<svg width="108" height="117" viewBox="0 0 108 117" fill="none" xmlns="http://www.w3.org/2000/svg">
<g clip-path="url(#clip0_140_119)">
<path d="M73.5689 3.24951H3.00088C2.72175 3.24951 2.49547 3.47442 2.49547 3.75186V17.7391C2.49547 18.0166 2.72175 18.2415 3.00088 18.2415H73.5689C73.848 18.2415 74.0743 18.0166 74.0743 17.7391V3.75186C74.0743 3.47442 73.848 3.24951 73.5689 3.24951Z" fill="url(#paint0_linear_140_119)"/>
<path d="M97.5127 96.1683V31.8049C97.5127 31.6055 97.3501 31.4438 97.1495 31.4438H88.9681C88.7675 31.4438 88.6049 31.6055 88.6049 31.8049V96.1683C88.6049 96.3677 88.7675 96.5293 88.9681 96.5293H97.1495C97.3501 96.5293 97.5127 96.3677 97.5127 96.1683Z" fill="url(#paint1_linear_140_119)"/>
<path d="M80.3445 50.2505V37.7546C80.3445 37.6679 80.2738 37.5977 80.1866 37.5977H71.5946C71.5074 37.5977 71.4367 37.6679 71.4367 37.7546V50.2505C71.4367 50.3372 71.5074 50.4075 71.5946 50.4075H80.1866C80.2738 50.4075 80.3445 50.3372 80.3445 50.2505Z" fill="url(#paint2_linear_140_119)"/>
<path d="M73.7268 113.766H2.36911V18.2417H73.7268V30.9103L63.3659 32.1348L63.8239 95.462L73.7268 96.8906V113.766Z" fill="white"/>
<path d="M74.0585 97.8796V110.988C74.0585 113.013 72.4001 114.661 70.3627 114.661H6.06493C4.02749 114.661 2.36911 113.013 2.36911 110.988V6.0284C2.36911 4.00331 4.02749 2.35498 6.06493 2.35498H70.3785C72.4159 2.35498 74.0743 4.00331 74.0743 6.0284V29.4347" stroke="#333333" stroke-width="3" stroke-linecap="round" stroke-linejoin="round"/>
<path d="M101.588 30.6274H67.1565C64.9234 30.6274 63.1132 32.4267 63.1132 34.6462V93.2012C63.1132 95.4207 64.9234 97.22 67.1565 97.22H101.588C103.821 97.22 105.631 95.4207 105.631 93.2012V34.6462C105.631 32.4267 103.821 30.6274 101.588 30.6274Z" stroke="#333333" stroke-width="3" stroke-linecap="round" stroke-linejoin="round"/>
<path d="M97.5917 30.6274H89.0313V97.22H97.5917V30.6274Z" stroke="#333333" stroke-width="3" stroke-linecap="round" stroke-linejoin="round"/>
<path d="M80.6762 37.1738H71.4367V51.1925H80.6762V37.1738Z" stroke="#333333" stroke-width="3" stroke-linecap="round" stroke-linejoin="round"/>
<path d="M72.8266 18.2417H11.0875" stroke="#333333" stroke-width="3" stroke-linecap="round" stroke-linejoin="round"/>
<path d="M47.1296 11.0044H29.3138" stroke="#333333" stroke-width="3" stroke-linecap="round" stroke-linejoin="round"/>
<path d="M38.0954 49.2931C38.1743 49.3873 38.2691 49.4658 38.3639 49.56C38.3165 49.5914 38.2849 49.6385 38.2375 49.6698C38.1585 49.5757 38.0638 49.4972 37.969 49.403C38.0164 49.3716 38.048 49.3245 38.0954 49.2931ZM38.1901 83.8138C38.1901 83.8138 38.3323 83.9551 38.4112 84.0179C38.3323 84.0964 38.2533 84.1749 38.1743 84.2534C38.1111 84.1906 38.0322 84.1121 37.969 84.0493C38.048 83.9708 38.1269 83.8923 38.2059 83.8138M38.1743 38.1943C36.5633 38.1943 35.2524 39.4973 35.2524 41.0985V46.4674C29.3296 47.268 23.7701 51.0513 23.7701 57.4091C23.7701 63.767 29.2665 67.8486 35.2524 68.8219V81.0823C31.9041 80.1247 29.3612 77.8955 29.298 77.8327C28.7452 77.3304 28.0345 77.0792 27.3396 77.0792C26.5499 77.0792 25.7602 77.3932 25.1916 78.0211C24.1018 79.1985 24.1808 81.0352 25.3811 82.1184C25.5864 82.3068 29.6929 85.9645 35.2682 87.032V91.2392C35.2682 92.8404 36.5791 94.1433 38.1901 94.1433C39.8011 94.1433 41.112 92.8404 41.112 91.2392V87.032C47.2559 85.8232 51.8836 80.8782 51.8836 74.9599C51.8836 69.0416 46.7347 64.7246 41.112 63.5943V52.5427C43.0231 53.045 44.792 53.9712 46.482 55.3684C47.0348 55.8236 47.6824 56.0434 48.3457 56.0434C49.1828 56.0434 50.0041 55.6823 50.5885 55.0073C51.6151 53.7828 51.4572 51.9461 50.2094 50.9257C47.4613 48.6495 44.413 47.2052 41.112 46.6244V41.1299C41.112 39.5287 39.8011 38.2257 38.1901 38.2257L38.1743 38.1943ZM35.2524 62.9036C32.4411 62.2285 29.5981 60.5331 29.5981 57.4091C29.5981 54.2852 32.6148 52.9194 35.2524 52.37V62.9193V62.9036ZM41.0804 81.0195V69.544C43.7496 70.4388 46.0082 72.4482 46.0082 74.9442C46.0082 77.6444 43.9392 80.0305 41.0804 81.0195Z" fill="#333333"/>
</g>
<defs>
<linearGradient id="paint0_linear_140_119" x1="2.49547" y1="10.7376" x2="74.0585" y2="10.7376" gradientUnits="userSpaceOnUse">
<stop stop-color="#F4210B"/>
<stop offset="0.9" stop-color="#ED6D05"/>
</linearGradient>
<linearGradient id="paint1_linear_140_119" x1="93.043" y1="31.4438" x2="93.043" y2="96.5293" gradientUnits="userSpaceOnUse">
<stop stop-color="#F4210B"/>
<stop offset="0.9" stop-color="#ED6D05"/>
</linearGradient>
<linearGradient id="paint2_linear_140_119" x1="75.8906" y1="37.5977" x2="75.8906" y2="50.4075" gradientUnits="userSpaceOnUse">
<stop stop-color="#F4210B"/>
<stop offset="0.9" stop-color="#ED6D05"/>
</linearGradient>
<clipPath id="clip0_140_119">
<rect width="108" height="117" fill="white"/>
</clipPath>
</defs>
</svg>
