<svg xmlns="http://www.w3.org/2000/svg" width="121.236" height="128.724" viewBox="0 0 121.236 128.724">
  <g id="Grupo_632" data-name="Grupo 632" transform="translate(-2179.25 -1162.5)">
    <rect id="Retângulo_526" data-name="Retângulo 526" width="107.677" height="10.95" transform="translate(2185.624 1278.774)" fill="#c7f3ff" stroke="#009cea" stroke-linecap="round" stroke-linejoin="round" stroke-width="3"/>
    <rect id="Retângulo_527" data-name="Retângulo 527" width="94.699" height="54.721" transform="translate(2192.113 1224.053)" fill="#fff" stroke="#009cea" stroke-linecap="round" stroke-linejoin="round" stroke-width="3"/>
    <path id="Caminho_815" data-name="Caminho 815" d="M2277.837,1164h-76.75c-4.06,0-7.731,3.123-8.974,7.35l-11.363,33.611h118.236l-12.175-33.611C2285.494,1167.731,2281.9,1164,2277.837,1164Z" transform="translate(0 0)" fill="#fff" stroke="#009cea" stroke-linecap="round" stroke-linejoin="round" stroke-width="3"/>
    <rect id="Retângulo_528" data-name="Retângulo 528" width="78.524" height="22.036" transform="translate(2200.2 1243.22)" fill="#c7f3ff" stroke="#009cea" stroke-linecap="round" stroke-linejoin="round" stroke-width="3"/>
    <path id="Retângulo_529" data-name="Retângulo 529" d="M0,0H23.556a0,0,0,0,1,0,0V19.45A11.778,11.778,0,0,1,11.778,31.228h0A11.778,11.778,0,0,1,0,19.45V0A0,0,0,0,1,0,0Z" transform="translate(2275.048 1204.962)" fill="#fff" stroke="#009cea" stroke-linecap="round" stroke-linejoin="round" stroke-width="3"/>
    <path id="Retângulo_530" data-name="Retângulo 530" d="M0,0H23.556a0,0,0,0,1,0,0V19.45A11.778,11.778,0,0,1,11.778,31.228h0A11.778,11.778,0,0,1,0,19.45V0A0,0,0,0,1,0,0Z" transform="translate(2251.492 1204.962)" fill="#c7f3ff" stroke="#009cea" stroke-linecap="round" stroke-linejoin="round" stroke-width="3"/>
    <path id="Retângulo_531" data-name="Retângulo 531" d="M0,0H23.556a0,0,0,0,1,0,0V19.45A11.778,11.778,0,0,1,11.778,31.228h0A11.778,11.778,0,0,1,0,19.45V0A0,0,0,0,1,0,0Z" transform="translate(2227.937 1204.962)" fill="#fff" stroke="#009cea" stroke-linecap="round" stroke-linejoin="round" stroke-width="3"/>
    <path id="Retângulo_532" data-name="Retângulo 532" d="M0,0H23.556a0,0,0,0,1,0,0V19.45A11.778,11.778,0,0,1,11.778,31.228h0A11.778,11.778,0,0,1,0,19.45V0A0,0,0,0,1,0,0Z" transform="translate(2204.381 1204.962)" fill="#c7f3ff" stroke="#009cea" stroke-linecap="round" stroke-linejoin="round" stroke-width="3"/>
    <path id="Retângulo_533" data-name="Retângulo 533" d="M0,0H23.556a0,0,0,0,1,0,0V19.45A11.778,11.778,0,0,1,11.778,31.228h0A11.778,11.778,0,0,1,0,19.45V0A0,0,0,0,1,0,0Z" transform="translate(2180.825 1204.962)" fill="#fff" stroke="#009cea" stroke-linecap="round" stroke-linejoin="round" stroke-width="3"/>
  </g>
</svg>
