<?xml version="1.0" encoding="utf-8"?>
<!-- Generator: Adobe Illustrator 21.0.0, SVG Export Plug-In . SVG Version: 6.00 Build 0)  -->
<svg version="1.1" id="Camada_1" xmlns="http://www.w3.org/2000/svg" xmlns:xlink="http://www.w3.org/1999/xlink" x="0px" y="0px"
	 viewBox="0 0 129.8 128.9" enable-background="new 0 0 129.8 128.9" xml:space="preserve">
<g>
	
		<path fill="#FFFFFF" stroke="#009CEA" stroke-width="3" stroke-linecap="round" stroke-linejoin="round" stroke-miterlimit="10" d="
		M218.5,175.2c-0.7-26.6-22.5-47.9-49.5-47.9c-26.6,0-48.3,20.8-49.4,46.9c-0.1,0.7-0.1,1.4-0.1,2.1c0,9.3,2.6,18,7.1,25.4
		l-8.9,26.3l27.4-8.7c7.1,3.9,15.3,6.1,23.9,6.1c27.3,0,49.5-21.9,49.5-49.1C218.6,176,218.5,175.6,218.5,175.2z M169.1,217.8
		c-8.4,0-16.3-2.5-22.9-6.8l-16,5.1l5.1-15.4c-5-6.8-7.9-15.2-7.9-24.2c0-1.3,0.1-2.6,0.3-4c2-20.9,19.8-37.3,41.4-37.3
		c21.9,0,39.8,16.8,41.5,38.1c0.1,1.1,0.1,2.2,0.1,3.2C210.7,199.2,192,217.8,169.1,217.8z"/>
</g>
<circle fill="#C7F3FF" stroke="#009CEA" stroke-width="3" stroke-linecap="round" stroke-linejoin="round" stroke-miterlimit="10" cx="64.9" cy="67" r="49.5"/>
<g>
	
		<rect x="3.7" y="57.4" fill="#C7F3FF" stroke="#009CEA" stroke-width="3" stroke-linecap="round" stroke-linejoin="round" stroke-miterlimit="10" width="45.5" height="4.6"/>
	
		<rect x="6.5" y="34.3" fill="#FFFFFF" stroke="#009CEA" stroke-width="3" stroke-linecap="round" stroke-linejoin="round" stroke-miterlimit="10" width="40" height="23.1"/>
	
		<path fill="#FFFFFF" stroke="#009CEA" stroke-width="3" stroke-linecap="round" stroke-linejoin="round" stroke-miterlimit="10" d="
		M42.7,8.9H10.3C8.6,8.9,7,10.2,6.5,12L1.7,26.2h50L46.6,12C46,10.4,44.4,8.9,42.7,8.9z"/>
	
		<rect x="9.9" y="42.4" fill="#C7F3FF" stroke="#009CEA" stroke-width="3" stroke-linecap="round" stroke-linejoin="round" stroke-miterlimit="10" width="33.2" height="9.3"/>
	
		<path fill="#FFFFFF" stroke="#009CEA" stroke-width="3" stroke-linecap="round" stroke-linejoin="round" stroke-miterlimit="10" d="
		M46.5,39.4L46.5,39.4c2.7,0,5-2.2,5-5v-8.2h-10v8.2C41.6,37.2,43.8,39.4,46.5,39.4z"/>
	
		<path fill="#C7F3FF" stroke="#009CEA" stroke-width="3" stroke-linecap="round" stroke-linejoin="round" stroke-miterlimit="10" d="
		M36.6,39.4L36.6,39.4c2.7,0,5-2.2,5-5v-8.2h-10v8.2C31.6,37.2,33.8,39.4,36.6,39.4z"/>
	
		<path fill="#FFFFFF" stroke="#009CEA" stroke-width="3" stroke-linecap="round" stroke-linejoin="round" stroke-miterlimit="10" d="
		M26.6,39.4L26.6,39.4c2.7,0,5-2.2,5-5v-8.2h-10v8.2C21.6,37.2,23.9,39.4,26.6,39.4z"/>
	
		<path fill="#C7F3FF" stroke="#009CEA" stroke-width="3" stroke-linecap="round" stroke-linejoin="round" stroke-miterlimit="10" d="
		M16.7,39.4L16.7,39.4c2.7,0,5-2.2,5-5v-8.2h-10v8.2C11.7,37.2,13.9,39.4,16.7,39.4z"/>
	
		<path fill="#FFFFFF" stroke="#009CEA" stroke-width="3" stroke-linecap="round" stroke-linejoin="round" stroke-miterlimit="10" d="
		M6.7,39.4L6.7,39.4c2.7,0,5-2.2,5-5v-8.2h-10v8.2C1.7,37.2,3.9,39.4,6.7,39.4z"/>
</g>
<g>
	
		<rect x="80.2" y="57.4" fill="#C7F3FF" stroke="#009CEA" stroke-width="3" stroke-linecap="round" stroke-linejoin="round" stroke-miterlimit="10" width="45.5" height="4.6"/>
	
		<rect x="83" y="34.3" fill="#FFFFFF" stroke="#009CEA" stroke-width="3" stroke-linecap="round" stroke-linejoin="round" stroke-miterlimit="10" width="40" height="23.1"/>
	
		<path fill="#FFFFFF" stroke="#009CEA" stroke-width="3" stroke-linecap="round" stroke-linejoin="round" stroke-miterlimit="10" d="
		M119.2,8.9H86.8c-1.7,0-3.3,1.3-3.8,3.1l-4.8,14.2h50L123,12C122.4,10.4,120.9,8.9,119.2,8.9z"/>
	
		<rect x="86.4" y="42.4" fill="#C7F3FF" stroke="#009CEA" stroke-width="3" stroke-linecap="round" stroke-linejoin="round" stroke-miterlimit="10" width="33.2" height="9.3"/>
	
		<path fill="#FFFFFF" stroke="#009CEA" stroke-width="3" stroke-linecap="round" stroke-linejoin="round" stroke-miterlimit="10" d="
		M123,39.4L123,39.4c2.7,0,5-2.2,5-5v-8.2h-10v8.2C118,37.2,120.3,39.4,123,39.4z"/>
	
		<path fill="#C7F3FF" stroke="#009CEA" stroke-width="3" stroke-linecap="round" stroke-linejoin="round" stroke-miterlimit="10" d="
		M113,39.4L113,39.4c2.7,0,5-2.2,5-5v-8.2h-10v8.2C108.1,37.2,110.3,39.4,113,39.4z"/>
	
		<path fill="#FFFFFF" stroke="#009CEA" stroke-width="3" stroke-linecap="round" stroke-linejoin="round" stroke-miterlimit="10" d="
		M103.1,39.4L103.1,39.4c2.7,0,5-2.2,5-5v-8.2h-10v8.2C98.1,37.2,100.3,39.4,103.1,39.4z"/>
	
		<path fill="#C7F3FF" stroke="#009CEA" stroke-width="3" stroke-linecap="round" stroke-linejoin="round" stroke-miterlimit="10" d="
		M93.1,39.4L93.1,39.4c2.7,0,5-2.2,5-5v-8.2h-10v8.2C88.1,37.2,90.4,39.4,93.1,39.4z"/>
	
		<path fill="#FFFFFF" stroke="#009CEA" stroke-width="3" stroke-linecap="round" stroke-linejoin="round" stroke-miterlimit="10" d="
		M83.2,39.4L83.2,39.4c2.7,0,5-2.2,5-5v-8.2h-10v8.2C78.2,37.2,80.4,39.4,83.2,39.4z"/>
</g>
<g>
	
		<rect x="41.1" y="121.4" fill="#C7F3FF" stroke="#009CEA" stroke-width="3" stroke-linecap="round" stroke-linejoin="round" stroke-miterlimit="10" width="45.5" height="4.6"/>
	
		<rect x="43.8" y="98.3" fill="#FFFFFF" stroke="#009CEA" stroke-width="3" stroke-linecap="round" stroke-linejoin="round" stroke-miterlimit="10" width="40" height="23.1"/>
	
		<path fill="#FFFFFF" stroke="#009CEA" stroke-width="3" stroke-linecap="round" stroke-linejoin="round" stroke-miterlimit="10" d="
		M80.1,72.9H47.7c-1.7,0-3.3,1.3-3.8,3.1l-4.8,14.2h50L84,76C83.3,74.5,81.8,72.9,80.1,72.9z"/>
	
		<rect x="47.2" y="106.4" fill="#C7F3FF" stroke="#009CEA" stroke-width="3" stroke-linecap="round" stroke-linejoin="round" stroke-miterlimit="10" width="33.2" height="9.3"/>
	
		<path fill="#FFFFFF" stroke="#009CEA" stroke-width="3" stroke-linecap="round" stroke-linejoin="round" stroke-miterlimit="10" d="
		M83.9,103.4L83.9,103.4c2.7,0,5-2.2,5-5v-8.2h-10v8.2C78.9,101.2,81.1,103.4,83.9,103.4z"/>
	
		<path fill="#C7F3FF" stroke="#009CEA" stroke-width="3" stroke-linecap="round" stroke-linejoin="round" stroke-miterlimit="10" d="
		M73.9,103.4L73.9,103.4c2.7,0,5-2.2,5-5v-8.2h-10v8.2C68.9,101.2,71.2,103.4,73.9,103.4z"/>
	
		<path fill="#FFFFFF" stroke="#009CEA" stroke-width="3" stroke-linecap="round" stroke-linejoin="round" stroke-miterlimit="10" d="
		M64,103.4L64,103.4c2.7,0,5-2.2,5-5v-8.2H59v8.2C59,101.2,61.2,103.4,64,103.4z"/>
	
		<path fill="#C7F3FF" stroke="#009CEA" stroke-width="3" stroke-linecap="round" stroke-linejoin="round" stroke-miterlimit="10" d="
		M54,103.4L54,103.4c2.7,0,5-2.2,5-5v-8.2H49v8.2C49,101.2,51.2,103.4,54,103.4z"/>
	
		<path fill="#FFFFFF" stroke="#009CEA" stroke-width="3" stroke-linecap="round" stroke-linejoin="round" stroke-miterlimit="10" d="
		M44,103.4L44,103.4c2.7,0,5-2.2,5-5v-8.2H39v8.2C39.1,101.2,41.3,103.4,44,103.4z"/>
</g>
</svg>
