<?xml version="1.0" encoding="utf-8"?>
<!-- Generator: Adobe Illustrator 21.0.0, SVG Export Plug-In . SVG Version: 6.00 Build 0)  -->
<svg version="1.1" id="Camada_1" xmlns="http://www.w3.org/2000/svg" xmlns:xlink="http://www.w3.org/1999/xlink" x="0px" y="0px"
	 viewBox="0 0 129.8 128.9" enable-background="new 0 0 129.8 128.9" xml:space="preserve">
<g>
	
		<path fill="#FFFFFF" stroke="#009CEA" stroke-width="3" stroke-linecap="round" stroke-linejoin="round" stroke-miterlimit="10" d="
		M218.5,175.2c-0.7-26.6-22.5-47.9-49.5-47.9c-26.6,0-48.3,20.8-49.4,46.9c-0.1,0.7-0.1,1.4-0.1,2.1c0,9.3,2.6,18,7.1,25.4
		l-8.9,26.3l27.4-8.7c7.1,3.9,15.3,6.1,23.9,6.1c27.3,0,49.5-21.9,49.5-49.1C218.6,176,218.5,175.6,218.5,175.2z M169.1,217.8
		c-8.4,0-16.3-2.5-22.9-6.8l-16,5.1l5.1-15.4c-5-6.8-7.9-15.2-7.9-24.2c0-1.3,0.1-2.6,0.3-4c2-20.9,19.8-37.3,41.4-37.3
		c21.9,0,39.8,16.8,41.5,38.1c0.1,1.1,0.1,2.2,0.1,3.2C210.7,199.2,192,217.8,169.1,217.8z"/>
</g>
<g>
	
		<path fill="#FFFFFF" stroke="#009CEA" stroke-width="3" stroke-linecap="round" stroke-linejoin="round" stroke-miterlimit="10" d="
		M109.6,49.8h-88c-0.2,0-0.4-0.2-0.4-0.4v-3.2c0-11.9,9.6-21.5,21.5-21.5h41.8C98.4,24.7,109.6,35.9,109.6,49.8L109.6,49.8z"/>
	
		<path fill="#C7F3FF" stroke="#009CEA" stroke-width="3" stroke-linecap="round" stroke-linejoin="round" stroke-miterlimit="10" d="
		M16.5,50.1h97.8c2.4,0,4.3,1.9,4.3,4.3V92c0,2.4-1.9,4.3-4.3,4.3H16.5c-2.4,0-4.3-1.9-4.3-4.3V54.3C12.2,52,14.1,50.1,16.5,50.1z"
		/>
	
		<path fill="#FFFFFF" stroke="#009CEA" stroke-width="3" stroke-linecap="round" stroke-linejoin="round" stroke-miterlimit="10" d="
		M46.4,84.5h38.4c1,0,1.9-0.8,1.9-1.9V63.7c0-1-0.8-1.9-1.9-1.9H46.4c-1,0-1.9,0.8-1.9,1.9v18.9C44.5,83.7,45.3,84.5,46.4,84.5z"/>
	
		<path fill="#FFFFFF" stroke="#009CEA" stroke-width="3" stroke-linecap="round" stroke-linejoin="round" stroke-miterlimit="10" d="
		M98.9,110.4h12.9c1.2,0,2.1-1,2.1-2.1V96.8c0-0.1-0.1-0.3-0.3-0.3H97c-0.1,0-0.3,0.1-0.3,0.3v11.4
		C96.7,109.4,97.7,110.4,98.9,110.4z"/>
	
		<path fill="#FFFFFF" stroke="#009CEA" stroke-width="3" stroke-linecap="round" stroke-linejoin="round" stroke-miterlimit="10" d="
		M18.8,110.4h12.9c1.2,0,2.1-1,2.1-2.1V96.8c0-0.1-0.1-0.3-0.3-0.3H16.9c-0.1,0-0.3,0.1-0.3,0.3v11.4
		C16.6,109.4,17.6,110.4,18.8,110.4z"/>
	
		<path fill="#FFFFFF" stroke="#009CEA" stroke-width="3" stroke-linecap="round" stroke-linejoin="round" stroke-miterlimit="10" d="
		M112.1,49.3h15.3c0.5,0,0.9-0.4,0.9-0.9V36.4c0-0.5-0.4-0.9-0.9-0.9h-7.2c-5,0-9,4-9,9v3.9C111.1,48.9,111.5,49.3,112.1,49.3z"/>
	
		<path fill="#FFFFFF" stroke="#009CEA" stroke-width="3" stroke-linecap="round" stroke-linejoin="round" stroke-miterlimit="10" d="
		M17.7,49.3H2.4c-0.5,0-0.9-0.4-0.9-0.9V36.4c0-0.5,0.4-0.9,0.9-0.9h7.2c5,0,9,4,9,9v3.9C18.6,48.9,18.2,49.3,17.7,49.3z"/>
	
		<circle fill="#FFFFFF" stroke="#009CEA" stroke-width="3" stroke-linecap="round" stroke-linejoin="round" stroke-miterlimit="10" cx="104.6" cy="73.2" r="8"/>
	
		<circle fill="#FFFFFF" stroke="#009CEA" stroke-width="3" stroke-linecap="round" stroke-linejoin="round" stroke-miterlimit="10" cx="26.8" cy="73.2" r="8"/>
	
		<line fill="none" stroke="#009CEA" stroke-width="3" stroke-linecap="round" stroke-linejoin="round" stroke-miterlimit="10" x1="75.5" y1="62.7" x2="75.5" y2="83.7"/>
	
		<line fill="none" stroke="#009CEA" stroke-width="3" stroke-linecap="round" stroke-linejoin="round" stroke-miterlimit="10" x1="65.6" y1="62.7" x2="65.6" y2="83.7"/>
	
		<line fill="none" stroke="#009CEA" stroke-width="3" stroke-linecap="round" stroke-linejoin="round" stroke-miterlimit="10" x1="55.4" y1="62.7" x2="55.4" y2="83.7"/>
</g>
</svg>
