<?xml version="1.0" encoding="utf-8"?>
<!-- Generator: Adobe Illustrator 21.0.0, SVG Export Plug-In . SVG Version: 6.00 Build 0)  -->
<svg version="1.1" id="Camada_1" xmlns="http://www.w3.org/2000/svg" xmlns:xlink="http://www.w3.org/1999/xlink" x="0px" y="0px"
	 viewBox="0 0 582.2 543" enable-background="new 0 0 582.2 543" xml:space="preserve">
<circle opacity="0.3" fill="none" stroke="#E5E5E5" stroke-width="3" stroke-linecap="round" stroke-linejoin="round" stroke-miterlimit="10" cx="310.2" cy="271.5" r="263.3"/>
<circle opacity="0.3" fill="none" stroke="#E5E5E5" stroke-width="3" stroke-linecap="round" stroke-linejoin="round" stroke-miterlimit="10" cx="310.2" cy="271.5" r="232.1"/>
<circle opacity="0.3" fill="none" stroke="#E5E5E5" stroke-width="3" stroke-linecap="round" stroke-linejoin="round" stroke-miterlimit="10" cx="310.2" cy="271.5" r="200.9"/>
<g>
	<path fill="#019ADE" d="M310.2,88.5v183l129.4,129.4c33.1-33.1,53.6-78.9,53.6-129.4C493.3,170.4,411.3,88.5,310.2,88.5z"/>
	<path fill="#0EA6FE" d="M310.2,88.5c-101.1,0-183,81.9-183,183h183V88.5z"/>
	<path fill="#30BAEB" d="M310.2,454.5c50.5,0,96.3-20.5,129.4-53.6L310.2,271.5h-183C127.2,372.6,209.1,454.5,310.2,454.5z"/>
</g>
<path fill="#FF0000" d="M218,235.9c0-2.1-0.7-4-1.8-5.4l-66.3-60.7c-1.3-1.6-2.9-2.2-4.4-2.2c-4.1,0-8.1,3-8.1,7.6v22.1h-17.8
	c-35,0-66.3,15-87,38.6c-7.4,8.8-25.3,34.1-25.3,56.8l10.6-16.6L218,235.9C218,235.9,218,235.9,218,235.9z"/>
<path fill="#E50000" d="M47,273.2h90.4v23.4c0,4.5,3.9,7.6,8.1,7.6c1.6,0,3.1-0.7,4.4-2.2l66.3-60.7c1.1-1.4,1.8-3.3,1.8-5.4
	c0,0-90.1,0-129,0S9.5,271.3,7.2,292.7C16,280.9,30.5,273.2,47,273.2z"/>
</svg>
