<svg width="70" height="70" viewBox="0 0 70 70" fill="none" xmlns="http://www.w3.org/2000/svg">
<path d="M0 0H70V70H0V0Z" fill="#F75708"/>
<path d="M35 40.5H57M57 40.5L50.0649 34M57 40.5L50.0649 47" stroke="white" stroke-width="4" stroke-linecap="round" stroke-linejoin="round"/>
<path d="M46 28.574C45.9792 28.3811 45.9389 28.191 45.88 28.007V27.818C45.7838 27.6021 45.6556 27.4036 45.5 27.23L33.5 14.63C33.3347 14.4667 33.1456 14.332 32.94 14.231H32.76L32.12 14H20C18.4087 14 16.8826 14.6637 15.7574 15.8452C14.6321 17.0267 14 18.6291 14 20.3V49.7C14 51.3709 14.6321 52.9733 15.7574 54.1548C16.8826 55.3363 18.4087 56 20 56H40C41.5913 56 43.1174 55.3363 44.2426 54.1548C45.3679 52.9733 46 51.3709 46 49.7V28.7C46 28.7 46 28.7 46 28.574ZM34 21.161L39.18 26.6H34V21.161ZM42 49.7C42 50.257 41.7893 50.7911 41.4142 51.1849C41.0391 51.5788 40.5304 51.8 40 51.8H20C19.4696 51.8 18.9609 51.5788 18.5858 51.1849C18.2107 50.7911 18 50.257 18 49.7V20.3C18 19.743 18.2107 19.2089 18.5858 18.8151C18.9609 18.4212 19.4696 18.2 20 18.2H30V28.7C30 29.257 30.2107 29.7911 30.5858 30.1849C30.9609 30.5787 31.4696 30.8 32 30.8H42V49.7Z" fill="white"/>
</svg>
