<?xml version="1.0" encoding="utf-8"?>
<!-- Generator: Adobe Illustrator 26.5.0, SVG Export Plug-In . SVG Version: 6.00 Build 0)  -->
<svg version="1.1" id="Camada_1" xmlns="http://www.w3.org/2000/svg" xmlns:xlink="http://www.w3.org/1999/xlink" x="0px" y="0px"
	 viewBox="0 0 129.8 128.9" enable-background="new 0 0 129.8 128.9" xml:space="preserve">
<circle fill-rule="evenodd" clip-rule="evenodd" fill="#C6F2FF" cx="67.8" cy="66.2" r="34"/>
<path fill-rule="evenodd" clip-rule="evenodd" fill="#FFFFFF" stroke="#009BE9" stroke-width="3" stroke-linecap="round" stroke-linejoin="round" stroke-miterlimit="10" d="
	M67.8,107.9c-8.5,0-16.5-2.6-23.1-6.9l-16.1,5.1l5.2-15.5c-5-6.8-8-15.4-8-24.5c0-1.4,0.1-2.6,0.3-4C28,40.9,46,24.3,67.8,24.3
	c22.1,0,40.3,17,42,38.5c0.1,1.1,0.1,2.2,0.1,3.2C109.9,89.1,91,107.9,67.8,107.9L67.8,107.9z M90.8,76.1c-1.3-0.6-7.3-3.6-8.4-4
	c-1.2-0.3-2-0.6-2.8,0.7c-0.8,1.2-3.2,3.9-3.8,4.7c-0.8,0.9-1.5,0.9-2.6,0.3c-1.3-0.6-5.2-1.9-9.9-6.1c-3.7-3.2-6.1-7.2-6.8-8.4
	c-0.7-1.3-0.1-1.9,0.5-2.6c0.6-0.5,1.3-1.4,1.9-2.1c0.2-0.2,0.3-0.3,0.4-0.5c0.3-0.5,0.5-0.9,0.8-1.5c0.4-0.9,0.3-1.5-0.1-2.1
	c-0.3-0.6-2.7-6.7-3.8-9.1c-1-2.5-2-2-2.7-2c-0.8,0-1.5-0.1-2.4-0.1c-0.9,0-2.1,0.3-3.2,1.5c-1.2,1.2-4.4,4.1-4.4,10.2
	c0,1.4,0.3,2.8,0.7,4.1c1.2,4.4,3.9,7.9,4.4,8.5c0.6,0.9,8.5,13.5,20.9,18.4c12.6,4.9,12.6,3.2,14.8,3.1c2.2-0.2,7.3-2.9,8.3-5.8
	c1-2.8,1-5.3,0.7-5.8C92.8,77.1,92,76.7,90.8,76.1L90.8,76.1z"/>
<g>
	
		<path fill="#FFFFFF" stroke="#009BE9" stroke-width="3" stroke-linecap="round" stroke-linejoin="round" stroke-miterlimit="10" d="
		M218.5,175.2c-0.7-26.6-22.5-47.9-49.5-47.9c-26.6,0-48.3,20.8-49.4,46.9c-0.1,0.7-0.1,1.4-0.1,2.1c0,9.3,2.6,18,7.1,25.4
		l-8.9,26.3l27.4-8.7c7.1,3.9,15.3,6.1,23.9,6.1c27.3,0,49.5-21.9,49.5-49.1C218.6,176,218.5,175.6,218.5,175.2z M169.1,217.8
		c-8.4,0-16.3-2.5-22.9-6.8l-16,5.1l5.1-15.4c-5-6.8-7.9-15.2-7.9-24.2c0-1.3,0.1-2.6,0.3-4c2-20.9,19.8-37.3,41.4-37.3
		c21.9,0,39.8,16.8,41.5,38.1c0.1,1.1,0.1,2.2,0.1,3.2C210.7,199.2,192,217.8,169.1,217.8z"/>
</g>
<g>
	
		<path fill="#C6F2FF" stroke="#009BE9" stroke-width="3" stroke-linecap="round" stroke-linejoin="round" stroke-miterlimit="10" d="
		M118.5,92.3H90.9c-1.7,0-3,1.4-3,3V114c0,1.7,1.4,3,3,3h9.3l8.1,8.1V117h10.2c1.7,0,3-1.4,3-3V95.3
		C121.5,93.7,120.2,92.3,118.5,92.3z"/>
	
		<path fill="#FFFFFF" stroke="#009BE9" stroke-width="3" stroke-linecap="round" stroke-linejoin="round" stroke-miterlimit="10" d="
		M125.7,110.4h-4.2V98.9h4.2c0.9,0,1.7,0.8,1.7,1.7v8.1C127.4,109.6,126.6,110.4,125.7,110.4z"/>
	
		<path fill="#FFFFFF" stroke="#009BE9" stroke-width="3" stroke-linecap="round" stroke-linejoin="round" stroke-miterlimit="10" d="
		M83.7,98.9h4.2v11.5h-4.2c-0.9,0-1.7-0.8-1.7-1.7v-8.1C82,99.7,82.7,98.9,83.7,98.9z"/>
	<g>
		
			<circle fill="#FFFFFF" stroke="#009BE9" stroke-width="3" stroke-linecap="round" stroke-linejoin="round" stroke-miterlimit="10" cx="104.7" cy="84.6" r="3.6"/>
		<line fill="#009BE9" stroke="#009BE9" stroke-width="3" stroke-miterlimit="10" x1="105" y1="87.5" x2="105" y2="91.4"/>
	</g>
	<g>
		<path fill="none" stroke="#009BE9" stroke-width="3" stroke-linecap="round" stroke-linejoin="round" stroke-miterlimit="10" d="
			M99.7,108.7c0,0,4.3,3,10.1,0"/>
		<path fill="none" stroke="#009BE9" stroke-width="3" stroke-linecap="round" stroke-linejoin="round" stroke-miterlimit="10" d="
			M107.8,101.3c0-1.4,1.1-2.5,2.5-2.5s2.5,1.1,2.5,2.5"/>
		<path fill="none" stroke="#009BE9" stroke-width="3" stroke-linecap="round" stroke-linejoin="round" stroke-miterlimit="10" d="
			M96.5,101.3c0-1.4,1.1-2.5,2.5-2.5s2.5,1.1,2.5,2.5"/>
	</g>
</g>
<g>
	
		<path fill="#C6F2FF" stroke="#009BE9" stroke-width="3" stroke-linecap="round" stroke-linejoin="round" stroke-miterlimit="10" d="
		M12.6,59.3h29.8c1.8,0,3.3,1.5,3.3,3.3v20.1c0,1.8-1.5,3.3-3.3,3.3H32.4l-8.8,8.8V86h-11c-1.8,0-3.3-1.5-3.3-3.3V62.6
		C9.3,60.8,10.8,59.3,12.6,59.3z"/>
	
		<path fill="#FFFFFF" stroke="#009BE9" stroke-width="3" stroke-linecap="round" stroke-linejoin="round" stroke-miterlimit="10" d="
		M4.8,78.9h4.5V66.4H4.8c-1,0-1.8,0.8-1.8,1.8V77C3,78.1,3.8,78.9,4.8,78.9z"/>
	
		<path fill="#FFFFFF" stroke="#009BE9" stroke-width="3" stroke-linecap="round" stroke-linejoin="round" stroke-miterlimit="10" d="
		M50.3,66.4h-4.5v12.5h4.5c1,0,1.8-0.8,1.8-1.8v-8.8C52.1,67.3,51.3,66.4,50.3,66.4z"/>
	<g>
		
			<circle fill="#FFFFFF" stroke="#009BE9" stroke-width="3" stroke-linecap="round" stroke-linejoin="round" stroke-miterlimit="10" cx="27.5" cy="51" r="3.9"/>
		<line fill="#009BE9" stroke="#009BE9" stroke-width="3" stroke-miterlimit="10" x1="27.2" y1="54.1" x2="27.2" y2="58.4"/>
	</g>
	<g>
		<path fill="none" stroke="#009BE9" stroke-width="3" stroke-linecap="round" stroke-linejoin="round" stroke-miterlimit="10" d="
			M33,77.1c0,0-4.6,3.3-10.9,0"/>
		<path fill="none" stroke="#009BE9" stroke-width="3" stroke-linecap="round" stroke-linejoin="round" stroke-miterlimit="10" d="
			M24.2,69c0-1.5-1.2-2.8-2.8-2.8c-1.5,0-2.8,1.2-2.8,2.8"/>
		<path fill="none" stroke="#009BE9" stroke-width="3" stroke-linecap="round" stroke-linejoin="round" stroke-miterlimit="10" d="
			M36.4,69c0-1.5-1.2-2.8-2.8-2.8c-1.5,0-2.8,1.2-2.8,2.8"/>
	</g>
</g>
<g>
	
		<path fill="#C6F2FF" stroke="#009BE9" stroke-width="3" stroke-linecap="round" stroke-linejoin="round" stroke-miterlimit="10" d="
		M77,20.1h38c2.3,0,4.2,1.9,4.2,4.2v25.7c0,2.3-1.9,4.2-4.2,4.2h-12.8L91,65.3V54.1H77c-2.3,0-4.2-1.9-4.2-4.2V24.3
		C72.9,22,74.7,20.1,77,20.1z"/>
	
		<path fill="#FFFFFF" stroke="#009BE9" stroke-width="3" stroke-linecap="round" stroke-linejoin="round" stroke-miterlimit="10" d="
		M67.1,45h5.7V29.2h-5.7c-1.3,0-2.4,1.1-2.4,2.4v11.2C64.8,44,65.8,45,67.1,45z"/>
	
		<path fill="#FFFFFF" stroke="#009BE9" stroke-width="3" stroke-linecap="round" stroke-linejoin="round" stroke-miterlimit="10" d="
		M125,29.2h-5.7V45h5.7c1.3,0,2.4-1.1,2.4-2.4V31.5C127.4,30.2,126.3,29.2,125,29.2z"/>
	<g>
		
			<circle fill="#FFFFFF" stroke="#009BE9" stroke-width="3" stroke-linecap="round" stroke-linejoin="round" stroke-miterlimit="10" cx="96" cy="9.5" r="5"/>
		<line fill="#009BE9" stroke="#009BE9" stroke-width="3" stroke-miterlimit="10" x1="95.7" y1="13.4" x2="95.7" y2="18.9"/>
	</g>
	<g>
		<path fill="none" stroke="#009BE9" stroke-width="3" stroke-linecap="round" stroke-linejoin="round" stroke-miterlimit="10" d="
			M102.9,42.7c0,0-5.9,4.1-13.9,0"/>
		<path fill="none" stroke="#009BE9" stroke-width="3" stroke-linecap="round" stroke-linejoin="round" stroke-miterlimit="10" d="
			M91.8,32.4c0-1.9-1.6-3.5-3.5-3.5c-1.9,0-3.5,1.6-3.5,3.5"/>
		<path fill="none" stroke="#009BE9" stroke-width="3" stroke-linecap="round" stroke-linejoin="round" stroke-miterlimit="10" d="
			M107.3,32.4c0-1.9-1.6-3.5-3.5-3.5c-1.9,0-3.5,1.6-3.5,3.5"/>
	</g>
</g>
</svg>
