<?xml version="1.0" encoding="utf-8"?>
<!-- Generator: Adobe Illustrator 27.0.0, SVG Export Plug-In . SVG Version: 6.00 Build 0)  -->
<svg version="1.1" id="Layer_1" xmlns="http://www.w3.org/2000/svg" xmlns:xlink="http://www.w3.org/1999/xlink" x="0px" y="0px"
	 viewBox="0 0 120.3 120.3" style="enable-background:new 0 0 120.3 120.3;" xml:space="preserve">
<style type="text/css">
	.st0{fill:#FFFFFF;stroke:#662D91;stroke-width:3;stroke-linecap:round;stroke-linejoin:round;stroke-miterlimit:10;}
	.st1{fill:#FFFFFF;stroke:#009CEA;stroke-width:3;stroke-linecap:round;stroke-linejoin:round;stroke-miterlimit:10;}
	.st2{fill:none;stroke:#009CEA;stroke-width:3;stroke-linecap:round;stroke-linejoin:round;stroke-miterlimit:10;}
</style>
<path class="st0" d="M36.4,93.1c0,9.3-7.6,16.9-16.9,16.9S2.6,102.4,2.6,93.1s7.6-16.9,16.9-16.9C28.9,76.2,36.4,83.8,36.4,93.1
	L36.4,93.1z"/>
<path class="st0" d="M29.2,106.1v0.9c-2.7,1.9-6.1,3-9.7,3s-6.9-1.1-9.7-3v-0.9c0-5.3,4.3-9.7,9.7-9.7c2.7,0,5.1,1.1,6.8,2.8
	C28.1,101,29.2,103.5,29.2,106.1L29.2,106.1z"/>
<path class="st0" d="M25.9,90c0,3.5-2.9,6.4-6.4,6.4s-6.4-2.9-6.4-6.4s2.9-6.4,6.4-6.4S25.9,86.5,25.9,90L25.9,90z"/>
<polygon class="st1" points="99.8,54.1 40,54.1 40,83 69.2,83 69.2,95.9 87.4,83 99.8,83 "/>
<line class="st2" x1="91.6" y1="65.6" x2="54.3" y2="65.6"/>
<line class="st2" x1="92.1" y1="72.2" x2="54.8" y2="72.2"/>
<g>
	<polygon class="st1" points="18.8,22.5 76.7,22.5 76.7,59.6 48.6,59.6 48.6,72 30.8,59.6 18.8,59.6 	"/>
	<line class="st2" x1="23.3" y1="33.7" x2="46.2" y2="33.7"/>
	<line class="st2" x1="55.2" y1="33.7" x2="72.2" y2="33.7"/>
	<line class="st2" x1="23.3" y1="41.8" x2="72.2" y2="41.8"/>
	<line class="st2" x1="23.3" y1="49.2" x2="72.2" y2="49.2"/>
</g>
<g>
	<path class="st0" d="M113.9,78.7c0,7.9-6.4,14.3-14.3,14.3s-14.3-6.4-14.3-14.3s6.4-14.3,14.3-14.3
		C107.5,64.5,113.9,70.9,113.9,78.7L113.9,78.7z"/>
	<path class="st0" d="M107.8,89.7v0.8c-2.3,1.6-5.1,2.5-8.2,2.5c-3,0-5.9-0.9-8.2-2.5v-0.8c0-4.5,3.6-8.2,8.2-8.2
		c2.3,0,4.3,0.9,5.8,2.4C106.8,85.4,107.8,87.4,107.8,89.7L107.8,89.7z"/>
	<path class="st0" d="M105,76.1c0,3-2.4,5.4-5.4,5.4s-5.4-2.4-5.4-5.4s2.4-5.4,5.4-5.4S105,73.1,105,76.1L105,76.1z"/>
</g>
<g>
	<path class="st0" d="M33,24.5c0,7.9-6.4,14.3-14.3,14.3S4.4,32.4,4.4,24.5s6.4-14.3,14.3-14.3S33,16.6,33,24.5L33,24.5z"/>
	<path class="st0" d="M26.9,35.4v0.8c-2.3,1.6-5.1,2.5-8.2,2.5c-3,0-5.9-0.9-8.2-2.5v-0.8c0-4.5,3.6-8.2,8.2-8.2
		c2.3,0,4.3,0.9,5.8,2.4C25.9,31.1,26.9,33.2,26.9,35.4L26.9,35.4z"/>
	<path class="st0" d="M24.1,21.9c0,3-2.4,5.4-5.4,5.4s-5.4-2.4-5.4-5.4s2.4-5.4,5.4-5.4S24.1,18.9,24.1,21.9L24.1,21.9z"/>
</g>
<g>
	<path class="st0" d="M117.6,29.8c0,9.9-8,17.8-17.8,17.8c-9.9,0-17.8-8-17.8-17.8S90,12,99.8,12C109.7,12,117.6,20,117.6,29.8
		L117.6,29.8z"/>
	<path class="st0" d="M110,43.5v1c-2.9,2-6.4,3.2-10.2,3.2c-3.8,0-7.3-1.2-10.2-3.2v-1c0-5.6,4.5-10.2,10.2-10.2
		c2.8,0,5.4,1.1,7.2,3C108.8,38.1,110,40.7,110,43.5L110,43.5z"/>
	<path class="st0" d="M106.5,26.6c0,3.7-3,6.7-6.7,6.7s-6.7-3-6.7-6.7s3-6.7,6.7-6.7S106.5,22.9,106.5,26.6L106.5,26.6z"/>
</g>
</svg>
