<svg width="70" height="70" viewBox="0 0 70 70" fill="none" xmlns="http://www.w3.org/2000/svg">
<path d="M0 0H70V70H0V0Z" fill="#2681D5"/>
<g clip-path="url(#clip0_133_74)">
<path d="M22 44.0144V52.0995C22 54.2539 23.6576 56 25.7029 56H48.2971C50.3424 56 52 54.2539 52 52.0995V22.4107H47.7295C45.6842 22.4107 44.0266 20.6646 44.0266 18.5101V14H25.7029C23.6576 14 22 15.7461 22 17.9005V27.7731" stroke="white" stroke-width="3" stroke-linecap="round" stroke-linejoin="round"/>
<path d="M44.7667 14H44V18.8262C44 21.1316 45.6631 23 47.7153 23H52V22.126L44.7667 14Z" stroke="white" stroke-width="3" stroke-linecap="round" stroke-linejoin="round"/>
<path d="M21.6729 44.1447H17.2264C17.0512 44.1447 16.9062 43.9954 16.9062 43.8151V28.3242C16.9062 28.1439 17.0512 27.9946 17.2264 27.9946H44.9683C45.1435 27.9946 45.2884 28.1439 45.2884 28.3242V43.8151C45.2884 43.9954 45.1435 44.1447 44.9683 44.1447H21.6729Z" stroke="white" stroke-width="3" stroke-linecap="round" stroke-linejoin="round"/>
<path d="M24.9713 33.6474V38.4794C24.9713 38.9769 24.7116 39.2816 24.2766 39.2816C23.9503 39.2816 23.7147 39.1013 23.5033 38.6846L21.999 35.7245V38.4918C21.999 38.9893 21.7271 39.2754 21.2801 39.2754C20.833 39.2754 20.5612 38.9893 20.5612 38.4918V33.6599C20.5612 33.1624 20.833 32.8577 21.2861 32.8577C21.6305 32.8577 21.8661 33.0318 22.0654 33.436L23.5275 36.3588V33.6474C23.5275 33.1499 23.7993 32.8639 24.2464 32.8639C24.6934 32.8639 24.9653 33.1499 24.9653 33.6474H24.9713Z" fill="white"/>
<path d="M25.8958 38.498V33.7655C25.8958 33.2183 26.1857 32.9198 26.7113 32.9198H28.6325C29.0977 32.9198 29.3756 33.1561 29.3756 33.5603C29.3756 33.9645 29.0977 34.2568 28.6325 34.2568H27.5994C27.4303 34.2568 27.3396 34.3563 27.3396 34.5242V35.1648C27.3396 35.3389 27.4363 35.4322 27.5994 35.4322H28.4512C28.8439 35.4322 29.0735 35.656 29.0735 36.0354C29.0735 36.4147 28.8379 36.6573 28.4512 36.6573H27.5994C27.4303 36.6573 27.3396 36.7568 27.3396 36.9247V38.4918C27.3396 38.9893 27.0678 39.2754 26.6207 39.2754C26.1737 39.2754 25.9018 38.9893 25.9018 38.4918L25.8958 38.498Z" fill="white"/>
<path d="M29.6413 38.0814C29.6413 37.7207 29.9011 37.4346 30.2394 37.4346C30.6623 37.4346 30.916 37.9197 31.351 37.9197C31.7014 37.9197 31.937 37.6834 31.937 37.3351C31.937 36.3712 29.8346 36.2779 29.8346 34.5056C29.8346 33.4857 30.5415 32.8265 31.6289 32.8265C32.4686 32.8265 33.1332 33.2432 33.1332 33.7656C33.1332 34.1076 32.8976 34.3688 32.5895 34.3688C32.2632 34.3688 32.1062 34.0827 31.7739 34.0827C31.4779 34.0827 31.2845 34.2817 31.2845 34.5864C31.2845 35.5068 33.393 35.4633 33.393 37.3724C33.393 38.554 32.6197 39.3189 31.4416 39.3189C30.5112 39.3189 29.6353 38.7219 29.6353 38.0814H29.6413Z" fill="white"/>
<path d="M34.0093 36.732C34.0093 36.3899 34.2268 36.2096 34.6134 36.2096H36.305C36.6916 36.2096 36.9091 36.3899 36.9091 36.732C36.9091 37.074 36.6916 37.2543 36.305 37.2543H34.6134C34.2268 37.2543 34.0093 37.074 34.0093 36.732Z" fill="white"/>
<path d="M37.4165 36.9993C37.4165 35.6374 38.2744 34.6921 39.5008 34.6921C40.7272 34.6921 41.6273 35.5876 41.6273 36.8625C41.6273 37.3289 41.5065 37.503 41.144 37.503H38.9268C38.8241 37.503 38.7758 37.5839 38.806 37.7082C38.8664 37.9508 39.2712 38.1249 39.7243 38.1249C40.1774 38.1249 40.3888 37.9197 40.7211 37.9197C41.0534 37.9197 41.2709 38.1373 41.2709 38.4793C41.2709 38.6783 41.1923 38.8463 41.0232 38.9831C40.7694 39.1883 40.3284 39.3064 39.7968 39.3064C38.3529 39.3064 37.4044 38.3985 37.4044 36.9993H37.4165ZM40.2982 36.4707C40.2559 36.0354 39.9539 35.7431 39.5612 35.7431C39.1685 35.7431 38.8362 36.0416 38.7879 36.4707C38.7818 36.564 38.7879 36.6573 38.957 36.6573H40.1291C40.2982 36.6573 40.3043 36.5578 40.2982 36.4707Z" fill="white"/>
</g>
<defs>
<clipPath id="clip0_133_74">
<rect width="38" height="46" fill="white" transform="translate(16 12)"/>
</clipPath>
</defs>
</svg>
