<svg width="70" height="70" viewBox="0 0 70 70" fill="none" xmlns="http://www.w3.org/2000/svg">
<path d="M0 0H70V70H0V0Z" fill="#D59926"/>
<path d="M53.95 30.3803C54.2192 30.3804 54.4858 30.3275 54.7346 30.2246C54.9833 30.1217 55.2094 29.9709 55.3997 29.7807C55.5901 29.5906 55.7411 29.3648 55.8441 29.1164C55.9471 28.8679 56.0001 28.6016 56 28.3327V22.1897C56.0002 21.76 55.8649 21.3412 55.6134 20.9927C55.3618 20.6442 55.0068 20.3836 54.5986 20.248L36.1486 14.105C35.7276 13.965 35.2724 13.965 34.8514 14.105L16.4014 20.248C15.9932 20.3836 15.6382 20.6442 15.3866 20.9927C15.1351 21.3412 14.9998 21.76 15 22.1897V28.3327C14.9999 28.6016 15.0529 28.8679 15.1559 29.1164C15.2589 29.3648 15.4099 29.5906 15.6003 29.7807C15.7906 29.9709 16.0167 30.1217 16.2654 30.2246C16.5142 30.3275 16.7808 30.3804 17.05 30.3803H19.1V45.0913C17.9043 45.512 16.8683 46.2921 16.1342 47.3244C15.4001 48.3567 15.0039 49.5908 15 50.857V54.9523C14.9999 55.2213 15.0529 55.4876 15.1559 55.736C15.2589 55.9845 15.4099 56.2103 15.6003 56.4004C15.7906 56.5906 16.0167 56.7414 16.2654 56.8443C16.5142 56.9472 16.7808 57.0001 17.05 57H53.95C54.2192 57.0001 54.4858 56.9472 54.7346 56.8443C54.9833 56.7414 55.2094 56.5906 55.3997 56.4004C55.5901 56.2103 55.7411 55.9845 55.8441 55.736C55.9471 55.4876 56.0001 55.2213 56 54.9523V50.857C55.9961 49.5908 55.5999 48.3567 54.8658 47.3244C54.1317 46.2921 53.0957 45.512 51.9 45.0913V30.3803H53.95ZM51.9 52.9047H19.1V50.857C19.1005 50.3141 19.3167 49.7936 19.701 49.4097C20.0854 49.0258 20.6065 48.8099 21.15 48.8093H49.85C50.3935 48.8099 50.9146 49.0258 51.299 49.4097C51.6833 49.7936 51.8995 50.3141 51.9 50.857V52.9047ZM23.2 44.714V30.3803H27.3V44.714H23.2ZM31.4 44.714V30.3803H39.6V44.714H31.4ZM43.7 44.714V30.3803H47.8V44.714H43.7ZM19.1 26.285V23.6654L35.5 18.2043L51.9 23.6654V26.285H19.1Z" fill="white"/>
</svg>
