<?xml version="1.0" encoding="utf-8"?>
<!-- Generator: Adobe Illustrator 27.1.1, SVG Export Plug-In . SVG Version: 6.00 Build 0)  -->
<svg version="1.1" id="Layer_1" xmlns="http://www.w3.org/2000/svg" xmlns:xlink="http://www.w3.org/1999/xlink" x="0px" y="0px"
	 viewBox="0 0 100 100" style="enable-background:new 0 0 100 100;" xml:space="preserve">
<style type="text/css">
	.st0{fill:#C6F2FF;}
	.st1{fill:none;stroke:#009BE9;stroke-width:4;stroke-linecap:round;stroke-linejoin:round;stroke-miterlimit:10;}
	.st2{fill:#00ADEC;}
	.st3{fill:#FFFFFF;stroke:#009BE9;stroke-width:4;stroke-linecap:round;stroke-linejoin:round;stroke-miterlimit:10;}
	.st4{fill:#FFFFFF;stroke:#009BE9;stroke-width:3;stroke-linecap:round;stroke-linejoin:round;stroke-miterlimit:10;}
	.st5{fill:#C6F2FF;stroke:#009BE9;stroke-width:3;stroke-linecap:round;stroke-linejoin:round;stroke-miterlimit:10;}
</style>
<path class="st0" d="M90.5,90.9H9c-2.6,0-4.7-2.1-4.7-4.7V52.7h91.8v32.6C96.1,88.4,93.6,90.9,90.5,90.9z"/>
<path class="st1" d="M89.4,90.9H10.9c-3.7,0-6.6-3-6.6-6.6V31.4c0-3.7,3-6.6,6.6-6.6h78.5c3.7,0,6.6,3,6.6,6.6v52.8
	C96.1,87.9,93.1,90.9,89.4,90.9z"/>
<path class="st3" d="M66.7,24.6H34.1V13.3c0-3.2,2.6-5.9,5.9-5.9h20.8c3.2,0,5.9,2.6,5.9,5.9V24.6z"/>
<g>
	<path class="st3" d="M20.5,52.7h13.1v13.5c0,2.1-1.7,3.7-3.7,3.7h-5.7c-2.1,0-3.7-1.7-3.7-3.7V52.7z"/>
	<path class="st3" d="M66.8,52.7h13.1v13.5c0,2.1-1.7,3.7-3.7,3.7h-5.7c-2.1,0-3.7-1.7-3.7-3.7V52.7z"/>
</g>
<line class="st1" x1="96.1" y1="52.7" x2="4.8" y2="52.7"/>
</svg>
