<svg width="70" height="70" viewBox="0 0 70 70" fill="none" xmlns="http://www.w3.org/2000/svg">
<path d="M0 0H70V70H0V0Z" fill="#EF1818"/>
<g clip-path="url(#clip0_221_4)">
<path d="M21.7059 44.0563V52.1818C21.7059 54.347 23.4412 56.1018 25.5824 56.1018H49.2353C51.3765 56.1018 53.1118 54.347 53.1118 52.1818V22.3448H48.6412C46.5001 22.3448 44.7648 20.5901 44.7648 18.4249V13.8922H25.5824C23.4412 13.8922 21.7059 15.647 21.7059 17.8122V27.734" stroke="white" stroke-width="3" stroke-linecap="round" stroke-linejoin="round"/>
<path d="M45.5706 13.8922H44.7706V18.4249C44.7706 20.5901 46.5059 22.3448 48.6471 22.3448H53.1177V21.524L45.5706 13.8922Z" stroke="white" stroke-width="3" stroke-linecap="round" stroke-linejoin="round"/>
<path d="M22.5235 43.7471H18.1941C18.0235 43.7471 17.8823 43.6043 17.8823 43.4318V28.6145C17.8823 28.442 18.0235 28.2992 18.1941 28.2992H45.2059C45.3764 28.2992 45.5176 28.442 45.5176 28.6145V43.4318C45.5176 43.6043 45.3764 43.7471 45.2059 43.7471H22.5235Z" stroke="white" stroke-width="3" stroke-linecap="round" stroke-linejoin="round"/>
<path d="M25.1 38.5541V33.8311C25.1 33.2363 25.4059 32.8972 25.947 32.8972H27.047C28.4823 32.8972 29.4117 33.7657 29.4117 35.0981C29.4117 36.4305 28.5529 37.2157 27.2294 37.2157H26.7706C26.6353 37.2157 26.5823 37.2693 26.5823 37.3882V38.5482C26.5823 39.0478 26.3 39.3452 25.8412 39.3452C25.3823 39.3452 25.1 39.0538 25.1 38.5482V38.5541ZM27.9353 35.0922C27.9353 34.5509 27.5941 34.1999 27.0706 34.1999H26.8647C26.6412 34.1999 26.5235 34.301 26.5235 34.5092V35.687C26.5235 35.8952 26.6412 35.9963 26.8647 35.9963H27.0529C27.5882 35.9963 27.9353 35.6394 27.9353 35.0922Z" fill="white"/>
<path d="M30.0177 38.4173V33.7419C30.0177 33.1828 30.3177 32.8854 30.8589 32.8854H31.8589C33.5824 32.8854 34.7118 34.1345 34.7118 36.0618C34.7118 37.9891 33.5824 39.2739 31.8589 39.2739H30.8589C30.3177 39.2739 30.0177 38.9705 30.0177 38.4173ZM33.1942 36.0499C33.1942 34.9257 32.7001 34.194 31.9471 34.194H31.7471C31.5824 34.194 31.4942 34.2832 31.4942 34.4498V37.6738C31.4942 37.8404 31.5824 37.9296 31.7471 37.9296H31.9295C32.6883 37.9296 33.1942 37.192 33.1942 36.0499Z" fill="white"/>
<path d="M35.4 38.5363V33.7419C35.4 33.1828 35.7 32.8854 36.2412 32.8854H38.2177C38.6941 32.8854 38.9824 33.1233 38.9824 33.5337C38.9824 33.9442 38.6941 34.2357 38.2177 34.2357H37.153C36.9824 34.2357 36.8824 34.3368 36.8824 34.5093V35.1576C36.8824 35.3302 36.9824 35.4313 37.153 35.4313H38.0294C38.4353 35.4313 38.6706 35.6573 38.6706 36.044C38.6706 36.4306 38.4294 36.6745 38.0294 36.6745H37.153C36.9824 36.6745 36.8824 36.7756 36.8824 36.9481V38.5363C36.8824 39.036 36.6 39.3274 36.1412 39.3274C35.6824 39.3274 35.4 39.036 35.4 38.5363Z" fill="white"/>
</g>
<defs>
<clipPath id="clip0_221_4">
<rect width="37" height="44" fill="white" transform="translate(17 13)"/>
</clipPath>
</defs>
</svg>
