<?xml version="1.0" encoding="utf-8"?>
<!-- Generator: Adobe Illustrator 27.0.0, SVG Export Plug-In . SVG Version: 6.00 Build 0)  -->
<svg version="1.1" id="Layer_1" xmlns="http://www.w3.org/2000/svg" xmlns:xlink="http://www.w3.org/1999/xlink" x="0px" y="0px"
	 viewBox="0 0 120.3 120.3" style="enable-background:new 0 0 120.3 120.3;" xml:space="preserve">
<style type="text/css">
	.st0{fill:#FFFFFF;stroke:#009CEA;stroke-width:3;stroke-linecap:round;stroke-linejoin:round;stroke-miterlimit:10;}
	.st1{fill:#FFFFFF;stroke:#662D91;stroke-width:3;stroke-linecap:round;stroke-linejoin:round;stroke-miterlimit:10;}
</style>
<path class="st0" d="M60.2,1.8L60.2,1.8L60.2,1.8L60.2,1.8L60.2,1.8C37.7,24.2,14.3,21.5,14.3,21.5s0,31.8,0,48.6
	s10.3,24.6,10.3,24.6l35.5,23.8l0,0l0,0l0,0l0,0l35.5-23.8c0,0,10.3-7.8,10.3-24.6s0-48.6,0-48.6S82.7,24.3,60.2,1.8z"/>
<g>
	<path class="st1" d="M87.2,60.1c0,15-12.2,27.1-27.1,27.1C45.1,87.2,33,75,33,60.1C33,45.1,45.2,33,60.1,33
		C75.1,33,87.2,45.2,87.2,60.1L87.2,60.1z"/>
	<path class="st1" d="M75.6,80.9v1.5c-4.4,3-9.7,4.8-15.5,4.8S49,85.4,44.6,82.4v-1.5c0-8.5,6.9-15.5,15.5-15.5
		c4.3,0,8.2,1.7,11,4.5C73.9,72.7,75.6,76.7,75.6,80.9L75.6,80.9z"/>
	<path class="st1" d="M70.4,55.2c0,5.6-4.6,10.2-10.2,10.2S50,60.8,50,55.2S54.6,45,60.2,45S70.4,49.5,70.4,55.2L70.4,55.2z"/>
</g>
</svg>
