<?xml version="1.0" encoding="utf-8"?>
<!-- Generator: Adobe Illustrator 27.0.0, SVG Export Plug-In . SVG Version: 6.00 Build 0)  -->
<svg version="1.1" id="Layer_1" xmlns="http://www.w3.org/2000/svg" xmlns:xlink="http://www.w3.org/1999/xlink" x="0px" y="0px"
	 viewBox="0 0 18 20" style="enable-background:new 0 0 18 20;" xml:space="preserve">
<style type="text/css">
	.st0{fill:#ED1E79;}
</style>
<path class="st0" d="M9.4,19.9c0.7-0.5,1.4-0.9,2.1-1.3c0.3-0.2,0.6-0.4,1-0.6c0.7-0.5,1.4-1.1,2.1-1.8c1.2-1.3,2.2-2.9,2.7-4.6
	c0.5-1.4,0.7-2.8,0.7-4.3V4.5c0-0.4-0.3-0.7-0.6-0.8c-0.3-0.1-0.5-0.2-0.8-0.3c0.1,0,0.1,0.1,0.2,0.1c-0.4-0.2-0.8-0.4-1.2-0.7
	l0.2,0.1c-0.4-0.3-0.7-0.6-1-1l0.1,0.2c-0.3-0.4-0.5-0.8-0.7-1.2c0,0.1,0.1,0.1,0.1,0.2c-0.1-0.2-0.1-0.3-0.2-0.5
	C14,0.3,13.6,0,13.3,0H5.8c-0.3,0-0.7,0-1,0h0C4.3,0,4,0.3,3.9,0.6C3.8,0.8,3.8,0.9,3.7,1.1c0-0.1,0.1-0.1,0.1-0.2
	C3.6,1.3,3.4,1.7,3.1,2.1l0.1-0.2c-0.3,0.4-0.6,0.7-1,1l0.2-0.1C2,3.1,1.6,3.3,1.2,3.5c0.1,0,0.1-0.1,0.2-0.1
	C1.1,3.5,0.9,3.6,0.6,3.7C0.3,3.8,0,4.1,0,4.5V7c0,0.4,0,0.9,0,1.3c0.1,0.9,0.2,1.8,0.5,2.7C1,12.7,1.9,14.3,3,15.7
	c0.9,1.1,2,1.9,3.2,2.7l2.3,1.5c0,0,0,0,0.1,0c0.4,0.2,0.9,0.1,1.1-0.3c0.2-0.4,0.1-0.9-0.3-1.1C9,18.2,8.7,18,8.3,17.7
	c-0.5-0.3-1-0.6-1.4-0.9c-0.3-0.2-0.7-0.4-1-0.7L6,16.3c-0.8-0.6-1.5-1.3-2.1-2.1L4,14.3c-0.6-0.8-1.1-1.7-1.5-2.6
	c0,0.1,0.1,0.1,0.1,0.2c-0.4-1-0.7-2-0.8-3c0,0.1,0,0.1,0,0.2C1.7,8.4,1.7,7.7,1.7,7V4.5C1.5,4.8,1.3,5,1.1,5.3
	c0.7-0.2,1.4-0.5,2-0.9c0.7-0.5,1.3-1.2,1.8-1.9C5.2,2,5.4,1.5,5.5,1.1C5.2,1.3,5,1.5,4.7,1.7h7.5c0.3,0,0.7,0,1,0h0
	c-0.3-0.2-0.5-0.4-0.8-0.6c0.5,1.6,1.7,3.1,3.3,3.8c0.4,0.2,0.8,0.3,1.2,0.4c-0.2-0.3-0.4-0.5-0.6-0.8v3c0,0.5,0,1.1-0.1,1.6
	c0-0.1,0-0.1,0-0.2c-0.1,1-0.4,2.1-0.8,3c0-0.1,0.1-0.1,0.1-0.2c-0.4,0.9-0.9,1.8-1.5,2.6l0.1-0.2c-0.6,0.8-1.3,1.5-2.1,2.1l0.2-0.1
	c-0.5,0.4-1,0.7-1.5,1c-0.6,0.4-1.1,0.7-1.7,1.1c-0.1,0.1-0.3,0.2-0.4,0.3c-0.2,0.1-0.3,0.3-0.4,0.5c-0.1,0.2,0,0.5,0.1,0.6
	C8.5,20,9,20.1,9.4,19.9z"/>
<path class="st0" d="M4.7,10l2.1,2.1l0.3,0.3c0.3,0.3,0.9,0.3,1.2,0l1.7-1.7l2.6-2.6l0.6-0.6c0.3-0.3,0.3-0.9,0-1.2
	c-0.3-0.3-0.9-0.3-1.2,0L10.4,8l-2.6,2.6l-0.6,0.6h1.2L6.2,9.1L5.9,8.8C5.6,8.5,5,8.4,4.7,8.8C4.4,9.1,4.4,9.6,4.7,10z"/>
</svg>
