<svg id="271b49e8-5b31-4e12-ba24-afcfbbbc0aa6" data-name="Camada 1" xmlns="http://www.w3.org/2000/svg" viewBox="0 0 176.47 119.5"><defs><style>.\34 d158272-14a8-46dc-8009-ec0e8c98e75d,.\37 843b6a1-6720-4f53-b173-f96b16c935b3{fill:#c7f3ff;}.\32 d9339bf-d591-4d68-aafb-2c2c9a2ea005{fill:#fff;}.\32 d9339bf-d591-4d68-aafb-2c2c9a2ea005,.\33 5172a6d-04a7-4116-8d04-5ac76b8e6473,.\37 843b6a1-6720-4f53-b173-f96b16c935b3,.\38 8f4b942-922e-4f59-a121-5c73470c460d{stroke:#009cea;stroke-linecap:round;}.\32 d9339bf-d591-4d68-aafb-2c2c9a2ea005,.\33 5172a6d-04a7-4116-8d04-5ac76b8e6473{stroke-miterlimit:10;}.\32 d9339bf-d591-4d68-aafb-2c2c9a2ea005,.\33 5172a6d-04a7-4116-8d04-5ac76b8e6473,.\38 8f4b942-922e-4f59-a121-5c73470c460d{stroke-width:4px;}.\33 5172a6d-04a7-4116-8d04-5ac76b8e6473,.\38 8f4b942-922e-4f59-a121-5c73470c460d{fill:none;}.\37 843b6a1-6720-4f53-b173-f96b16c935b3,.\38 8f4b942-922e-4f59-a121-5c73470c460d{stroke-linejoin:round;}.\37 843b6a1-6720-4f53-b173-f96b16c935b3{stroke-width:3px;}</style></defs><title>pontes</title><rect class="4d158272-14a8-46dc-8009-ec0e8c98e75d" x="125.13" y="81.34" width="11.56" height="11.23"/><rect class="4d158272-14a8-46dc-8009-ec0e8c98e75d" x="4.2" y="58.56" width="167.97" height="10.25"/><line class="2d9339bf-d591-4d68-aafb-2c2c9a2ea005" x1="3.93" y1="92.84" x2="172.55" y2="92.84"/><line class="2d9339bf-d591-4d68-aafb-2c2c9a2ea005" x1="3.93" y1="68.76" x2="172.55" y2="68.76"/><line class="2d9339bf-d591-4d68-aafb-2c2c9a2ea005" x1="3.93" y1="58.34" x2="172.55" y2="58.34"/><path class="35172a6d-04a7-4116-8d04-5ac76b8e6473" d="M130.66,3A42.32,42.32,0,1,1,46,3"/><path class="35172a6d-04a7-4116-8d04-5ac76b8e6473" d="M173,45.32A42.32,42.32,0,0,1,130.67,3"/><path class="35172a6d-04a7-4116-8d04-5ac76b8e6473" d="M45.81,3A42.32,42.32,0,0,1,3.49,45.32"/><polyline class="88f4b942-922e-4f59-a121-5c73470c460d" points="136.58 92.63 136.58 80.91 123.94 80.91 123.94 92.74"/><line class="35172a6d-04a7-4116-8d04-5ac76b8e6473" x1="130.12" y1="68.76" x2="130.12" y2="80.85"/><polyline class="88f4b942-922e-4f59-a121-5c73470c460d" points="53.13 92.63 53.13 80.91 40.49 80.91 40.49 92.74"/><line class="35172a6d-04a7-4116-8d04-5ac76b8e6473" x1="46.67" y1="68.76" x2="46.67" y2="80.85"/><line class="35172a6d-04a7-4116-8d04-5ac76b8e6473" x1="130.56" y1="57.69" x2="130.56" y2="11.9"/><line class="35172a6d-04a7-4116-8d04-5ac76b8e6473" x1="142.49" y1="57.69" x2="142.49" y2="32.73"/><line class="35172a6d-04a7-4116-8d04-5ac76b8e6473" x1="154.43" y1="57.69" x2="154.43" y2="41.3"/><line class="35172a6d-04a7-4116-8d04-5ac76b8e6473" x1="166.37" y1="57.69" x2="166.37" y2="44.99"/><line class="35172a6d-04a7-4116-8d04-5ac76b8e6473" x1="118.16" y1="58.34" x2="118.16" y2="33.38"/><line class="35172a6d-04a7-4116-8d04-5ac76b8e6473" x1="106.22" y1="58.34" x2="106.22" y2="41.95"/><line class="35172a6d-04a7-4116-8d04-5ac76b8e6473" x1="94.28" y1="58.34" x2="94.28" y2="45.64"/><line class="35172a6d-04a7-4116-8d04-5ac76b8e6473" x1="46.35" y1="57.69" x2="46.35" y2="11.9"/><line class="35172a6d-04a7-4116-8d04-5ac76b8e6473" x1="58.29" y1="57.69" x2="58.29" y2="32.73"/><line class="35172a6d-04a7-4116-8d04-5ac76b8e6473" x1="70.23" y1="57.69" x2="70.23" y2="41.3"/><line class="35172a6d-04a7-4116-8d04-5ac76b8e6473" x1="82.16" y1="57.69" x2="82.16" y2="44.99"/><line class="35172a6d-04a7-4116-8d04-5ac76b8e6473" x1="33.95" y1="58.34" x2="33.95" y2="33.38"/><line class="35172a6d-04a7-4116-8d04-5ac76b8e6473" x1="22.02" y1="58.34" x2="22.02" y2="41.95"/><line class="35172a6d-04a7-4116-8d04-5ac76b8e6473" x1="10.08" y1="58.34" x2="10.08" y2="45.64"/><line class="35172a6d-04a7-4116-8d04-5ac76b8e6473" x1="28.12" y1="104.46" x2="53.03" y2="104.46"/><line class="35172a6d-04a7-4116-8d04-5ac76b8e6473" x1="63.77" y1="104.46" x2="119.92" y2="104.46"/><line class="35172a6d-04a7-4116-8d04-5ac76b8e6473" x1="128.39" y1="104.46" x2="138.32" y2="104.46"/><line class="35172a6d-04a7-4116-8d04-5ac76b8e6473" x1="113.57" y1="116.5" x2="81.19" y2="116.5"/><line class="35172a6d-04a7-4116-8d04-5ac76b8e6473" x1="72.73" y1="116.5" x2="62.8" y2="116.5"/><rect class="7843b6a1-6720-4f53-b173-f96b16c935b3" x="41.15" y="81.34" width="11.56" height="11.23"/></svg>