<?xml version="1.0" encoding="utf-8"?>
<!-- Generator: Adobe Illustrator 27.0.0, SVG Export Plug-In . SVG Version: 6.00 Build 0)  -->
<svg version="1.1" id="Layer_1" xmlns="http://www.w3.org/2000/svg" xmlns:xlink="http://www.w3.org/1999/xlink" x="0px" y="0px"
	 viewBox="0 0 120.3 120.3" style="enable-background:new 0 0 120.3 120.3;" xml:space="preserve">
<style type="text/css">
	.st0{fill:#FFFFFF;stroke:#009CEA;stroke-width:3;stroke-linecap:round;stroke-linejoin:round;stroke-miterlimit:10;}
	.st1{fill:none;stroke:#009CEA;stroke-width:3;stroke-linecap:round;stroke-linejoin:round;stroke-miterlimit:10;}
	.st2{fill:#FFFFFF;stroke:#662D91;stroke-width:3;stroke-linecap:round;stroke-linejoin:round;stroke-miterlimit:10;}
	.st3{fill:none;stroke:#662D91;stroke-width:3;stroke-linecap:round;stroke-linejoin:round;stroke-miterlimit:10;}
</style>
<polygon class="st0" points="78.3,30 78.3,21.7 2.6,21.7 2.6,54.6 78.3,54.6 78.3,43.8 87,37.1 "/>
<g>
	<line class="st1" x1="66.7" y1="32.4" x2="29.9" y2="32.4"/>
	<line class="st1" x1="66.7" y1="42.6" x2="13.6" y2="42.6"/>
</g>
<polygon class="st0" points="42.3,74.6 42.3,66.3 118,66.3 118,99.2 42.3,99.2 42.3,88.4 33.6,81.7 "/>
<g>
	<line class="st1" x1="53.9" y1="77" x2="90.8" y2="77"/>
	<line class="st1" x1="53.9" y1="87.2" x2="107" y2="87.2"/>
</g>
<circle class="st2" cx="16" cy="81.7" r="13.6"/>
<polyline class="st3" points="11.7,82.6 16.4,82.7 16.4,75.3 "/>
<circle class="st2" cx="104.6" cy="37.4" r="13.6"/>
<polyline class="st3" points="100.3,38.3 104.9,38.4 104.9,31 "/>
</svg>
