<svg xmlns="http://www.w3.org/2000/svg" width="68.7" height="93.547" viewBox="0 0 68.7 93.547"><g transform="translate(-5562.15 -2591.521)"><path d="M5572.17,2641.44h8.519l0,5.183h-2.871v32.529s0,4.413-5.646,4.415-5.649-4.414-5.649-4.414v-32.529h-2.869l0-5.186Z" fill="#c7f3ff" stroke="#009cea" stroke-linecap="round" stroke-linejoin="round" stroke-width="3"/><path d="M5576.65,2593.3H5567.5s-.651,6.347,2.443,8.719v39.422h4.266l0-39.421C5577.3,2599.643,5576.65,2593.3,5576.65,2593.3Z" fill="#fff" stroke="#009cea" stroke-linecap="round" stroke-linejoin="round" stroke-width="3"/><line x1="0.001" y2="29.636" transform="translate(5573.979 2647.659)" fill="#fff" stroke="#009cea" stroke-linecap="round" stroke-linejoin="round" stroke-width="3"/><line x2="0.001" y2="29.637" transform="translate(5570.359 2647.686)" fill="#fff" stroke="#009cea" stroke-linecap="round" stroke-linejoin="round" stroke-width="3"/><path d="M5612.053,2593.021H5598.1l-4.768,7.136h-3.9l-2.474-2.8H5581.5V2610.5h6.009l1.109-2.731h3.134s6.344,1.155,7.655,9.4h13.7l2.4-8.356c3.453-9.471,13.246,1.113,13.246,1.113l.592-.384C5625.527,2593.523,5612.053,2593.021,5612.053,2593.021Z" fill="#fff" stroke="#009cea" stroke-linecap="round" stroke-linejoin="round" stroke-width="3"/><rect width="13.629" height="9.313" transform="translate(5599.407 2617.173)" fill="#c7f3ff" stroke="#009cea" stroke-linecap="round" stroke-linejoin="round" stroke-width="3"/><rect width="5.874" height="20.098" transform="translate(5603.283 2626.486)" fill="#fff" stroke="#009cea" stroke-linecap="round" stroke-linejoin="round" stroke-width="3"/><path d="M5616.056,2683.532c-.455-3.763-3.021-4.447-3.021-4.447v-28.738c-.169-3.649-2.424-3.763-2.424-3.763h-8.781s-2.253.114-2.423,3.763v28.738s-2.565.684-3.02,4.447Z" fill="#c7f3ff" stroke="#009cea" stroke-linecap="round" stroke-linejoin="round" stroke-width="3"/><path d="M5593.839,2604.4s7.566.7,8.857,9.313" fill="#fff" stroke="#009cea" stroke-linecap="round" stroke-linejoin="round" stroke-width="3"/></g></svg>