<svg width="20" height="20" viewBox="0 0 20 20" fill="none" xmlns="http://www.w3.org/2000/svg">
<path d="M12.8538 9.82955C12.4898 9.59579 12.0947 9.41439 11.6801 9.29067C11.4258 9.21376 11.1442 9.13852 10.8525 9.066C10.5988 8.99526 10.2968 8.92268 9.92323 8.84055C9.47844 8.74735 9.04189 8.61851 8.61778 8.45525C8.39927 8.37024 8.20644 8.23018 8.05804 8.04865C7.94972 7.90021 7.89836 7.71778 7.91333 7.53463C7.91283 7.33817 7.97815 7.1472 8.09887 6.99219C8.26822 6.79356 8.48795 6.64421 8.73497 6.55984C9.15105 6.41692 9.58956 6.35046 10.0293 6.36365C10.369 6.35821 10.7077 6.40308 11.0343 6.49682C11.2511 6.55753 11.4554 6.65644 11.6375 6.7889C11.7552 6.87277 11.8556 6.97858 11.9331 7.10051C11.9895 7.206 12.0661 7.29934 12.1585 7.37517C12.251 7.45101 12.3575 7.50784 12.472 7.54243C12.5865 7.57701 12.7067 7.58866 12.8256 7.57671C12.9446 7.56476 13.0601 7.52945 13.1654 7.47279C13.2707 7.41613 13.3638 7.33925 13.4394 7.24654C13.5149 7.15383 13.5714 7.04713 13.6056 6.93255C13.6399 6.81796 13.6511 6.69775 13.6388 6.5788C13.6265 6.45985 13.5908 6.3445 13.5338 6.23936C13.342 5.90025 13.083 5.60389 12.7725 5.36846C12.4141 5.0931 12.0075 4.88688 11.5736 4.76032C11.0724 4.61214 10.5519 4.53973 10.0293 4.54548C9.36527 4.53137 8.70429 4.6394 8.07931 4.8642C7.51383 5.06945 7.01694 5.42859 6.64463 5.90112C6.28834 6.37119 6.09538 6.9448 6.0951 7.53464C6.08037 8.12185 6.2664 8.69653 6.62244 9.16372C6.96614 9.59667 7.41669 9.93262 7.92971 10.1385C8.31737 10.2876 8.71427 10.4115 9.11794 10.5093C9.12555 10.5118 9.13067 10.5179 9.13842 10.5202C9.31242 10.5726 9.59074 10.6427 9.99291 10.7297C10.1496 10.7634 10.2973 10.8005 10.4448 10.8374C10.4592 10.8417 10.4799 10.8462 10.4936 10.8505L10.51 10.853C10.7358 10.9105 10.9528 10.97 11.1515 11.0307C11.3962 11.1022 11.6299 11.2073 11.8457 11.3432C11.9799 11.4277 12.0927 11.5423 12.1751 11.6779C12.2552 11.8433 12.2923 12.0262 12.2829 12.2097C12.2957 12.4473 12.2271 12.6821 12.0885 12.8755C11.9012 13.1191 11.6479 13.3037 11.3588 13.4074C10.9282 13.5735 10.4687 13.6513 10.0075 13.6363C9.47378 13.657 8.9428 13.5499 8.45882 13.3238C8.23547 13.2048 8.04361 13.0344 7.89906 12.8267C7.79771 12.6937 7.73435 12.5357 7.71574 12.3695C7.71574 12.1284 7.61996 11.8972 7.44947 11.7267C7.27899 11.5562 7.04776 11.4604 6.80665 11.4604C6.56555 11.4604 6.33432 11.5562 6.16383 11.7267C5.99334 11.8972 5.89756 12.1284 5.89756 12.3695C5.91281 12.9055 6.08898 13.4246 6.40316 13.8592C6.7172 14.3117 7.13559 14.682 7.62296 14.9387C8.36452 15.3007 9.1827 15.4776 10.0075 15.4545C10.7084 15.4714 11.4054 15.3461 12.0565 15.0861C12.6618 14.854 13.1873 14.4523 13.5702 13.9293C13.934 13.4193 14.1204 12.8039 14.1006 12.1777C14.1091 11.6923 13.9917 11.213 13.7597 10.7866C13.5358 10.4018 13.2257 10.0742 12.8538 9.82955ZM19.4193 11.5376C19.6647 10.0434 19.5508 8.51214 19.087 7.07064C18.6231 5.62914 17.8227 4.31881 16.752 3.24805C15.6812 2.17728 14.3709 1.37687 12.9294 0.913032C11.4879 0.449191 9.95663 0.335256 8.46236 0.580651C7.3593 0.051802 6.11927 -0.121613 4.91345 0.0843432C3.70762 0.290299 2.59546 0.865469 1.73046 1.73046C0.865469 2.59546 0.290299 3.70762 0.0843432 4.91345C-0.121613 6.11927 0.051802 7.3593 0.580651 8.46236C0.335256 9.95663 0.449191 11.4879 0.913032 12.9294C1.37687 14.3709 2.17728 15.6812 3.24805 16.752C4.31881 17.8227 5.62914 18.6231 7.07064 19.087C8.51214 19.5508 10.0434 19.6647 11.5376 19.4193C12.6407 19.9482 13.8807 20.1216 15.0866 19.9157C16.2924 19.7097 17.4045 19.1345 18.2695 18.2695C19.1345 17.4045 19.7097 16.2924 19.9157 15.0866C20.1216 13.8807 19.9482 12.6407 19.4193 11.5376ZM14.0909 18.1818C13.4013 18.1815 12.7229 18.0072 12.1187 17.6749C11.9312 17.5714 11.7132 17.5371 11.503 17.5781C10.3826 17.8016 9.22657 17.7736 8.11829 17.4962C7.01 17.2188 5.9771 16.6989 5.0941 15.9739C4.2111 15.249 3.5 14.3371 3.01211 13.304C2.52422 12.2709 2.2717 11.1425 2.27276 10C2.2737 9.49505 2.32365 8.99139 2.42191 8.4961C2.46295 8.28609 2.42886 8.06833 2.32559 7.88092C1.8983 7.10463 1.73465 6.21057 1.85928 5.33326C1.98391 4.45594 2.39006 3.64283 3.01664 3.01624C3.64322 2.38966 4.45633 1.9835 5.33364 1.85886C6.21095 1.73422 7.10501 1.89786 7.88131 2.32514C8.06871 2.42896 8.28677 2.46323 8.49699 2.42191C9.61739 2.19842 10.7734 2.22639 11.8817 2.5038C12.99 2.78121 14.0229 3.30114 14.9059 4.02609C15.7889 4.75104 16.5 5.66294 16.9879 6.696C17.4758 7.72906 17.7283 8.85753 17.7272 10C17.7263 10.5049 17.6764 11.0086 17.5781 11.5039C17.5371 11.7139 17.5712 11.9317 17.6745 12.1191C18.0175 12.7419 18.1922 13.4434 18.1814 14.1543C18.1705 14.8652 17.9746 15.561 17.6128 16.1731C17.251 16.7852 16.7359 17.2924 16.1183 17.6446C15.5007 17.9968 14.8019 18.182 14.0909 18.1818Z" fill="#F75708"/>
</svg>
