<?xml version="1.0" encoding="utf-8"?>
<!-- Generator: Adobe Illustrator 27.1.1, SVG Export Plug-In . SVG Version: 6.00 Build 0)  -->
<svg version="1.1" id="Layer_1" xmlns="http://www.w3.org/2000/svg" xmlns:xlink="http://www.w3.org/1999/xlink" x="0px" y="0px"
	 viewBox="0 0 40 40" style="enable-background:new 0 0 40 40;" xml:space="preserve">
<style type="text/css">
	
		.st0{fill-rule:evenodd;clip-rule:evenodd;fill:#C6F2FF;stroke:#009BE9;stroke-width:1.9693;stroke-linecap:round;stroke-linejoin:round;stroke-miterlimit:10;}
	.st1{fill:#28A5F9;}
	.st2{fill:#C6F2FF;stroke:#009BE9;stroke-width:3;stroke-linecap:round;stroke-linejoin:round;stroke-miterlimit:10;}
</style>
<path class="st0" d="M38.8,20.2c0,10.3-8.4,18.7-18.7,18.7c-3.8,0-7.3-1.1-10.3-3.1c-1-0.7-5.5,2.4-6.3,1.6
	c-0.9-0.9,1.9-5.7,1.2-6.7c-2-3-3.2-6.6-3.2-10.5C1.4,9.9,9.8,1.5,20.1,1.5S38.8,9.9,38.8,20.2z"/>
<g>
	<path class="st1" d="M11.4,17.3c0.1,0.1,0.3,0.4,0.3,0.7c0,0.6-0.4,0.9-0.9,0.9c-0.3,0-0.6-0.1-0.9-0.5c-0.3-0.3-0.6-0.5-1-0.5
		c-0.5,0-0.8,0.2-0.8,0.6c0,0.2,0,0.5,0.7,0.7l0.9,0.3c1.2,0.4,2.3,0.9,2.3,2.4c0,1.8-1.6,2.6-3.2,2.6c-1.4,0-2.2-0.6-2.6-1.1
		c-0.1-0.1-0.5-0.5-0.5-1.1c0-0.4,0.2-0.9,0.9-0.9c0.5,0,0.7,0.3,0.9,0.5c0.5,0.5,0.9,0.6,1.3,0.6c0.7,0,1-0.3,1-0.6
		c0-0.2-0.1-0.5-0.8-0.7L8.1,21c-1.6-0.5-2.3-1.3-2.3-2.4c0-1.6,1.5-2.4,3-2.4C9.9,16.2,10.9,16.6,11.4,17.3z"/>
	<path class="st1" d="M26.7,20v3.3c0,0.6-0.5,1.1-1.1,1.1c-0.6,0-1.1-0.5-1.1-1.1V20c0-1.3-0.6-1.8-1.5-1.8c-1.3,0-1.7,1.3-1.7,1.6
		v0V20v3.3c0,0.6-0.5,1.1-1.1,1.1c-0.6,0-1.1-0.5-1.1-1.1V20c0-1.3-0.6-1.8-1.5-1.8c-1.3,0-1.7,1.3-1.7,1.6v3.6
		c0,0.6-0.5,1.1-1.1,1.1c-0.6,0-1.1-0.5-1.1-1.1v-5.9c0-0.6,0.5-1.1,1.1-1.1c0.6,0,1.1,0.5,1.1,1.1V18c0.1-0.6,0.9-1.8,2.6-1.8
		c1.1,0,2.2,0.6,2.6,1.9c0.4-0.9,1.4-1.9,2.9-1.9C25.4,16.2,26.7,17.3,26.7,20z"/>
	<path class="st1" d="M34,17.3c0.1,0.1,0.3,0.4,0.3,0.7c0,0.6-0.4,0.9-0.9,0.9c-0.3,0-0.6-0.1-0.9-0.5c-0.3-0.3-0.6-0.5-1-0.5
		c-0.5,0-0.8,0.2-0.8,0.6c0,0.2,0,0.5,0.7,0.7l0.9,0.3c1.2,0.4,2.3,0.9,2.3,2.4c0,1.8-1.6,2.6-3.2,2.6c-1.4,0-2.2-0.6-2.6-1.1
		c-0.1-0.1-0.5-0.5-0.5-1.1c0-0.4,0.2-0.9,0.9-0.9c0.5,0,0.7,0.3,0.9,0.5c0.5,0.5,0.9,0.6,1.3,0.6c0.7,0,1-0.3,1-0.6
		c0-0.2-0.1-0.5-0.8-0.7L30.7,21c-1.6-0.5-2.3-1.3-2.3-2.4c0-1.6,1.5-2.4,3-2.4C32.4,16.2,33.5,16.6,34,17.3z"/>
</g>
</svg>
