<?xml version="1.0" encoding="utf-8"?>
<!-- Generator: Adobe Illustrator 27.0.0, SVG Export Plug-In . SVG Version: 6.00 Build 0)  -->
<svg version="1.1" id="Layer_1" xmlns="http://www.w3.org/2000/svg" xmlns:xlink="http://www.w3.org/1999/xlink" x="0px" y="0px"
	 viewBox="0 0 120.3 120.3" style="enable-background:new 0 0 120.3 120.3;" xml:space="preserve">
<style type="text/css">
	.st0{fill:none;stroke:#662D91;stroke-width:3;stroke-linecap:round;stroke-linejoin:round;stroke-miterlimit:10;}
	.st1{fill:#FFFFFF;stroke:#009CEA;stroke-width:3;stroke-linecap:round;stroke-linejoin:round;stroke-miterlimit:10;}
</style>
<path class="st0" d="M103.6,11.3L91.4,7.1L58,29.1L34.4,98.4l57,19.5L115,48.6L103.6,11.3z M97,27.4c-1,2.9-4.2,4.5-7.1,3.5
	s-4.5-4.2-3.5-7.1s4.2-4.5,7.1-3.5S98,24.5,97,27.4z"/>
<path class="st1" d="M96.1,9.5L84.5,2.4l-39.2,15l-40,65.7l54,32.9l40-65.7L96.1,9.5z M85.6,24.5c-1.7,2.8-5.3,3.7-8.1,2
	c-2.8-1.7-3.7-5.3-2-8.1s5.3-3.7,8.1-2C86.5,18,87.3,21.7,85.6,24.5z"/>
</svg>
