<?xml version="1.0" encoding="utf-8"?>
<!-- Generator: Adobe Illustrator 27.0.0, SVG Export Plug-In . SVG Version: 6.00 Build 0)  -->
<svg version="1.1" id="Layer_1" xmlns="http://www.w3.org/2000/svg" xmlns:xlink="http://www.w3.org/1999/xlink" x="0px" y="0px"
	 viewBox="0 0 275.3 275.3" style="enable-background:new 0 0 275.3 275.3;" xml:space="preserve">
<style type="text/css">
	.st0{opacity:0.5;fill:none;stroke:#FFFFFF;stroke-miterlimit:10;}
	.st1{fill:#FFFFFF;}
</style>
<circle class="st0" cx="137.5" cy="137.9" r="136.7"/>
<g>
	<path class="st1" d="M51.6,61.5l3.2-3.6l1.4,1.3l-4.8,5.3L40.8,55l1.6-1.7L51.6,61.5z"/>
	<path class="st1" d="M50.6,47.4l2.9,3l3.6-3.4l1.3,1.4l-3.6,3.4l3,3.2l4-3.8l1.3,1.4L57.3,58l-9.8-10.4l5.7-5.4l1.3,1.4L50.6,47.4z
		"/>
	<path class="st1" d="M70.1,43.5l-4.8,3.6l0.9,2.9l-1.9,1.5L59.8,37l2.2-1.6l12.7,8.3l-2,1.5L70.1,43.5z M68.4,42.3l-5.8-3.9
		l2.1,6.7L68.4,42.3z"/>
	<path class="st1" d="M76.9,26.8c1.3-0.1,2.5,0.2,3.5,0.8c1.1,0.6,2,1.6,2.7,2.8c0.7,1.3,1.1,2.5,1.1,3.7c0,1.2-0.4,2.4-1.1,3.4
		c-0.7,1.1-1.7,2-3,2.7l-4,2.3L69,30.4l4-2.3C74.3,27.3,75.6,26.9,76.9,26.8z M81.8,35.7c0.3-1.2,0.1-2.5-0.7-4
		c-0.8-1.4-1.9-2.3-3.1-2.7s-2.6-0.1-4,0.7l-2,1.2l5.2,9l2-1.2C80.6,37.9,81.5,36.9,81.8,35.7z"/>
	<path class="st1" d="M89.6,23.4c0.2-1.3,0.8-2.4,1.6-3.3c0.8-1,1.9-1.7,3.1-2.1c1.4-0.5,2.8-0.6,4.2-0.3c1.4,0.3,2.5,1,3.5,2.1
		l-2.6,1c-0.6-0.6-1.3-0.9-2-1.1s-1.5,0-2.3,0.3c-0.9,0.3-1.6,0.8-2.2,1.5c-0.6,0.6-0.9,1.4-1,2.3c-0.1,0.9,0,1.8,0.4,2.8
		c0.4,1,0.9,1.8,1.5,2.4c0.7,0.6,1.4,1,2.3,1.1c0.8,0.2,1.7,0.1,2.6-0.2c0.8-0.3,1.5-0.7,2-1.3c0.5-0.6,0.8-1.3,0.9-2.1l2.6-1
		c0,1.5-0.5,2.7-1.3,3.8c-0.9,1.1-2,1.9-3.4,2.4c-1.3,0.5-2.5,0.6-3.8,0.4c-1.3-0.2-2.4-0.7-3.4-1.5s-1.7-1.9-2.2-3.2
		C89.4,25.9,89.3,24.6,89.6,23.4z"/>
	<path class="st1" d="M115.7,12.3l3,13.9l-2.3,0.5l-1.3-6.1l-6.5,1.4l1.3,6.1l-2.3,0.5l-3-13.9l2.3-0.5l1.3,6l6.5-1.4l-1.3-6
		L115.7,12.3z"/>
	<path class="st1" d="M129.6,22.2l-5.9,0.5l-0.8,3l-2.4,0.2l3.8-14.7L127,11l6.4,13.7l-2.4,0.2L129.6,22.2z M128.8,20.3l-2.9-6.4
		l-1.7,6.8L128.8,20.3z"/>
	<path class="st1" d="M144.7,10.7l0,1.9l-3.8-0.1l-0.2,12.3l-2.3,0l0.2-12.3l-3.8-0.1l0-1.9L144.7,10.7z"/>
	<path class="st1" d="M218.8,56.7l3.4,3.4l-1.3,1.3l-5-5.1l10.1-10l1.6,1.7L218.8,56.7z"/>
	<path class="st1" d="M232.9,56.5l-3.2,2.7l3.1,3.8l-1.5,1.2l-3.1-3.8l-3.4,2.8l3.5,4.3l-1.5,1.2l-5-6l11-9.1l5,6l-1.5,1.2
		L232.9,56.5z"/>
	<path class="st1" d="M235.7,76.2l-3.3-5l-3,0.8l-1.4-2l14.7-3.7l1.5,2.3l-9,12.2l-1.4-2L235.7,76.2z M236.9,74.6l4.2-5.6l-6.8,1.7
		L236.9,74.6z"/>
	<path class="st1" d="M251.9,84c0,1.3-0.4,2.4-1.1,3.5c-0.7,1-1.7,1.9-3,2.5c-1.3,0.6-2.6,0.9-3.8,0.9c-1.2-0.1-2.4-0.5-3.4-1.3
		c-1-0.8-1.9-1.8-2.5-3.2l-2.1-4.2l12.7-6.4l2.1,4.2C251.5,81.4,251.9,82.7,251.9,84z M242.8,88.4c1.2,0.4,2.5,0.2,4-0.5
		c1.5-0.7,2.4-1.7,2.9-2.9c0.4-1.2,0.3-2.6-0.5-4.1l-1-2.1l-9.3,4.7l1,2.1C240.6,87,241.5,88,242.8,88.4z"/>
	<path class="st1" d="M254.6,96.8c1.2,0.3,2.3,0.9,3.2,1.8c0.9,0.9,1.6,2,1.9,3.2c0.4,1.5,0.5,2.9,0.1,4.2c-0.4,1.3-1.2,2.5-2.3,3.4
		l-0.8-2.7c0.6-0.6,1-1.2,1.2-1.9c0.2-0.7,0.1-1.5-0.1-2.3c-0.3-0.9-0.7-1.7-1.3-2.2c-0.6-0.6-1.4-1-2.2-1.1
		c-0.9-0.2-1.8-0.1-2.8,0.2c-1,0.3-1.8,0.8-2.5,1.4c-0.6,0.6-1.1,1.3-1.3,2.2c-0.2,0.8-0.2,1.7,0.1,2.6c0.2,0.8,0.6,1.5,1.2,2
		s1.2,0.9,2,1l0.8,2.7c-1.5-0.1-2.7-0.7-3.8-1.6c-1-0.9-1.8-2.1-2.2-3.6c-0.4-1.3-0.4-2.5-0.1-3.8c0.3-1.2,0.9-2.3,1.7-3.3
		c0.9-0.9,2-1.6,3.3-2C252.1,96.6,253.4,96.5,254.6,96.8z"/>
	<path class="st1" d="M264.1,123.6l-14.1,2.2l-0.4-2.3l6.2-1l-1-6.6l-6.2,1l-0.4-2.3l14.1-2.2l0.4,2.3l-6,0.9l1,6.6l6-0.9
		L264.1,123.6z"/>
	<path class="st1" d="M253.4,136.9l-0.2-6l-2.9-0.9l-0.1-2.4l14.4,4.6l0.1,2.7l-14.1,5.6l-0.1-2.5L253.4,136.9z M255.3,136.2
		l6.5-2.5l-6.7-2.1L255.3,136.2z"/>
	<path class="st1" d="M264,152.6l-1.9-0.1l0.3-3.8l-12.3-0.9l0.2-2.3l12.3,0.9l0.3-3.8l1.9,0.1L264,152.6z"/>
	<path class="st1" d="M217.6,220.3l-3.5,3.3l-1.3-1.4l5.2-5l9.9,10.3l-1.7,1.6L217.6,220.3z"/>
	<path class="st1" d="M217.5,234.4l-2.6-3.2l-3.8,3.1l-1.2-1.5l3.8-3.1l-2.7-3.4l-4.3,3.5l-1.2-1.5l6.1-5l9,11.1l-6.1,5l-1.2-1.5
		L217.5,234.4z"/>
	<path class="st1" d="M197.8,236.9l5-3.2l-0.7-3l2-1.3l3.5,14.7l-2.3,1.5l-12-9.2l2.1-1.3L197.8,236.9z M199.4,238.2l5.5,4.3
		l-1.6-6.8L199.4,238.2z"/>
	<path class="st1" d="M189.8,253c-1.3,0-2.4-0.4-3.5-1.1c-1-0.7-1.9-1.7-2.5-3c-0.6-1.3-0.9-2.6-0.8-3.8c0.1-1.2,0.5-2.3,1.3-3.4
		c0.8-1,1.9-1.8,3.2-2.5l4.2-2l6.2,12.8l-4.2,2C192.4,252.7,191.1,253,189.8,253z M185.5,243.8c-0.4,1.2-0.3,2.5,0.5,4
		c0.7,1.5,1.7,2.5,2.9,2.9c1.2,0.4,2.6,0.3,4.1-0.4l2.1-1l-4.5-9.4l-2.1,1C186.9,241.7,185.9,242.6,185.5,243.8z"/>
	<path class="st1" d="M176.9,255.6c-0.3,1.2-0.9,2.3-1.8,3.2c-0.9,0.9-2,1.5-3.3,1.9c-1.5,0.4-2.9,0.4-4.2,0
		c-1.3-0.4-2.4-1.2-3.3-2.4l2.7-0.8c0.6,0.6,1.2,1,1.9,1.2c0.7,0.2,1.5,0.2,2.3-0.1c0.9-0.3,1.7-0.7,2.3-1.3c0.6-0.6,1-1.3,1.2-2.2
		c0.2-0.9,0.1-1.8-0.1-2.8c-0.3-1-0.7-1.8-1.3-2.5c-0.6-0.7-1.3-1.1-2.2-1.3c-0.8-0.2-1.7-0.2-2.6,0.1c-0.8,0.2-1.5,0.6-2,1.1
		c-0.5,0.5-0.9,1.2-1,2l-2.7,0.8c0.1-1.5,0.7-2.7,1.6-3.7c0.9-1,2.1-1.7,3.6-2.2c1.3-0.4,2.6-0.4,3.8-0.1s2.3,0.9,3.2,1.8
		c0.9,0.9,1.6,2,1.9,3.3S177.2,254.3,176.9,255.6z"/>
	<path class="st1" d="M150.1,264.7l-2-14.1l2.3-0.3l0.9,6.2l6.6-1l-0.9-6.2l2.3-0.3l2,14.1l-2.3,0.3l-0.9-6l-6.6,1l0.9,6
		L150.1,264.7z"/>
	<path class="st1" d="M136.8,253.9l6-0.1l1-2.9l2.4,0l-4.8,14.4l-2.7,0.1l-5.4-14.2l2.5,0L136.8,253.9z M137.5,255.7l2.4,6.6
		l2.2-6.7L137.5,255.7z"/>
	<path class="st1" d="M121,264.2l0.2-1.9l3.8,0.3l1.1-12.3l2.3,0.2l-1.1,12.3l3.8,0.3l-0.2,1.9L121,264.2z"/>
	<path class="st1" d="M57.7,220.6l-3.4-3.4l1.3-1.3l5.1,5l-9.9,10.2l-1.7-1.6L57.7,220.6z"/>
	<path class="st1" d="M43.6,221l3.2-2.7l-3.2-3.7l1.4-1.2l3.2,3.7l3.3-2.9l-3.6-4.2l1.4-1.2l5.1,6L43.6,224l-5.1-6l1.4-1.2L43.6,221
		z"/>
	<path class="st1" d="M40.4,201.4l3.4,4.9l3-0.8l1.4,2l-14.6,3.9l-1.5-2.2l8.8-12.3l1.4,2L40.4,201.4z M39.2,203l-4.1,5.7l6.8-1.9
		L39.2,203z"/>
	<path class="st1" d="M24.1,193.9c0-1.3,0.3-2.4,1-3.5c0.7-1.1,1.7-1.9,2.9-2.6c1.3-0.7,2.5-1,3.8-0.9c1.2,0.1,2.4,0.5,3.4,1.2
		c1,0.7,1.9,1.8,2.6,3.1l2.2,4.1l-12.6,6.6l-2.2-4.1C24.4,196.5,24.1,195.2,24.1,193.9z M33.1,189.3c-1.2-0.4-2.5-0.2-4,0.6
		c-1.5,0.8-2.4,1.8-2.8,3c-0.4,1.2-0.2,2.6,0.5,4l1.1,2.1l9.2-4.8l-1.1-2.1C35.3,190.6,34.3,189.7,33.1,189.3z"/>
	<path class="st1" d="M21.1,181.1c-1.3-0.3-2.3-0.9-3.3-1.7c-0.9-0.9-1.6-1.9-2-3.2c-0.5-1.4-0.5-2.8-0.2-4.2
		c0.4-1.4,1.1-2.5,2.2-3.4l0.8,2.7c-0.6,0.6-1,1.2-1.1,2c-0.2,0.7-0.1,1.5,0.2,2.3c0.3,0.9,0.7,1.6,1.4,2.2c0.6,0.6,1.4,0.9,2.3,1.1
		c0.9,0.2,1.8,0.1,2.8-0.2c1-0.3,1.8-0.8,2.5-1.4c0.6-0.6,1-1.4,1.2-2.2c0.2-0.8,0.1-1.7-0.1-2.6c-0.3-0.8-0.7-1.5-1.2-2
		c-0.5-0.5-1.2-0.8-2.1-1l-0.8-2.7c1.5,0.1,2.7,0.6,3.8,1.5c1.1,0.9,1.8,2.1,2.3,3.5c0.4,1.3,0.5,2.5,0.2,3.8
		c-0.3,1.2-0.8,2.3-1.7,3.3c-0.9,1-2,1.6-3.3,2.1C23.6,181.3,22.4,181.4,21.1,181.1z"/>
	<path class="st1" d="M11.1,154.5l14-2.5l0.4,2.3l-6.1,1.1l1.2,6.6l6.1-1.1l0.4,2.3l-14,2.5l-0.4-2.3l6-1.1l-1.2-6.6l-6,1.1
		L11.1,154.5z"/>
	<path class="st1" d="M21.5,141l0.3,6l3,0.9l0.1,2.4l-14.5-4.4l-0.1-2.7l14-5.8l0.1,2.5L21.5,141z M19.6,141.8l-6.5,2.7l6.7,2
		L19.6,141.8z"/>
	<path class="st1" d="M10.7,125.5l1.9,0.1l-0.2,3.8l12.3,0.7l-0.1,2.3l-12.3-0.7l-0.2,3.8l-1.9-0.1L10.7,125.5z"/>
</g>
</svg>
