<?xml version="1.0" encoding="utf-8"?>
<!-- Generator: Adobe Illustrator 27.0.0, SVG Export Plug-In . SVG Version: 6.00 Build 0)  -->
<svg version="1.1" id="Layer_1" xmlns="http://www.w3.org/2000/svg" xmlns:xlink="http://www.w3.org/1999/xlink" x="0px" y="0px"
	 viewBox="0 0 275.3 275.3" style="enable-background:new 0 0 275.3 275.3;" xml:space="preserve">
<style type="text/css">
	.st0{opacity:0.5;fill:none;stroke:#FFFFFF;stroke-miterlimit:10;}
	.st1{fill:#FFFFFF;}
</style>
<circle class="st0" cx="138" cy="138.5" r="136.1"/>
<g>
	<path class="st1" d="M52.5,62.5l3.2-3.6l1.4,1.3l-4.8,5.3l-10.5-9.5l1.6-1.7L52.5,62.5z"/>
	<path class="st1" d="M51.5,48.4l2.8,3l3.6-3.3l1.3,1.4l-3.6,3.3l3,3.2l4-3.8l1.3,1.4L58.3,59l-9.7-10.4l5.7-5.4l1.3,1.4L51.5,48.4z
		"/>
	<path class="st1" d="M70.9,44.5l-4.7,3.6l0.9,2.9l-1.9,1.5L60.7,38l2.2-1.6l12.6,8.3l-2,1.5L70.9,44.5z M69.2,43.4l-5.8-3.9
		l2.1,6.7L69.2,43.4z"/>
	<path class="st1" d="M77.8,27.9c1.3-0.1,2.4,0.2,3.5,0.8c1.1,0.6,2,1.6,2.7,2.8c0.7,1.2,1.1,2.5,1.1,3.7s-0.4,2.4-1.1,3.4
		c-0.7,1.1-1.7,2-3,2.7l-4,2.3l-7.1-12.3l4-2.3C75.2,28.4,76.5,28,77.8,27.9z M82.7,36.7c0.3-1.2,0.1-2.5-0.7-4
		c-0.8-1.4-1.8-2.3-3.1-2.7c-1.2-0.4-2.6-0.1-4,0.7l-2,1.2l5.2,9l2-1.2C81.5,39,82.3,37.9,82.7,36.7z"/>
	<path class="st1" d="M91.1,35.7c-0.8,0-1.6-0.2-2.2-0.6c-0.6-0.4-1.1-1-1.4-1.7l2.3-1c0.3,0.5,0.7,0.9,1.3,1.1s1.2,0.1,1.9-0.2
		c0.7-0.3,1.2-0.7,1.5-1.3c0.3-0.5,0.3-1.1,0-1.6c-0.2-0.4-0.5-0.7-0.8-0.9c-0.4-0.2-0.8-0.2-1.2-0.2c-0.4,0-1,0.1-1.8,0.2
		c-0.9,0.1-1.7,0.2-2.4,0.2c-0.6,0-1.2-0.2-1.8-0.5c-0.6-0.3-1.1-0.9-1.4-1.7c-0.3-0.8-0.4-1.5-0.3-2.2s0.5-1.4,1-2
		c0.5-0.6,1.3-1.1,2.1-1.5c1.3-0.5,2.4-0.7,3.5-0.4c1.1,0.3,1.9,1,2.5,2l-2.4,1c-0.2-0.5-0.6-0.8-1.2-0.9s-1.2-0.1-1.8,0.2
		c-0.6,0.3-1,0.6-1.3,1.1c-0.3,0.5-0.3,1,0,1.6c0.2,0.4,0.4,0.7,0.8,0.8c0.4,0.2,0.8,0.2,1.2,0.2c0.4,0,1-0.1,1.7-0.2
		c1-0.1,1.8-0.2,2.4-0.2c0.6,0,1.3,0.2,1.9,0.5c0.6,0.3,1.1,0.9,1.4,1.7c0.3,0.7,0.4,1.4,0.3,2.1c-0.1,0.7-0.4,1.4-0.9,2.1
		c-0.5,0.6-1.3,1.2-2.2,1.6C92.7,35.6,91.9,35.8,91.1,35.7z"/>
	<path class="st1" d="M169.1,28.3l4.6,1.3l-0.5,1.8l-6.8-2l3.9-13.6l2.2,0.6L169.1,28.3z"/>
	<path class="st1" d="M181.3,21.3l-1.5,3.9l4.6,1.8l-0.7,1.8l-4.6-1.8l-1.6,4.1l5.1,2l-0.7,1.8l-7.3-2.8l5.1-13.3l7.3,2.8l-0.7,1.8
		L181.3,21.3z"/>
	<path class="st1" d="M193.3,37.1l-5.3-2.7l-2.2,2.1l-2.2-1.1l11-10.3l2.4,1.2l-2,15l-2.2-1.1L193.3,37.1z M193.6,35.1l1-6.9
		l-5.1,4.8L193.6,35.1z"/>
	<path class="st1" d="M211.2,36c0.6,1.1,0.9,2.3,0.8,3.5c-0.1,1.2-0.6,2.5-1.4,3.7c-0.8,1.2-1.8,2.1-2.9,2.6
		c-1.1,0.5-2.3,0.7-3.5,0.5s-2.5-0.7-3.8-1.5l-3.8-2.6l8-11.7l3.8,2.6C209.6,33.9,210.6,34.9,211.2,36z M205.4,44.3
		c1.2-0.2,2.3-1,3.2-2.4c0.9-1.4,1.3-2.7,1.1-3.9c-0.2-1.3-1-2.4-2.4-3.3l-1.9-1.3l-5.8,8.6l1.9,1.3
		C202.8,44.2,204.1,44.5,205.4,44.3z"/>
	<path class="st1" d="M209.9,51.4c-0.4-0.8-0.5-1.5-0.4-2.2c0.1-0.7,0.4-1.4,0.9-2l1.9,1.6c-0.4,0.5-0.5,1-0.4,1.6
		c0.1,0.6,0.4,1.1,1,1.6c0.6,0.5,1.2,0.8,1.8,0.8c0.6,0,1.1-0.2,1.5-0.7c0.3-0.4,0.5-0.7,0.4-1.2c0-0.4-0.1-0.8-0.3-1.2
		s-0.5-0.9-1-1.5c-0.5-0.8-0.9-1.5-1.2-2c-0.3-0.6-0.4-1.2-0.4-1.9c0-0.7,0.3-1.3,0.9-2c0.5-0.6,1.2-1,1.9-1.2
		c0.7-0.2,1.4-0.2,2.2,0.1c0.8,0.2,1.5,0.7,2.2,1.3c1,0.9,1.7,1.9,1.9,3s0,2.1-0.7,3.1l-1.9-1.7c0.3-0.4,0.4-0.9,0.3-1.5
		c-0.1-0.6-0.4-1.1-1-1.6c-0.5-0.4-1-0.7-1.6-0.7c-0.5,0-1,0.2-1.4,0.7c-0.3,0.3-0.4,0.7-0.4,1.1c0,0.4,0.1,0.8,0.3,1.2
		c0.2,0.4,0.5,0.9,0.9,1.5c0.5,0.8,1,1.5,1.2,2.1s0.4,1.2,0.4,1.9c0,0.7-0.4,1.4-0.9,2c-0.5,0.5-1.1,0.9-1.8,1.2s-1.5,0.2-2.3,0.1
		s-1.6-0.6-2.4-1.3C210.8,52.8,210.3,52.2,209.9,51.4z"/>
	<path class="st1" d="M249.6,113.2l1,4.7l-1.8,0.4l-1.5-7l13.9-3l0.5,2.3L249.6,113.2z"/>
	<path class="st1" d="M261.6,120.6l-4.1,0.5l0.6,4.9l-1.9,0.2l-0.6-4.9l-4.3,0.6l0.7,5.5l-1.9,0.2l-1-7.8l14.1-1.8l1,7.8l-1.9,0.2
		L261.6,120.6z"/>
	<path class="st1" d="M253.5,138.7l-0.1-5.9l-2.9-1l-0.1-2.4l14.3,4.7l0.1,2.7l-14.1,5.4l-0.1-2.4L253.5,138.7z M255.4,138l6.5-2.5
		l-6.6-2.2L255.4,138z"/>
	<path class="st1" d="M263,153.9c-0.7,1.1-1.6,1.9-2.7,2.4c-1.1,0.5-2.4,0.7-3.9,0.6c-1.4-0.1-2.7-0.6-3.6-1.3s-1.7-1.7-2.2-2.9
		c-0.5-1.2-0.6-2.5-0.5-4l0.5-4.6l14.1,1.4l-0.5,4.6C264.1,151.5,263.7,152.8,263,153.9z M253,152.7c0.8,1,2,1.5,3.6,1.7
		c1.6,0.2,3-0.2,4-0.9c1-0.8,1.6-2,1.8-3.7l0.2-2.3l-10.3-1l-0.2,2.3C251.8,150.5,252.2,151.8,253,152.7z"/>
	<path class="st1" d="M248.9,160.1c0.5-0.7,1.1-1.2,1.8-1.5c0.7-0.3,1.4-0.4,2.2-0.2l-0.5,2.4c-0.6-0.1-1.2,0.1-1.6,0.4
		c-0.5,0.3-0.8,0.9-1,1.6c-0.2,0.8-0.1,1.4,0.2,2c0.3,0.5,0.7,0.8,1.3,1c0.5,0.1,0.9,0,1.2-0.2s0.7-0.5,0.9-0.9s0.5-0.9,0.9-1.6
		c0.4-0.9,0.8-1.5,1.2-2s0.9-0.9,1.5-1.2c0.6-0.3,1.3-0.3,2.2-0.1c0.8,0.2,1.5,0.5,2,1.1c0.5,0.5,0.8,1.2,1,2
		c0.2,0.8,0.1,1.7-0.1,2.6c-0.3,1.3-0.9,2.4-1.7,3.1c-0.9,0.7-1.9,1-3.1,0.8l0.5-2.5c0.5,0.1,1-0.1,1.5-0.4c0.5-0.4,0.8-0.9,0.9-1.6
		c0.1-0.7,0.1-1.2-0.2-1.7c-0.2-0.5-0.7-0.8-1.3-0.9c-0.4-0.1-0.8,0-1.1,0.2s-0.6,0.5-0.9,0.8s-0.5,0.9-0.9,1.5
		c-0.5,0.9-0.9,1.6-1.2,2.1c-0.4,0.5-0.9,0.9-1.5,1.2c-0.6,0.3-1.4,0.3-2.2,0.2c-0.7-0.2-1.3-0.5-1.9-1c-0.5-0.5-0.9-1.2-1.1-2
		c-0.2-0.8-0.2-1.7,0-2.7C248,161.6,248.4,160.8,248.9,160.1z"/>
	<path class="st1" d="M217.3,221l-3.5,3.3l-1.3-1.4l5.2-4.9l9.8,10.3l-1.7,1.6L217.3,221z"/>
	<path class="st1" d="M217.2,235l-2.6-3.2l-3.8,3.1l-1.2-1.5l3.8-3.1l-2.7-3.4l-4.3,3.4l-1.2-1.5l6.1-4.9l8.9,11.1l-6.1,4.9
		l-1.2-1.5L217.2,235z"/>
	<path class="st1" d="M197.6,237.4l5-3.2l-0.7-3l2-1.3l3.4,14.7l-2.3,1.5l-11.9-9.2l2.1-1.3L197.6,237.4z M199.2,238.7l5.5,4.3
		l-1.6-6.8L199.2,238.7z"/>
	<path class="st1" d="M189.4,253.4c-1.3,0-2.4-0.4-3.4-1.1c-1-0.7-1.8-1.7-2.5-3c-0.6-1.3-0.9-2.6-0.8-3.8c0.1-1.2,0.5-2.3,1.3-3.3
		s1.9-1.8,3.2-2.5l4.2-2l6.1,12.8l-4.2,2C192,253.2,190.7,253.5,189.4,253.4z M185.3,244.3c-0.4,1.2-0.3,2.5,0.4,4
		c0.7,1.5,1.7,2.5,2.9,2.9s2.5,0.3,4-0.4l2.1-1l-4.5-9.4l-2.1,1C186.6,242.1,185.7,243.1,185.3,244.3z"/>
	<path class="st1" d="M176.8,244.6c0.8,0.1,1.5,0.3,2.2,0.8c0.6,0.4,1,1,1.3,1.8l-2.4,0.8c-0.2-0.6-0.6-1-1.2-1.2
		c-0.5-0.2-1.2-0.2-1.9,0c-0.8,0.3-1.3,0.6-1.6,1.2s-0.4,1.1-0.2,1.6c0.2,0.5,0.4,0.8,0.8,1s0.8,0.3,1.2,0.3s1,0,1.8-0.1
		c1-0.1,1.7-0.1,2.4,0c0.6,0.1,1.2,0.3,1.8,0.6s1,1,1.3,1.8c0.3,0.8,0.3,1.5,0.1,2.2c-0.2,0.7-0.6,1.3-1.2,1.9
		c-0.6,0.5-1.3,1-2.3,1.3c-1.3,0.4-2.5,0.5-3.5,0.1c-1.1-0.4-1.8-1.1-2.3-2.2l2.4-0.8c0.2,0.5,0.6,0.8,1.1,1
		c0.5,0.2,1.2,0.2,1.9-0.1c0.6-0.2,1.1-0.6,1.4-1c0.3-0.5,0.3-1,0.1-1.6c-0.1-0.4-0.4-0.7-0.7-0.9c-0.3-0.2-0.7-0.3-1.2-0.3
		c-0.4,0-1,0-1.8,0c-1,0.1-1.8,0.1-2.4,0c-0.6-0.1-1.2-0.3-1.8-0.6c-0.6-0.4-1-1-1.3-1.8c-0.2-0.7-0.3-1.4-0.1-2.1
		c0.2-0.7,0.5-1.4,1.1-2s1.3-1.1,2.3-1.4C175.1,244.6,176,244.5,176.8,244.6z"/>
	<path class="st1" d="M103.4,247.6l-4.6-1.5l0.6-1.8l6.8,2.2l-4.4,13.5l-2.2-0.7L103.4,247.6z"/>
	<path class="st1" d="M91,254.2l1.6-3.8l-4.5-1.9l0.7-1.7l4.5,1.9l1.7-4l-5.1-2.1l0.7-1.8l7.2,3l-5.5,13.1l-7.2-3l0.7-1.7L91,254.2z
		"/>
	<path class="st1" d="M79.5,238.1l5.2,2.9l2.3-2l2.1,1.2l-11.3,10l-2.4-1.3l2.4-14.9l2.1,1.2L79.5,238.1z M79.1,240.1l-1.2,6.9
		l5.2-4.6L79.1,240.1z"/>
	<path class="st1" d="M61.6,238.6c-0.6-1.1-0.8-2.3-0.7-3.6c0.1-1.2,0.6-2.4,1.5-3.6c0.8-1.2,1.8-2,3-2.5c1.1-0.5,2.3-0.6,3.6-0.4
		s2.5,0.8,3.7,1.7l3.7,2.7L68,244.3l-3.7-2.7C63.1,240.7,62.2,239.7,61.6,238.6z M67.6,230.5c-1.2,0.2-2.3,1-3.3,2.3
		c-1,1.3-1.4,2.6-1.2,3.9c0.2,1.3,0.9,2.4,2.3,3.4l1.9,1.4l6.1-8.4l-1.9-1.4C70.2,230.7,68.9,230.3,67.6,230.5z"/>
	<path class="st1" d="M63.3,223.2c0.3,0.8,0.5,1.5,0.4,2.3c-0.1,0.7-0.4,1.4-1,2l-1.8-1.7c0.4-0.5,0.5-1,0.5-1.6
		c0-0.6-0.4-1.1-0.9-1.7c-0.6-0.5-1.2-0.8-1.8-0.8c-0.6,0-1.1,0.2-1.5,0.6c-0.3,0.3-0.5,0.7-0.5,1.1s0.1,0.8,0.3,1.2
		s0.5,0.9,0.9,1.6c0.5,0.8,0.9,1.5,1.2,2.1c0.3,0.6,0.4,1.2,0.3,1.9c-0.1,0.7-0.4,1.3-1,2c-0.6,0.6-1.2,1-1.9,1.2
		c-0.7,0.2-1.5,0.1-2.2-0.1c-0.8-0.3-1.5-0.7-2.2-1.4c-1-0.9-1.6-1.9-1.8-3c-0.2-1.1,0.1-2.1,0.8-3.1l1.9,1.7
		c-0.3,0.4-0.4,0.9-0.4,1.5c0.1,0.6,0.4,1.1,0.9,1.6c0.5,0.5,1,0.7,1.5,0.7c0.5,0,1-0.2,1.5-0.7c0.3-0.3,0.4-0.7,0.4-1.1
		c0-0.4-0.1-0.8-0.3-1.2c-0.2-0.4-0.5-0.9-0.9-1.5c-0.5-0.8-0.9-1.5-1.2-2.1c-0.3-0.6-0.4-1.2-0.3-1.9c0.1-0.7,0.4-1.3,1-2
		c0.5-0.5,1.1-0.9,1.8-1.1c0.7-0.2,1.5-0.2,2.3,0c0.8,0.2,1.6,0.7,2.3,1.3C62.5,221.8,63,222.5,63.3,223.2z"/>
	<path class="st1" d="M26.7,165.3l-1.1-4.7l1.8-0.4l1.6,6.9l-13.8,3.2l-0.5-2.3L26.7,165.3z"/>
	<path class="st1" d="M14.7,158l4.1-0.6l-0.7-4.8l1.9-0.3l0.7,4.8l4.3-0.6l-0.8-5.5l1.9-0.3l1.1,7.8l-14.1,2l-1.1-7.8l1.9-0.3
		L14.7,158z"/>
	<path class="st1" d="M22.5,139.9l0.2,5.9l2.9,0.9l0.1,2.4l-14.4-4.5l-0.1-2.7l14-5.6l0.1,2.4L22.5,139.9z M20.6,140.6l-6.5,2.5
		l6.7,2.1L20.6,140.6z"/>
	<path class="st1" d="M12.8,124.8c0.7-1.1,1.6-1.9,2.7-2.4c1.1-0.5,2.4-0.7,3.9-0.6s2.7,0.5,3.7,1.2c1,0.7,1.7,1.6,2.2,2.8
		c0.5,1.2,0.6,2.5,0.5,4l-0.4,4.6l-14.1-1.2l0.4-4.6C11.8,127.2,12.2,125.9,12.8,124.8z M22.9,125.8c-0.8-1-2-1.5-3.7-1.6
		c-1.6-0.1-3,0.2-4,1c-1,0.8-1.6,2-1.7,3.7l-0.2,2.3l10.4,0.9l0.2-2.3C24,128.1,23.7,126.8,22.9,125.8z"/>
	<path class="st1" d="M26.8,118.4c-0.5,0.7-1.1,1.2-1.7,1.5c-0.7,0.3-1.4,0.4-2.2,0.2l0.5-2.4c0.6,0.1,1.2-0.1,1.6-0.4
		c0.5-0.3,0.8-0.9,0.9-1.7c0.2-0.8,0.1-1.4-0.2-2s-0.7-0.8-1.3-1c-0.5-0.1-0.9,0-1.2,0.2c-0.3,0.2-0.6,0.5-0.9,0.9
		c-0.2,0.4-0.5,0.9-0.9,1.6c-0.4,0.9-0.8,1.5-1.2,2.1c-0.4,0.5-0.8,0.9-1.4,1.2s-1.3,0.4-2.2,0.2c-0.8-0.2-1.5-0.5-2-1
		c-0.5-0.5-0.9-1.2-1-2c-0.2-0.8-0.2-1.7,0-2.6c0.3-1.3,0.8-2.4,1.7-3.1c0.8-0.7,1.9-1,3.1-0.9l-0.5,2.5c-0.5-0.1-1,0.1-1.4,0.5
		c-0.4,0.4-0.7,0.9-0.9,1.6c-0.1,0.7-0.1,1.2,0.2,1.7s0.7,0.8,1.3,0.9c0.4,0.1,0.8,0,1.1-0.2s0.6-0.5,0.9-0.9
		c0.2-0.4,0.5-0.9,0.9-1.5c0.4-0.9,0.8-1.6,1.2-2.1c0.4-0.5,0.9-0.9,1.5-1.2s1.4-0.4,2.2-0.2c0.7,0.1,1.3,0.5,1.9,1
		c0.5,0.5,0.9,1.2,1.2,2c0.2,0.8,0.2,1.7,0,2.7C27.7,116.9,27.3,117.7,26.8,118.4z"/>
</g>
</svg>
