<?xml version="1.0" encoding="utf-8"?>
<!-- Generator: Adobe Illustrator 27.0.0, SVG Export Plug-In . SVG Version: 6.00 Build 0)  -->
<svg version="1.1" id="Layer_1" xmlns="http://www.w3.org/2000/svg" xmlns:xlink="http://www.w3.org/1999/xlink" x="0px" y="0px"
	 viewBox="0 0 275.3 275.3" style="enable-background:new 0 0 275.3 275.3;" xml:space="preserve">
<style type="text/css">
	.st0{opacity:0.5;fill:none;stroke:#FFFFFF;stroke-miterlimit:10;}
	.st1{fill:#FFFFFF;}
	.st2{fill:#3CDD59;}
	.st3{fill-rule:evenodd;clip-rule:evenodd;fill:#FEFEFE;}
</style>
<circle class="st0" cx="-143.6" cy="137.7" r="136.1"/>
<g>
	<path class="st1" d="M-229.1,61.6l3.2-3.6l1.4,1.3l-4.8,5.3l-10.5-9.5l1.6-1.7L-229.1,61.6z"/>
	<path class="st1" d="M-230,47.6l2.8,3l3.6-3.3l1.3,1.4l-3.6,3.3l3,3.2l4-3.8l1.3,1.4l-5.7,5.4l-9.7-10.4l5.7-5.4l1.3,1.4L-230,47.6
		z"/>
	<path class="st1" d="M-210.7,43.7l-4.7,3.6l0.9,2.9l-1.9,1.5l-4.5-14.4l2.1-1.6l12.6,8.3l-2,1.5L-210.7,43.7z M-212.3,42.5
		l-5.8-3.9l2.1,6.7L-212.3,42.5z"/>
	<path class="st1" d="M-203.8,27.1c1.3-0.1,2.4,0.2,3.5,0.8c1.1,0.6,2,1.6,2.7,2.8c0.7,1.2,1.1,2.5,1.1,3.7c0,1.2-0.4,2.4-1.1,3.4
		c-0.7,1.1-1.7,2-3,2.7l-4,2.3l-7.1-12.3l4-2.3C-206.4,27.6-205.1,27.2-203.8,27.1z M-198.9,35.9c0.3-1.2,0.1-2.5-0.7-4
		c-0.8-1.4-1.8-2.3-3.1-2.7c-1.2-0.4-2.6-0.1-4,0.7l-2,1.2l5.2,9l2-1.2C-200.1,38.1-199.3,37.1-198.9,35.9z"/>
	<path class="st1" d="M-190.5,34.9c-0.8,0-1.6-0.2-2.2-0.6c-0.6-0.4-1.1-1-1.4-1.7l2.3-1c0.3,0.5,0.7,0.9,1.3,1.1
		c0.5,0.2,1.2,0.1,1.9-0.2c0.7-0.3,1.2-0.7,1.5-1.3c0.3-0.5,0.3-1.1,0-1.6c-0.2-0.4-0.5-0.7-0.8-0.9c-0.4-0.2-0.8-0.2-1.2-0.2
		s-1,0.1-1.8,0.2c-0.9,0.1-1.7,0.2-2.4,0.2c-0.6,0-1.2-0.2-1.8-0.5c-0.6-0.3-1.1-0.9-1.4-1.7c-0.3-0.7-0.4-1.5-0.3-2.2
		c0.1-0.7,0.5-1.4,1-2s1.3-1.1,2.1-1.5c1.3-0.5,2.4-0.7,3.5-0.4c1.1,0.3,1.9,1,2.5,2l-2.4,1c-0.2-0.5-0.6-0.8-1.2-0.9
		c-0.6-0.2-1.2-0.1-1.8,0.2c-0.6,0.3-1,0.6-1.3,1.1s-0.3,1,0,1.6c0.2,0.4,0.4,0.7,0.8,0.8c0.4,0.2,0.8,0.2,1.2,0.2
		c0.4,0,1-0.1,1.7-0.2c1-0.1,1.8-0.2,2.4-0.2c0.6,0,1.3,0.2,1.9,0.5c0.6,0.3,1.1,0.9,1.4,1.7c0.3,0.7,0.4,1.4,0.3,2.1
		c-0.1,0.7-0.4,1.4-0.9,2.1c-0.5,0.6-1.3,1.2-2.2,1.6C-188.9,34.8-189.7,34.9-190.5,34.9z"/>
	<path class="st1" d="M-112.6,27.5l4.6,1.3l-0.5,1.8l-6.8-2l3.9-13.6l2.2,0.6L-112.6,27.5z"/>
	<path class="st1" d="M-100.3,20.5l-1.5,3.9l4.6,1.8l-0.7,1.8l-4.6-1.8l-1.6,4.1l5.1,2l-0.7,1.8l-7.3-2.8l5.1-13.3l7.3,2.8l-0.7,1.8
		L-100.3,20.5z"/>
	<path class="st1" d="M-88.3,36.3l-5.3-2.7l-2.2,2.1l-2.2-1.1l11-10.3l2.4,1.2l-2,15l-2.2-1.1L-88.3,36.3z M-88.1,34.3l1-6.9
		l-5.1,4.8L-88.1,34.3z"/>
	<path class="st1" d="M-70.5,35.2c0.6,1.1,0.9,2.3,0.8,3.5c-0.1,1.2-0.6,2.5-1.4,3.7c-0.8,1.2-1.8,2.1-2.9,2.6
		c-1.1,0.5-2.3,0.7-3.5,0.5c-1.3-0.2-2.5-0.7-3.8-1.5l-3.8-2.6l8-11.7l3.8,2.6C-72,33.1-71.1,34.1-70.5,35.2z M-76.3,43.5
		c1.2-0.2,2.3-1,3.2-2.4c0.9-1.4,1.3-2.7,1.1-3.9s-1-2.4-2.4-3.3l-1.9-1.3l-5.8,8.6l1.9,1.3C-78.8,43.4-77.5,43.7-76.3,43.5z"/>
	<path class="st1" d="M-71.7,50.6c-0.4-0.8-0.5-1.5-0.4-2.2c0.1-0.7,0.4-1.4,0.9-2l1.9,1.6c-0.4,0.5-0.5,1-0.4,1.6
		c0.1,0.6,0.4,1.1,1,1.6c0.6,0.5,1.2,0.8,1.8,0.8c0.6,0,1.1-0.2,1.5-0.7c0.3-0.4,0.5-0.7,0.4-1.2c0-0.4-0.1-0.8-0.3-1.2
		c-0.2-0.4-0.5-0.9-1-1.5c-0.5-0.8-0.9-1.5-1.2-2c-0.3-0.6-0.4-1.2-0.4-1.9c0-0.7,0.3-1.3,0.9-2c0.5-0.6,1.2-1,1.9-1.2
		s1.4-0.2,2.2,0.1c0.8,0.2,1.5,0.7,2.2,1.3c1,0.9,1.7,1.9,1.9,3c0.2,1.1,0,2.1-0.7,3.1l-1.9-1.7c0.3-0.4,0.4-0.9,0.3-1.5
		s-0.4-1.1-1-1.6c-0.5-0.4-1-0.7-1.6-0.7c-0.5,0-1,0.2-1.4,0.7c-0.3,0.3-0.4,0.7-0.4,1.1c0,0.4,0.1,0.8,0.3,1.2
		c0.2,0.4,0.5,0.9,0.9,1.5c0.5,0.8,1,1.5,1.2,2.1s0.4,1.2,0.4,1.9c0,0.7-0.4,1.4-0.9,2c-0.5,0.5-1.1,0.9-1.8,1.2
		c-0.7,0.2-1.5,0.2-2.3,0.1c-0.8-0.2-1.6-0.6-2.4-1.3C-70.8,52-71.4,51.3-71.7,50.6z"/>
	<path class="st1" d="M-32,112.4l1,4.7l-1.8,0.4l-1.5-7l13.9-3l0.5,2.3L-32,112.4z"/>
	<path class="st1" d="M-20,119.8l-4.1,0.5l0.6,4.9l-1.9,0.2l-0.6-4.9l-4.3,0.6l0.7,5.5l-1.9,0.2l-1-7.8l14.1-1.8l1,7.8l-1.9,0.2
		L-20,119.8z"/>
	<path class="st1" d="M-28.2,137.8l-0.1-5.9l-2.9-1l-0.1-2.4l14.3,4.7l0.1,2.7l-14.1,5.4l-0.1-2.4L-28.2,137.8z M-26.3,137.1
		l6.5-2.5l-6.6-2.2L-26.3,137.1z"/>
	<path class="st1" d="M-18.7,153c-0.7,1.1-1.6,1.9-2.7,2.4c-1.1,0.5-2.4,0.7-3.9,0.6s-2.6-0.6-3.6-1.3s-1.7-1.7-2.2-2.9
		s-0.6-2.5-0.5-4l0.5-4.6l14.1,1.4l-0.5,4.6C-17.6,150.7-18,152-18.7,153z M-28.7,151.9c0.8,1,2,1.5,3.6,1.7c1.6,0.2,3-0.2,4-0.9
		c1-0.8,1.6-2,1.8-3.7l0.2-2.3l-10.3-1l-0.2,2.3C-29.8,149.6-29.5,150.9-28.7,151.9z"/>
	<path class="st1" d="M-32.8,159.3c0.5-0.7,1.1-1.2,1.8-1.5c0.7-0.3,1.4-0.4,2.2-0.2l-0.5,2.4c-0.6-0.1-1.2,0.1-1.6,0.4
		s-0.8,0.9-1,1.6c-0.2,0.8-0.1,1.4,0.2,2c0.3,0.5,0.7,0.8,1.3,1c0.5,0.1,0.9,0,1.2-0.2s0.7-0.5,0.9-0.9c0.2-0.4,0.5-0.9,0.9-1.6
		c0.4-0.9,0.8-1.5,1.2-2c0.4-0.5,0.9-0.9,1.5-1.2c0.6-0.3,1.3-0.3,2.2-0.1c0.8,0.2,1.5,0.5,2,1.1s0.8,1.2,1,2s0.1,1.7-0.1,2.6
		c-0.3,1.3-0.9,2.4-1.7,3.1s-1.9,1-3.1,0.8l0.5-2.5c0.5,0.1,1-0.1,1.5-0.4c0.5-0.4,0.8-0.9,0.9-1.6c0.1-0.7,0.1-1.2-0.2-1.7
		c-0.2-0.5-0.7-0.8-1.3-0.9c-0.4-0.1-0.8,0-1.1,0.2c-0.3,0.2-0.6,0.5-0.9,0.8c-0.2,0.4-0.5,0.9-0.9,1.5c-0.5,0.9-0.9,1.6-1.2,2.1
		c-0.4,0.5-0.9,0.9-1.5,1.2s-1.4,0.3-2.2,0.2c-0.7-0.2-1.3-0.5-1.9-1c-0.5-0.5-0.9-1.2-1.1-2c-0.2-0.8-0.2-1.7,0-2.7
		C-33.6,160.7-33.3,159.9-32.8,159.3z"/>
	<path class="st1" d="M-64.3,220.1l-3.5,3.3l-1.3-1.4l5.2-4.9l9.8,10.3l-1.7,1.6L-64.3,220.1z"/>
	<path class="st1" d="M-64.4,234.2l-2.6-3.2l-3.8,3.1l-1.2-1.5l3.8-3.1l-2.7-3.4l-4.3,3.4l-1.2-1.5l6.1-4.9l8.9,11.1l-6.1,4.9
		l-1.2-1.5L-64.4,234.2z"/>
	<path class="st1" d="M-84.1,236.6l5-3.2l-0.7-3l2-1.3l3.4,14.7l-2.3,1.5l-11.9-9.2l2.1-1.3L-84.1,236.6z M-82.5,237.8l5.5,4.3
		l-1.6-6.8L-82.5,237.8z"/>
	<path class="st1" d="M-92.2,252.6c-1.3,0-2.4-0.4-3.4-1.1c-1-0.7-1.8-1.7-2.5-3s-0.9-2.6-0.8-3.8c0.1-1.2,0.5-2.3,1.3-3.3
		c0.8-1,1.9-1.8,3.2-2.5l4.2-2l6.1,12.8l-4.2,2C-89.6,252.3-90.9,252.6-92.2,252.6z M-96.4,243.4c-0.4,1.2-0.3,2.5,0.4,4
		c0.7,1.5,1.7,2.5,2.9,2.9c1.2,0.5,2.5,0.3,4-0.4l2.1-1l-4.5-9.4l-2.1,1C-95,241.3-95.9,242.2-96.4,243.4z"/>
	<path class="st1" d="M-110.1,248.2l5.6-1.9l0.1-3.1l2.3-0.8l-0.4,15.1l-2.6,0.8l-9.3-11.9l2.3-0.8L-110.1,248.2z M-108.9,249.8
		l4.3,5.5l0.1-7L-108.9,249.8z"/>
	<path class="st1" d="M-180,246.2l-4.5-1.5l0.6-1.8l6.7,2.3l-4.6,13.4l-2.2-0.8L-180,246.2z"/>
	<path class="st1" d="M-192.5,252.5l1.7-3.8l-4.5-2l0.8-1.7l4.5,2l1.8-4l-5-2.2l0.8-1.7l7.2,3.2l-5.7,13l-7.2-3.2l0.8-1.7
		L-192.5,252.5z"/>
	<path class="st1" d="M-203.7,236.3l5.1,3l2.3-2l2.1,1.2l-11.5,9.8l-2.3-1.3l2.7-14.8l2.1,1.2L-203.7,236.3z M-204.1,238.2l-1.3,6.9
		l5.3-4.5L-204.1,238.2z"/>
	<path class="st1" d="M-221.6,236.4c-0.6-1.1-0.8-2.3-0.6-3.6s0.7-2.4,1.5-3.6c0.9-1.2,1.9-2,3-2.4c1.1-0.5,2.3-0.6,3.6-0.4
		c1.2,0.2,2.5,0.8,3.7,1.7l3.7,2.8l-8.5,11.3l-3.7-2.8C-220.2,238.6-221.1,237.6-221.6,236.4z M-215.5,228.5
		c-1.2,0.2-2.4,0.9-3.3,2.2c-1,1.3-1.4,2.6-1.3,3.9c0.1,1.3,0.9,2.4,2.2,3.4l1.8,1.4l6.3-8.3l-1.8-1.4
		C-212.9,228.7-214.2,228.3-215.5,228.5z"/>
	<path class="st1" d="M-219.6,221.1c0.3,0.8,0.4,1.5,0.3,2.3s-0.4,1.4-1,2l-1.8-1.7c0.4-0.5,0.6-1,0.5-1.6c0-0.6-0.3-1.1-0.9-1.7
		c-0.6-0.6-1.2-0.8-1.8-0.9c-0.6,0-1.1,0.2-1.5,0.6c-0.3,0.3-0.5,0.7-0.5,1.1c0,0.4,0.1,0.8,0.3,1.2c0.2,0.4,0.5,0.9,0.9,1.6
		c0.5,0.8,0.9,1.5,1.1,2.1c0.2,0.6,0.3,1.2,0.3,1.9c-0.1,0.7-0.4,1.3-1,2c-0.6,0.6-1.2,1-1.9,1.1c-0.7,0.2-1.5,0.1-2.2-0.2
		c-0.8-0.3-1.5-0.7-2.2-1.4c-1-0.9-1.6-2-1.7-3.1s0.1-2.1,0.9-3.1l1.9,1.8c-0.3,0.4-0.5,0.9-0.4,1.5c0.1,0.6,0.4,1.1,0.9,1.6
		c0.5,0.5,1,0.7,1.5,0.8c0.5,0,1-0.2,1.5-0.6c0.3-0.3,0.5-0.7,0.5-1c0-0.4-0.1-0.8-0.3-1.2c-0.2-0.4-0.5-0.9-0.8-1.5
		c-0.5-0.8-0.9-1.5-1.1-2.1c-0.2-0.6-0.3-1.2-0.3-1.9c0.1-0.7,0.4-1.3,1-2c0.5-0.5,1.1-0.9,1.8-1.1c0.7-0.2,1.5-0.2,2.3,0.1
		c0.8,0.2,1.6,0.7,2.3,1.4C-220.5,219.7-220,220.4-219.6,221.1z"/>
	<path class="st1" d="M-255.3,162.6l-1-4.7l1.8-0.4l1.5,7l-13.9,3l-0.5-2.3L-255.3,162.6z"/>
	<path class="st1" d="M-267.2,155.2l4.1-0.5l-0.6-4.9l1.9-0.2l0.6,4.9l4.3-0.6l-0.7-5.5l1.9-0.2l1,7.8l-14.1,1.8l-1-7.8l1.9-0.2
		L-267.2,155.2z"/>
	<path class="st1" d="M-259.1,137.2l0.1,5.9l2.9,1l0.1,2.4l-14.3-4.8l-0.1-2.7l14.1-5.4l0.1,2.4L-259.1,137.2z M-261,137.9l-6.5,2.4
		l6.6,2.2L-261,137.9z"/>
	<path class="st1" d="M-268.5,122c0.7-1.1,1.6-1.9,2.7-2.4c1.1-0.5,2.4-0.7,3.9-0.5c1.4,0.1,2.6,0.6,3.6,1.3s1.7,1.7,2.2,2.9
		c0.4,1.2,0.6,2.5,0.4,4l-0.5,4.6l-14.1-1.4l0.5-4.6C-269.6,124.3-269.2,123-268.5,122z M-258.5,123.1c-0.8-1-2-1.5-3.6-1.7
		c-1.6-0.2-3,0.1-4,0.9c-1,0.8-1.6,2-1.8,3.7l-0.2,2.3l10.3,1l0.2-2.3C-257.4,125.4-257.7,124.1-258.5,123.1z"/>
	<path class="st1" d="M-254.4,115.7c-0.5,0.7-1.1,1.2-1.8,1.4c-0.7,0.3-1.4,0.4-2.2,0.2l0.5-2.4c0.6,0.1,1.2,0,1.6-0.4
		c0.5-0.3,0.8-0.9,1-1.6c0.2-0.8,0.1-1.4-0.2-2c-0.3-0.5-0.7-0.8-1.3-1c-0.5-0.1-0.9,0-1.2,0.2s-0.7,0.5-0.9,0.9
		c-0.2,0.4-0.5,0.9-0.9,1.6c-0.4,0.9-0.8,1.5-1.2,2c-0.4,0.5-0.9,0.9-1.5,1.2c-0.6,0.3-1.3,0.3-2.2,0.1c-0.8-0.2-1.5-0.5-2-1.1
		c-0.5-0.5-0.8-1.2-1-2c-0.2-0.8-0.1-1.7,0.1-2.6c0.3-1.3,0.9-2.4,1.7-3.1c0.9-0.7,1.9-1,3.1-0.8l-0.6,2.5c-0.5-0.1-1,0.1-1.5,0.4
		c-0.5,0.4-0.8,0.9-0.9,1.6c-0.1,0.7-0.1,1.2,0.1,1.7c0.2,0.5,0.7,0.8,1.3,0.9c0.4,0.1,0.8,0,1.1-0.2c0.3-0.2,0.6-0.5,0.9-0.8
		c0.2-0.4,0.5-0.9,0.9-1.5c0.5-0.9,0.9-1.6,1.3-2.1c0.4-0.5,0.9-0.9,1.5-1.2c0.6-0.3,1.4-0.3,2.2-0.1c0.7,0.2,1.3,0.5,1.9,1
		c0.5,0.5,0.9,1.2,1.1,2c0.2,0.8,0.2,1.7,0,2.7C-253.6,114.3-253.9,115.1-254.4,115.7z"/>
</g>
<g>
	<defs>
		<circle id="SVGID_1_" cx="424.4" cy="137.7" r="103.3"/>
	</defs>
	<clipPath id="SVGID_00000073696476379174054290000005250543752738451629_">
		<use xlink:href="#SVGID_1_"  style="overflow:visible;"/>
	</clipPath>
	
		<g transform="matrix(1 0 0 1 -1.525879e-05 -9.536743e-07)" style="clip-path:url(#SVGID_00000073696476379174054290000005250543752738451629_);">
		
			<image style="overflow:visible;" width="626" height="626" xlink:href="A026634C.jpg"  transform="matrix(0.6903 0 0 0.6903 251.6451 11.8217)">
		</image>
	</g>
</g>
<g>
	<circle class="st2" cx="427.1" cy="137.7" r="105.2"/>
	<path class="st3" d="M428.4,193.7c-11.8,0-22.8-3.5-32-9.6l-22.3,7.1l7.2-21.5c-7-9.5-11.1-21.3-11.1-33.9c0-1.9,0.1-3.7,0.4-5.6
		c2.8-29.3,27.8-52.3,57.9-52.3c30.6,0,55.8,23.5,58.2,53.3c0.1,1.5,0.1,3.1,0.1,4.5C486.7,167.7,460.5,193.7,428.4,193.7
		L428.4,193.7z M460.2,149.7c-1.8-0.8-10.1-5-11.6-5.6c-1.7-0.5-2.7-0.8-3.9,0.9c-1.1,1.7-4.4,5.4-5.3,6.5c-1.1,1.2-2,1.3-3.7,0.5
		c-1.8-0.8-7.2-2.6-13.7-8.4c-5.1-4.5-8.5-9.9-9.5-11.6c-0.9-1.8-0.1-2.6,0.7-3.5c0.8-0.7,1.8-1.9,2.6-3c0.2-0.2,0.5-0.5,0.6-0.7
		c0.5-0.7,0.7-1.3,1.1-2c0.6-1.2,0.4-2.1-0.1-3c-0.4-0.8-3.8-9.2-5.2-12.5c-1.4-3.4-2.8-2.8-3.8-2.8c-1.1,0-2.1-0.1-3.3-0.1
		c-1.2,0-3,0.4-4.5,2.1c-1.7,1.7-6,5.7-6,14.1c0,1.9,0.4,3.9,1,5.7c1.7,6,5.4,10.9,6,11.7c0.8,1.2,11.7,18.7,29,25.4
		c17.4,6.7,17.4,4.5,20.5,4.3s10.1-4,11.5-8c1.4-3.9,1.4-7.3,0.9-8S461.8,150.6,460.2,149.7L460.2,149.7z M497.7,134.1
		c-1-37.3-31.6-67.1-69.3-67.1c-37.2,0-67.6,29.1-69.2,65.8c-0.1,0.9-0.1,2-0.1,3c0,13,3.7,25.2,9.9,35.6l-12.5,36.9l38.4-12.2
		c9.9,5.4,21.4,8.5,33.5,8.5c38.3,0,69.4-30.7,69.4-68.8C497.8,135.2,497.7,134.7,497.7,134.1L497.7,134.1z"/>
</g>
<circle class="st0" cx="137.7" cy="137.7" r="136.3"/>
<g>
	<path class="st1" d="M54.4,41.3l7.1,13l-1.9,1.9L50,50.8l5.4,9.8l-1.8,1.9l-12.9-7.2l1.7-1.8l10.3,6.1l-6-10.4l1.8-1.9l10.3,6
		l-6.1-10.2L54.4,41.3z"/>
	<path class="st1" d="M66.4,32.5l8.5,11.4L73,45.3l-3.7-5l-5.4,4l3.7,5l-1.9,1.4l-8.5-11.4l1.9-1.4l3.6,4.9l5.4-4l-3.6-4.9
		L66.4,32.5z"/>
	<path class="st1" d="M83.1,35.7l-5.2,2.9l0.5,3l-2.1,1.2L73.8,28l2.3-1.3l11.5,9.8l-2.1,1.2L83.1,35.7z M81.6,34.4l-5.3-4.6
		l1.2,6.9L81.6,34.4z"/>
	<path class="st1" d="M92.1,19.1l0.8,1.7l-3.5,1.5l4.9,11.3l-2.1,0.9l-4.9-11.3l-3.5,1.5L83,23L92.1,19.1z"/>
	<path class="st1" d="M101.5,30.5c-0.8-0.1-1.5-0.4-2.1-0.8c-0.6-0.5-1-1.1-1.3-1.9l2.4-0.7c0.2,0.6,0.6,1,1.1,1.2
		c0.5,0.2,1.2,0.3,1.9,0c0.8-0.2,1.3-0.6,1.6-1.1c0.3-0.5,0.4-1,0.2-1.6c-0.1-0.5-0.4-0.8-0.7-1c-0.4-0.2-0.8-0.3-1.2-0.4
		c-0.4,0-1,0-1.8,0c-1,0-1.8,0-2.4,0c-0.6-0.1-1.2-0.3-1.8-0.7c-0.5-0.4-1-1-1.2-1.8c-0.2-0.8-0.3-1.5-0.1-2.2
		c0.2-0.7,0.6-1.3,1.2-1.9c0.6-0.5,1.4-0.9,2.3-1.2c1.3-0.4,2.5-0.4,3.5,0c1,0.4,1.8,1.2,2.2,2.3l-2.5,0.8c-0.2-0.5-0.6-0.8-1.1-1
		c-0.5-0.2-1.2-0.2-1.9,0c-0.6,0.2-1.1,0.5-1.4,1c-0.3,0.5-0.4,1-0.2,1.6c0.1,0.4,0.4,0.7,0.7,0.9s0.7,0.3,1.2,0.3c0.4,0,1,0,1.8,0
		c1,0,1.8,0,2.4,0.1c0.6,0.1,1.2,0.3,1.8,0.7c0.6,0.4,1,1,1.2,1.9c0.2,0.7,0.2,1.4,0.1,2.1c-0.2,0.7-0.6,1.4-1.2,2
		c-0.6,0.6-1.4,1-2.3,1.3C103.1,30.5,102.3,30.6,101.5,30.5z"/>
	<path class="st1" d="M118.9,23.6l-5.8,1.1l-0.5,3l-2.4,0.5l2.4-14.9l2.7-0.5l7.6,13l-2.4,0.5L118.9,23.6z M117.9,21.8l-3.5-6.1
		l-1.1,6.9L117.9,21.8z"/>
	<path class="st1" d="M133.4,17c-0.3,0.7-0.8,1.2-1.5,1.7c-0.7,0.5-1.7,0.7-2.8,0.8l-2.6,0.2l0.4,5.7l-2.3,0.2l-1-14.2l4.9-0.4
		c1.1-0.1,2,0,2.8,0.4c0.8,0.3,1.4,0.8,1.8,1.4c0.4,0.6,0.7,1.3,0.7,2.1C133.9,15.7,133.7,16.4,133.4,17z M130.9,16.9
		c0.4-0.4,0.6-1,0.5-1.8c-0.1-1.5-1-2.3-2.8-2.1l-2.6,0.2l0.3,4.6l2.6-0.2C129.8,17.6,130.5,17.3,130.9,16.9z"/>
	<path class="st1" d="M146.1,17.3c-0.4,0.6-0.9,1.1-1.7,1.5c-0.8,0.4-1.7,0.6-2.9,0.5l-2.6-0.1l-0.2,5.8l-2.3-0.1l0.4-14.2l4.9,0.1
		c1.1,0,2,0.2,2.8,0.6c0.7,0.4,1.3,0.9,1.7,1.6c0.4,0.7,0.5,1.4,0.5,2.2C146.6,16,146.4,16.6,146.1,17.3z M143.5,16.9
		c0.4-0.4,0.7-1,0.7-1.7c0-1.6-0.8-2.4-2.6-2.4l-2.6-0.1l-0.1,4.6l2.6,0.1C142.4,17.4,143.1,17.2,143.5,16.9z"/>
	<path class="st1" d="M232.5,52.8l-12.9,7.3l-1.9-1.8l5.3-9.8l-9.7,5.6l-1.9-1.8l6.9-13.1l1.8,1.7l-5.9,10.4l10.3-6.1l1.9,1.8
		l-5.8,10.4l10.1-6.3L232.5,52.8z"/>
	<path class="st1" d="M241.5,64.7l-11.2,8.7l-1.4-1.8l4.9-3.8l-4.1-5.3l-4.9,3.8l-1.4-1.8l11.2-8.7l1.4,1.8l-4.8,3.7l4.1,5.3
		l4.8-3.7L241.5,64.7z"/>
	<path class="st1" d="M238.6,81.4l-3-5.1l-3,0.6l-1.2-2.1l14.8-2.9l1.4,2.3l-9.6,11.6l-1.2-2.1L238.6,81.4z M239.9,79.9l4.5-5.4
		l-6.9,1.4L239.9,79.9z"/>
	<path class="st1" d="M255.4,90.1l-1.7,0.8l-1.6-3.4l-11.2,5.1l-1-2.1l11.2-5.1l-1.6-3.5l1.7-0.8L255.4,90.1z"/>
	<path class="st1" d="M244.1,99.6c0.1-0.8,0.3-1.5,0.8-2.2c0.4-0.6,1.1-1,1.8-1.3l0.8,2.4c-0.6,0.2-1,0.6-1.2,1.2
		c-0.2,0.5-0.2,1.2,0,1.9c0.3,0.8,0.6,1.3,1.1,1.6c0.5,0.3,1.1,0.4,1.6,0.2c0.5-0.1,0.8-0.4,1-0.8c0.2-0.4,0.3-0.8,0.3-1.2
		c0-0.4,0-1,0-1.8c-0.1-1-0.1-1.7,0-2.4c0.1-0.6,0.3-1.2,0.6-1.8c0.4-0.6,1-1,1.8-1.3c0.8-0.3,1.5-0.3,2.2-0.1
		c0.7,0.2,1.3,0.6,1.9,1.2c0.5,0.6,1,1.4,1.3,2.3c0.4,1.3,0.5,2.5,0.1,3.5c-0.4,1.1-1.1,1.8-2.2,2.3l-0.8-2.4c0.5-0.2,0.8-0.6,1-1.1
		c0.2-0.5,0.2-1.2,0-1.9c-0.2-0.6-0.5-1.1-1-1.4c-0.5-0.3-1-0.3-1.6-0.1c-0.4,0.1-0.7,0.4-0.9,0.7c-0.2,0.3-0.3,0.7-0.3,1.2
		c0,0.4,0,1,0,1.8c0.1,1,0,1.8,0,2.4c-0.1,0.6-0.3,1.2-0.7,1.8c-0.4,0.6-1,1-1.8,1.3c-0.7,0.2-1.4,0.3-2.1,0.1
		c-0.7-0.2-1.4-0.5-2-1.1c-0.6-0.6-1.1-1.4-1.4-2.3C244.2,101.3,244.1,100.5,244.1,99.6z"/>
	<path class="st1" d="M251.4,116.9l-1.2-5.8l-3-0.4l-0.5-2.4l15,2.1l0.5,2.6l-12.9,7.9l-0.5-2.4L251.4,116.9z M253.1,115.9l6-3.6
		l-6.9-0.9L253.1,115.9z"/>
	<path class="st1" d="M258.2,131.4c-0.7-0.3-1.2-0.8-1.7-1.5c-0.5-0.7-0.8-1.6-0.9-2.8l-0.2-2.6l-5.7,0.5l-0.2-2.3l14.1-1.3l0.4,4.9
		c0.1,1.1,0,2-0.3,2.8c-0.3,0.8-0.8,1.4-1.4,1.8c-0.6,0.4-1.3,0.7-2.1,0.8C259.5,131.8,258.8,131.7,258.2,131.4z M258.3,128.8
		c0.4,0.4,1,0.6,1.8,0.5c1.5-0.1,2.2-1.1,2.1-2.8l-0.2-2.6l-4.6,0.4l0.2,2.6C257.6,127.8,257.8,128.4,258.3,128.8z"/>
	<path class="st1" d="M258.1,144c-0.6-0.4-1.1-0.9-1.5-1.7c-0.4-0.8-0.6-1.7-0.6-2.9l0-2.6l-5.8-0.1l0-2.3l14.2,0.2l-0.1,4.9
		c0,1.1-0.2,2-0.6,2.8c-0.4,0.7-0.9,1.3-1.5,1.7c-0.6,0.4-1.4,0.5-2.2,0.5C259.5,144.5,258.8,144.4,258.1,144z M258.5,141.5
		c0.4,0.4,1,0.7,1.7,0.7c1.6,0,2.3-0.8,2.4-2.6l0-2.6l-4.6-0.1l0,2.6C257.9,140.4,258.1,141,258.5,141.5z"/>
	<path class="st1" d="M224.1,231l-7.6-12.7l1.8-1.9l9.9,5.1l-5.7-9.6l1.8-1.9l13.2,6.7l-1.7,1.8l-10.5-5.7l6.3,10.2l-1.8,1.9
		l-10.5-5.6l6.4,10L224.1,231z"/>
	<path class="st1" d="M212.5,240.3l-8.9-11.1l1.8-1.5l3.9,4.8l5.2-4.2l-3.9-4.8l1.8-1.5l8.9,11.1l-1.8,1.5l-3.8-4.8l-5.2,4.2
		l3.8,4.8L212.5,240.3z"/>
	<path class="st1" d="M195.7,237.7l5.1-3.1l-0.7-3l2.1-1.3l3.1,14.8l-2.3,1.4l-11.8-9.4l2.1-1.3L195.7,237.7z M197.2,239l5.4,4.4
		l-1.5-6.8L197.2,239z"/>
	<path class="st1" d="M187.3,254.6l-0.8-1.7l3.4-1.6l-5.3-11.1l2.1-1l5.3,11.1l3.4-1.6l0.8,1.7L187.3,254.6z"/>
	<path class="st1" d="M177.5,243.5c0.8,0.1,1.6,0.3,2.2,0.7c0.6,0.4,1.1,1,1.3,1.8l-2.4,0.8c-0.3-0.6-0.7-1-1.2-1.2s-1.2-0.2-1.9,0
		c-0.8,0.3-1.3,0.7-1.6,1.2c-0.3,0.5-0.3,1.1-0.1,1.6c0.2,0.4,0.4,0.8,0.8,1c0.4,0.2,0.8,0.3,1.2,0.3c0.4,0,1,0,1.8-0.1
		c1-0.1,1.7-0.1,2.4,0c0.6,0,1.2,0.3,1.8,0.6c0.6,0.4,1,1,1.3,1.8c0.3,0.8,0.3,1.5,0.1,2.2s-0.6,1.3-1.2,1.9c-0.6,0.6-1.3,1-2.2,1.3
		c-1.3,0.5-2.5,0.5-3.5,0.1c-1.1-0.4-1.8-1.1-2.3-2.2l2.4-0.9c0.2,0.5,0.6,0.8,1.1,1c0.5,0.2,1.2,0.2,1.9-0.1c0.6-0.2,1.1-0.6,1.4-1
		c0.3-0.5,0.3-1,0.1-1.6c-0.1-0.4-0.4-0.7-0.7-0.9c-0.3-0.2-0.7-0.3-1.2-0.3c-0.4,0-1,0-1.8,0.1c-1,0.1-1.8,0.1-2.4,0
		c-0.6,0-1.3-0.3-1.8-0.6c-0.6-0.4-1-1-1.3-1.8c-0.2-0.7-0.3-1.4-0.1-2.1s0.5-1.4,1.1-2s1.3-1.1,2.3-1.4
		C175.8,243.6,176.7,243.5,177.5,243.5z"/>
	<path class="st1" d="M160.4,251.1l5.8-1.3l0.4-3.1l2.4-0.5l-1.8,15l-2.6,0.6l-8.1-12.7l2.4-0.5L160.4,251.1z M161.4,252.8l3.7,5.9
		l0.8-7L161.4,252.8z"/>
	<path class="st1" d="M146,258.1c0.3-0.7,0.8-1.3,1.5-1.7c0.7-0.5,1.6-0.8,2.8-0.9l2.6-0.3l-0.6-5.7l2.3-0.3l1.5,14.1l-4.9,0.5
		c-1.1,0.1-2,0-2.8-0.3c-0.8-0.3-1.4-0.7-1.9-1.3c-0.4-0.6-0.7-1.3-0.8-2.1C145.7,259.5,145.8,258.8,146,258.1z M148.6,258.2
		c-0.4,0.4-0.5,1-0.5,1.8c0.2,1.5,1.1,2.2,2.9,2l2.6-0.3l-0.5-4.6l-2.6,0.3C149.6,257.5,149,257.7,148.6,258.2z"/>
	<path class="st1" d="M133.5,258.4c0.3-0.6,0.9-1.2,1.6-1.6c0.7-0.4,1.7-0.6,2.9-0.6l2.6,0l-0.1-5.8l2.3,0l0.2,14.2l-4.9,0.1
		c-1.1,0-2-0.2-2.8-0.5c-0.8-0.4-1.3-0.9-1.7-1.5c-0.4-0.6-0.6-1.3-0.6-2.1C133,259.7,133.2,259,133.5,258.4z M136,258.7
		c-0.4,0.4-0.6,1-0.6,1.7c0,1.6,0.9,2.3,2.7,2.3l2.6,0l-0.1-4.6l-2.6,0C137.1,258.1,136.5,258.3,136,258.7z"/>
	<path class="st1" d="M45.8,225.8l12.6-7.8l2,1.8l-4.9,10l9.5-5.9l2,1.7l-6.5,13.3l-1.8-1.6l5.5-10.6L54,233.2l-2-1.7l5.5-10.6
		l-9.9,6.6L45.8,225.8z"/>
	<path class="st1" d="M36.3,214.3l10.9-9.1l1.5,1.8l-4.8,4l4.3,5.1l4.8-4l1.5,1.8l-10.9,9.1l-1.5-1.8l4.7-3.9l-4.3-5.1l-4.7,3.9
		L36.3,214.3z"/>
	<path class="st1" d="M38.6,197.5l3.2,5l3-0.7l1.3,2l-14.7,3.4L30,205l9.2-12l1.3,2.1L38.6,197.5z M37.4,199.1l-4.3,5.5l6.8-1.6
		L37.4,199.1z"/>
	<path class="st1" d="M21.6,189.4l1.7-0.8L25,192l11-5.5l1,2.1l-11,5.5l1.7,3.4l-1.7,0.8L21.6,189.4z"/>
	<path class="st1" d="M32.5,179.5c0,0.8-0.3,1.6-0.7,2.2c-0.4,0.6-1,1.1-1.8,1.4l-0.9-2.3c0.6-0.3,0.9-0.7,1.2-1.2s0.2-1.2-0.1-1.9
		c-0.3-0.8-0.7-1.3-1.2-1.6c-0.5-0.3-1.1-0.3-1.6-0.1c-0.4,0.2-0.8,0.4-0.9,0.8c-0.2,0.4-0.3,0.8-0.3,1.2c0,0.4,0,1,0.1,1.8
		c0.1,1,0.1,1.7,0.1,2.4c0,0.6-0.2,1.2-0.6,1.8c-0.4,0.6-0.9,1-1.8,1.3c-0.8,0.3-1.5,0.3-2.2,0.2c-0.7-0.2-1.4-0.5-1.9-1.1
		c-0.6-0.6-1-1.3-1.3-2.2c-0.5-1.3-0.5-2.5-0.2-3.5c0.3-1.1,1.1-1.8,2.1-2.4l0.9,2.4c-0.5,0.2-0.8,0.6-1,1.2
		c-0.2,0.5-0.2,1.2,0.1,1.9c0.2,0.6,0.6,1.1,1,1.4c0.5,0.3,1,0.3,1.6,0.1c0.4-0.2,0.7-0.4,0.9-0.7c0.2-0.3,0.3-0.7,0.3-1.2
		c0-0.4,0-1-0.1-1.8c-0.1-1-0.1-1.8-0.1-2.4c0-0.6,0.2-1.3,0.6-1.8c0.4-0.6,1-1,1.8-1.3c0.7-0.3,1.4-0.3,2.1-0.2
		c0.7,0.1,1.4,0.5,2,1.1c0.6,0.6,1.1,1.3,1.5,2.3C32.4,177.8,32.5,178.6,32.5,179.5z"/>
	<path class="st1" d="M24.6,162.5l1.4,5.8l3.1,0.3l0.6,2.4l-15-1.6l-0.6-2.6l12.6-8.3l0.6,2.4L24.6,162.5z M22.9,163.5l-5.9,3.8
		l7,0.7L22.9,163.5z"/>
	<path class="st1" d="M17.4,148.3c0.7,0.3,1.3,0.7,1.8,1.4c0.5,0.7,0.8,1.6,1,2.8l0.3,2.6l5.7-0.7l0.3,2.3l-14.1,1.8l-0.6-4.9
		c-0.1-1.1-0.1-2,0.2-2.8c0.3-0.8,0.7-1.4,1.3-1.9c0.6-0.5,1.3-0.7,2.1-0.8C16,147.9,16.7,148,17.4,148.3z M17.3,150.8
		c-0.5-0.4-1-0.5-1.8-0.4c-1.5,0.2-2.2,1.2-2,2.9l0.3,2.6l4.6-0.6l-0.3-2.6C18.1,151.8,17.8,151.2,17.3,150.8z"/>
	<path class="st1" d="M16.9,135.6c0.6,0.3,1.2,0.9,1.6,1.6c0.4,0.7,0.6,1.7,0.7,2.9l0.1,2.6l5.8-0.1l0.1,2.3l-14.2,0.3l-0.1-4.9
		c0-1.1,0.1-2,0.5-2.8c0.4-0.8,0.9-1.3,1.5-1.7c0.6-0.4,1.3-0.6,2.1-0.6C15.6,135.2,16.3,135.3,16.9,135.6z M16.6,138.2
		c-0.4-0.4-1-0.6-1.7-0.6c-1.6,0-2.3,0.9-2.3,2.7l0.1,2.6l4.6-0.1l-0.1-2.6C17.3,139.3,17,138.6,16.6,138.2z"/>
</g>
</svg>
