<?xml version="1.0" encoding="utf-8"?>
<!-- Generator: Adobe Illustrator 27.0.0, SVG Export Plug-In . SVG Version: 6.00 Build 0)  -->
<svg version="1.1" id="Layer_1" xmlns="http://www.w3.org/2000/svg" xmlns:xlink="http://www.w3.org/1999/xlink" x="0px" y="0px"
	 viewBox="0 0 275.3 275.3" style="enable-background:new 0 0 275.3 275.3;" xml:space="preserve">
<style type="text/css">
	.st0{opacity:0.5;fill:none;stroke:#FFFFFF;stroke-miterlimit:10;}
	.st1{fill:#FFFFFF;}
	.st2{fill:#3CDD59;}
	.st3{fill-rule:evenodd;clip-rule:evenodd;fill:#FEFEFE;}
	.st4{fill:#ED1E79;}
</style>
<circle class="st0" cx="-143.6" cy="137.7" r="136.1"/>
<g>
	<path class="st1" d="M-229.1,61.6l3.2-3.6l1.4,1.3l-4.8,5.3l-10.5-9.5l1.6-1.7L-229.1,61.6z"/>
	<path class="st1" d="M-230,47.6l2.8,3l3.6-3.3l1.3,1.4l-3.6,3.3l3,3.2l4-3.8l1.3,1.4l-5.7,5.4l-9.7-10.4l5.7-5.4l1.3,1.4L-230,47.6
		z"/>
	<path class="st1" d="M-210.7,43.7l-4.7,3.6l0.9,2.9l-1.9,1.5l-4.5-14.4l2.1-1.6l12.6,8.3l-2,1.5L-210.7,43.7z M-212.3,42.5
		l-5.8-3.9l2.1,6.7L-212.3,42.5z"/>
	<path class="st1" d="M-203.8,27.1c1.3-0.1,2.4,0.2,3.5,0.8c1.1,0.6,2,1.6,2.7,2.8c0.7,1.2,1.1,2.5,1.1,3.7c0,1.2-0.4,2.4-1.1,3.4
		c-0.7,1.1-1.7,2-3,2.7l-4,2.3l-7.1-12.3l4-2.3C-206.4,27.6-205.1,27.2-203.8,27.1z M-198.9,35.9c0.3-1.2,0.1-2.5-0.7-4
		c-0.8-1.4-1.8-2.3-3.1-2.7c-1.2-0.4-2.6-0.1-4,0.7l-2,1.2l5.2,9l2-1.2C-200.1,38.1-199.3,37.1-198.9,35.9z"/>
	<path class="st1" d="M-190.5,34.9c-0.8,0-1.6-0.2-2.2-0.6c-0.6-0.4-1.1-1-1.4-1.7l2.3-1c0.3,0.5,0.7,0.9,1.3,1.1
		c0.5,0.2,1.2,0.1,1.9-0.2c0.7-0.3,1.2-0.7,1.5-1.3c0.3-0.5,0.3-1.1,0-1.6c-0.2-0.4-0.5-0.7-0.8-0.9c-0.4-0.2-0.8-0.2-1.2-0.2
		s-1,0.1-1.8,0.2c-0.9,0.1-1.7,0.2-2.4,0.2c-0.6,0-1.2-0.2-1.8-0.5c-0.6-0.3-1.1-0.9-1.4-1.7c-0.3-0.7-0.4-1.5-0.3-2.2
		c0.1-0.7,0.5-1.4,1-2s1.3-1.1,2.1-1.5c1.3-0.5,2.4-0.7,3.5-0.4c1.1,0.3,1.9,1,2.5,2l-2.4,1c-0.2-0.5-0.6-0.8-1.2-0.9
		c-0.6-0.2-1.2-0.1-1.8,0.2c-0.6,0.3-1,0.6-1.3,1.1s-0.3,1,0,1.6c0.2,0.4,0.4,0.7,0.8,0.8c0.4,0.2,0.8,0.2,1.2,0.2
		c0.4,0,1-0.1,1.7-0.2c1-0.1,1.8-0.2,2.4-0.2c0.6,0,1.3,0.2,1.9,0.5c0.6,0.3,1.1,0.9,1.4,1.7c0.3,0.7,0.4,1.4,0.3,2.1
		c-0.1,0.7-0.4,1.4-0.9,2.1c-0.5,0.6-1.3,1.2-2.2,1.6C-188.9,34.8-189.7,34.9-190.5,34.9z"/>
	<path class="st1" d="M-112.6,27.5l4.6,1.3l-0.5,1.8l-6.8-2l3.9-13.6l2.2,0.6L-112.6,27.5z"/>
	<path class="st1" d="M-100.3,20.5l-1.5,3.9l4.6,1.8l-0.7,1.8l-4.6-1.8l-1.6,4.1l5.1,2l-0.7,1.8l-7.3-2.8l5.1-13.3l7.3,2.8l-0.7,1.8
		L-100.3,20.5z"/>
	<path class="st1" d="M-88.3,36.3l-5.3-2.7l-2.2,2.1l-2.2-1.1l11-10.3l2.4,1.2l-2,15l-2.2-1.1L-88.3,36.3z M-88.1,34.3l1-6.9
		l-5.1,4.8L-88.1,34.3z"/>
	<path class="st1" d="M-70.5,35.2c0.6,1.1,0.9,2.3,0.8,3.5c-0.1,1.2-0.6,2.5-1.4,3.7c-0.8,1.2-1.8,2.1-2.9,2.6
		c-1.1,0.5-2.3,0.7-3.5,0.5c-1.3-0.2-2.5-0.7-3.8-1.5l-3.8-2.6l8-11.7l3.8,2.6C-72,33.1-71.1,34.1-70.5,35.2z M-76.3,43.5
		c1.2-0.2,2.3-1,3.2-2.4c0.9-1.4,1.3-2.7,1.1-3.9s-1-2.4-2.4-3.3l-1.9-1.3l-5.8,8.6l1.9,1.3C-78.8,43.4-77.5,43.7-76.3,43.5z"/>
	<path class="st1" d="M-71.7,50.6c-0.4-0.8-0.5-1.5-0.4-2.2c0.1-0.7,0.4-1.4,0.9-2l1.9,1.6c-0.4,0.5-0.5,1-0.4,1.6
		c0.1,0.6,0.4,1.1,1,1.6c0.6,0.5,1.2,0.8,1.8,0.8c0.6,0,1.1-0.2,1.5-0.7c0.3-0.4,0.5-0.7,0.4-1.2c0-0.4-0.1-0.8-0.3-1.2
		c-0.2-0.4-0.5-0.9-1-1.5c-0.5-0.8-0.9-1.5-1.2-2c-0.3-0.6-0.4-1.2-0.4-1.9c0-0.7,0.3-1.3,0.9-2c0.5-0.6,1.2-1,1.9-1.2
		s1.4-0.2,2.2,0.1c0.8,0.2,1.5,0.7,2.2,1.3c1,0.9,1.7,1.9,1.9,3c0.2,1.1,0,2.1-0.7,3.1l-1.9-1.7c0.3-0.4,0.4-0.9,0.3-1.5
		s-0.4-1.1-1-1.6c-0.5-0.4-1-0.7-1.6-0.7c-0.5,0-1,0.2-1.4,0.7c-0.3,0.3-0.4,0.7-0.4,1.1c0,0.4,0.1,0.8,0.3,1.2
		c0.2,0.4,0.5,0.9,0.9,1.5c0.5,0.8,1,1.5,1.2,2.1s0.4,1.2,0.4,1.9c0,0.7-0.4,1.4-0.9,2c-0.5,0.5-1.1,0.9-1.8,1.2
		c-0.7,0.2-1.5,0.2-2.3,0.1c-0.8-0.2-1.6-0.6-2.4-1.3C-70.8,52-71.4,51.3-71.7,50.6z"/>
	<path class="st1" d="M-32,112.4l1,4.7l-1.8,0.4l-1.5-7l13.9-3l0.5,2.3L-32,112.4z"/>
	<path class="st1" d="M-20,119.8l-4.1,0.5l0.6,4.9l-1.9,0.2l-0.6-4.9l-4.3,0.6l0.7,5.5l-1.9,0.2l-1-7.8l14.1-1.8l1,7.8l-1.9,0.2
		L-20,119.8z"/>
	<path class="st1" d="M-28.2,137.8l-0.1-5.9l-2.9-1l-0.1-2.4l14.3,4.7l0.1,2.7l-14.1,5.4l-0.1-2.4L-28.2,137.8z M-26.3,137.1
		l6.5-2.5l-6.6-2.2L-26.3,137.1z"/>
	<path class="st1" d="M-18.7,153c-0.7,1.1-1.6,1.9-2.7,2.4c-1.1,0.5-2.4,0.7-3.9,0.6s-2.6-0.6-3.6-1.3s-1.7-1.7-2.2-2.9
		s-0.6-2.5-0.5-4l0.5-4.6l14.1,1.4l-0.5,4.6C-17.6,150.7-18,152-18.7,153z M-28.7,151.9c0.8,1,2,1.5,3.6,1.7c1.6,0.2,3-0.2,4-0.9
		c1-0.8,1.6-2,1.8-3.7l0.2-2.3l-10.3-1l-0.2,2.3C-29.8,149.6-29.5,150.9-28.7,151.9z"/>
	<path class="st1" d="M-32.8,159.3c0.5-0.7,1.1-1.2,1.8-1.5c0.7-0.3,1.4-0.4,2.2-0.2l-0.5,2.4c-0.6-0.1-1.2,0.1-1.6,0.4
		s-0.8,0.9-1,1.6c-0.2,0.8-0.1,1.4,0.2,2c0.3,0.5,0.7,0.8,1.3,1c0.5,0.1,0.9,0,1.2-0.2s0.7-0.5,0.9-0.9c0.2-0.4,0.5-0.9,0.9-1.6
		c0.4-0.9,0.8-1.5,1.2-2c0.4-0.5,0.9-0.9,1.5-1.2c0.6-0.3,1.3-0.3,2.2-0.1c0.8,0.2,1.5,0.5,2,1.1s0.8,1.2,1,2s0.1,1.7-0.1,2.6
		c-0.3,1.3-0.9,2.4-1.7,3.1s-1.9,1-3.1,0.8l0.5-2.5c0.5,0.1,1-0.1,1.5-0.4c0.5-0.4,0.8-0.9,0.9-1.6c0.1-0.7,0.1-1.2-0.2-1.7
		c-0.2-0.5-0.7-0.8-1.3-0.9c-0.4-0.1-0.8,0-1.1,0.2c-0.3,0.2-0.6,0.5-0.9,0.8c-0.2,0.4-0.5,0.9-0.9,1.5c-0.5,0.9-0.9,1.6-1.2,2.1
		c-0.4,0.5-0.9,0.9-1.5,1.2s-1.4,0.3-2.2,0.2c-0.7-0.2-1.3-0.5-1.9-1c-0.5-0.5-0.9-1.2-1.1-2c-0.2-0.8-0.2-1.7,0-2.7
		C-33.6,160.7-33.3,159.9-32.8,159.3z"/>
	<path class="st1" d="M-64.3,220.1l-3.5,3.3l-1.3-1.4l5.2-4.9l9.8,10.3l-1.7,1.6L-64.3,220.1z"/>
	<path class="st1" d="M-64.4,234.2l-2.6-3.2l-3.8,3.1l-1.2-1.5l3.8-3.1l-2.7-3.4l-4.3,3.4l-1.2-1.5l6.1-4.9l8.9,11.1l-6.1,4.9
		l-1.2-1.5L-64.4,234.2z"/>
	<path class="st1" d="M-84.1,236.6l5-3.2l-0.7-3l2-1.3l3.4,14.7l-2.3,1.5l-11.9-9.2l2.1-1.3L-84.1,236.6z M-82.5,237.8l5.5,4.3
		l-1.6-6.8L-82.5,237.8z"/>
	<path class="st1" d="M-92.2,252.6c-1.3,0-2.4-0.4-3.4-1.1c-1-0.7-1.8-1.7-2.5-3s-0.9-2.6-0.8-3.8c0.1-1.2,0.5-2.3,1.3-3.3
		c0.8-1,1.9-1.8,3.2-2.5l4.2-2l6.1,12.8l-4.2,2C-89.6,252.3-90.9,252.6-92.2,252.6z M-96.4,243.4c-0.4,1.2-0.3,2.5,0.4,4
		c0.7,1.5,1.7,2.5,2.9,2.9c1.2,0.5,2.5,0.3,4-0.4l2.1-1l-4.5-9.4l-2.1,1C-95,241.3-95.9,242.2-96.4,243.4z"/>
	<path class="st1" d="M-110.1,248.2l5.6-1.9l0.1-3.1l2.3-0.8l-0.4,15.1l-2.6,0.8l-9.3-11.9l2.3-0.8L-110.1,248.2z M-108.9,249.8
		l4.3,5.5l0.1-7L-108.9,249.8z"/>
	<path class="st1" d="M-180,246.2l-4.5-1.5l0.6-1.8l6.7,2.3l-4.6,13.4l-2.2-0.8L-180,246.2z"/>
	<path class="st1" d="M-192.5,252.5l1.7-3.8l-4.5-2l0.8-1.7l4.5,2l1.8-4l-5-2.2l0.8-1.7l7.2,3.2l-5.7,13l-7.2-3.2l0.8-1.7
		L-192.5,252.5z"/>
	<path class="st1" d="M-203.7,236.3l5.1,3l2.3-2l2.1,1.2l-11.5,9.8l-2.3-1.3l2.7-14.8l2.1,1.2L-203.7,236.3z M-204.1,238.2l-1.3,6.9
		l5.3-4.5L-204.1,238.2z"/>
	<path class="st1" d="M-221.6,236.4c-0.6-1.1-0.8-2.3-0.6-3.6s0.7-2.4,1.5-3.6c0.9-1.2,1.9-2,3-2.4c1.1-0.5,2.3-0.6,3.6-0.4
		c1.2,0.2,2.5,0.8,3.7,1.7l3.7,2.8l-8.5,11.3l-3.7-2.8C-220.2,238.6-221.1,237.6-221.6,236.4z M-215.5,228.5
		c-1.2,0.2-2.4,0.9-3.3,2.2c-1,1.3-1.4,2.6-1.3,3.9c0.1,1.3,0.9,2.4,2.2,3.4l1.8,1.4l6.3-8.3l-1.8-1.4
		C-212.9,228.7-214.2,228.3-215.5,228.5z"/>
	<path class="st1" d="M-219.6,221.1c0.3,0.8,0.4,1.5,0.3,2.3s-0.4,1.4-1,2l-1.8-1.7c0.4-0.5,0.6-1,0.5-1.6c0-0.6-0.3-1.1-0.9-1.7
		c-0.6-0.6-1.2-0.8-1.8-0.9c-0.6,0-1.1,0.2-1.5,0.6c-0.3,0.3-0.5,0.7-0.5,1.1c0,0.4,0.1,0.8,0.3,1.2c0.2,0.4,0.5,0.9,0.9,1.6
		c0.5,0.8,0.9,1.5,1.1,2.1c0.2,0.6,0.3,1.2,0.3,1.9c-0.1,0.7-0.4,1.3-1,2c-0.6,0.6-1.2,1-1.9,1.1c-0.7,0.2-1.5,0.1-2.2-0.2
		c-0.8-0.3-1.5-0.7-2.2-1.4c-1-0.9-1.6-2-1.7-3.1s0.1-2.1,0.9-3.1l1.9,1.8c-0.3,0.4-0.5,0.9-0.4,1.5c0.1,0.6,0.4,1.1,0.9,1.6
		c0.5,0.5,1,0.7,1.5,0.8c0.5,0,1-0.2,1.5-0.6c0.3-0.3,0.5-0.7,0.5-1c0-0.4-0.1-0.8-0.3-1.2c-0.2-0.4-0.5-0.9-0.8-1.5
		c-0.5-0.8-0.9-1.5-1.1-2.1c-0.2-0.6-0.3-1.2-0.3-1.9c0.1-0.7,0.4-1.3,1-2c0.5-0.5,1.1-0.9,1.8-1.1c0.7-0.2,1.5-0.2,2.3,0.1
		c0.8,0.2,1.6,0.7,2.3,1.4C-220.5,219.7-220,220.4-219.6,221.1z"/>
	<path class="st1" d="M-255.3,162.6l-1-4.7l1.8-0.4l1.5,7l-13.9,3l-0.5-2.3L-255.3,162.6z"/>
	<path class="st1" d="M-267.2,155.2l4.1-0.5l-0.6-4.9l1.9-0.2l0.6,4.9l4.3-0.6l-0.7-5.5l1.9-0.2l1,7.8l-14.1,1.8l-1-7.8l1.9-0.2
		L-267.2,155.2z"/>
	<path class="st1" d="M-259.1,137.2l0.1,5.9l2.9,1l0.1,2.4l-14.3-4.8l-0.1-2.7l14.1-5.4l0.1,2.4L-259.1,137.2z M-261,137.9l-6.5,2.4
		l6.6,2.2L-261,137.9z"/>
	<path class="st1" d="M-268.5,122c0.7-1.1,1.6-1.9,2.7-2.4c1.1-0.5,2.4-0.7,3.9-0.5c1.4,0.1,2.6,0.6,3.6,1.3s1.7,1.7,2.2,2.9
		c0.4,1.2,0.6,2.5,0.4,4l-0.5,4.6l-14.1-1.4l0.5-4.6C-269.6,124.3-269.2,123-268.5,122z M-258.5,123.1c-0.8-1-2-1.5-3.6-1.7
		c-1.6-0.2-3,0.1-4,0.9c-1,0.8-1.6,2-1.8,3.7l-0.2,2.3l10.3,1l0.2-2.3C-257.4,125.4-257.7,124.1-258.5,123.1z"/>
	<path class="st1" d="M-254.4,115.7c-0.5,0.7-1.1,1.2-1.8,1.4c-0.7,0.3-1.4,0.4-2.2,0.2l0.5-2.4c0.6,0.1,1.2,0,1.6-0.4
		c0.5-0.3,0.8-0.9,1-1.6c0.2-0.8,0.1-1.4-0.2-2c-0.3-0.5-0.7-0.8-1.3-1c-0.5-0.1-0.9,0-1.2,0.2s-0.7,0.5-0.9,0.9
		c-0.2,0.4-0.5,0.9-0.9,1.6c-0.4,0.9-0.8,1.5-1.2,2c-0.4,0.5-0.9,0.9-1.5,1.2c-0.6,0.3-1.3,0.3-2.2,0.1c-0.8-0.2-1.5-0.5-2-1.1
		c-0.5-0.5-0.8-1.2-1-2c-0.2-0.8-0.1-1.7,0.1-2.6c0.3-1.3,0.9-2.4,1.7-3.1c0.9-0.7,1.9-1,3.1-0.8l-0.6,2.5c-0.5-0.1-1,0.1-1.5,0.4
		c-0.5,0.4-0.8,0.9-0.9,1.6c-0.1,0.7-0.1,1.2,0.1,1.7c0.2,0.5,0.7,0.8,1.3,0.9c0.4,0.1,0.8,0,1.1-0.2c0.3-0.2,0.6-0.5,0.9-0.8
		c0.2-0.4,0.5-0.9,0.9-1.5c0.5-0.9,0.9-1.6,1.3-2.1c0.4-0.5,0.9-0.9,1.5-1.2c0.6-0.3,1.4-0.3,2.2-0.1c0.7,0.2,1.3,0.5,1.9,1
		c0.5,0.5,0.9,1.2,1.1,2c0.2,0.8,0.2,1.7,0,2.7C-253.6,114.3-253.9,115.1-254.4,115.7z"/>
</g>
<g>
	<defs>
		<circle id="SVGID_1_" cx="424.4" cy="137.7" r="103.3"/>
	</defs>
	<clipPath id="SVGID_00000071524938012526124410000006324488040674202279_">
		<use xlink:href="#SVGID_1_"  style="overflow:visible;"/>
	</clipPath>
	
		<g transform="matrix(1 0 0 1 -1.525879e-05 -9.536743e-07)" style="clip-path:url(#SVGID_00000071524938012526124410000006324488040674202279_);">
		
			<image style="overflow:visible;" width="626" height="626" xlink:href="F124C83A.jpg"  transform="matrix(0.6903 0 0 0.6903 251.6451 11.8217)">
		</image>
	</g>
</g>
<g>
	<circle class="st2" cx="427.1" cy="137.7" r="105.2"/>
	<path class="st3" d="M428.4,193.7c-11.8,0-22.8-3.5-32-9.6l-22.3,7.1l7.2-21.5c-7-9.5-11.1-21.3-11.1-33.9c0-1.9,0.1-3.7,0.4-5.6
		c2.8-29.3,27.8-52.3,57.9-52.3c30.6,0,55.8,23.5,58.2,53.3c0.1,1.5,0.1,3.1,0.1,4.5C486.7,167.7,460.5,193.7,428.4,193.7
		L428.4,193.7z M460.2,149.7c-1.8-0.8-10.1-5-11.6-5.6c-1.7-0.5-2.7-0.8-3.9,0.9c-1.1,1.7-4.4,5.4-5.3,6.5c-1.1,1.2-2,1.3-3.7,0.5
		c-1.8-0.8-7.2-2.6-13.7-8.4c-5.1-4.5-8.5-9.9-9.5-11.6c-0.9-1.8-0.1-2.6,0.7-3.5c0.8-0.7,1.8-1.9,2.6-3c0.2-0.2,0.5-0.5,0.6-0.7
		c0.5-0.7,0.7-1.3,1.1-2c0.6-1.2,0.4-2.1-0.1-3c-0.4-0.8-3.8-9.2-5.2-12.5c-1.4-3.4-2.8-2.8-3.8-2.8c-1.1,0-2.1-0.1-3.3-0.1
		c-1.2,0-3,0.4-4.5,2.1c-1.7,1.7-6,5.7-6,14.1c0,1.9,0.4,3.9,1,5.7c1.7,6,5.4,10.9,6,11.7c0.8,1.2,11.7,18.7,29,25.4
		c17.4,6.7,17.4,4.5,20.5,4.3s10.1-4,11.5-8c1.4-3.9,1.4-7.3,0.9-8S461.8,150.6,460.2,149.7L460.2,149.7z M497.7,134.1
		c-1-37.3-31.6-67.1-69.3-67.1c-37.2,0-67.6,29.1-69.2,65.8c-0.1,0.9-0.1,2-0.1,3c0,13,3.7,25.2,9.9,35.6l-12.5,36.9l38.4-12.2
		c9.9,5.4,21.4,8.5,33.5,8.5c38.3,0,69.4-30.7,69.4-68.8C497.8,135.2,497.7,134.7,497.7,134.1L497.7,134.1z"/>
</g>
<circle class="st0" cx="125.7" cy="429.4" r="136.3"/>
<g>
	<path class="st1" d="M42.5,333.1l7.1,13l-1.9,1.9l-9.7-5.5l5.4,9.8l-1.8,1.9L28.7,347l1.7-1.8l10.3,6.1l-6-10.4l1.8-1.9l10.3,6
		l-6.1-10.2L42.5,333.1z"/>
	<path class="st1" d="M54.5,324.2l8.5,11.4l-1.9,1.4l-3.7-5l-5.4,4l3.7,5l-1.9,1.4L45.4,331l1.9-1.4l3.6,4.9l5.4-4l-3.6-4.9
		L54.5,324.2z"/>
	<path class="st1" d="M71.2,327.4l-5.2,2.9l0.5,3l-2.1,1.2l-2.6-14.9l2.3-1.3l11.5,9.8l-2.1,1.2L71.2,327.4z M69.7,326.1l-5.3-4.6
		l1.2,6.9L69.7,326.1z"/>
	<path class="st1" d="M80.2,310.9l0.8,1.7l-3.5,1.5l4.9,11.3l-2.1,0.9L75.3,315l-3.5,1.5l-0.8-1.7L80.2,310.9z"/>
	<path class="st1" d="M89.5,322.3c-0.8-0.1-1.5-0.4-2.1-0.8c-0.6-0.5-1-1.1-1.3-1.9l2.4-0.7c0.2,0.6,0.6,1,1.1,1.2
		c0.5,0.2,1.2,0.3,1.9,0c0.8-0.2,1.3-0.6,1.6-1.1c0.3-0.5,0.4-1,0.2-1.6c-0.1-0.5-0.4-0.8-0.7-1c-0.4-0.2-0.8-0.3-1.2-0.4
		c-0.4,0-1,0-1.8,0c-1,0-1.8,0-2.4,0c-0.6-0.1-1.2-0.3-1.8-0.7c-0.5-0.4-1-1-1.2-1.8c-0.2-0.8-0.3-1.5-0.1-2.2
		c0.2-0.7,0.6-1.3,1.2-1.9c0.6-0.5,1.4-0.9,2.3-1.2c1.3-0.4,2.5-0.4,3.5,0c1,0.4,1.8,1.2,2.2,2.3l-2.5,0.8c-0.2-0.5-0.6-0.8-1.1-1
		c-0.5-0.2-1.2-0.2-1.9,0c-0.6,0.2-1.1,0.5-1.4,1c-0.3,0.5-0.4,1-0.2,1.6c0.1,0.4,0.4,0.7,0.7,0.9c0.3,0.2,0.7,0.3,1.2,0.3
		c0.4,0,1,0,1.8,0c1,0,1.8,0,2.4,0.1c0.6,0.1,1.2,0.3,1.8,0.7c0.6,0.4,1,1,1.2,1.9c0.2,0.7,0.2,1.4,0.1,2.1c-0.2,0.7-0.6,1.4-1.2,2
		c-0.6,0.6-1.4,1-2.3,1.3C91.2,322.3,90.4,322.4,89.5,322.3z"/>
	<path class="st1" d="M106.9,315.3l-5.8,1.1l-0.5,3l-2.4,0.5l2.4-14.9l2.7-0.5l7.6,13l-2.4,0.5L106.9,315.3z M106,313.6l-3.5-6.1
		l-1.1,6.9L106,313.6z"/>
	<path class="st1" d="M121.5,308.8c-0.3,0.7-0.8,1.2-1.5,1.7c-0.7,0.5-1.7,0.7-2.8,0.8l-2.6,0.2l0.4,5.7l-2.3,0.2l-1-14.2l4.9-0.4
		c1.1-0.1,2,0,2.8,0.4c0.8,0.3,1.4,0.8,1.8,1.4c0.4,0.6,0.7,1.3,0.7,2.1C121.9,307.4,121.8,308.1,121.5,308.8z M119,308.6
		c0.4-0.4,0.6-1,0.5-1.8c-0.1-1.5-1-2.3-2.8-2.1l-2.6,0.2l0.3,4.6l2.6-0.2C117.9,309.3,118.6,309.1,119,308.6z"/>
	<path class="st1" d="M134.1,309c-0.4,0.6-0.9,1.1-1.7,1.5c-0.8,0.4-1.7,0.6-2.9,0.5L127,311l-0.2,5.8l-2.3-0.1l0.4-14.2l4.9,0.1
		c1.1,0,2,0.2,2.8,0.6c0.7,0.4,1.3,0.9,1.7,1.6c0.4,0.7,0.5,1.4,0.5,2.2C134.7,307.7,134.5,308.4,134.1,309z M131.6,308.6
		c0.4-0.4,0.7-1,0.7-1.7c0-1.6-0.8-2.4-2.6-2.4l-2.6-0.1l-0.1,4.6l2.6,0.1C130.5,309.2,131.2,309,131.6,308.6z"/>
	<path class="st1" d="M220.5,344.6l-12.9,7.3l-1.9-1.8l5.3-9.8l-9.7,5.6l-1.9-1.8l6.9-13.1l1.8,1.7l-5.9,10.4l10.3-6.1l1.9,1.8
		l-5.8,10.4l10.1-6.3L220.5,344.6z"/>
	<path class="st1" d="M229.6,356.4l-11.2,8.7l-1.4-1.8l4.9-3.8l-4.1-5.3l-4.9,3.8l-1.4-1.8l11.2-8.7l1.4,1.8l-4.8,3.7l4.1,5.3
		l4.8-3.7L229.6,356.4z"/>
	<path class="st1" d="M226.7,373.2l-3-5.1l-3,0.6l-1.2-2.1l14.8-2.9l1.4,2.3l-9.6,11.6l-1.2-2.1L226.7,373.2z M228,371.6l4.5-5.4
		l-6.9,1.4L228,371.6z"/>
	<path class="st1" d="M243.4,381.8l-1.7,0.8l-1.6-3.4l-11.2,5.1l-1-2.1l11.2-5.1l-1.6-3.5l1.7-0.8L243.4,381.8z"/>
	<path class="st1" d="M232.2,391.4c0.1-0.8,0.3-1.5,0.8-2.2c0.4-0.6,1.1-1,1.8-1.3l0.8,2.4c-0.6,0.2-1,0.6-1.2,1.2
		c-0.2,0.5-0.2,1.2,0,1.9c0.3,0.8,0.6,1.3,1.1,1.6c0.5,0.3,1.1,0.4,1.6,0.2c0.5-0.1,0.8-0.4,1-0.8c0.2-0.4,0.3-0.8,0.3-1.2
		c0-0.4,0-1,0-1.8c-0.1-1-0.1-1.7,0-2.4c0.1-0.6,0.3-1.2,0.6-1.8c0.4-0.6,1-1,1.8-1.3c0.8-0.3,1.5-0.3,2.2-0.1
		c0.7,0.2,1.3,0.6,1.9,1.2c0.5,0.6,1,1.4,1.3,2.3c0.4,1.3,0.5,2.5,0.1,3.5c-0.4,1.1-1.1,1.8-2.2,2.3l-0.8-2.4c0.5-0.2,0.8-0.6,1-1.1
		c0.2-0.5,0.2-1.2,0-1.9c-0.2-0.6-0.5-1.1-1-1.4c-0.5-0.3-1-0.3-1.6-0.1c-0.4,0.1-0.7,0.4-0.9,0.7c-0.2,0.3-0.3,0.7-0.3,1.2
		c0,0.4,0,1,0,1.8c0.1,1,0,1.8,0,2.4c-0.1,0.6-0.3,1.2-0.7,1.8c-0.4,0.6-1,1-1.8,1.3c-0.7,0.2-1.4,0.3-2.1,0.1
		c-0.7-0.2-1.4-0.5-2-1.1c-0.6-0.6-1.1-1.4-1.4-2.3C232.2,393.1,232.1,392.2,232.2,391.4z"/>
	<path class="st1" d="M239.5,408.7l-1.2-5.8l-3-0.4l-0.5-2.4l15,2.1l0.5,2.6l-12.9,7.9l-0.5-2.4L239.5,408.7z M241.2,407.7l6-3.6
		l-6.9-0.9L241.2,407.7z"/>
	<path class="st1" d="M246.2,423.1c-0.7-0.3-1.2-0.8-1.7-1.5c-0.5-0.7-0.8-1.6-0.9-2.8l-0.2-2.6l-5.7,0.5l-0.2-2.3l14.1-1.3l0.4,4.9
		c0.1,1.1,0,2-0.3,2.8c-0.3,0.8-0.8,1.4-1.4,1.8c-0.6,0.4-1.3,0.7-2.1,0.8C247.6,423.5,246.9,423.4,246.2,423.1z M246.3,420.6
		c0.4,0.4,1,0.6,1.8,0.5c1.5-0.1,2.2-1.1,2.1-2.8l-0.2-2.6l-4.6,0.4l0.2,2.6C245.6,419.5,245.9,420.2,246.3,420.6z"/>
	<path class="st1" d="M246.2,435.8c-0.6-0.4-1.1-0.9-1.5-1.7c-0.4-0.8-0.6-1.7-0.6-2.9l0-2.6l-5.8-0.1l0-2.3l14.2,0.2l-0.1,4.9
		c0,1.1-0.2,2-0.6,2.8c-0.4,0.7-0.9,1.3-1.5,1.7c-0.6,0.4-1.4,0.5-2.2,0.5C247.5,436.3,246.9,436.1,246.2,435.8z M246.6,433.2
		c0.4,0.4,1,0.7,1.7,0.7c1.6,0,2.3-0.8,2.4-2.6l0-2.6l-4.6-0.1l0,2.6C246,432.1,246.2,432.8,246.6,433.2z"/>
	<path class="st1" d="M212.2,522.8l-7.6-12.7l1.8-1.9l9.9,5.1l-5.7-9.6l1.8-1.9l13.2,6.7l-1.7,1.8l-10.5-5.7l6.3,10.2l-1.8,1.9
		l-10.5-5.6l6.4,10L212.2,522.8z"/>
	<path class="st1" d="M200.5,532.1l-8.9-11.1l1.8-1.5l3.9,4.8l5.2-4.2l-3.9-4.8l1.8-1.5l8.9,11.1l-1.8,1.5l-3.8-4.8l-5.2,4.2
		l3.8,4.8L200.5,532.1z"/>
	<path class="st1" d="M183.7,529.5l5.1-3.1l-0.7-3l2.1-1.3l3.1,14.8l-2.3,1.4l-11.8-9.4l2.1-1.3L183.7,529.5z M185.3,530.7l5.4,4.4
		l-1.5-6.8L185.3,530.7z"/>
	<path class="st1" d="M175.4,546.3l-0.8-1.7l3.4-1.6l-5.3-11.1l2.1-1l5.3,11.1l3.4-1.6l0.8,1.7L175.4,546.3z"/>
	<path class="st1" d="M165.6,535.3c0.8,0.1,1.6,0.3,2.2,0.7c0.6,0.4,1.1,1,1.3,1.8l-2.4,0.8c-0.3-0.6-0.7-1-1.2-1.2s-1.2-0.2-1.9,0
		c-0.8,0.3-1.3,0.7-1.6,1.2c-0.3,0.5-0.3,1.1-0.1,1.6c0.2,0.4,0.4,0.8,0.8,1c0.4,0.2,0.8,0.3,1.2,0.3c0.4,0,1,0,1.8-0.1
		c1-0.1,1.7-0.1,2.4,0c0.6,0,1.2,0.3,1.8,0.6c0.6,0.4,1,1,1.3,1.8c0.3,0.8,0.3,1.5,0.1,2.2s-0.6,1.3-1.2,1.9c-0.6,0.6-1.3,1-2.2,1.3
		c-1.3,0.5-2.5,0.5-3.5,0.1c-1.1-0.4-1.8-1.1-2.3-2.2l2.4-0.9c0.2,0.5,0.6,0.8,1.1,1s1.2,0.2,1.9-0.1c0.6-0.2,1.1-0.6,1.4-1
		c0.3-0.5,0.3-1,0.1-1.6c-0.1-0.4-0.4-0.7-0.7-0.9c-0.3-0.2-0.7-0.3-1.2-0.3c-0.4,0-1,0-1.8,0.1c-1,0.1-1.8,0.1-2.4,0
		c-0.6,0-1.3-0.3-1.8-0.6c-0.6-0.4-1-1-1.3-1.8c-0.2-0.7-0.3-1.4-0.1-2.1s0.5-1.4,1.1-2c0.6-0.6,1.3-1.1,2.3-1.4
		C163.9,535.3,164.8,535.2,165.6,535.3z"/>
	<path class="st1" d="M148.5,542.8l5.8-1.3l0.4-3.1l2.4-0.5l-1.8,15l-2.6,0.6l-8.1-12.7l2.4-0.5L148.5,542.8z M149.5,544.5l3.7,5.9
		l0.8-7L149.5,544.5z"/>
	<path class="st1" d="M134.1,549.9c0.3-0.7,0.8-1.3,1.5-1.7c0.7-0.5,1.6-0.8,2.8-0.9l2.6-0.3l-0.6-5.7l2.3-0.3l1.5,14.1l-4.9,0.5
		c-1.1,0.1-2,0-2.8-0.3c-0.8-0.3-1.4-0.7-1.9-1.3c-0.4-0.6-0.7-1.3-0.8-2.1C133.7,551.2,133.8,550.5,134.1,549.9z M136.7,549.9
		c-0.4,0.4-0.5,1-0.5,1.8c0.2,1.5,1.1,2.2,2.9,2l2.6-0.3l-0.5-4.6l-2.6,0.3C137.7,549.2,137.1,549.5,136.7,549.9z"/>
	<path class="st1" d="M121.6,550.1c0.3-0.6,0.9-1.2,1.6-1.6c0.7-0.4,1.7-0.6,2.9-0.6l2.6,0l-0.1-5.8l2.3,0l0.2,14.2l-4.9,0.1
		c-1.1,0-2-0.2-2.8-0.5c-0.8-0.4-1.3-0.9-1.7-1.5c-0.4-0.6-0.6-1.3-0.6-2.1C121.1,551.5,121.2,550.8,121.6,550.1z M124.1,550.4
		c-0.4,0.4-0.6,1-0.6,1.7c0,1.6,0.9,2.3,2.7,2.3l2.6,0l-0.1-4.6l-2.6,0C125.2,549.8,124.5,550,124.1,550.4z"/>
	<path class="st1" d="M33.9,517.6l12.6-7.8l2,1.8l-4.9,10l9.5-5.9l2,1.7l-6.5,13.3l-1.8-1.6l5.5-10.6l-10.1,6.5l-2-1.7l5.5-10.6
		l-9.9,6.6L33.9,517.6z"/>
	<path class="st1" d="M24.4,506.1l10.9-9.1l1.5,1.8l-4.8,4l4.3,5.1l4.8-4l1.5,1.8l-10.9,9.1l-1.5-1.8l4.7-3.9l-4.3-5.1l-4.7,3.9
		L24.4,506.1z"/>
	<path class="st1" d="M26.7,489.2l3.2,5l3-0.7l1.3,2L19.5,499l-1.5-2.3l9.2-12l1.3,2.1L26.7,489.2z M25.5,490.8l-4.3,5.5l6.8-1.6
		L25.5,490.8z"/>
	<path class="st1" d="M9.7,481.2l1.7-0.8l1.7,3.4l11-5.5l1,2.1l-11,5.5l1.7,3.4l-1.7,0.8L9.7,481.2z"/>
	<path class="st1" d="M20.6,471.2c0,0.8-0.3,1.6-0.7,2.2c-0.4,0.6-1,1.1-1.8,1.4l-0.9-2.3c0.6-0.3,0.9-0.7,1.2-1.2
		c0.2-0.5,0.2-1.2-0.1-1.9c-0.3-0.8-0.7-1.3-1.2-1.6c-0.5-0.3-1.1-0.3-1.6-0.1c-0.4,0.2-0.8,0.4-0.9,0.8c-0.2,0.4-0.3,0.8-0.3,1.2
		c0,0.4,0,1,0.1,1.8c0.1,1,0.1,1.7,0.1,2.4c0,0.6-0.2,1.2-0.6,1.8c-0.4,0.6-0.9,1-1.8,1.3c-0.8,0.3-1.5,0.3-2.2,0.2
		c-0.7-0.2-1.4-0.5-1.9-1.1c-0.6-0.6-1-1.3-1.3-2.2c-0.5-1.3-0.5-2.5-0.2-3.5c0.3-1.1,1.1-1.8,2.1-2.4l0.9,2.4
		c-0.5,0.2-0.8,0.6-1,1.2c-0.2,0.5-0.2,1.2,0.1,1.9c0.2,0.6,0.6,1.1,1,1.4c0.5,0.3,1,0.3,1.6,0.1c0.4-0.2,0.7-0.4,0.9-0.7
		c0.2-0.3,0.3-0.7,0.3-1.2c0-0.4,0-1-0.1-1.8c-0.1-1-0.1-1.8-0.1-2.4c0-0.6,0.2-1.3,0.6-1.8c0.4-0.6,1-1,1.8-1.3
		c0.7-0.3,1.4-0.3,2.1-0.2c0.7,0.1,1.4,0.5,2,1.1c0.6,0.6,1.1,1.3,1.5,2.3C20.5,469.5,20.6,470.4,20.6,471.2z"/>
	<path class="st1" d="M12.7,454.2l1.4,5.8l3.1,0.3l0.6,2.4l-15-1.6l-0.6-2.6l12.6-8.3l0.6,2.4L12.7,454.2z M11,455.3l-5.9,3.8l7,0.7
		L11,455.3z"/>
	<path class="st1" d="M5.4,440c0.7,0.3,1.3,0.7,1.8,1.4c0.5,0.7,0.8,1.6,1,2.8l0.3,2.6l5.7-0.7l0.3,2.3l-14.1,1.8l-0.6-4.9
		c-0.1-1.1-0.1-2,0.2-2.8c0.3-0.8,0.7-1.4,1.3-1.9c0.6-0.5,1.3-0.7,2.1-0.8C4,439.7,4.7,439.7,5.4,440z M5.4,442.6
		c-0.5-0.4-1-0.5-1.8-0.4c-1.5,0.2-2.2,1.2-2,2.9l0.3,2.6l4.6-0.6l-0.3-2.6C6.1,443.6,5.9,442.9,5.4,442.6z"/>
	<path class="st1" d="M5,427.4c0.6,0.3,1.2,0.9,1.6,1.6c0.4,0.7,0.6,1.7,0.7,2.9l0.1,2.6l5.8-0.1l0.1,2.3l-14.2,0.3l-0.1-4.9
		c0-1.1,0.1-2,0.5-2.8s0.9-1.3,1.5-1.7c0.6-0.4,1.3-0.6,2.1-0.6C3.7,426.9,4.3,427.1,5,427.4z M4.7,429.9c-0.4-0.4-1-0.6-1.7-0.6
		c-1.6,0-2.3,0.9-2.3,2.7l0.1,2.6l4.6-0.1l-0.1-2.6C5.3,431,5.1,430.3,4.7,429.9z"/>
</g>
<circle class="st0" cx="706.8" cy="179" r="136.5"/>
<g>
	<path class="st1" d="M621,102.8l3.2-3.6l1.4,1.3l-4.8,5.3l-10.6-9.5l1.6-1.7L621,102.8z"/>
	<path class="st1" d="M620.1,88.7l2.9,3l3.6-3.4l1.3,1.4l-3.6,3.4l3,3.2l4-3.8l1.3,1.4l-5.7,5.4l-9.7-10.4l5.7-5.4l1.3,1.4
		L620.1,88.7z"/>
	<path class="st1" d="M639.5,84.8l-4.8,3.6l0.9,2.9l-1.9,1.5l-4.5-14.4l2.2-1.6L644,85l-2,1.5L639.5,84.8z M637.8,83.7l-5.8-3.9
		l2.1,6.7L637.8,83.7z"/>
	<path class="st1" d="M646.3,68.2c1.3-0.1,2.5,0.2,3.5,0.8c1.1,0.6,2,1.6,2.7,2.8c0.7,1.3,1.1,2.5,1.1,3.7c0,1.2-0.4,2.4-1.1,3.4
		c-0.7,1.1-1.7,2-3,2.7l-4,2.3l-7.1-12.3l4-2.3C643.8,68.7,645.1,68.2,646.3,68.2z M651.2,77c0.3-1.2,0.1-2.5-0.7-4
		c-0.8-1.4-1.9-2.3-3.1-2.7s-2.6-0.1-4,0.7l-2,1.2l5.2,9l2-1.2C650,79.3,650.9,78.2,651.2,77z"/>
	<path class="st1" d="M671.8,56.6l4.7,13.4l-2.2,0.8l-3.2-9.2l-0.9,10.6l-1.5,0.5l-7.3-7.8l3.2,9.2l-2.2,0.8l-4.7-13.4l2.4-0.8
		l8.4,8.9l1-12.2L671.8,56.6z"/>
	<path class="st1" d="M678.8,57l0.9,4.1l4.8-1l0.4,1.9l-4.8,1l0.9,4.3l5.4-1.2l0.4,1.9l-7.7,1.7l-3-13.9l7.7-1.7l0.4,1.9L678.8,57z"
		/>
	<path class="st1" d="M690.2,54.9l0.5,4.1l4.9-0.6l0.2,1.9l-4.9,0.6l0.5,4.3l5.5-0.7l0.2,1.9l-7.8,0.9l-1.7-14.1l7.8-0.9l0.2,1.9
		L690.2,54.9z"/>
	<path class="st1" d="M708.5,51.9l0,1.9l-3.8,0.1l0.3,12.3l-2.3,0.1l-0.3-12.3l-3.8,0.1l0-1.9L708.5,51.9z"/>
	<path class="st1" d="M713,66c-0.7-0.4-1.3-0.9-1.7-1.6c-0.4-0.6-0.6-1.4-0.5-2.2l2.5,0.2c0,0.6,0.2,1.1,0.6,1.6
		c0.4,0.4,1,0.7,1.8,0.7c0.8,0.1,1.4-0.1,1.9-0.4c0.5-0.4,0.7-0.8,0.8-1.4c0-0.5-0.1-0.9-0.3-1.2c-0.3-0.3-0.6-0.6-1-0.8
		c-0.4-0.2-1-0.4-1.7-0.7c-0.9-0.3-1.6-0.6-2.2-0.9c-0.6-0.3-1-0.7-1.4-1.3c-0.4-0.6-0.5-1.3-0.4-2.2c0.1-0.8,0.3-1.5,0.8-2.1
		c0.5-0.6,1.1-1,1.8-1.3c0.8-0.3,1.6-0.4,2.6-0.3c1.4,0.1,2.5,0.5,3.3,1.3c0.8,0.8,1.2,1.7,1.2,2.9l-2.6-0.2c0-0.5-0.2-1-0.6-1.4
		c-0.4-0.4-1-0.6-1.7-0.7c-0.7-0.1-1.2,0.1-1.7,0.4c-0.4,0.3-0.7,0.8-0.7,1.4c0,0.4,0.1,0.8,0.3,1.1c0.2,0.3,0.6,0.5,1,0.7
		c0.4,0.2,0.9,0.4,1.6,0.7c0.9,0.3,1.7,0.6,2.2,1c0.6,0.3,1,0.7,1.4,1.3c0.4,0.6,0.5,1.3,0.5,2.2c-0.1,0.7-0.3,1.4-0.7,2
		c-0.4,0.6-1,1.1-1.8,1.4c-0.8,0.3-1.7,0.5-2.7,0.4C714.6,66.6,713.7,66.4,713,66z"/>
	<path class="st1" d="M785.6,95.7l3.5,3.3l-1.3,1.4l-5.2-4.9l9.8-10.3l1.7,1.6L785.6,95.7z"/>
	<path class="st1" d="M799.7,95.2l-3.1,2.8l3.2,3.7l-1.4,1.3l-3.2-3.7l-3.3,2.9l3.7,4.1l-1.4,1.3l-5.2-5.9l10.7-9.4l5.2,5.9
		l-1.4,1.3L799.7,95.2z"/>
	<path class="st1" d="M803,114.7l-3.4-4.9l-3,0.8l-1.4-2l14.6-4.1l1.6,2.2l-8.7,12.4l-1.4-2L803,114.7z M804.2,113l4.1-5.7l-6.7,1.9
		L804.2,113z"/>
	<path class="st1" d="M819.4,122c0,1.3-0.3,2.4-1,3.5c-0.7,1.1-1.6,1.9-2.9,2.6c-1.3,0.7-2.5,1-3.8,1c-1.2,0-2.4-0.4-3.4-1.2
		c-1-0.7-1.9-1.8-2.6-3.1l-2.2-4.1l12.5-6.7l2.2,4.1C819,119.4,819.4,120.8,819.4,122z M810.4,126.7c1.2,0.4,2.5,0.1,4-0.6
		c1.5-0.8,2.4-1.8,2.8-3c0.4-1.2,0.2-2.6-0.6-4l-1.1-2l-9.2,4.9l1.1,2C808.2,125.4,809.2,126.3,810.4,126.7z"/>
	<path class="st1" d="M830.2,147.9l-13.6,4.3l-0.7-2.2l9.3-2.9l-10.6-1.2l-0.5-1.5l8-7.1l-9.3,2.9l-0.7-2.2l13.6-4.3l0.8,2.4
		l-9.1,8.1l12.1,1.4L830.2,147.9z"/>
	<path class="st1" d="M829.6,154.9l-4.1,0.8l0.9,4.8l-1.9,0.3l-0.9-4.8l-4.3,0.8l1,5.4l-1.9,0.3l-1.4-7.7l14-2.6l1.4,7.7l-1.9,0.3
		L829.6,154.9z"/>
	<path class="st1" d="M831.3,166.3l-4.2,0.4l0.4,4.9l-1.9,0.2l-0.4-4.9l-4.3,0.4l0.5,5.5l-1.9,0.2l-0.7-7.8l14.2-1.3l0.7,7.8
		l-1.9,0.2L831.3,166.3z"/>
	<path class="st1" d="M833.7,184.8l-1.9,0l0.1-3.8l-12.3-0.2l0-2.3l12.3,0.2l0.1-3.8l1.9,0L833.7,184.8z"/>
	<path class="st1" d="M819.6,188.7c0.4-0.7,0.9-1.3,1.6-1.6c0.7-0.4,1.4-0.5,2.2-0.4l-0.3,2.5c-0.6,0-1.1,0.2-1.6,0.6
		c-0.4,0.4-0.7,1-0.8,1.7c-0.1,0.8,0,1.4,0.4,1.9c0.3,0.5,0.8,0.8,1.4,0.8c0.5,0.1,0.9,0,1.2-0.3c0.3-0.2,0.6-0.6,0.8-1
		c0.2-0.4,0.4-1,0.7-1.7c0.3-0.9,0.7-1.6,1-2.2c0.3-0.6,0.8-1,1.3-1.3c0.6-0.4,1.3-0.5,2.2-0.4c0.8,0.1,1.5,0.4,2.1,0.8
		c0.6,0.5,1,1.1,1.2,1.9c0.2,0.8,0.3,1.6,0.2,2.6c-0.1,1.4-0.6,2.5-1.4,3.3c-0.8,0.8-1.8,1.2-3,1.2l0.3-2.6c0.5,0,1-0.2,1.4-0.6
		c0.4-0.4,0.7-1,0.7-1.7c0.1-0.7,0-1.2-0.3-1.7s-0.8-0.7-1.4-0.8c-0.4,0-0.8,0-1.1,0.3c-0.3,0.2-0.6,0.5-0.8,0.9
		c-0.2,0.4-0.4,0.9-0.7,1.6c-0.4,0.9-0.7,1.6-1,2.2c-0.3,0.6-0.8,1-1.4,1.4c-0.6,0.4-1.3,0.5-2.2,0.4c-0.7-0.1-1.4-0.3-2-0.8
		s-1-1.1-1.4-1.9c-0.3-0.8-0.4-1.7-0.3-2.7C818.9,190.3,819.2,189.5,819.6,188.7z"/>
	<path class="st1" d="M787.6,260.4l-3.4,3.4l-1.3-1.3l5.1-5l10,10.1l-1.7,1.6L787.6,260.4z"/>
	<path class="st1" d="M787.7,274.5l-2.7-3.2l-3.8,3.1l-1.2-1.5l3.8-3.1l-2.8-3.4l-4.3,3.5l-1.2-1.5l6.1-5l9.1,11l-6.1,5l-1.2-1.5
		L787.7,274.5z"/>
	<path class="st1" d="M768.1,277.2l5-3.3l-0.8-3l2-1.3l3.6,14.7l-2.3,1.5l-12.1-9.1l2-1.4L768.1,277.2z M769.7,278.5l5.6,4.2
		l-1.7-6.8L769.7,278.5z"/>
	<path class="st1" d="M760.2,293.4c-1.3,0-2.4-0.4-3.5-1.1c-1-0.7-1.9-1.7-2.5-3s-0.9-2.6-0.8-3.8c0.1-1.2,0.5-2.4,1.3-3.4
		c0.8-1,1.8-1.9,3.2-2.5l4.2-2.1l6.3,12.7l-4.2,2.1C762.8,293.1,761.5,293.4,760.2,293.4z M755.9,284.3c-0.4,1.2-0.2,2.5,0.5,4
		c0.7,1.5,1.7,2.4,2.9,2.9c1.2,0.4,2.6,0.3,4-0.5l2.1-1l-4.6-9.3l-2.1,1C757.2,282.1,756.3,283.1,755.9,284.3z"/>
	<path class="st1" d="M734,303.4l-3.9-13.7l2.2-0.6l2.6,9.4l1.5-10.5l1.6-0.4l6.8,8.2l-2.6-9.4l2.2-0.6l3.9,13.7L746,300l-7.8-9.4
		l-1.8,12.1L734,303.4z"/>
	<path class="st1" d="M727.1,302.6l-0.6-4.1l-4.9,0.7l-0.3-1.9l4.9-0.7l-0.7-4.3l-5.5,0.8l-0.3-1.9l7.8-1.2l2.1,14.1l-7.8,1.2
		l-0.3-1.9L727.1,302.6z"/>
	<path class="st1" d="M715.7,303.9l-0.2-4.2l-4.9,0.3l-0.1-1.9l4.9-0.3l-0.3-4.4l-5.5,0.3l-0.1-1.9l7.8-0.5l0.8,14.2l-7.8,0.5
		l-0.1-1.9L715.7,303.9z"/>
	<path class="st1" d="M697.2,305.8l0.1-1.9l3.8,0.1l0.4-12.3l2.3,0.1l-0.4,12.3l3.8,0.1l-0.1,1.9L697.2,305.8z"/>
	<path class="st1" d="M693.6,291.5c0.7,0.4,1.2,1,1.6,1.7c0.3,0.7,0.5,1.4,0.4,2.2L693,295c0-0.6-0.1-1.1-0.5-1.6
		c-0.4-0.5-0.9-0.7-1.7-0.8c-0.8-0.1-1.4,0-1.9,0.3c-0.5,0.3-0.8,0.8-0.9,1.4c-0.1,0.5,0,0.9,0.3,1.2c0.2,0.3,0.5,0.6,0.9,0.8
		c0.4,0.2,0.9,0.5,1.6,0.8c0.9,0.4,1.6,0.7,2.1,1.1c0.5,0.3,1,0.8,1.3,1.4c0.3,0.6,0.4,1.3,0.3,2.2c-0.1,0.8-0.4,1.5-0.9,2
		c-0.5,0.6-1.1,0.9-1.9,1.2c-0.8,0.2-1.6,0.3-2.6,0.1c-1.4-0.2-2.4-0.7-3.2-1.5c-0.8-0.8-1.1-1.8-1.1-3l2.6,0.4c0,0.5,0.2,1,0.5,1.4
		s1,0.7,1.7,0.8c0.7,0.1,1.2,0,1.7-0.3c0.5-0.3,0.7-0.7,0.8-1.4c0.1-0.4,0-0.8-0.2-1.1c-0.2-0.3-0.5-0.6-0.9-0.8
		c-0.4-0.2-0.9-0.5-1.6-0.8c-0.9-0.4-1.6-0.7-2.2-1.1c-0.6-0.3-1-0.8-1.3-1.4c-0.3-0.6-0.4-1.3-0.3-2.2c0.1-0.7,0.4-1.4,0.9-1.9
		c0.5-0.6,1.1-1,1.9-1.3c0.8-0.3,1.7-0.4,2.7-0.2C692,290.8,692.9,291,693.6,291.5z"/>
	<path class="st1" d="M622.9,257.3l-3.3-3.5l1.4-1.3l4.8,5.2l-10.4,9.6l-1.6-1.7L622.9,257.3z"/>
	<path class="st1" d="M608.8,257l3.3-2.6l-3-3.9l1.5-1.2l3,3.9l3.4-2.7l-3.4-4.4l1.5-1.2l4.8,6.2l-11.2,8.7l-4.8-6.2l1.5-1.2
		L608.8,257z"/>
	<path class="st1" d="M606.7,237.3l3.1,5.1l3-0.7l1.3,2.1l-14.8,3.2l-1.4-2.3l9.4-11.8l1.3,2.1L606.7,237.3z M605.4,238.9l-4.4,5.4
		l6.8-1.5L605.4,238.9z"/>
	<path class="st1" d="M590.8,228.9c0.1-1.3,0.4-2.4,1.2-3.4c0.7-1,1.7-1.8,3.1-2.4c1.3-0.6,2.6-0.8,3.8-0.7c1.2,0.1,2.3,0.6,3.3,1.4
		c1,0.8,1.8,1.9,2.4,3.3l1.9,4.2l-12.9,5.9l-1.9-4.2C591,231.6,590.7,230.2,590.8,228.9z M600,224.9c-1.2-0.4-2.5-0.3-4,0.4
		c-1.5,0.7-2.5,1.6-3,2.8c-0.5,1.2-0.4,2.5,0.3,4.1l1,2.1l9.5-4.3l-1-2.1C602.2,226.3,601.2,225.3,600,224.9z"/>
	<path class="st1" d="M581.6,202.4l13.8-3.4l0.6,2.3l-9.5,2.3l10.5,1.9l0.4,1.6l-8.4,6.6l9.5-2.3l0.6,2.3l-13.8,3.4l-0.6-2.4
		l9.6-7.5l-12-2.1L581.6,202.4z"/>
	<path class="st1" d="M582.7,195.5l4.1-0.5l-0.6-4.9l1.9-0.2l0.6,4.9l4.3-0.5l-0.7-5.5l1.9-0.2l0.9,7.8l-14.1,1.7l-0.9-7.8l1.9-0.2
		L582.7,195.5z"/>
	<path class="st1" d="M581.7,184.1l4.2-0.1l-0.1-4.9l1.9-0.1l0.1,4.9l4.4-0.1l-0.2-5.5l1.9-0.1l0.2,7.9l-14.2,0.4l-0.2-7.9l1.9-0.1
		L581.7,184.1z"/>
	<path class="st1" d="M580.3,165.6l1.9,0.1l-0.3,3.8l12.3,0.8l-0.2,2.3l-12.3-0.8l-0.3,3.8l-1.9-0.1L580.3,165.6z"/>
	<path class="st1" d="M594.7,162.4c-0.5,0.7-1,1.2-1.7,1.5s-1.4,0.4-2.2,0.3l0.4-2.5c0.6,0.1,1.2-0.1,1.6-0.5
		c0.5-0.4,0.8-0.9,0.9-1.7c0.1-0.8,0-1.4-0.3-2c-0.3-0.5-0.8-0.8-1.4-0.9c-0.5-0.1-0.9,0-1.2,0.2c-0.3,0.2-0.6,0.5-0.9,0.9
		c-0.2,0.4-0.5,0.9-0.8,1.6c-0.4,0.9-0.8,1.6-1.1,2.1s-0.8,1-1.4,1.3c-0.6,0.3-1.3,0.4-2.2,0.2c-0.8-0.1-1.5-0.5-2-1
		c-0.5-0.5-0.9-1.2-1.1-1.9s-0.2-1.6-0.1-2.6c0.2-1.4,0.8-2.4,1.6-3.2c0.8-0.8,1.8-1.1,3-1l-0.4,2.5c-0.5,0-1,0.1-1.4,0.5
		c-0.4,0.4-0.7,0.9-0.8,1.7c-0.1,0.7,0,1.2,0.2,1.7c0.3,0.5,0.7,0.8,1.3,0.9c0.4,0.1,0.8,0,1.1-0.2c0.3-0.2,0.6-0.5,0.8-0.9
		c0.2-0.4,0.5-0.9,0.8-1.6c0.4-0.9,0.8-1.6,1.2-2.1c0.4-0.5,0.8-1,1.4-1.3c0.6-0.3,1.3-0.4,2.2-0.3c0.7,0.1,1.4,0.4,1.9,0.9
		c0.6,0.5,1,1.1,1.2,1.9c0.3,0.8,0.3,1.7,0.1,2.7C595.5,160.9,595.2,161.7,594.7,162.4z"/>
</g>
<circle class="st4" cx="-230.3" cy="423.9" r="105.2"/>
<g>
	<g>
		<g>
			<g>
				<path class="st1" d="M-298.3,426.3c-0.6,0-1,0.2-1.4,0.5c-0.4,0.3-0.6,0.8-0.7,1.4h4.3c0-0.6-0.2-1.1-0.6-1.4
					C-297.2,426.4-297.7,426.3-298.3,426.3z"/>
			</g>
			<g>
				<path class="st1" d="M-275.7,426.7c-0.4-0.2-0.8-0.3-1.2-0.3c-0.4,0-0.8,0.1-1.2,0.3c-0.4,0.2-0.7,0.5-0.9,0.9
					c-0.2,0.4-0.3,0.9-0.3,1.4c0,0.5,0.1,1,0.3,1.4c0.2,0.4,0.5,0.7,0.9,0.9c0.4,0.2,0.8,0.3,1.2,0.3c0.4,0,0.8-0.1,1.2-0.3
					c0.4-0.2,0.7-0.5,0.9-0.9c0.2-0.4,0.3-0.9,0.3-1.4c0-0.6-0.1-1-0.3-1.4C-275,427.2-275.3,426.9-275.7,426.7z"/>
			</g>
			<g>
				<path class="st1" d="M-286.8,426.7c-0.4-0.2-0.8-0.3-1.2-0.3c-0.4,0-0.8,0.1-1.2,0.3c-0.4,0.2-0.7,0.5-0.9,0.9
					c-0.2,0.4-0.3,0.9-0.3,1.4c0,0.5,0.1,1,0.3,1.4c0.2,0.4,0.5,0.7,0.9,0.9c0.4,0.2,0.8,0.3,1.2,0.3c0.4,0,0.8-0.1,1.2-0.3
					c0.4-0.2,0.7-0.5,0.9-0.9c0.2-0.4,0.3-0.9,0.3-1.4c0-0.6-0.1-1-0.3-1.4C-286.1,427.2-286.4,426.9-286.8,426.7z"/>
			</g>
			<g>
				<g>
					<path class="st1" d="M-268.6,416.5h-44.2c-1.7,0-3,1.3-3,3v16.6c0,1.7,1.3,3,3,3h44.2c1.7,0,3-1.3,3-3v-16.6
						C-265.6,417.8-266.9,416.5-268.6,416.5z M-303.7,433.6h-6.1v-11.4h2.3v9.6h3.8V433.6z M-293.9,429.8h-6.6
						c0.1,0.7,0.3,1.2,0.7,1.5c0.4,0.4,0.9,0.6,1.5,0.6c0.9,0,1.5-0.4,1.8-1.1h2.5c-0.3,0.9-0.8,1.6-1.5,2.2
						c-0.7,0.6-1.7,0.8-2.7,0.8c-0.9,0-1.7-0.2-2.4-0.6c-0.7-0.4-1.2-0.9-1.6-1.6c-0.4-0.7-0.6-1.5-0.6-2.5c0-0.9,0.2-1.8,0.6-2.5
						c0.4-0.7,0.9-1.3,1.6-1.6c0.7-0.4,1.5-0.6,2.4-0.6c0.9,0,1.6,0.2,2.3,0.6c0.7,0.4,1.2,0.9,1.6,1.6c0.4,0.7,0.6,1.5,0.6,2.4
						C-293.8,429.2-293.8,429.5-293.9,429.8z M-283.2,433.6h-2.3v-1.3c-0.3,0.4-0.7,0.8-1.2,1.1c-0.5,0.3-1.1,0.4-1.8,0.4
						c-0.8,0-1.5-0.2-2.1-0.6c-0.6-0.4-1.1-0.9-1.5-1.7c-0.4-0.7-0.5-1.5-0.5-2.5c0-0.9,0.2-1.7,0.5-2.4c0.4-0.7,0.9-1.3,1.5-1.6
						c0.6-0.4,1.3-0.6,2.1-0.6c0.7,0,1.3,0.1,1.8,0.4c0.5,0.3,0.9,0.6,1.2,1v-1.3h2.3V433.6z M-272.1,433.6h-2.3v-1.3
						c-0.3,0.4-0.7,0.8-1.2,1.1c-0.5,0.3-1.1,0.4-1.8,0.4c-0.8,0-1.5-0.2-2.1-0.6c-0.6-0.4-1.1-0.9-1.5-1.7
						c-0.4-0.7-0.5-1.5-0.5-2.5c0-0.9,0.2-1.7,0.5-2.4c0.4-0.7,0.9-1.3,1.5-1.6c0.6-0.4,1.3-0.6,2.1-0.6c0.6,0,1.2,0.1,1.7,0.4
						c0.5,0.3,1,0.6,1.3,1v-4.3h2.3V433.6z"/>
				</g>
			</g>
		</g>
	</g>
	<g>
		<g>
			<g>
				<path class="st1" d="M-172.7,422.4c1.6,0,2.9-1.3,2.9-2.9c0-1.6-1.3-2.9-2.9-2.9h-6.1v-5c0-1.6-1.3-2.9-2.9-2.9
					c-1.6,0-2.9,1.3-2.9,2.9v17.3c0,5.9,4.1,10.3,9.6,10.3h2.4c1.6,0,2.9-1.3,2.9-2.9c0-1.6-1.3-2.9-2.9-2.9h-2.4
					c-2.9,0-3.7-2.8-3.7-4.5v-6.5H-172.7z"/>
				<path class="st1" d="M-240.6,416.5c-2.4,0-4.6,1-6.3,2.5c-1.7-1.5-3.9-2.5-6.3-2.5c-5.1,0-9.2,4.2-9.2,9.2v10.5
					c0,1.6,1.3,2.9,2.9,2.9c1.6,0,2.9-1.3,2.9-2.9v-10.5c0-1.9,1.5-3.4,3.4-3.4s3.4,1.5,3.4,3.4v10.5c0,1.6,1.3,2.9,2.9,2.9
					c1.6,0,2.9-1.3,3-2.9v-10.5c0-0.1,0-0.1,0-0.2c0.1-1.8,1.5-3.2,3.4-3.2c1.9,0,3.4,1.5,3.4,3.4v10.5c0,1.6,1.3,2.9,2.9,2.9
					s2.9-1.3,2.9-2.9v-10.5C-231.4,420.6-235.5,416.5-240.6,416.5z"/>
				<path class="st1" d="M-152.1,429.1c-0.4-0.8-1.1-1.4-1.8-1.9c-0.7-0.5-1.4-0.9-2.3-1.2c-0.8-0.3-1.5-0.6-2.3-0.8
					c-0.6-0.2-1.3-0.4-1.8-0.6c-0.5-0.2-1-0.4-1.4-0.6c-0.3-0.2-0.6-0.4-0.7-0.6c-0.1-0.1-0.1-0.2-0.1-0.4v-0.1c0-0.4,0.2-0.7,0.5-1
					c0.4-0.4,1.1-0.5,2-0.5c0.8,0,1.6,0.1,2.5,0.4c0.4,0.1,0.8,0.3,1.2,0.5c0.3,0.1,0.6,0.2,1,0.2c1.4,0,2.5-1.1,2.5-2.5
					c0-0.9-0.5-1.7-1.2-2.1c0,0,0,0-0.1-0.1c0,0,0,0-0.1,0c-0.1-0.1-0.3-0.1-0.4-0.2c-0.4-0.2-0.9-0.3-1.3-0.5
					c-1.3-0.4-2.7-0.6-4-0.6c-1.1,0-2.1,0.1-3,0.4c-1,0.3-1.8,0.8-2.5,1.4c-0.7,0.6-1.3,1.3-1.7,2.2c-0.4,0.9-0.6,1.8-0.6,2.8v0.1
					c0,1.1,0.3,2.1,0.8,2.9c0.5,0.8,1.1,1.4,1.9,1.9c0.7,0.4,1.5,0.8,2.3,1.1c0.8,0.3,1.6,0.5,2.3,0.8c0.6,0.2,1.2,0.4,1.8,0.5
					c0.5,0.2,0.9,0.4,1.3,0.6c0.3,0.2,0.5,0.4,0.7,0.6c0.1,0.1,0.1,0.2,0.1,0.5v0.1c0,0.6-0.2,0.9-0.6,1.2c-0.5,0.4-1.3,0.6-2.1,0.6
					c-1,0-2-0.2-3-0.6c-0.8-0.3-1.6-0.8-2.4-1.3c-0.4-0.2-0.8-0.3-1.3-0.3c-1.4,0-2.5,1.1-2.5,2.5c0,0.8,0.4,1.5,0.9,2v0
					c0,0,0.1,0.1,0.1,0.1c0.1,0.1,0.1,0.1,0.2,0.1c0.9,0.6,2,1.1,3.1,1.6c1.6,0.6,3.1,0.8,4.7,0.8c1.1,0,2.1-0.1,3.1-0.4
					c1-0.3,1.9-0.8,2.6-1.4c0.8-0.6,1.3-1.4,1.8-2.2c0.4-0.9,0.7-1.9,0.7-3v-0.1C-151.4,430.9-151.6,429.9-152.1,429.1z"/>
				<path class="st1" d="M-210.2,421.7c-0.5-0.8-1-1.5-1.7-2.1c-0.7-0.6-1.4-1.2-2.2-1.6c-0.8-0.5-1.6-0.8-2.5-1.1
					c-0.9-0.3-1.8-0.4-2.8-0.4c-1.1,0-2,0.1-3,0.4c-0.9,0.3-1.8,0.7-2.6,1.1c-0.8,0.5-1.5,1.1-2.2,1.8c-0.6,0.7-1.2,1.4-1.6,2.3
					c-0.4,0.8-0.8,1.7-1.1,2.7c-0.3,0.9-0.4,1.9-0.4,3c0,1.6,0.3,3.1,0.9,4.5c0.6,1.4,1.4,2.6,2.5,3.6c1.1,1,2.3,1.8,3.7,2.4
					c1.4,0.6,2.9,0.9,4.5,0.9c1.4,0,2.8-0.3,4-0.8c1.3-0.5,2.4-1.3,3.4-2.2c0.2-0.2,0.3-0.3,0.4-0.5c0,0,0,0,0,0
					c0.4-0.4,0.6-1,0.6-1.7c0-1.4-1.2-2.6-2.6-2.6c-0.7,0-1.3,0.3-1.7,0.7c0,0-0.1,0-0.1,0.1c-0.2,0.2-0.5,0.4-0.8,0.6
					s-0.7,0.4-1.1,0.5c-0.4,0.1-0.8,0.3-1.3,0.3c-0.4,0.1-0.9,0.1-1.3,0.1c-0.5,0-0.9-0.1-1.5-0.2c-0.5-0.1-1-0.3-1.5-0.6
					c-0.5-0.3-0.9-0.7-1.2-1.2c-0.4-0.5-0.6-1.1-0.7-1.8h12.4c0.7,0,1.3-0.1,1.6-0.1c0.4-0.1,0.6-0.3,0.8-0.5s0.3-0.5,0.3-0.9
					c0-0.4,0-0.9,0-1.5c0-0.9-0.1-1.8-0.4-2.6C-209.4,423.3-209.7,422.5-210.2,421.7z M-223.7,424.9c0.2-0.4,0.4-0.8,0.7-1.1
					c0.3-0.4,0.6-0.7,1-1c0.4-0.3,0.8-0.5,1.2-0.7c0.4-0.2,0.9-0.3,1.3-0.3c0.6,0,1.2,0.1,1.6,0.3s0.9,0.4,1.3,0.7
					c0.4,0.3,0.7,0.6,1,1c0.3,0.4,0.6,0.8,0.8,1.3H-223.7z"/>
				<path class="st1" d="M-187.5,421.7c-0.5-0.8-1-1.5-1.7-2.1c-0.7-0.6-1.4-1.2-2.2-1.6c-0.8-0.5-1.6-0.8-2.5-1.1s-1.8-0.4-2.8-0.4
					c-1.1,0-2,0.1-3,0.4c-0.9,0.3-1.8,0.7-2.6,1.1c-0.8,0.5-1.5,1.1-2.2,1.8c-0.6,0.7-1.2,1.4-1.6,2.3c-0.4,0.8-0.8,1.7-1.1,2.7
					c-0.3,0.9-0.4,1.9-0.4,3c0,1.6,0.3,3.1,0.9,4.5c0.6,1.4,1.4,2.6,2.5,3.6c1.1,1,2.3,1.8,3.7,2.4c1.4,0.6,2.9,0.9,4.5,0.9
					c1.4,0,2.8-0.3,4-0.8c1.3-0.5,2.4-1.3,3.4-2.2c0.2-0.2,0.3-0.3,0.4-0.5c0,0,0,0,0,0c0.4-0.4,0.6-1,0.6-1.7
					c0-1.4-1.2-2.6-2.6-2.6c-0.7,0-1.3,0.3-1.7,0.7c0,0-0.1,0-0.1,0.1c-0.2,0.2-0.5,0.4-0.8,0.6s-0.7,0.4-1.1,0.5
					c-0.4,0.1-0.8,0.3-1.3,0.3c-0.4,0.1-0.9,0.1-1.3,0.1c-0.5,0-0.9-0.1-1.5-0.2c-0.5-0.1-1-0.3-1.5-0.6c-0.5-0.3-0.9-0.7-1.2-1.2
					c-0.4-0.5-0.6-1.1-0.7-1.8h12.4c0.7,0,1.3-0.1,1.6-0.1c0.4-0.1,0.6-0.3,0.8-0.5s0.3-0.5,0.3-0.9c0-0.4,0-0.9,0-1.5
					c0-0.9-0.1-1.8-0.4-2.6C-186.7,423.3-187.1,422.5-187.5,421.7z M-201,424.9c0.2-0.4,0.4-0.8,0.7-1.1c0.3-0.4,0.6-0.7,1-1
					c0.4-0.3,0.8-0.5,1.2-0.7c0.4-0.2,0.9-0.3,1.3-0.3c0.6,0,1.2,0.1,1.6,0.3s0.9,0.4,1.3,0.7c0.4,0.3,0.7,0.6,1,1
					c0.3,0.4,0.6,0.8,0.8,1.3H-201z"/>
			</g>
			<g>
				<path class="st1" d="M-148,416.6l-0.8-1.4h-0.3v1.4h-0.7v-3.7h1.4c0.3,0,0.5,0.1,0.7,0.2c0.2,0.1,0.4,0.2,0.5,0.4
					c0.1,0.2,0.2,0.4,0.2,0.6c0,0.2-0.1,0.5-0.2,0.7c-0.1,0.2-0.4,0.3-0.6,0.4l0.9,1.5H-148z M-149.2,414.6h0.6c0.2,0,0.4,0,0.4-0.1
					c0.1-0.1,0.1-0.2,0.1-0.4c0-0.2,0-0.3-0.1-0.4c-0.1-0.1-0.2-0.1-0.4-0.1h-0.6V414.6z"/>
			</g>
			<g>
				<path class="st1" d="M-148.7,418.6c-2.1,0-3.8-1.7-3.8-3.8c0-2.1,1.7-3.8,3.8-3.8c2.1,0,3.8,1.7,3.8,3.8
					C-144.9,416.9-146.6,418.6-148.7,418.6z M-148.7,411.6c-1.8,0-3.2,1.4-3.2,3.2s1.4,3.2,3.2,3.2c1.8,0,3.2-1.4,3.2-3.2
					S-146.9,411.6-148.7,411.6z"/>
			</g>
		</g>
	</g>
</g>
<circle class="st0" cx="137.7" cy="137.7" r="136.2"/>
<g>
	<path class="st1" d="M51.8,44L62,53.9l-1.6,1.7l-7-6.8l4,9.9l-1.1,1.2l-10-3.7l7,6.8l-1.6,1.7l-10.2-9.9l1.8-1.8l11.5,4.2
		l-4.5-11.3L51.8,44z"/>
	<path class="st1" d="M69,44.7l-4.7,3.7l1,2.9l-1.9,1.5l-4.7-14.3l2.1-1.7l12.7,8.1l-1.9,1.5L69,44.7z M67.3,43.6l-5.9-3.8l2.2,6.6
		L67.3,43.6z"/>
	<path class="st1" d="M69.4,30.7l7.7,11.9l-2,1.3L67.5,32L69.4,30.7z"/>
	<path class="st1" d="M81.2,39.8c-0.8,0.1-1.6-0.1-2.3-0.4c-0.7-0.3-1.2-0.9-1.6-1.6l2.2-1.2c0.3,0.5,0.8,0.8,1.4,1
		c0.6,0.1,1.2,0,1.9-0.3c0.7-0.4,1.2-0.9,1.4-1.4s0.2-1.1-0.1-1.6c-0.2-0.4-0.5-0.7-0.9-0.8c-0.4-0.1-0.8-0.2-1.2-0.1
		c-0.4,0.1-1,0.2-1.8,0.4c-0.9,0.2-1.7,0.4-2.3,0.4c-0.6,0.1-1.2,0-1.9-0.3c-0.6-0.3-1.1-0.8-1.6-1.6c-0.4-0.7-0.6-1.4-0.5-2.2
		c0.1-0.7,0.3-1.4,0.8-2.1c0.5-0.6,1.2-1.2,2-1.7c1.2-0.7,2.4-0.9,3.5-0.7c1.1,0.2,2,0.8,2.6,1.8l-2.3,1.2c-0.3-0.4-0.7-0.7-1.3-0.8
		c-0.6-0.1-1.2,0-1.8,0.4c-0.6,0.3-1,0.7-1.2,1.2c-0.2,0.5-0.2,1,0.2,1.6c0.2,0.4,0.5,0.6,0.9,0.7c0.4,0.1,0.8,0.1,1.2,0.1
		c0.4-0.1,1-0.2,1.7-0.3c0.9-0.2,1.7-0.4,2.4-0.4c0.6-0.1,1.3,0,1.9,0.3c0.6,0.3,1.1,0.8,1.6,1.6c0.3,0.6,0.5,1.3,0.5,2.1
		c0,0.7-0.3,1.5-0.7,2.2c-0.5,0.7-1.1,1.3-2,1.8C82.8,39.4,82,39.7,81.2,39.8z"/>
	<path class="st1" d="M101.6,15.9l-0.3,15.2L98.7,32l-9.8-11.6l2.3-0.8l7.9,9.7l0-12.5L101.6,15.9z"/>
	<path class="st1" d="M107.3,16.5l1,4.1l4.8-1.1l0.4,1.8l-4.8,1.1l1,4.2l5.4-1.3l0.4,1.8l-7.6,1.8l-3.3-13.8l7.6-1.8l0.4,1.8
		L107.3,16.5z"/>
	<path class="st1" d="M129.5,25.2l-2.3,0.3l-8.3-9.7l1.3,10.5l-2.3,0.3l-1.7-14.1l2.3-0.3l8.2,9.6l-1.3-10.5l2.3-0.3L129.5,25.2z"/>
	<path class="st1" d="M140.9,11.8c1.1,0.6,2,1.4,2.6,2.5c0.6,1.1,0.9,2.4,0.9,3.8c0,1.4-0.4,2.7-1,3.7c-0.6,1.1-1.5,1.9-2.7,2.4
		c-1.1,0.5-2.5,0.8-4,0.8l-4.6-0.1l0.2-14.2l4.6,0.1C138.5,10.9,139.8,11.2,140.9,11.8z M140.6,21.9c0.9-0.9,1.4-2.1,1.4-3.8
		c0-1.6-0.4-2.9-1.3-3.9c-0.9-0.9-2.1-1.4-3.8-1.5l-2.3,0l-0.2,10.4l2.3,0C138.4,23.2,139.7,22.8,140.6,21.9z"/>
	<path class="st1" d="M155,23.4l-5.9-0.7l-1.4,2.8l-2.4-0.3l6.8-13.5l2.7,0.3l3.3,14.7l-2.4-0.3L155,23.4z M154.6,21.5l-1.5-6.8
		l-3.1,6.3L154.6,21.5z"/>
	<path class="st1" d="M162,27.3c-0.7-0.5-1.1-1.1-1.4-1.8c-0.3-0.7-0.3-1.4-0.1-2.2l2.4,0.6c-0.1,0.6,0,1.2,0.3,1.6
		c0.3,0.5,0.9,0.8,1.6,1c0.8,0.2,1.4,0.1,2-0.1c0.5-0.3,0.9-0.7,1-1.3c0.1-0.5,0.1-0.9-0.1-1.2c-0.2-0.4-0.5-0.7-0.8-0.9
		c-0.4-0.3-0.9-0.6-1.6-0.9c-0.8-0.5-1.5-0.9-2-1.3c-0.5-0.4-0.9-0.9-1.2-1.5c-0.3-0.6-0.3-1.3-0.1-2.2c0.2-0.8,0.6-1.4,1.1-1.9
		c0.5-0.5,1.2-0.8,2-1c0.8-0.1,1.7-0.1,2.6,0.1c1.3,0.3,2.3,0.9,3,1.8c0.7,0.9,0.9,1.9,0.7,3.1l-2.5-0.6c0.1-0.5-0.1-1-0.4-1.5
		c-0.3-0.5-0.9-0.8-1.6-1c-0.6-0.2-1.2-0.1-1.7,0.1c-0.5,0.2-0.8,0.7-1,1.3c-0.1,0.4-0.1,0.8,0.1,1.1c0.2,0.3,0.5,0.6,0.8,0.9
		c0.4,0.3,0.9,0.6,1.5,0.9c0.9,0.5,1.5,0.9,2,1.3c0.5,0.4,0.9,0.9,1.2,1.5c0.3,0.6,0.3,1.4,0.1,2.2c-0.2,0.7-0.5,1.3-1,1.8
		c-0.5,0.5-1.2,0.9-2,1.1c-0.8,0.2-1.7,0.2-2.7-0.1C163.4,28.2,162.6,27.8,162,27.3z"/>
	<path class="st1" d="M232.3,53l-10,10.1l-1.7-1.6l6.8-6.9l-9.9,3.8l-1.1-1.1l3.8-10l-6.8,6.9l-1.7-1.6l10-10.1l1.8,1.8l-4.3,11.4
		l11.4-4.4L232.3,53z"/>
	<path class="st1" d="M231.4,70.1l-3.6-4.7l-2.9,0.9l-1.5-1.9l14.4-4.6l1.6,2.1l-8.2,12.7l-1.5-2L231.4,70.1z M232.5,68.5l3.8-5.8
		l-6.7,2.1L232.5,68.5z"/>
	<path class="st1" d="M245.3,70.7l-12,7.6l-1.3-2l12-7.6L245.3,70.7z"/>
	<path class="st1" d="M236.2,82.3c-0.1-0.8,0.1-1.6,0.4-2.3c0.3-0.7,0.9-1.2,1.6-1.6l1.2,2.2c-0.5,0.3-0.8,0.8-1,1.4
		c-0.1,0.6,0,1.2,0.3,1.9c0.4,0.7,0.8,1.2,1.4,1.4c0.6,0.2,1.1,0.2,1.6-0.1c0.4-0.2,0.7-0.5,0.8-0.9c0.1-0.4,0.2-0.8,0.1-1.2
		c-0.1-0.4-0.2-1-0.3-1.8c-0.2-0.9-0.4-1.7-0.4-2.3c-0.1-0.6,0.1-1.2,0.3-1.9c0.3-0.6,0.8-1.1,1.6-1.5c0.7-0.4,1.4-0.5,2.2-0.5
		c0.7,0.1,1.4,0.4,2.1,0.8c0.6,0.5,1.2,1.2,1.6,2c0.6,1.2,0.9,2.4,0.7,3.5c-0.2,1.1-0.8,2-1.8,2.6l-1.2-2.3c0.4-0.3,0.7-0.7,0.8-1.3
		s0-1.2-0.4-1.8c-0.3-0.6-0.7-1-1.2-1.2c-0.5-0.2-1-0.2-1.6,0.1c-0.4,0.2-0.6,0.5-0.8,0.9c-0.1,0.4-0.2,0.8-0.1,1.2
		c0,0.4,0.2,1,0.3,1.7c0.2,1,0.3,1.7,0.4,2.4c0.1,0.6-0.1,1.3-0.3,1.9c-0.3,0.6-0.8,1.1-1.6,1.6c-0.6,0.3-1.3,0.5-2.1,0.4
		c-0.7,0-1.5-0.3-2.2-0.8c-0.7-0.5-1.3-1.2-1.7-2C236.5,84,236.2,83.2,236.2,82.3z"/>
	<path class="st1" d="M259.8,103l-15.2-0.4l-0.9-2.6l11.7-9.7l0.8,2.4l-9.8,7.8l12.5,0.2L259.8,103z"/>
	<path class="st1" d="M259.2,108.7l-4.1,0.9l1.1,4.8l-1.9,0.4l-1.1-4.8l-4.2,1l1.2,5.4l-1.9,0.4l-1.7-7.7l13.9-3.1l1.7,7.7l-1.9,0.4
		L259.2,108.7z"/>
	<path class="st1" d="M250.2,130.8l-0.3-2.3l9.7-8.1l-10.5,1.2l-0.3-2.3l14.1-1.6l0.3,2.3l-9.7,8.1l10.5-1.2l0.3,2.3L250.2,130.8z"
		/>
	<path class="st1" d="M263.5,142.2c-0.6,1.1-1.4,2-2.5,2.6c-1.1,0.6-2.4,0.9-3.8,0.9c-1.4,0-2.7-0.4-3.7-1c-1.1-0.6-1.9-1.5-2.4-2.7
		c-0.5-1.1-0.8-2.5-0.8-4l0.1-4.6l14.2,0.2l-0.1,4.6C264.4,139.8,264.1,141.1,263.5,142.2z M253.4,141.9c0.9,0.9,2.1,1.4,3.8,1.4
		c1.6,0,2.9-0.4,3.9-1.3c0.9-0.9,1.4-2.1,1.5-3.8l0-2.3l-10.4-0.2l0,2.3C252.1,139.7,252.6,141,253.4,141.9z"/>
	<path class="st1" d="M251.7,156.3l0.8-5.9l-2.7-1.4l0.3-2.4l13.4,6.9l-0.4,2.7l-14.8,3.1l0.3-2.4L251.7,156.3z M253.7,155.9
		l6.8-1.4l-6.2-3.2L253.7,155.9z"/>
	<path class="st1" d="M247.7,163.3c0.5-0.7,1.1-1.1,1.8-1.4c0.7-0.3,1.4-0.3,2.2-0.1l-0.6,2.4c-0.6-0.1-1.2,0-1.6,0.3
		c-0.5,0.3-0.8,0.9-1,1.6c-0.2,0.8-0.2,1.4,0.1,2c0.3,0.5,0.7,0.9,1.3,1c0.5,0.1,0.9,0.1,1.2-0.1c0.4-0.2,0.7-0.5,0.9-0.8
		c0.3-0.4,0.6-0.9,0.9-1.5c0.5-0.8,0.9-1.5,1.3-2c0.4-0.5,0.9-0.9,1.5-1.1c0.6-0.3,1.4-0.3,2.2-0.1c0.8,0.2,1.4,0.6,1.9,1.1
		c0.5,0.5,0.8,1.2,0.9,2c0.1,0.8,0.1,1.7-0.2,2.6c-0.3,1.3-1,2.3-1.8,3c-0.9,0.7-1.9,0.9-3.1,0.7l0.6-2.5c0.5,0.1,1,0,1.5-0.4
		c0.5-0.3,0.8-0.9,1-1.6c0.2-0.6,0.1-1.2-0.1-1.7c-0.2-0.5-0.6-0.8-1.3-1c-0.4-0.1-0.8-0.1-1.1,0.1c-0.3,0.2-0.6,0.5-0.9,0.8
		s-0.6,0.9-0.9,1.5c-0.5,0.8-0.9,1.5-1.3,2c-0.4,0.5-0.9,0.9-1.5,1.2c-0.6,0.3-1.4,0.3-2.2,0.1c-0.7-0.2-1.3-0.5-1.8-1.1
		c-0.5-0.5-0.9-1.2-1.1-2c-0.2-0.8-0.2-1.7,0.1-2.7C246.9,164.7,247.2,163.9,247.7,163.3z"/>
	<path class="st1" d="M225.6,229.3l-10.4-9.6l1.6-1.7l7.1,6.6l-4.2-9.8l1.1-1.2l10.1,3.4l-7.1-6.6l1.6-1.7l10.4,9.6l-1.7,1.8
		l-11.6-3.9l4.8,11.2L225.6,229.3z"/>
	<path class="st1" d="M208.5,229.1l4.6-3.8l-1-2.9l1.9-1.5l5.1,14.2l-2.1,1.7l-12.9-7.8l1.9-1.6L208.5,229.1z M210.2,230.1l6,3.6
		l-2.4-6.6L210.2,230.1z"/>
	<path class="st1" d="M208.4,243l-8-11.7l1.9-1.3l8,11.7L208.4,243z"/>
	<path class="st1" d="M196.4,234.3c0.8-0.1,1.6,0,2.3,0.3c0.7,0.3,1.2,0.8,1.6,1.5l-2.2,1.3c-0.4-0.5-0.8-0.8-1.4-0.9
		c-0.6-0.1-1.2,0-1.9,0.4c-0.7,0.4-1.1,0.9-1.3,1.4c-0.2,0.6-0.1,1.1,0.2,1.6c0.2,0.4,0.6,0.7,0.9,0.8s0.8,0.1,1.2,0.1
		c0.4-0.1,1-0.2,1.8-0.4c0.9-0.3,1.7-0.4,2.3-0.5c0.6-0.1,1.3,0,1.9,0.3c0.6,0.3,1.2,0.8,1.6,1.5c0.4,0.7,0.6,1.4,0.5,2.2
		c0,0.7-0.3,1.4-0.8,2.1c-0.5,0.7-1.1,1.2-2,1.7c-1.2,0.7-2.3,1-3.4,0.8c-1.1-0.2-2-0.7-2.7-1.7l2.2-1.3c0.3,0.4,0.7,0.7,1.3,0.8
		c0.6,0.1,1.2,0,1.8-0.4c0.6-0.3,1-0.8,1.2-1.3c0.2-0.5,0.1-1-0.2-1.6c-0.2-0.4-0.5-0.6-0.9-0.7c-0.4-0.1-0.8-0.1-1.2-0.1
		c-0.4,0.1-1,0.2-1.7,0.4c-0.9,0.2-1.7,0.4-2.4,0.5c-0.6,0.1-1.3,0-1.9-0.3c-0.6-0.3-1.2-0.8-1.6-1.6c-0.4-0.6-0.5-1.3-0.5-2.1
		c0-0.7,0.2-1.5,0.7-2.2c0.4-0.7,1.1-1.3,2-1.8C194.8,234.7,195.6,234.4,196.4,234.3z"/>
	<path class="st1" d="M176.7,258.6l-0.1-15.2l2.5-1l10.1,11.3l-2.3,0.9l-8.1-9.5l0.3,12.5L176.7,258.6z"/>
	<path class="st1" d="M170.9,258.2l-1.1-4l-4.7,1.2l-0.5-1.8l4.7-1.2l-1.1-4.2l-5.3,1.4l-0.5-1.8l7.6-2l3.6,13.7l-7.6,2l-0.5-1.8
		L170.9,258.2z"/>
	<path class="st1" d="M148.5,250l2.3-0.3l8.5,9.5l-1.6-10.5l2.3-0.3l2.1,14.1l-2.3,0.3l-8.5-9.4l1.6,10.5l-2.3,0.3L148.5,250z"/>
	<path class="st1" d="M137.6,263.7c-1.1-0.6-2-1.4-2.7-2.4c-0.6-1.1-1-2.3-1-3.8c0-1.4,0.2-2.7,0.8-3.8c0.6-1.1,1.5-1.9,2.6-2.5
		c1.1-0.6,2.4-0.9,4-0.9l4.6-0.1l0.3,14.2l-4.6,0.1C140.1,264.6,138.7,264.3,137.6,263.7z M137.5,253.7c-0.9,0.9-1.3,2.2-1.2,3.8
		c0,1.6,0.5,2.9,1.4,3.8c0.9,0.9,2.2,1.3,3.9,1.3l2.3-0.1l-0.2-10.4l-2.3,0.1C139.6,252.3,138.4,252.7,137.5,253.7z"/>
	<path class="st1" d="M123,252.4l5.9,0.6l1.3-2.8l2.4,0.2l-6.5,13.6l-2.7-0.3l-3.6-14.7l2.4,0.2L123,252.4z M123.5,254.4l1.6,6.8
		l3-6.3L123.5,254.4z"/>
	<path class="st1" d="M116,248.7c0.7,0.5,1.2,1.1,1.5,1.8c0.3,0.7,0.4,1.4,0.2,2.2l-2.4-0.5c0.1-0.6-0.1-1.2-0.4-1.6
		c-0.3-0.5-0.9-0.8-1.6-1c-0.8-0.2-1.4-0.1-2,0.2c-0.5,0.3-0.8,0.7-1,1.3c-0.1,0.5,0,0.9,0.2,1.2c0.2,0.4,0.5,0.7,0.9,0.9
		c0.4,0.2,0.9,0.5,1.6,0.9c0.9,0.4,1.5,0.8,2,1.2c0.5,0.4,0.9,0.9,1.2,1.5c0.3,0.6,0.3,1.3,0.1,2.2c-0.2,0.8-0.5,1.5-1.1,2
		c-0.5,0.5-1.2,0.8-2,1c-0.8,0.2-1.7,0.1-2.6-0.1c-1.3-0.3-2.4-0.9-3.1-1.7s-1-1.9-0.8-3.1l2.5,0.5c-0.1,0.5,0.1,1,0.4,1.5
		c0.4,0.5,0.9,0.8,1.6,0.9c0.7,0.1,1.2,0.1,1.7-0.2c0.5-0.2,0.8-0.7,0.9-1.3c0.1-0.4,0-0.8-0.2-1.1c-0.2-0.3-0.5-0.6-0.8-0.9
		c-0.4-0.2-0.9-0.5-1.5-0.9c-0.9-0.5-1.6-0.9-2.1-1.2c-0.5-0.4-0.9-0.9-1.2-1.5c-0.3-0.6-0.3-1.4-0.2-2.2c0.2-0.7,0.5-1.3,1-1.9
		c0.5-0.5,1.2-0.9,2-1.1c0.8-0.2,1.7-0.2,2.7,0C114.5,247.9,115.3,248.2,116,248.7z"/>
	<path class="st1" d="M45.1,224.8l9.8-10.3l1.7,1.6l-6.7,7.1l9.8-4.1l1.2,1.1l-3.5,10.1l6.7-7.1l1.7,1.6l-9.8,10.3l-1.8-1.7l4-11.5
		l-11.3,4.7L45.1,224.8z"/>
	<path class="st1" d="M45.5,207.6l3.7,4.6l2.9-1l1.5,1.9l-14.3,4.9l-1.7-2.1l7.9-12.9l1.5,1.9L45.5,207.6z M44.5,209.3l-3.7,5.9
		l6.6-2.3L44.5,209.3z"/>
	<path class="st1" d="M31.6,207.4l11.8-7.9l1.3,1.9l-11.8,7.9L31.6,207.4z"/>
	<path class="st1" d="M40.4,195.5c0.1,0.8,0,1.6-0.3,2.3c-0.3,0.7-0.8,1.2-1.5,1.6l-1.2-2.2c0.5-0.3,0.8-0.8,1-1.4
		c0.1-0.6,0-1.2-0.4-1.9c-0.4-0.7-0.9-1.1-1.4-1.3s-1.1-0.1-1.6,0.2c-0.4,0.2-0.7,0.5-0.8,0.9c-0.1,0.4-0.2,0.8-0.1,1.2
		c0.1,0.4,0.2,1,0.4,1.8c0.2,0.9,0.4,1.7,0.5,2.3c0.1,0.6,0,1.3-0.3,1.9c-0.3,0.6-0.8,1.1-1.5,1.6c-0.7,0.4-1.4,0.6-2.2,0.5
		c-0.7-0.1-1.4-0.3-2.1-0.8c-0.6-0.5-1.2-1.1-1.7-2c-0.7-1.2-0.9-2.3-0.8-3.5c0.2-1.1,0.7-2,1.7-2.7l1.3,2.2
		c-0.4,0.3-0.7,0.7-0.8,1.3c-0.1,0.6,0,1.2,0.4,1.8c0.3,0.6,0.7,1,1.2,1.2c0.5,0.2,1,0.1,1.6-0.2c0.4-0.2,0.6-0.5,0.7-0.9
		c0.1-0.4,0.1-0.8,0.1-1.2c-0.1-0.4-0.2-1-0.4-1.7c-0.2-0.9-0.4-1.7-0.5-2.4s0-1.3,0.3-1.9c0.3-0.6,0.8-1.2,1.6-1.6
		c0.6-0.4,1.3-0.5,2.1-0.5c0.7,0,1.5,0.3,2.2,0.7c0.7,0.5,1.3,1.1,1.8,2C40.1,193.9,40.4,194.7,40.4,195.5z"/>
	<path class="st1" d="M16.3,175.5l15.2,0.1l0.9,2.5l-11.5,10l-0.9-2.3l9.6-8l-12.5,0.1L16.3,175.5z"/>
	<path class="st1" d="M16.8,169.8l4-1l-1.2-4.8l1.8-0.5l1.2,4.8l4.2-1.1l-1.3-5.3l1.8-0.5l1.9,7.6l-13.8,3.5l-1.9-7.6l1.8-0.5
		L16.8,169.8z"/>
	<path class="st1" d="M25.2,147.5l0.3,2.3l-9.5,8.4l10.5-1.4l0.3,2.3L12.7,161l-0.3-2.3l9.5-8.4l-10.5,1.4l-0.3-2.3L25.2,147.5z"/>
	<path class="st1" d="M11.6,136.4c0.6-1.1,1.4-2,2.4-2.7c1.1-0.6,2.3-1,3.8-1c1.4,0,2.7,0.3,3.8,0.9c1.1,0.6,1.9,1.5,2.5,2.6
		c0.6,1.1,0.9,2.4,0.9,4l0.1,4.6l-14.2,0.2l-0.1-4.6C10.8,138.9,11,137.6,11.6,136.4z M21.7,136.4c-0.9-0.9-2.2-1.3-3.8-1.3
		c-1.6,0-2.9,0.5-3.8,1.4c-0.9,0.9-1.4,2.2-1.3,3.8l0,2.3l10.4-0.2l0-2.3C23,138.6,22.6,137.3,21.7,136.4z"/>
	<path class="st1" d="M23.1,122l-0.7,5.9l2.8,1.3l-0.3,2.4L11.4,125l0.3-2.7l14.7-3.5l-0.3,2.4L23.1,122z M21.1,122.4l-6.8,1.6
		l6.3,3L21.1,122.4z"/>
	<path class="st1" d="M26.9,114.9c-0.5,0.7-1.1,1.1-1.8,1.4c-0.7,0.3-1.4,0.3-2.2,0.2l0.6-2.4c0.6,0.1,1.2,0,1.6-0.4
		c0.5-0.3,0.8-0.9,1-1.6c0.2-0.8,0.1-1.4-0.1-2c-0.3-0.5-0.7-0.9-1.3-1c-0.5-0.1-0.9-0.1-1.2,0.1c-0.4,0.2-0.7,0.5-0.9,0.9
		c-0.3,0.4-0.6,0.9-0.9,1.6c-0.4,0.8-0.9,1.5-1.2,2c-0.4,0.5-0.9,0.9-1.5,1.2c-0.6,0.3-1.3,0.3-2.2,0.1c-0.8-0.2-1.4-0.5-2-1.1
		c-0.5-0.5-0.8-1.2-1-2c-0.2-0.8-0.1-1.7,0.1-2.6c0.3-1.3,0.9-2.4,1.8-3.1c0.9-0.7,1.9-1,3.1-0.8L18,108c-0.5-0.1-1,0.1-1.5,0.4
		c-0.5,0.4-0.8,0.9-0.9,1.6c-0.1,0.7-0.1,1.2,0.1,1.7c0.2,0.5,0.7,0.8,1.3,0.9c0.4,0.1,0.8,0,1.1-0.1c0.3-0.2,0.6-0.5,0.9-0.8
		c0.3-0.4,0.5-0.9,0.9-1.5c0.5-0.9,0.9-1.5,1.3-2.1c0.4-0.5,0.9-0.9,1.5-1.2c0.6-0.3,1.4-0.3,2.2-0.1c0.7,0.2,1.3,0.5,1.9,1
		c0.5,0.5,0.9,1.2,1.1,2c0.2,0.8,0.2,1.7,0,2.7C27.7,113.5,27.4,114.3,26.9,114.9z"/>
</g>
</svg>
