<?xml version="1.0" encoding="utf-8"?>
<!-- Generator: Adobe Illustrator 27.0.0, SVG Export Plug-In . SVG Version: 6.00 Build 0)  -->
<svg version="1.1" id="Layer_1" xmlns="http://www.w3.org/2000/svg" xmlns:xlink="http://www.w3.org/1999/xlink" x="0px" y="0px"
	 viewBox="0 0 120.3 120.3" style="enable-background:new 0 0 120.3 120.3;" xml:space="preserve">
<style type="text/css">
	.st0{fill:#FFFFFF;stroke:#009CEA;stroke-width:3;stroke-linecap:round;stroke-linejoin:round;stroke-miterlimit:10;}
	.st1{fill:none;stroke:#009CEA;stroke-width:3;stroke-linecap:round;stroke-linejoin:round;stroke-miterlimit:10;}
	.st2{fill:none;stroke:#662D91;stroke-width:3;stroke-linecap:round;stroke-linejoin:round;stroke-miterlimit:10;}
</style>
<polyline class="st0" points="19,87.2 22.3,74.4 57.8,74.4 60.9,86.9 "/>
<path class="st0" d="M67.2,57.2c-3.5,15.7-11.3,32-26.8,32c-14.7,0-22.8-16.4-26.6-32.2"/>
<path class="st0" d="M69.5,34.4C68.8,18.9,56,6.7,40.3,6.7S11.8,19,11.1,34.5"/>
<path class="st1" d="M7.6,34.5c0-18,14.6-32.7,32.7-32.7S73,16.5,73,34.5"/>
<path class="st1" d="M42.7,74.3h20c0,0,8.9,0.6,8.9-7.4s0-9.2,0-9.2"/>
<path class="st2" d="M73,56.8h-6.5V34.6h6.7c2.1,0,3.8,1.7,3.8,3.8v14.3C77,55,75.3,56.8,73,56.8z"/>
<path class="st2" d="M7.1,56.8h6.5V34.6H6.9c-2.1,0-3.8,1.7-3.8,3.8v14.3C3.1,55,4.8,56.8,7.1,56.8z"/>
<circle class="st0" cx="40.3" cy="74.3" r="5.7"/>
<g>
	<polygon class="st2" points="59.2,118 40,103.7 64,84.9 75,93.2 	"/>
	<polygon class="st2" points="20.7,118 40,103.7 15.9,84.9 5.1,93.2 	"/>
</g>
<polygon class="st2" points="107.7,80 87.8,66.8 87.8,76.3 71.4,76.3 71.4,83.7 87.8,83.7 87.8,93.1 "/>
<polygon class="st0" points="81.8,55.6 101.6,68.7 101.6,59.3 118.1,59.3 118.1,51.9 101.6,51.9 101.6,42.5 "/>
</svg>
