<?xml version="1.0" encoding="utf-8"?>
<!-- Generator: Adobe Illustrator 21.0.0, SVG Export Plug-In . SVG Version: 6.00 Build 0)  -->
<svg version="1.1" id="Camada_1" xmlns="http://www.w3.org/2000/svg" xmlns:xlink="http://www.w3.org/1999/xlink" x="0px" y="0px"
	 viewBox="0 0 104 104.3" enable-background="new 0 0 104 104.3" xml:space="preserve">
<g>
	<path fill-rule="evenodd" clip-rule="evenodd" fill="#C7F3FF" d="M98.9,50.8c0,25.6-20.8,46.4-46.4,46.4c-9.4,0-18.2-2.8-25.5-7.6
		c-2.5-1.7-13.6,6-15.8,3.9c-2.2-2.1,4.6-14.1,2.9-16.6C9,69.5,6,60.5,6,50.8C6,25.2,26.8,4.4,52.5,4.4S98.9,25.2,98.9,50.8z"/>
	
		<path fill="#FFFFFF" stroke="#009CEA" stroke-width="3" stroke-linecap="round" stroke-linejoin="round" stroke-miterlimit="10" d="
		M102.3,49.6C101.7,23,79.8,1.7,52.9,1.7C26.3,1.7,4.6,22.5,3.5,48.7c-0.1,0.7-0.1,1.4-0.1,2.1c0,9.3,2.6,18,7.1,25.4l-8.9,26.3
		L29,93.8c7.1,3.9,15.3,6.1,23.9,6.1c27.3,0,49.5-21.9,49.5-49.1C102.4,50.4,102.3,50,102.3,49.6z M52.9,92.1
		c-8.4,0-16.3-2.5-22.9-6.8l-16,5.1L19.2,75c-5-6.8-7.9-15.2-7.9-24.2c0-1.3,0.1-2.6,0.3-4c2-20.9,19.8-37.3,41.4-37.3
		c21.9,0,39.8,16.8,41.5,38.1c0.1,1.1,0.1,2.2,0.1,3.2C94.5,73.6,75.8,92.1,52.9,92.1z"/>
	
		<path fill="#FFFFFF" stroke="#009CEA" stroke-width="3" stroke-linecap="round" stroke-linejoin="round" stroke-miterlimit="10" d="
		M67.7,49.4c2.1-2.5,3.1-5.6,3.1-9.3c0-6.4-4.7-11.6-10.4-11.6H41.2c-2,0-3.7,1.7-3.7,3.7v38.1c0,2,1.7,3.7,3.7,3.7h18.8
		c0.1,0,0.1,0,0.2,0c5-0.3,12.3-4.1,12.3-13.2C72.6,55.4,70.4,51.7,67.7,49.4z M60.4,35.8c1.3,0,3.1,1.5,3.1,4.3
		c0,3.1-1.1,5-3.8,6.4H44.9V35.8H60.4z M59.9,66.5h-15V53.8h15.7c0,0,4.7,0.7,4.7,6.9C65.2,65.6,61.2,66.4,59.9,66.5z"/>
</g>
</svg>
