<?xml version="1.0" encoding="utf-8"?>
<!-- Generator: Adobe Illustrator 27.0.0, SVG Export Plug-In . SVG Version: 6.00 Build 0)  -->
<svg version="1.1" id="Layer_1" xmlns="http://www.w3.org/2000/svg" xmlns:xlink="http://www.w3.org/1999/xlink" x="0px" y="0px"
	 viewBox="0 0 20 20" style="enable-background:new 0 0 20 20;" xml:space="preserve">
<style type="text/css">
	.st0{fill:#ED1E79;}
</style>
<path class="st0" d="M14.4,12c-0.2-0.1-1.5-0.7-1.7-0.8c-0.2-0.1-0.4-0.1-0.6,0.1c-0.2,0.2-0.6,0.8-0.8,1c-0.1,0.2-0.3,0.2-0.5,0.1
	c-0.7-0.3-1.4-0.7-2-1.2c-0.5-0.5-1-1.1-1.4-1.7C7.4,9.3,7.5,9.1,7.6,9C7.7,8.9,7.8,8.7,8,8.6c0.1-0.1,0.2-0.3,0.2-0.4
	c0.1-0.1,0.1-0.3,0-0.4C8.1,7.7,7.6,6.5,7.4,6C7.3,5.3,7.1,5.3,6.9,5.3H6.4c-0.2,0-0.5,0.2-0.6,0.3C5.2,6.2,4.9,6.9,4.9,7.7
	c0.1,0.9,0.4,1.8,1,2.6C7,11.9,8.4,13.2,10,14c0.5,0.2,0.9,0.4,1.4,0.5c0.5,0.2,1,0.2,1.6,0.1c0.7-0.1,1.3-0.6,1.7-1.2
	c0.2-0.4,0.2-0.8,0.1-1.2L14.4,12z M16.8,2.9C13-1,6.8-1,3,2.9c-3.2,3.2-3.7,8.1-1.6,12L0,20l5.2-1.4c1.5,0.8,3.1,1.2,4.6,1.2
	c5.4,0,9.7-4.4,9.7-9.9C19.7,7.3,18.6,4.8,16.8,2.9z M14.2,16.9c-1.3,0.8-2.8,1.3-4.3,1.3c-1.5,0-2.9-0.4-4.1-1.1l-0.3-0.2l-3.1,0.8
	l0.8-3L3,14.4c-2.4-4-1.2-9,2.7-11.5c3.8-2.5,8.8-1.2,11.1,2.6C19.1,9.4,18,14.5,14.2,16.9z"/>
</svg>
