<svg width="20" height="15" viewBox="0 0 20 15" fill="none" xmlns="http://www.w3.org/2000/svg">
<path d="M19.7847 4.15601C19.7854 3.14229 19.4015 2.16603 18.7105 1.4243C18.0195 0.682557 17.0729 0.230567 16.0616 0.159553C12.0161 -0.0507869 7.90745 -0.0507868 3.88996 0.145531C1.91276 0.145531 0.152914 2.05261 0.152914 4.15601C-0.0509713 6.18888 -0.0509713 8.23704 0.152914 10.2699C0.151033 11.2555 0.539346 12.2019 1.23301 12.9021C1.92667 13.6023 2.86929 13.9995 3.8549 14.0069C5.88819 14.1191 7.92615 14.1752 9.96878 14.1752C12.0114 14.1752 14.0377 14.1215 16.0476 14.014C17.0297 14.0122 17.9719 13.6247 18.6709 12.9348C19.37 12.2449 19.7699 11.308 19.7847 10.326C20.0718 8.27935 20.0718 6.20265 19.7847 4.15601ZM18.3824 10.2068C18.3789 10.2347 18.3789 10.263 18.3824 10.2909C18.3806 10.6009 18.3176 10.9075 18.197 11.193C18.0765 11.4786 17.9008 11.7376 17.68 11.9551C17.4592 12.1727 17.1976 12.3445 16.9103 12.4608C16.623 12.5771 16.3155 12.6355 16.0055 12.6327C11.9698 12.8431 7.92575 12.8431 3.88996 12.6327C3.57758 12.63 3.26887 12.5652 2.98177 12.4421C2.69468 12.319 2.43494 12.14 2.21767 11.9155C2.0004 11.6911 1.82994 11.4257 1.7162 11.1347C1.60247 10.8438 1.54773 10.5331 1.55518 10.2208C1.35507 8.24634 1.35507 6.25669 1.55518 4.28222C1.55833 4.25661 1.55833 4.23071 1.55518 4.20509C1.54975 3.54699 1.78937 2.9104 2.22741 2.41922C2.66545 1.92804 3.27058 1.61742 3.92501 1.5478C5.93025 1.45665 7.94952 1.41458 9.96878 1.41458C11.988 1.41458 14.0073 1.45665 16.0126 1.5478H16.0476C17.2465 1.5478 18.3824 2.83788 18.3824 4.20509C18.3789 4.24006 18.3789 4.27529 18.3824 4.31026C18.6569 6.26149 18.6569 8.24155 18.3824 10.1928V10.2068Z" fill="#F75708"/>
<path d="M13.3272 6.61806L8.32112 4.03789C8.23917 3.99554 8.14969 3.96974 8.05777 3.96197C7.96585 3.9542 7.87331 3.96461 7.78541 3.9926C7.69752 4.0206 7.616 4.06563 7.54551 4.12513C7.47502 4.18463 7.41694 4.25743 7.37459 4.33938C7.33223 4.42133 7.30643 4.51081 7.29866 4.60273C7.29089 4.69465 7.3013 4.78719 7.3293 4.87509C7.35729 4.96298 7.40233 5.0445 7.46183 5.11499C7.52133 5.18548 7.59413 5.24356 7.67607 5.28591L11.4832 7.24207L8.6787 8.69342V7.24207C8.6787 7.05612 8.60483 6.87778 8.47334 6.7463C8.34185 6.61481 8.16351 6.54094 7.97756 6.54094C7.79161 6.54094 7.61327 6.61481 7.48179 6.7463C7.3503 6.87778 7.27643 7.05612 7.27643 7.24207V9.85029C7.27643 10.0362 7.3503 10.2146 7.48179 10.3461C7.61327 10.4776 7.79161 10.5514 7.97756 10.5514C8.08969 10.5519 8.20029 10.5254 8.30008 10.4743L13.3062 7.86608C13.4205 7.80686 13.5163 7.7173 13.5831 7.60723C13.6499 7.49716 13.6851 7.37082 13.6848 7.24207C13.6871 7.11546 13.6551 6.9906 13.5921 6.88073C13.5291 6.77086 13.4376 6.68009 13.3272 6.61806Z" fill="#F75708"/>
</svg>
