<?xml version="1.0" encoding="utf-8"?>
<!-- Generator: Adobe Illustrator 27.0.0, SVG Export Plug-In . SVG Version: 6.00 Build 0)  -->
<svg version="1.1" id="Layer_1" xmlns="http://www.w3.org/2000/svg" xmlns:xlink="http://www.w3.org/1999/xlink" x="0px" y="0px"
	 viewBox="0 0 71 73" style="enable-background:new 0 0 71 73;" xml:space="preserve">
<style type="text/css">
	
		.st0{clip-path:url(#SVGID_00000104667377470855396140000005877761567199383962_);fill:#FFFFFF;stroke:#009CEA;stroke-width:2;stroke-linecap:round;stroke-linejoin:round;stroke-miterlimit:10;}
	
		.st1{clip-path:url(#SVGID_00000072250192201454681610000004394359610093187990_);fill:#FFFFFF;stroke:#009CEA;stroke-width:2;stroke-linecap:round;stroke-linejoin:round;stroke-miterlimit:10;}
	
		.st2{clip-path:url(#SVGID_00000090279519353063013670000015583389816445752204_);fill:#FFFFFF;stroke:#009CEA;stroke-width:2;stroke-linecap:round;stroke-linejoin:round;stroke-miterlimit:10;}
	.st3{fill:none;}
	.st4{fill:#FFFFFF;stroke:#662D91;stroke-width:2;stroke-linecap:round;stroke-linejoin:round;stroke-miterlimit:10;}
	.st5{clip-path:url(#SVGID_00000042696461178624351180000003305971415386713263_);fill:#662D91;}
</style>
<g>
	<g>
		<defs>
			<rect id="SVGID_1_" y="0.8" width="70.1" height="71.3"/>
		</defs>
		<clipPath id="SVGID_00000003076122130094887470000014088970742217501578_">
			<use xlink:href="#SVGID_1_"  style="overflow:visible;"/>
		</clipPath>
		
			<path style="clip-path:url(#SVGID_00000003076122130094887470000014088970742217501578_);fill:#FFFFFF;stroke:#009CEA;stroke-width:2;stroke-linecap:round;stroke-linejoin:round;stroke-miterlimit:10;" d="
			M31.9,22.4H8.2c-3.5,0-6.4,2.9-6.4,6.4v23.4c0,3.5,2.9,6.4,6.4,6.4h20.9l11.4,11.7V58.6h1.8c3.5,0,6.4-2.9,6.4-6.4V36.9"/>
	</g>
</g>
<g>
	<g>
		<defs>
			<rect id="SVGID_00000002355175930620567460000000047003469321785737_" y="0.8" width="70.1" height="71.3"/>
		</defs>
		<clipPath id="SVGID_00000067958102909893757170000008766770654319809973_">
			<use xlink:href="#SVGID_00000002355175930620567460000000047003469321785737_"  style="overflow:visible;"/>
		</clipPath>
		
			<path style="clip-path:url(#SVGID_00000067958102909893757170000008766770654319809973_);fill:#FFFFFF;stroke:#009CEA;stroke-width:2;stroke-linecap:round;stroke-linejoin:round;stroke-miterlimit:10;" d="
			M8.9,37.5h32.7"/>
	</g>
</g>
<g>
	<g>
		<defs>
			<rect id="SVGID_00000172427175668596500150000017157778097779500975_" y="0.8" width="70.1" height="71.3"/>
		</defs>
		<clipPath id="SVGID_00000003071835665311513650000011497477006990306178_">
			<use xlink:href="#SVGID_00000172427175668596500150000017157778097779500975_"  style="overflow:visible;"/>
		</clipPath>
		
			<path style="clip-path:url(#SVGID_00000003071835665311513650000011497477006990306178_);fill:#FFFFFF;stroke:#009CEA;stroke-width:2;stroke-linecap:round;stroke-linejoin:round;stroke-miterlimit:10;" d="
			M8.9,44.8H36"/>
	</g>
</g>
<rect y="0.8" class="st3" width="70.4" height="71.3"/>
<path class="st4" d="M46.1,28.1l-8.2,0.1c-3.2,0-5.7-2.6-5.7-5.7V8.1c0-3.2,2.6-5.8,5.8-5.8h25.6c3.1,0,5.7,2.6,5.7,5.7v14.5
	c0,3.2-2.6,5.8-5.7,5.8h-6.3L45.9,39.4L46.1,28.1z"/>
<g>
	<g>
		<defs>
			<rect id="SVGID_00000153670202712811719590000014694350687031109286_" y="0.8" width="70.1" height="71.3"/>
		</defs>
		<clipPath id="SVGID_00000011002371208036214280000011318899082304679827_">
			<use xlink:href="#SVGID_00000153670202712811719590000014694350687031109286_"  style="overflow:visible;"/>
		</clipPath>
		<path style="clip-path:url(#SVGID_00000011002371208036214280000011318899082304679827_);fill:#662D91;" d="M47.9,17.4
			c0-0.6,0.2-1.1,0.6-1.8c0.4-0.6,0.8-1.1,1.5-1.5c1.5-1.1,1.8-1.6,1.8-2.4c0-1.2-0.8-1.9-2-1.9c-1.1,0-1.7,0.6-2,1.9
			C47.6,12.6,47,13,46.1,13c-1.2,0-1.9-0.7-1.9-2.1c0-2.6,2.5-4.6,5.8-4.6c3.2,0,5.7,2.1,5.7,5.1c0,1.2-0.4,2.2-1.3,3.1
			c-0.9,1-1.5,1.2-2.2,2.2c-0.2,0.3-0.3,0.5-0.3,0.6c-0.4,1.2-1,1.6-2,1.6C48.7,19.1,47.9,18.5,47.9,17.4L47.9,17.4z M47.7,22.2
			c0-1.2,0.9-2.1,2.1-2.1s2.1,0.9,2.1,2.1s-0.8,2.1-2.1,2.1S47.7,23.5,47.7,22.2z"/>
	</g>
</g>
</svg>
