<svg width="62" height="75" viewBox="0 0 62 75" fill="none" xmlns="http://www.w3.org/2000/svg">
<g clip-path="url(#clip0_145_178)">
<path d="M48.03 2.58496H11.97C9.10999 2.58496 6.78999 4.90496 6.78999 7.76496V67.065C6.78999 69.925 9.10999 72.245 11.97 72.245H54.5C57.36 72.245 59.68 69.925 59.68 67.065V14.225L48.04 2.58496H48.03Z" fill="white"/>
<path d="M45.48 9.63489V2.01489H12.87C9.23 2.01489 6.28 4.96489 6.28 8.60489V66.3949C6.28 70.0349 9.23 72.9849 12.87 72.9849H53.08C56.72 72.9849 59.67 70.0349 59.67 66.3949V16.2249H52.07C48.43 16.2249 45.48 13.2749 45.48 9.63489Z" stroke="#333333" stroke-width="3" stroke-linecap="round" stroke-linejoin="round"/>
<path d="M46.84 2.01489H45.48V9.63489C45.48 13.2749 48.43 16.2249 52.07 16.2249H59.67V14.8449L46.84 2.01489Z" stroke="#333333" stroke-width="3" stroke-linecap="round" stroke-linejoin="round"/>
<path d="M9.39 46.795H2.03C1.74 46.795 1.5 46.555 1.5 46.265V21.355C1.5 21.065 1.74 20.825 2.03 20.825H47.95C48.24 20.825 48.48 21.065 48.48 21.355V46.265C48.48 46.555 48.24 46.795 47.95 46.795H19.65" fill="url(#paint0_linear_145_178)"/>
<path d="M11.43 38.8348V29.0748C11.43 27.8448 12.07 27.1548 13.2 27.1548H15.5C18.5 27.1548 20.44 28.9448 20.44 31.7048C20.44 34.4648 18.65 36.0848 15.87 36.0848H14.91C14.63 36.0848 14.51 36.1948 14.51 36.4448V38.8448C14.51 39.8848 13.93 40.4848 12.96 40.4848C11.99 40.4848 11.41 39.8848 11.41 38.8448L11.43 38.8348ZM17.36 31.6848C17.36 30.5748 16.64 29.8348 15.55 29.8348H15.12C14.65 29.8348 14.4 30.0448 14.4 30.4748V32.9048C14.4 33.3348 14.65 33.5448 15.12 33.5448H15.52C16.63 33.5448 17.37 32.8048 17.37 31.6748L17.36 31.6848Z" fill="white"/>
<path d="M21.71 38.545V28.885C21.71 27.735 22.33 27.115 23.47 27.115H25.57C29.17 27.115 31.53 29.705 31.53 33.685C31.53 37.665 29.17 40.325 25.57 40.325H23.47C22.34 40.325 21.71 39.705 21.71 38.555V38.545ZM28.35 33.655C28.35 31.335 27.31 29.825 25.75 29.825H25.33C24.99 29.825 24.8 30.015 24.8 30.355V37.015C24.8 37.355 24.99 37.545 25.33 37.545H25.71C27.3 37.545 28.35 36.015 28.35 33.655Z" fill="white"/>
<path d="M32.96 38.795V28.885C32.96 27.735 33.58 27.115 34.72 27.115H38.85C39.85 27.115 40.45 27.605 40.45 28.455C40.45 29.305 39.85 29.905 38.85 29.905H36.62C36.26 29.905 36.05 30.115 36.05 30.475V31.815C36.05 32.175 36.26 32.385 36.62 32.385H38.45C39.3 32.385 39.79 32.855 39.79 33.645C39.79 34.435 39.28 34.945 38.45 34.945H36.62C36.26 34.945 36.05 35.155 36.05 35.515V38.795C36.05 39.835 35.47 40.435 34.5 40.435C33.53 40.435 32.95 39.835 32.95 38.795H32.96Z" fill="white"/>
<path d="M9.76 46.7949H2.94C2.14 46.7949 1.5 46.1449 1.5 45.3549V21.9649C1.5 21.1649 2.15 20.5249 2.94 20.5249H47.04C47.84 20.5249 48.48 21.1749 48.48 21.9649V45.3549C48.48 46.1549 47.83 46.7949 47.04 46.7949H20.28" stroke="#333333" stroke-width="3" stroke-linecap="round" stroke-linejoin="round"/>
<path d="M42.43 53.0449L48.48 59.0849L42.43 65.1349" stroke="#333333" stroke-width="3" stroke-linecap="round" stroke-linejoin="round"/>
<path d="M32.43 59.085H48.48" stroke="#333333" stroke-width="3" stroke-linecap="round" stroke-linejoin="round"/>
</g>
<defs>
<linearGradient id="paint0_linear_145_178" x1="1.5" y1="33.805" x2="48.48" y2="33.805" gradientUnits="userSpaceOnUse">
<stop stop-color="#F4210B"/>
<stop offset="0.9" stop-color="#ED6D05"/>
</linearGradient>
<clipPath id="clip0_145_178">
<rect width="61.17" height="73.97" fill="white" transform="translate(0 0.514893)"/>
</clipPath>
</defs>
</svg>
