<?xml version="1.0" encoding="utf-8"?>
<!-- Generator: Adobe Illustrator 27.0.0, SVG Export Plug-In . SVG Version: 6.00 Build 0)  -->
<svg version="1.1" id="Layer_1" xmlns="http://www.w3.org/2000/svg" xmlns:xlink="http://www.w3.org/1999/xlink" x="0px" y="0px"
	 viewBox="0 0 74 73" style="enable-background:new 0 0 74 73;" xml:space="preserve">
<style type="text/css">
	.st0{clip-path:url(#SVGID_00000000217099757106972770000009059865557392568734_);fill:#FFFFFF;}
	
		.st1{clip-path:url(#SVGID_00000000217099757106972770000009059865557392568734_);fill:#FFFFFF;stroke:#009CEA;stroke-width:3;stroke-linecap:round;stroke-linejoin:round;stroke-miterlimit:10;}
	
		.st2{clip-path:url(#SVGID_00000000217099757106972770000009059865557392568734_);fill:#ED1E79;stroke:#009CEA;stroke-width:3;stroke-linecap:round;stroke-linejoin:round;stroke-miterlimit:10;}
	
		.st3{clip-path:url(#SVGID_00000000217099757106972770000009059865557392568734_);fill:none;stroke:#FFFFFF;stroke-width:3;stroke-linecap:round;stroke-linejoin:round;}
	.st4{clip-path:url(#SVGID_00000156569874891438699300000015826037807919455109_);}
	.st5{fill:#FFFFFF;stroke:#009CEA;stroke-width:3;stroke-linecap:round;stroke-linejoin:round;stroke-miterlimit:10;}
	.st6{fill:#ED1E79;stroke:#009CEA;stroke-width:3;stroke-linecap:round;stroke-linejoin:round;stroke-miterlimit:10;}
	.st7{fill:#FFFFFF;}
</style>
<g>
	<defs>
		<rect id="SVGID_1_" y="0.8" width="73.7" height="71.4"/>
	</defs>
	<clipPath id="SVGID_00000034805302482789456640000011457947833345389729_">
		<use xlink:href="#SVGID_1_"  style="overflow:visible;"/>
	</clipPath>
	<path style="clip-path:url(#SVGID_00000034805302482789456640000011457947833345389729_);fill:#FFFFFF;" d="M61.3,44.5v-7.3
		l-7.7-1.3c-0.6-2.6-1.6-5.1-3-7.2l4.6-6.4l-5.2-5.2l-6.4,4.6c-2.2-1.4-4.6-2.4-7.2-3L35,11h-7.3l-1.3,7.8c-2.6,0.6-5,1.6-7.2,3
		l-6.4-4.6l-5.2,5.2l4.6,6.4c-1.4,2.2-2.4,4.6-3,7.2l-7.7,1.3v7.3l7.7,1.3c0.6,2.6,1.6,5.1,3,7.3l-4.6,6.3l5.2,5.2l6.3-4.6
		c2.2,1.4,4.7,2.5,7.3,3l1.3,7.7H35l1.3-7.7c2.6-0.6,5.1-1.6,7.3-3l6.3,4.6l5.2-5.2L50.5,53c1.4-2.2,2.4-4.7,3-7.3L61.3,44.5
		L61.3,44.5z M31.4,50.6c-5.4,0-9.7-4.4-9.7-9.7s4.4-9.7,9.7-9.7s9.7,4.4,9.7,9.7S36.8,50.6,31.4,50.6z"/>
	
		<path style="clip-path:url(#SVGID_00000034805302482789456640000011457947833345389729_);fill:#FFFFFF;stroke:#009CEA;stroke-width:3;stroke-linecap:round;stroke-linejoin:round;stroke-miterlimit:10;" d="
		M61.3,44.5v-7.3l-7.7-1.3c-0.6-2.6-1.6-5.1-3-7.2l4.6-6.4l-5.2-5.2l-6.4,4.6c-2.2-1.4-4.6-2.4-7.2-3L35,11h-7.3l-1.3,7.8
		c-2.6,0.6-5,1.6-7.2,3l-6.4-4.6l-5.2,5.2l4.6,6.4c-1.4,2.2-2.4,4.6-3,7.2l-7.7,1.3v7.3l7.7,1.3c0.6,2.6,1.6,5.1,3,7.3l-4.6,6.3
		l5.2,5.2l6.3-4.6c2.2,1.4,4.7,2.5,7.3,3l1.3,7.7H35l1.3-7.7c2.6-0.6,5.1-1.6,7.3-3l6.3,4.6l5.2-5.2L50.5,53c1.4-2.2,2.4-4.7,3-7.3
		L61.3,44.5L61.3,44.5z M40.7,40.8c0,5.1-4.2,9.3-9.3,9.3s-9.3-4.2-9.3-9.3s4.2-9.3,9.3-9.3S40.7,35.7,40.7,40.8z"/>
	
		<path style="clip-path:url(#SVGID_00000034805302482789456640000011457947833345389729_);fill:#ED1E79;stroke:#009CEA;stroke-width:3;stroke-linecap:round;stroke-linejoin:round;stroke-miterlimit:10;" d="
		M72.2,19.3c0,2.2-2.4,3.9-3.1,5.7c-0.8,1.9-0.4,4.8-1.8,6.3s-4.3,1-6.3,1.8c-2,0.8-3.6,3.1-5.7,3.1c-2.2,0-3.9-2.4-5.7-3.1
		c-1.9-0.8-4.8-0.4-6.3-1.8s-1-4.3-1.8-6.3c-0.8-2-3.1-3.6-3.1-5.7s2.4-3.9,3.1-5.7c0.8-1.9,0.4-4.8,1.8-6.3s4.3-1,6.3-1.8
		c2-0.8,3.6-3.1,5.7-3.1c2.2,0,3.9,2.4,5.7,3.1c1.9,0.8,4.8,0.4,6.3,1.8s1,4.3,1.8,6.3C69.8,15.5,72.2,17.1,72.2,19.3z"/>
	
		<path style="clip-path:url(#SVGID_00000034805302482789456640000011457947833345389729_);fill:none;stroke:#FFFFFF;stroke-width:3;stroke-linecap:round;stroke-linejoin:round;" d="
		M49.8,19.3l3.6,3.6l7.2-7.2"/>
</g>
<g>
	<defs>
		<rect id="SVGID_00000139269743949925208390000002077232417010496925_" x="123.5" y="-13.6" width="70.1" height="71.3"/>
	</defs>
	<clipPath id="SVGID_00000089535403628110811670000016730901648850148278_">
		<use xlink:href="#SVGID_00000139269743949925208390000002077232417010496925_"  style="overflow:visible;"/>
	</clipPath>
	<g style="clip-path:url(#SVGID_00000089535403628110811670000016730901648850148278_);">
		<path class="st5" d="M164,44.2h1.8c3.5,0,6.4-2.9,6.4-6.4V14.3c0-3.5-2.9-6.4-6.4-6.4h-34.1c-3.5,0-6.4,2.9-6.4,6.4v23.4
			c0,3.5,2.9,6.4,6.4,6.4h20.9L164,55.9V44.2z"/>
		<path class="st5" d="M132.3,23H165"/>
		<path class="st5" d="M132.3,30.3h27.1"/>
		<path class="st6" d="M169.3,13.7l-8.1,0.1c-3.2,0-5.7-2.6-5.7-5.7V-6.4c0-3.2,2.6-5.8,5.8-5.8h25.5c3.2,0,5.7,2.6,5.7,5.7V8.1
			c0,3.2-2.6,5.8-5.8,5.8h-6.3L169.2,25L169.3,13.7z"/>
		<path class="st7" d="M171.4,2.9c0-0.6,0.2-1.1,0.6-1.8c0.4-0.6,0.8-1.1,1.5-1.5c1.5-1.1,1.8-1.6,1.8-2.4c0-1.2-0.8-1.9-2-1.9
			c-1.1,0-1.7,0.6-2,1.9c-0.2,0.9-0.8,1.3-1.8,1.3c-1.2,0-1.9-0.7-1.9-2.1c0-2.6,2.5-4.6,5.8-4.6s5.7,2.1,5.7,5.1
			c0,1.2-0.4,2.2-1.3,3.1c-0.9,1-1.5,1.2-2.2,2.2c-0.2,0.3-0.3,0.5-0.3,0.6c-0.4,1.2-1,1.6-2,1.6C172.1,4.7,171.4,4,171.4,2.9
			L171.4,2.9z M171.2,7.8c0-1.2,0.9-2.1,2.1-2.1s2.1,0.9,2.1,2.1c0,1.2-0.8,2.1-2.1,2.1S171.2,9,171.2,7.8z"/>
	</g>
</g>
</svg>
