<?xml version="1.0" encoding="utf-8"?>
<!-- Generator: Adobe Illustrator 27.0.0, SVG Export Plug-In . SVG Version: 6.00 Build 0)  -->
<svg version="1.1" id="Layer_1" xmlns="http://www.w3.org/2000/svg" xmlns:xlink="http://www.w3.org/1999/xlink" x="0px" y="0px"
	 viewBox="0 0 64.3 71.7" style="enable-background:new 0 0 64.3 71.7;" xml:space="preserve">
<style type="text/css">
	.st0{fill:#FFFFFF;stroke:#009CEA;stroke-width:2;stroke-linecap:round;stroke-linejoin:round;stroke-miterlimit:10;}
	.st1{fill:none;stroke:#662D91;stroke-width:2;stroke-linecap:round;stroke-linejoin:round;stroke-miterlimit:10;}
	.st2{fill:#662D91;}
</style>
<path class="st0" d="M32.2,1.7L32.2,1.7L32.2,1.7L32.2,1.7L32.2,1.7C19.1,14.8,5.3,13.2,5.3,13.2s0,18.6,0,28.5s6,14.4,6,14.4
	L32.2,70l0,0l0,0l0,0l0,0L53,56.1c0,0,6-4.6,6-14.4s0-28.5,0-28.5S45.4,14.8,32.2,1.7z"/>
<path class="st1" d="M41,48.2H23.3c-1.8,0-3.2-1.4-3.2-3.2V32.7c0-1.8,1.4-3.2,3.2-3.2H41c1.8,0,3.2,1.4,3.2,3.2V45
	C44.2,46.8,42.8,48.2,41,48.2z"/>
<path class="st2" d="M32.2,18.1c-4,0-7.2,3.2-7.2,7.2V29h2.8v-3.8c0-2.4,1.9-4.4,4.4-4.4c2.4,0,4.4,1.9,4.4,4.4V29h2.8v-3.7
	C39.3,21.3,36.1,18.1,32.2,18.1z"/>
<path class="st2" d="M34.9,38.1c0-1.6-1.4-2.9-3-2.7c-1.2,0.1-2.2,1.1-2.4,2.4c-0.1,1.1,0.4,2,1.2,2.6l-0.9,2.8h4.9l-0.9-2.8
	C34.4,39.8,34.9,39,34.9,38.1z"/>
</svg>
