<?xml version="1.0" encoding="utf-8"?>
<!-- Generator: Adobe Illustrator 27.0.0, SVG Export Plug-In . SVG Version: 6.00 Build 0)  -->
<svg version="1.1" id="Layer_1" xmlns="http://www.w3.org/2000/svg" xmlns:xlink="http://www.w3.org/1999/xlink" x="0px" y="0px"
	 viewBox="0 0 64.3 71.7" style="enable-background:new 0 0 64.3 71.7;" xml:space="preserve">
<style type="text/css">
	.st0{fill:#FFFFFF;stroke:#009CEA;stroke-width:2;stroke-linecap:round;stroke-linejoin:round;stroke-miterlimit:10;}
	.st1{fill:none;stroke:#662D91;stroke-width:2;stroke-linecap:round;stroke-linejoin:round;stroke-miterlimit:10;}
	.st2{fill:none;stroke:#009CEA;stroke-width:2;stroke-linecap:round;stroke-linejoin:round;stroke-miterlimit:10;}
</style>
<path class="st0" d="M59.8,70.2H4.5c-1.7,0-3-1.4-3-3V56c0-1.7,1.4-3,3-3h55.3c1.7,0,3,1.4,3,3v11.1C62.8,68.8,61.5,70.2,59.8,70.2z
	"/>
<circle class="st1" cx="13.8" cy="61.6" r="4"/>
<line class="st2" x1="25.9" y1="61.6" x2="50.1" y2="61.6"/>
<path class="st0" d="M59.8,53H4.5c-1.7,0-3-1.4-3-3V38.9c0-1.7,1.4-3,3-3h55.3c1.7,0,3,1.4,3,3V50C62.8,51.6,61.5,53,59.8,53z"/>
<circle class="st1" cx="13.8" cy="44.4" r="4"/>
<line class="st2" x1="25.9" y1="44.4" x2="50.1" y2="44.4"/>
<path class="st0" d="M59.8,35.8H4.5c-1.7,0-3-1.4-3-3V21.7c0-1.7,1.4-3,3-3h55.3c1.7,0,3,1.4,3,3v11.1
	C62.8,34.5,61.5,35.8,59.8,35.8z"/>
<circle class="st1" cx="13.8" cy="27.3" r="4"/>
<line class="st2" x1="25.9" y1="27.3" x2="50.1" y2="27.3"/>
<path class="st0" d="M59.8,18.7H4.5c-1.7,0-3-1.4-3-3V4.5c0-1.7,1.4-3,3-3h55.3c1.7,0,3,1.4,3,3v11.1C62.8,17.3,61.5,18.7,59.8,18.7
	z"/>
<circle class="st1" cx="13.8" cy="10.1" r="4"/>
<line class="st2" x1="25.9" y1="10.1" x2="50.1" y2="10.1"/>
</svg>
