<svg width="71" height="73" viewBox="0 0 71 73" fill="none" xmlns="http://www.w3.org/2000/svg">
<g clip-path="url(#clip0_150_245)">
<path d="M40.59 58.975H42.74C45.91 58.975 48.48 56.405 48.48 53.235V28.745C48.48 25.585 45.89 22.995 42.73 22.995H7.24C4.07 22.995 1.5 33.565 1.5 26.735V43.225C1.5 56.385 4.09 58.975 7.25 58.975H29.52L40.74 70.105" fill="white"/>
<path d="M40.22 58.9749H42.06C45.6 58.9749 48.48 56.1049 48.48 52.5549V29.1149C48.48 25.5749 45.61 22.6949 42.06 22.6949H7.92C4.38 22.6949 1.5 25.5649 1.5 29.1149V52.5549C1.5 56.0949 4.37 58.9749 7.92 58.9749H28.83L40.22 70.6649" stroke="#333333" stroke-width="3" stroke-linecap="round" stroke-linejoin="round"/>
<path d="M8.53999 37.7849H41.2" stroke="#333333" stroke-width="3" stroke-linecap="round" stroke-linejoin="round"/>
<path d="M8.53999 45.125H35.65" stroke="#333333" stroke-width="3" stroke-linecap="round" stroke-linejoin="round"/>
<path d="M45.54 28.465L37.39 28.605C34.22 28.605 31.65 26.035 31.65 22.865V8.38501C31.65 5.22501 34.24 2.63501 37.4 2.63501H62.89C66.06 2.63501 68.63 5.20501 68.63 8.37501V22.865C68.63 26.025 66.04 28.615 62.88 28.615H56.61L45.39 39.745" fill="url(#paint0_linear_150_245)"/>
<path d="M39.92 28.605H38.08C34.54 28.605 31.66 25.735 31.66 22.185V8.75496C31.66 5.21496 34.53 2.33496 38.08 2.33496H62.23C65.77 2.33496 68.65 5.20496 68.65 8.75496V22.195C68.65 25.735 65.78 28.615 62.23 28.615H57.32L45.59 39.745V28.835" stroke="#333333" stroke-width="3" stroke-linecap="round" stroke-linejoin="round"/>
<path d="M47.62 17.7049C47.62 17.1549 47.79 16.5849 48.19 15.9349C48.56 15.3349 48.99 14.8849 49.64 14.4149C51.11 13.3449 51.46 12.8649 51.46 12.0249C51.46 10.8749 50.66 10.1049 49.49 10.1049C48.44 10.1049 47.77 10.7549 47.49 12.0249C47.27 12.9249 46.69 13.3749 45.74 13.3749C44.52 13.3749 43.84 12.6549 43.84 11.3249C43.84 8.73494 46.38 6.68494 49.6 6.68494C52.82 6.68494 55.34 8.80494 55.34 11.8249C55.34 13.0449 54.97 13.9749 54.04 14.9449C53.14 15.8949 52.49 16.1449 51.79 17.1649C51.62 17.4349 51.52 17.6349 51.47 17.8149C51.07 18.9849 50.5 19.4649 49.5 19.4649C48.33 19.4649 47.6 18.7949 47.6 17.7149L47.62 17.7049ZM47.37 22.5449C47.37 21.3249 48.24 20.4449 49.49 20.4449C50.74 20.4449 51.56 21.3149 51.56 22.5449C51.56 23.7749 50.74 24.6349 49.49 24.6349C48.24 24.6349 47.37 23.7849 47.37 22.5449Z" fill="white"/>
</g>
<defs>
<linearGradient id="paint0_linear_150_245" x1="31.66" y1="21.185" x2="68.63" y2="21.185" gradientUnits="userSpaceOnUse">
<stop stop-color="#F4210B"/>
<stop offset="0.9" stop-color="#ED6D05"/>
</linearGradient>
<clipPath id="clip0_150_245">
<rect width="70.13" height="71.33" fill="white" transform="translate(0 0.834961)"/>
</clipPath>
</defs>
</svg>
