<svg width="79" height="75" viewBox="0 0 79 75" fill="none" xmlns="http://www.w3.org/2000/svg">
<g clip-path="url(#clip0_146_202)">
<path d="M61.7 22.1351C61.08 22.0351 60.46 21.9851 59.83 21.9851H44.07C44.07 21.9851 42.28 22.0051 39.14 22.0351C36.01 22.0051 34.21 21.9851 34.21 21.9851H18.45C17.82 21.9851 17.2 22.0351 16.58 22.1351C12.82 22.7351 1.48999 25.7351 1.48999 39.8251V62.4251C1.48999 63.9651 1.78999 65.5051 2.45999 66.8951C3.65999 69.4251 6.17999 72.7951 11.05 72.7951C16.88 72.7951 18.96 71.0951 20.47 68.1351C21.74 65.6551 23.6 61.8851 25.92 60.6051C28.52 59.1851 32.4 57.9451 38.02 57.9451H40.25C45.88 57.9451 49.76 59.1851 52.35 60.6051C54.68 61.8751 56.53 65.6451 57.8 68.1351C59.31 71.0951 61.39 72.7951 67.22 72.7951C71.85 72.7951 74.36 69.7351 75.62 67.2651C76.39 65.7551 76.77 64.0851 76.77 62.3951V39.8251C76.77 25.7351 65.44 22.7451 61.68 22.1351H61.7Z" fill="white"/>
<path d="M29.42 38.2951H23.68V32.5551C23.68 30.9851 22.41 29.7251 20.85 29.7251C19.28 29.7251 18.02 30.9951 18.02 32.5551V38.2951H12.28C10.71 38.2951 9.45001 39.5651 9.45001 41.1251C9.45001 42.6851 10.72 43.9551 12.28 43.9551H18.02V49.6951C18.02 51.2651 19.29 52.5251 20.85 52.5251C22.42 52.5251 23.68 51.2551 23.68 49.6951V43.9551H29.42C30.99 43.9551 32.25 42.6851 32.25 41.1251C32.25 39.5651 30.98 38.2951 29.42 38.2951Z" fill="url(#paint0_linear_146_202)"/>
<path d="M56.53 36.955C58.7557 36.955 60.56 35.1507 60.56 32.925C60.56 30.6993 58.7557 28.895 56.53 28.895C54.3043 28.895 52.5 30.6993 52.5 32.925C52.5 35.1507 54.3043 36.955 56.53 36.955Z" fill="url(#paint1_linear_146_202)"/>
<path d="M56.53 53.925C58.7557 53.925 60.56 52.1207 60.56 49.895C60.56 47.6693 58.7557 45.865 56.53 45.865C54.3043 45.865 52.5 47.6693 52.5 49.895C52.5 52.1207 54.3043 53.925 56.53 53.925Z" fill="url(#paint2_linear_146_202)"/>
<path d="M65.02 45.435C67.2457 45.435 69.05 43.6307 69.05 41.405C69.05 39.1793 67.2457 37.375 65.02 37.375C62.7943 37.375 60.99 39.1793 60.99 41.405C60.99 43.6307 62.7943 45.435 65.02 45.435Z" fill="url(#paint3_linear_146_202)"/>
<path d="M48.05 45.435C50.2757 45.435 52.08 43.6307 52.08 41.405C52.08 39.1793 50.2757 37.375 48.05 37.375C45.8243 37.375 44.02 39.1793 44.02 41.405C44.02 43.6307 45.8243 45.435 48.05 45.435Z" fill="url(#paint4_linear_146_202)"/>
<path d="M29.42 38.2951H23.68V32.5551C23.68 30.9851 22.41 29.7251 20.85 29.7251C19.28 29.7251 18.02 30.9951 18.02 32.5551V38.2951H12.28C10.71 38.2951 9.45001 39.5651 9.45001 41.1251C9.45001 42.6851 10.72 43.9551 12.28 43.9551H18.02V49.6951C18.02 51.2651 19.29 52.5251 20.85 52.5251C22.42 52.5251 23.68 51.2551 23.68 49.6951V43.9551H29.42C30.99 43.9551 32.25 42.6851 32.25 41.1251C32.25 39.5651 30.98 38.2951 29.42 38.2951Z" stroke="#333333" stroke-width="3" stroke-linecap="round" stroke-linejoin="round"/>
<path d="M56.53 36.955C58.7557 36.955 60.56 35.1507 60.56 32.925C60.56 30.6993 58.7557 28.895 56.53 28.895C54.3043 28.895 52.5 30.6993 52.5 32.925C52.5 35.1507 54.3043 36.955 56.53 36.955Z" stroke="#333333" stroke-width="3" stroke-linecap="round" stroke-linejoin="round"/>
<path d="M56.53 53.925C58.7557 53.925 60.56 52.1207 60.56 49.895C60.56 47.6693 58.7557 45.865 56.53 45.865C54.3043 45.865 52.5 47.6693 52.5 49.895C52.5 52.1207 54.3043 53.925 56.53 53.925Z" stroke="#333333" stroke-width="3" stroke-linecap="round" stroke-linejoin="round"/>
<path d="M65.02 45.435C67.2457 45.435 69.05 43.6307 69.05 41.405C69.05 39.1793 67.2457 37.375 65.02 37.375C62.7943 37.375 60.99 39.1793 60.99 41.405C60.99 43.6307 62.7943 45.435 65.02 45.435Z" stroke="#333333" stroke-width="3" stroke-linecap="round" stroke-linejoin="round"/>
<path d="M48.05 45.435C50.2757 45.435 52.08 43.6307 52.08 41.405C52.08 39.1793 50.2757 37.375 48.05 37.375C45.8243 37.375 44.02 39.1793 44.02 41.405C44.02 43.6307 45.8243 45.435 48.05 45.435Z" stroke="#333333" stroke-width="3" stroke-linecap="round" stroke-linejoin="round"/>
<path d="M30.1 2.20508V13.6851C30.1 15.6851 31.72 17.3051 33.72 17.3051C35.72 17.3051 37.34 15.6851 37.34 13.6851V12.9851C37.34 11.0651 38.9 9.50508 40.82 9.50508C42.74 9.50508 44.3 11.0651 44.3 12.9851V21.9851H59.81C60.44 21.9851 61.06 22.0351 61.68 22.1351C65.44 22.7351 76.77 25.7351 76.77 39.8251V62.3951C76.77 64.0851 76.39 65.7551 75.62 67.2651C74.35 69.7351 71.85 72.7951 67.22 72.7951C61.39 72.7951 59.31 71.0951 57.8 68.1351C56.53 65.6551 54.67 61.8851 52.35 60.6051C49.75 59.1851 45.87 57.9451 40.25 57.9451H38.02C32.39 57.9451 28.51 59.1851 25.92 60.6051C23.59 61.8751 21.74 65.6451 20.47 68.1351C18.96 71.0951 16.88 72.7951 11.05 72.7951C6.17999 72.7951 3.65999 69.4151 2.45999 66.8951C1.79999 65.5051 1.48999 63.9651 1.48999 62.4251V39.8251C1.48999 25.7351 12.82 22.7451 16.58 22.1351C17.2 22.0351 17.82 21.9851 18.45 21.9851H34.21" stroke="#333333" stroke-width="3" stroke-linecap="round" stroke-linejoin="round"/>
</g>
<defs>
<linearGradient id="paint0_linear_146_202" x1="9.43001" y1="41.1251" x2="32.25" y2="41.1251" gradientUnits="userSpaceOnUse">
<stop stop-color="#F4210B"/>
<stop offset="0.9" stop-color="#ED6D05"/>
</linearGradient>
<linearGradient id="paint1_linear_146_202" x1="52.5" y1="32.925" x2="60.56" y2="32.925" gradientUnits="userSpaceOnUse">
<stop stop-color="#F4210B"/>
<stop offset="0.9" stop-color="#ED6D05"/>
</linearGradient>
<linearGradient id="paint2_linear_146_202" x1="52.5" y1="49.895" x2="60.56" y2="49.895" gradientUnits="userSpaceOnUse">
<stop stop-color="#F4210B"/>
<stop offset="0.9" stop-color="#ED6D05"/>
</linearGradient>
<linearGradient id="paint3_linear_146_202" x1="60.99" y1="41.405" x2="69.04" y2="41.405" gradientUnits="userSpaceOnUse">
<stop stop-color="#F4210B"/>
<stop offset="0.9" stop-color="#ED6D05"/>
</linearGradient>
<linearGradient id="paint4_linear_146_202" x1="44.02" y1="41.405" x2="52.07" y2="41.405" gradientUnits="userSpaceOnUse">
<stop stop-color="#F4210B"/>
<stop offset="0.9" stop-color="#ED6D05"/>
</linearGradient>
<clipPath id="clip0_146_202">
<rect width="78.29" height="73.59" fill="white" transform="translate(0 0.705078)"/>
</clipPath>
</defs>
</svg>
