<svg width="72" height="67" viewBox="0 0 72 67" fill="none" xmlns="http://www.w3.org/2000/svg">
<g clip-path="url(#clip0_148_226)">
<path d="M69.65 10.7801C69.65 6.88008 66.49 3.72008 62.59 3.72008H60.67C60.65 3.56008 60.6 3.41008 60.5 3.29008C59.08 1.56008 52.29 2.53008 49.89 2.53008H17.72C13.46 2.53008 10 5.99008 10 10.2501V56.7401C10 61.0001 13.46 64.4601 17.72 64.4601H49.9C54.16 64.4601 57.62 61.0001 57.62 56.7401V39.4701H69.66V10.7801H69.65Z" fill="white"/>
<path d="M66.28 4.77004C66.28 4.77004 57.33 1.84004 57.33 14.51V53.96C57.33 63.26 52.26 64.48 48.74 64.48H12.72C12.2 64.48 10.79 63.57 10.79 62.46V9.10004C10.79 7.98004 10.79 2.54004 16.8 2.54004H55.9C70.28 2.54004 69.66 9.10004 69.66 12.37V39.19H63.87" stroke="#333333" stroke-width="3.23" stroke-linecap="round" stroke-linejoin="round"/>
<path d="M33.84 16.2001C33.89 16.2601 33.95 16.3101 34.01 16.3701C33.98 16.3901 33.96 16.4201 33.93 16.4501C33.88 16.3901 33.82 16.3401 33.76 16.2801C33.79 16.2601 33.81 16.2301 33.84 16.2101M33.9 38.3001C33.9 38.3001 33.99 38.3901 34.04 38.4301C33.99 38.4801 33.94 38.5301 33.89 38.5801C33.85 38.5301 33.8 38.4901 33.76 38.4501C33.81 38.4001 33.86 38.3501 33.91 38.3001M33.89 9.11009C32.87 9.11009 32.04 9.94009 32.04 10.9601V14.3901C28.27 14.9101 24.74 17.3201 24.74 21.3901C24.74 25.4601 28.24 28.0701 32.04 28.6901V36.5301C29.91 35.9101 28.29 34.4901 28.25 34.4501C27.89 34.1301 27.45 33.9701 27 33.9701C26.5 33.9701 26 34.1701 25.63 34.5701C24.94 35.3301 24.99 36.5001 25.75 37.1901C25.88 37.3101 28.49 39.6601 32.04 40.3301V43.0201C32.04 44.0401 32.87 44.8701 33.89 44.8701C34.91 44.8701 35.74 44.0401 35.74 43.0201V40.3301C39.65 39.5501 42.59 36.3901 42.59 32.6001C42.59 28.8101 39.31 26.0501 35.74 25.3201V18.2501C36.96 18.5701 38.09 19.1701 39.15 20.0601C39.5 20.3501 39.92 20.4901 40.34 20.4901C40.87 20.4901 41.4 20.2601 41.77 19.8201C42.43 19.0301 42.32 17.8601 41.53 17.2101C39.78 15.7501 37.84 14.8301 35.74 14.4601V10.9401C35.74 9.92009 34.91 9.09009 33.89 9.09009V9.11009ZM32.04 24.9201C30.25 24.4901 28.45 23.4101 28.45 21.4001C28.45 19.3901 30.37 18.5301 32.04 18.1701V24.9201ZM35.75 36.5101V29.1701C37.45 29.7401 38.89 31.0301 38.89 32.6201C38.89 34.3501 37.57 35.8701 35.75 36.5101Z" fill="#333333"/>
<path d="M50.08 64.4701H9.04002C4.89002 64.4701 1.52002 60.6901 1.52002 56.0301V49.3201H43.43V56.2901C43.43 59.4801 44.12 61.5701 45.46 62.8101C47.33 64.5401 50.08 64.4701 50.08 64.4701Z" fill="url(#paint0_linear_148_226)"/>
<path d="M50.08 64.4701H9.04002C4.89002 64.4701 1.52002 60.6901 1.52002 56.0301V49.3201H43.43V56.2901C43.43 59.4801 44.12 61.5701 45.46 62.8101C47.33 64.5401 50.08 64.4701 50.08 64.4701Z" stroke="#333333" stroke-width="3.05" stroke-linecap="round" stroke-linejoin="round"/>
</g>
<defs>
<linearGradient id="paint0_linear_148_226" x1="1.53002" y1="56.8901" x2="50.08" y2="56.8901" gradientUnits="userSpaceOnUse">
<stop stop-color="#F4210B"/>
<stop offset="0.9" stop-color="#ED6D05"/>
</linearGradient>
<clipPath id="clip0_148_226">
<rect width="71.27" height="65.16" fill="white" transform="translate(0 0.920044)"/>
</clipPath>
</defs>
</svg>
