<svg width="74" height="73" viewBox="0 0 74 73" fill="none" xmlns="http://www.w3.org/2000/svg">
<g clip-path="url(#clip0_147_220)">
<path d="M61.27 44.4801V37.1701L53.53 35.9101C52.95 33.2901 51.91 30.8501 50.51 28.6601L55.1 22.2801L49.93 17.1101L43.54 21.7101C41.35 20.3201 38.92 19.2901 36.31 18.7201L35.04 10.9501H27.73L26.46 18.7201C23.85 19.3001 21.41 20.3201 19.23 21.7101L12.84 17.1101L7.67 22.2801L12.26 28.6601C10.86 30.8501 9.83 33.2901 9.24 35.9101L1.5 37.1701V44.4801L9.23 45.7401C9.81 48.3701 10.84 50.8201 12.24 53.0201L7.67 59.3701L12.84 64.5401L19.18 59.9801C21.38 61.3901 23.84 62.4301 26.48 63.0101L27.74 70.7101H35.05L36.31 63.0101C38.94 62.4301 41.41 61.3901 43.61 59.9801L49.95 64.5401L55.12 59.3701L50.55 53.0201C51.95 50.8201 52.98 48.3601 53.56 45.7401L61.29 44.4801H61.27ZM31.38 50.5801C26.01 50.5801 21.66 46.2301 21.66 40.8601C21.66 35.4901 26.01 31.1401 31.38 31.1401C36.75 31.1401 41.1 35.4901 41.1 40.8601C41.1 46.2301 36.75 50.5801 31.38 50.5801Z" fill="white"/>
<path d="M23.51 46.5601C22.35 44.9601 21.66 42.9901 21.66 40.8601C21.66 35.4901 26.01 31.1401 31.38 31.1401C36.75 31.1401 41.1 35.4901 41.1 40.8601C41.1 46.2301 36.75 50.5801 31.38 50.5801M61.27 44.4801V37.1701L53.53 35.9101C52.95 33.2901 51.91 30.8501 50.51 28.6601L55.1 22.2801L49.93 17.1101L43.54 21.7101C41.35 20.3201 38.92 19.2901 36.31 18.7201L35.04 10.9501H27.73L26.46 18.7201C23.85 19.3001 21.41 20.3201 19.23 21.7101L12.84 17.1101L7.67 22.2801L12.26 28.6601C10.86 30.8501 9.83 33.2901 9.24 35.9101L1.5 37.1701V44.4801L9.23 45.7401C9.81 48.3701 10.84 50.8201 12.24 53.0201L7.67 59.3701L12.84 64.5401L19.18 59.9801C21.38 61.3901 23.84 62.4301 26.48 63.0101L27.74 70.7101H35.05L36.31 63.0101C38.94 62.4301 41.41 61.3901 43.61 59.9801L49.95 64.5401L55.12 59.3701L50.55 53.0201C51.95 50.8201 52.98 48.3601 53.56 45.7401L61.29 44.4801H61.27Z" stroke="#333333" stroke-width="3" stroke-linecap="round" stroke-linejoin="round"/>
<path d="M72.16 19.29C72.16 21.46 69.8 23.15 69.02 25.03C68.24 26.91 68.65 29.84 67.18 31.31C65.71 32.78 62.86 32.34 60.9 33.15C58.94 33.96 57.33 36.29 55.16 36.29C52.99 36.29 51.3 33.93 49.42 33.15C47.54 32.37 44.61 32.78 43.14 31.31C41.67 29.84 42.11 26.99 41.3 25.03C40.49 23.07 38.16 21.46 38.16 19.29C38.16 17.12 40.52 15.43 41.3 13.55C42.08 11.67 41.67 8.74004 43.14 7.27004C44.61 5.80004 47.46 6.24004 49.42 5.43004C51.38 4.62004 52.99 2.29004 55.16 2.29004C57.33 2.29004 59.02 4.65004 60.9 5.43004C62.78 6.21004 65.71 5.80004 67.18 7.27004C68.65 8.74004 68.21 11.59 69.02 13.55C69.83 15.51 72.16 17.12 72.16 19.29Z" fill="url(#paint0_linear_147_220)"/>
<path d="M72.16 19.29C72.16 21.46 69.8 23.15 69.02 25.03C68.24 26.91 68.65 29.84 67.18 31.31C65.71 32.78 62.86 32.34 60.9 33.15C58.94 33.96 57.33 36.29 55.16 36.29C52.99 36.29 51.3 33.93 49.42 33.15C47.54 32.37 44.61 32.78 43.14 31.31C41.67 29.84 42.11 26.99 41.3 25.03C40.49 23.07 38.16 21.46 38.16 19.29C38.16 17.12 40.52 15.43 41.3 13.55C42.08 11.67 41.67 8.74004 43.14 7.27004C44.61 5.80004 47.46 6.24004 49.42 5.43004C51.38 4.62004 52.99 2.29004 55.16 2.29004C57.33 2.29004 59.02 4.65004 60.9 5.43004C62.78 6.21004 65.71 5.80004 67.18 7.27004C68.65 8.74004 68.21 11.59 69.02 13.55C69.83 15.51 72.16 17.12 72.16 19.29Z" stroke="#333333" stroke-width="3" stroke-linecap="round" stroke-linejoin="round"/>
<path d="M49.79 19.3201L53.35 22.8801L60.53 15.7001" stroke="white" stroke-width="3" stroke-linecap="round" stroke-linejoin="round"/>
</g>
<defs>
<linearGradient id="paint0_linear_147_220" x1="38.16" y1="19.29" x2="72.16" y2="19.29" gradientUnits="userSpaceOnUse">
<stop stop-color="#F4210B"/>
<stop offset="0.9" stop-color="#ED6D05"/>
</linearGradient>
<clipPath id="clip0_147_220">
<rect width="73.66" height="71.42" fill="white" transform="translate(0 0.790039)"/>
</clipPath>
</defs>
</svg>
