<svg width="85" height="75" viewBox="0 0 85 75" fill="none" xmlns="http://www.w3.org/2000/svg">
<g clip-path="url(#clip0_149_234)">
<path d="M65.26 2.58496H29.2C26.34 2.58496 24.02 4.90496 24.02 7.76496V67.065C24.02 69.925 26.34 72.245 29.2 72.245H71.73C74.59 72.245 76.91 69.925 76.91 67.065V14.225L65.27 2.58496H65.26Z" fill="white"/>
<path d="M62.71 9.63489V2.01489H30.1C26.46 2.01489 23.51 4.96489 23.51 8.60489V66.3949C23.51 70.0349 26.46 72.9849 30.1 72.9849H70.31C73.95 72.9849 76.9 70.0349 76.9 66.3949V16.2249H69.3C65.66 16.2249 62.71 13.2749 62.71 9.63489Z" stroke="#333333" stroke-width="3" stroke-linecap="round" stroke-linejoin="round"/>
<path d="M64.07 2.01489H62.71V9.63489C62.71 13.2749 65.66 16.2249 69.3 16.2249H76.9V14.8449L64.07 2.01489Z" stroke="#333333" stroke-width="3" stroke-linecap="round" stroke-linejoin="round"/>
<path d="M24.02 9.40479V31.9248H46.54C46.54 19.4848 36.46 9.40479 24.02 9.40479Z" fill="white"/>
<path d="M24.02 9.40479C11.58 9.40479 1.5 19.4948 1.5 31.9248C1.5 44.3548 11.58 54.4448 24.02 54.4448C36.46 54.4448 46.54 44.3648 46.54 31.9248H24.02V9.40479Z" fill="url(#paint0_linear_149_234)"/>
<path d="M24.02 9.40479C11.58 9.40479 1.5 19.4948 1.5 31.9248C1.5 44.3548 11.58 54.4448 24.02 54.4448C36.46 54.4448 46.54 44.3648 46.54 31.9248H24.02V9.40479Z" stroke="#333333" stroke-width="3" stroke-linecap="round" stroke-linejoin="round"/>
<path d="M42.34 18.8348C38.25 13.1348 31.57 9.41479 24.02 9.41479V31.9348H46.54C46.54 29.9548 46.28 28.0348 45.81 26.2048" stroke="#333333" stroke-width="3" stroke-linecap="round" stroke-linejoin="round"/>
<path d="M44.32 66.035C46.855 66.035 48.91 63.98 48.91 61.445C48.91 58.91 46.855 56.855 44.32 56.855C41.785 56.855 39.73 58.91 39.73 61.445C39.73 63.98 41.785 66.035 44.32 66.035Z" stroke="#333333" stroke-width="3" stroke-linecap="round" stroke-linejoin="round"/>
<path d="M78.66 47.7049C81.195 47.7049 83.25 45.6499 83.25 43.1149C83.25 40.5799 81.195 38.5249 78.66 38.5249C76.125 38.5249 74.07 40.5799 74.07 43.1149C74.07 45.6499 76.125 47.7049 78.66 47.7049Z" fill="white" stroke="#333333" stroke-width="3" stroke-linecap="round" stroke-linejoin="round"/>
<path d="M48.05 58.775L57.71 49.115L65.41 56.805L75.62 46.595" fill="white"/>
<path d="M48.05 58.775L57.71 49.115L65.41 56.805L75.62 46.595" stroke="#333333" stroke-width="3" stroke-linecap="round" stroke-linejoin="round"/>
</g>
<defs>
<linearGradient id="paint0_linear_149_234" x1="1.5" y1="31.9248" x2="46.54" y2="31.9248" gradientUnits="userSpaceOnUse">
<stop stop-color="#F4210B"/>
<stop offset="0.9" stop-color="#ED6D05"/>
</linearGradient>
<clipPath id="clip0_149_234">
<rect width="84.76" height="73.97" fill="white" transform="translate(0 0.514893)"/>
</clipPath>
</defs>
</svg>
