<svg width="91" height="54" viewBox="0 0 91 54" fill="none" xmlns="http://www.w3.org/2000/svg">
<g clip-path="url(#clip0_152_318)">
<path d="M39.0978 22.0249C39.3305 21.0747 39.5366 20.2038 39.7494 19.3328C40.587 15.8159 41.418 12.3057 42.2491 8.7888C42.7743 6.57839 43.2928 4.37457 43.8313 2.17076C44.0973 1.08205 44.4563 0.818122 45.5731 0.811523C46.4308 0.811523 47.2817 0.811523 48.1393 0.811523C49.11 0.818122 49.5022 1.11504 49.7415 2.05859C50.0008 3.08792 50.2402 4.13044 50.4861 5.16636C51.3238 8.68982 52.1615 12.2199 52.9991 15.7433C53.4778 17.7558 53.9498 19.7617 54.4285 21.7741C54.4551 21.8929 54.495 22.0117 54.5415 22.17C54.6811 22.0579 54.6878 21.9259 54.7144 21.8137C56.2501 15.9149 57.7792 10.0095 59.3215 4.11064C59.5409 3.26607 59.6938 2.4017 60.0595 1.59671C60.3055 1.06226 60.711 0.831318 61.2628 0.82472C62.3199 0.811523 63.3836 0.811523 64.4406 0.82472C64.9193 0.82472 65.132 1.05566 65.1387 1.53733C65.1387 2.24994 64.8395 2.89657 64.6334 3.55639C63.47 7.29759 62.2866 11.0322 61.1099 14.7734C59.9398 18.5014 58.7697 22.2294 57.5997 25.9508C57.5398 26.129 57.46 26.3005 57.4002 26.4853C57.1742 27.1649 56.649 27.4288 55.9842 27.442C54.9603 27.4684 53.9432 27.4618 52.9194 27.442C52.095 27.4222 51.6762 27.0197 51.4501 26.1092C51.1377 24.8423 50.8318 23.5689 50.526 22.302C49.7615 19.148 48.9969 15.9941 48.2391 12.8401C47.7936 10.9926 47.3482 9.1451 46.8961 7.29759C46.8562 7.12604 46.8097 6.96108 46.6834 6.78953C46.5504 7.33059 46.4175 7.87824 46.2845 8.4193C44.8817 14.2323 43.4856 20.052 42.0762 25.865C41.7637 27.1517 41.4646 27.4024 40.1217 27.4354C39.151 27.4552 38.1804 27.4882 37.2098 27.3826C36.7178 27.3299 36.3854 27.0659 36.1726 26.6436C35.8269 25.9442 35.6541 25.1854 35.4281 24.4464C34.1117 20.184 32.8087 15.9149 31.499 11.6458C30.535 8.49188 29.5777 5.33792 28.6203 2.18396C28.5804 2.06519 28.5539 1.93982 28.5339 1.81446C28.4009 1.15463 28.6669 0.818122 29.345 0.818122C30.3954 0.818122 31.4392 0.82472 32.4896 0.818122C33.1145 0.818122 33.5333 1.08205 33.7527 1.6627C34.2247 2.90317 34.4641 4.20302 34.7965 5.47648C36.2059 10.9398 37.602 16.4032 38.9981 21.8731C38.9981 21.8995 39.0181 21.9193 39.0845 22.0381L39.0978 22.0249Z" fill="white"/>
<path d="M50.6058 53.7492C49.5354 53.9274 48.4119 53.8944 47.3016 53.9735C46.3377 54.0461 45.367 53.9735 44.3964 53.9537C43.6053 53.9405 42.8075 53.9735 42.023 53.901C41.1056 53.8218 40.1815 53.8152 39.264 53.703C38.6391 53.6304 38.0075 53.5776 37.3826 53.5183C36.5848 53.4457 35.7937 53.3137 34.9959 53.1817C33.8857 53.0036 32.7688 52.8254 31.6718 52.6077C30.7344 52.4164 29.797 52.2118 28.8729 51.9611C27.7959 51.6708 26.7056 51.4134 25.6353 51.0967C21.9256 49.9882 18.3423 48.5498 14.8985 46.8079C9.68635 44.1818 4.89303 40.9288 0.551783 37.0425C0.372283 36.8775 0.219375 36.6993 0.0997082 36.4882C-0.0399031 36.2375 -0.0332549 36.0329 0.132949 35.7954C0.312449 35.5447 0.545135 35.3995 0.844302 35.4391C1.06369 35.4655 1.28308 35.5249 1.48917 35.637C3.59664 36.8379 5.75064 37.9662 7.95783 38.9889C9.5268 39.7147 11.1157 40.3944 12.7246 41.041C14.2536 41.6546 15.8027 42.2155 17.3583 42.7367C19.4326 43.4295 21.5334 44.0498 23.6608 44.5842C25.0768 44.9405 26.4995 45.2837 27.9289 45.5872C29.3649 45.8973 30.8142 46.1282 32.2569 46.3658C33.4934 46.5703 34.7366 46.7419 35.9732 46.8936C36.8241 46.9992 37.6818 47.0388 38.5327 47.1246C39.756 47.2433 40.9792 47.3093 42.2025 47.3753C43.9111 47.4677 45.6197 47.4017 47.3216 47.4743C48.2124 47.5139 49.0966 47.4479 49.9808 47.4149C50.9847 47.3753 52.0019 47.3489 53.0058 47.2169C53.7038 47.1246 54.4218 47.1246 55.1199 47.052C55.9974 46.9596 56.8683 46.854 57.7392 46.7353C58.67 46.6033 59.6007 46.4449 60.5315 46.2998C61.8811 46.0886 63.2173 45.8313 64.5536 45.5476C66.1691 45.2045 67.7713 44.8284 69.3602 44.3995C73.2228 43.3702 76.999 42.0967 80.6887 40.5593C81.1474 40.368 81.5928 40.302 82.0848 40.4274C82.8161 40.6187 83.2615 41.5029 82.7629 42.2749C82.5967 42.5388 82.3574 42.7235 82.1048 42.9017C78.5879 45.442 74.7652 47.4281 70.743 49.0447C67.1929 50.4699 63.5364 51.5454 59.8002 52.3702C58.2645 52.7067 56.7088 52.9772 55.1531 53.2147C53.8434 53.4127 52.5337 53.5908 51.2174 53.6832C51.018 53.6964 50.8252 53.7822 50.5858 53.736L50.6058 53.7492Z" fill="#FE9B01"/>
<path d="M25.602 14.0743C25.602 15.7634 25.5622 17.446 25.6153 19.1285C25.6552 20.2832 25.6752 21.4577 26.1206 22.5662C26.3599 23.1666 26.6259 23.7539 26.9317 24.3279C27.3572 25.1263 27.2641 25.5552 26.5195 26.0831C25.9278 26.4988 25.3162 26.8946 24.6979 27.2773C24.0264 27.693 23.4946 27.6139 22.9428 27.0464C22.2248 26.3074 21.7195 25.4298 21.2741 24.5127C20.9816 23.9122 21.0281 23.9188 20.5694 24.4071C18.9406 26.1622 16.9794 27.3763 14.606 27.8382C12.2658 28.2935 9.95228 28.2671 7.77169 27.1586C5.52461 26.0171 4.27476 24.1366 3.91576 21.682C3.65648 19.9401 3.77615 18.2114 4.54733 16.5882C5.50467 14.5625 7.12682 13.2561 9.18775 12.4511C10.411 11.976 11.6875 11.7517 12.9971 11.6857C15.4304 11.5537 17.8038 11.9298 20.1639 12.4445C20.6758 12.5567 20.6758 12.5567 20.6758 12.042C20.6758 10.6366 20.6891 9.23116 20.3965 7.84552C19.9777 5.87265 18.7411 4.77074 16.7799 4.40124C14.5262 3.97236 12.3124 4.1769 10.1185 4.81033C9.10797 5.10066 8.12404 5.45036 7.15341 5.83306C6.90743 5.93203 6.64815 6.01121 6.38222 6.0574C5.98333 6.12998 5.69746 5.97822 5.65093 5.58233C5.54456 4.67837 5.49137 3.76121 5.69746 2.86385C5.78389 2.47456 6.14289 2.26341 6.48859 2.08526C8.21047 1.1681 10.0587 0.633647 11.9733 0.32353C14.4797 -0.085561 16.9794 -0.0657662 19.4525 0.567665C22.863 1.43863 24.7378 3.68203 25.3694 7.05374C25.5489 8.03027 25.6153 9.01341 25.602 10.0031C25.5888 11.3624 25.602 12.715 25.602 14.0743ZM20.6957 17.1952C20.6957 16.9049 20.6758 16.608 20.6957 16.3177C20.7289 15.9944 20.5893 15.869 20.2835 15.8096C19.2198 15.5919 18.1561 15.4137 17.0725 15.3147C15.6564 15.1894 14.2403 15.1432 12.8442 15.4269C11.3617 15.7238 10.1118 16.3968 9.48027 17.8485C8.94841 19.0559 8.96171 20.3228 9.32736 21.5699C9.69301 22.8235 10.5573 23.6219 11.8204 23.965C12.678 24.196 13.5556 24.229 14.4398 24.097C15.7894 23.8924 17.0924 23.5559 18.2159 22.7378C19.406 21.8734 20.2503 20.7913 20.5029 19.3133C20.6226 18.6139 20.7223 17.9078 20.6824 17.1952H20.6957Z" fill="white"/>
<path d="M76.4538 28.2143C73.9741 28.2077 71.5409 27.7392 69.1941 26.8419C68.8218 26.6967 68.4761 26.5053 68.1436 26.2942C67.6051 25.9577 67.3259 25.4628 67.306 24.836C67.286 24.2883 67.286 23.7473 67.306 23.1996C67.3326 22.487 67.7049 22.2033 68.3896 22.388C68.7686 22.487 69.1409 22.6454 69.4999 22.7971C71.4744 23.6285 73.5353 24.0508 75.676 24.1036C77.0655 24.1366 78.435 24.0838 79.7447 23.5823C80.8283 23.1666 81.6992 22.5134 82.0582 21.3653C82.5701 19.7158 81.9652 18.3103 80.4361 17.4855C79.2328 16.8389 77.9164 16.5156 76.6333 16.0933C75.0444 15.5787 73.409 15.2092 71.9065 14.4438C69.3935 13.1703 67.9043 11.171 67.6317 8.37337C67.4389 6.36091 68.0838 4.57279 69.4866 3.07499C71.1353 1.31326 73.2295 0.435692 75.5896 0.118976C78.3685 -0.250525 81.061 0.158566 83.687 1.06252C83.8931 1.13511 84.0859 1.22748 84.2854 1.31986C85.3158 1.77513 85.861 2.52733 85.7613 3.68203C85.7214 4.09772 85.8012 4.52 85.7014 4.92909C85.5751 5.45695 85.2826 5.6483 84.7507 5.52294C84.0992 5.36458 83.5275 5.02147 82.8959 4.81033C80.3962 3.99214 77.85 3.7612 75.2771 4.37484C73.9874 4.68496 72.9702 5.38437 72.7109 6.7898C72.4782 8.06986 72.7575 9.19156 73.9741 10.0163C74.9779 10.696 76.1148 11.0787 77.2583 11.4548C79.0865 12.0552 80.9679 12.5105 82.743 13.2759C84.8904 14.2062 86.466 15.671 87.0377 18.0002C87.882 21.4775 86.2599 24.9877 83.0621 26.6703C81.0078 27.7524 78.8006 28.1945 76.4538 28.1879V28.2143Z" fill="white"/>
<path d="M90.9867 36.7587C90.9468 38.2367 90.6942 39.6883 90.2953 41.1069C89.6637 43.3503 88.7396 45.4684 87.3834 47.3819C86.7252 48.3056 85.974 49.1502 85.1097 49.8892C84.9369 50.0409 84.7441 50.1663 84.5247 50.2455C84.2787 50.3379 84.046 50.3511 83.8399 50.1399C83.6338 49.9222 83.6671 49.6912 83.7668 49.4471C83.9264 49.0644 84.0793 48.6817 84.2388 48.2924C84.8372 46.8012 85.3956 45.2968 85.8743 43.766C86.2133 42.6773 86.5391 41.5754 86.6854 40.4405C86.7651 39.8335 86.8183 39.2264 86.6588 38.6128C86.5258 38.0849 86.1801 37.7814 85.7081 37.6231C85.0765 37.4119 84.4316 37.2734 83.7602 37.2404C83.0488 37.2074 82.3441 37.115 81.6328 37.1612C80.1901 37.247 78.7541 37.28 77.3181 37.4581C76.4472 37.5637 75.563 37.6165 74.6987 37.7682C74.4328 37.8144 74.1935 37.689 74.0472 37.4581C73.9076 37.2404 73.9608 37.016 74.1203 36.7983C74.3663 36.4552 74.7187 36.2506 75.0644 36.0329C76.7131 35.0168 78.5148 34.3965 80.4161 34.0336C82.2178 33.6971 84.0327 33.5585 85.8676 33.6641C87.1707 33.7367 88.4737 33.8885 89.7103 34.3107C90.8139 34.6868 90.8205 34.8716 90.9934 35.9801C91.0332 36.2242 90.9934 36.4882 90.9934 36.7389L90.9867 36.7587Z" fill="#FE9B01"/>
</g>
<defs>
<clipPath id="clip0_152_318">
<rect width="91" height="54" fill="white"/>
</clipPath>
</defs>
</svg>
