<?xml version="1.0" encoding="utf-8"?>
<!-- Generator: Adobe Illustrator 26.5.0, SVG Export Plug-In . SVG Version: 6.00 Build 0)  -->
<svg version="1.1" id="Camada_1" xmlns="http://www.w3.org/2000/svg" xmlns:xlink="http://www.w3.org/1999/xlink" x="0px" y="0px"
	 viewBox="0 0 129.8 128.9" enable-background="new 0 0 129.8 128.9" xml:space="preserve">
<path fill="#FFFFFF" stroke="#009BE9" stroke-width="2.5986" stroke-linecap="round" stroke-linejoin="round" stroke-miterlimit="10" d="
	M59,62.2c-1.1,1.1-1.7,2.4-2,3.9c0,0,0,0.1,0,0.1C56,69,54.1,67,54.1,67l0,0L42.4,55.3L12.6,85.1c-2.1,2.1-2.1,5.4,0,7.5L39.1,119
	c1.8,1.8,4.8,1.8,6.6,0l30.2-30.2L63.7,76.7c-0.4-0.6-0.7-1.7,1.2-2.4c0,0,0.1,0,0.1,0c1.5-0.2,2.9-0.9,4.1-2.1
	c2.6-2.6,2.6-6.9,0.2-9.7C66.5,59.4,61.9,59.3,59,62.2z"/>
<path fill="#FFFFFF" stroke="#009BE9" stroke-width="2.5986" stroke-linecap="round" stroke-linejoin="round" stroke-miterlimit="10" d="
	M53.2,44.5l11.9,11.9c0.5,0.4,1.9,1.3,2.7-1c0,0,0-0.1,0-0.1c0.2-1.4,0.9-2.8,2-3.9c2.9-2.9,7.5-2.8,10.3,0.3c2.5,2.7,2.4,7-0.2,9.7
	c-1.1,1.2-2.6,1.9-4.1,2.1c0,0-0.1,0-0.1,0c-1.8,0.7-1.6,1.7-1.3,2.3L86.7,78L117,47.7c1.8-1.8,1.8-4.7,0-6.5L90.1,14.3
	c-1.8-1.8-4.8-1.8-6.6,0L53.2,44.5z"/>
<g>
	
		<path fill="#FFFFFF" stroke="#009BE9" stroke-width="3" stroke-linecap="round" stroke-linejoin="round" stroke-miterlimit="10" d="
		M218.5,175.2c-0.7-26.6-22.5-47.9-49.5-47.9c-26.6,0-48.3,20.8-49.4,46.9c-0.1,0.7-0.1,1.4-0.1,2.1c0,9.3,2.6,18,7.1,25.4
		l-8.9,26.3l27.4-8.7c7.1,3.9,15.3,6.1,23.9,6.1c27.3,0,49.5-21.9,49.5-49.1C218.6,176,218.5,175.6,218.5,175.2z M169.1,217.8
		c-8.4,0-16.3-2.5-22.9-6.8l-16,5.1l5.1-15.4c-5-6.8-7.9-15.2-7.9-24.2c0-1.3,0.1-2.6,0.3-4c2-20.9,19.8-37.3,41.4-37.3
		c21.9,0,39.8,16.8,41.5,38.1c0.1,1.1,0.1,2.2,0.1,3.2C210.7,199.2,192,217.8,169.1,217.8z"/>
</g>
<g>
	
		<path fill="#C6F2FF" stroke="#009BE9" stroke-width="2.9513" stroke-linecap="round" stroke-linejoin="round" stroke-miterlimit="10" d="
		M51.8,85.4h63.3c2.5,0,4.5,2,4.5,4.5v22c0,2.5-2,4.5-4.5,4.5H51.8c-2.5,0-4.5-2-4.5-4.5v-22C47.2,87.4,49.3,85.4,51.8,85.4z"/>
	<path fill="#009BE9" d="M62.3,91.7c-0.2,0-0.4,0-0.6,0c-1.9,0-2.2,0.6-2.2,2.5v2.9c0,2.2-0.4,3.2-2.4,3.7c2,0.5,2.4,1.5,2.4,3.7
		v2.8c0,1.9,0.3,2.6,2.2,2.6c0.2,0,0.3,0,0.5,0v2.1h-0.8c-1.4,0-2.4-0.1-3.2-0.6c-1.1-0.6-1.2-1.7-1.2-3.5v-2.9
		c0-2.2-0.7-3.1-2.7-3.1c-0.2,0-0.3,0-0.5,0v-2.1c0.2,0,0.3,0,0.5,0c2,0,2.7-0.8,2.7-3.1v-2.9c0-1.8,0.1-2.9,1.2-3.6
		c0.8-0.5,1.9-0.6,3.4-0.6h0.5V91.7z"/>
	<path fill="#009BE9" d="M70.2,107v2.4h-6.2V107h1.4l4.4-12.6h-1.9V92h8.9v2.4h-2l4.3,12.6h1.6v2.4h-6.6V107h1.9l-1.1-3.2h-5.5
		l-1.1,3.2H70.2z M74.1,101.4l-2-5.9l-2,5.9H74.1z"/>
	<path fill="#009BE9" d="M88.5,107v2.4h-7.2V107h1.9V94.4h-1.9V92h6c4.9,0,7.4,1.9,7.4,5.6c0,3.6-2.5,5.5-7.4,5.5h-1v3.9H88.5z
		 M86.2,100.7h1c2.8,0,4.2-1,4.2-3.2c0-2.2-1.4-3.1-4.2-3.1h-1V100.7z"/>
	<path fill="#009BE9" d="M102.3,107v2.4h-6.9V107h1.9V94.4h-1.9V92h6.9v2.4h-1.9V107H102.3z"/>
	<path fill="#009BE9" d="M105.2,89.6c1.5,0,2.6,0.1,3.4,0.6c1.1,0.7,1.2,1.8,1.2,3.6v2.9c0,2.2,0.7,3.1,2.7,3.1c0.1,0,0.3,0,0.5,0
		v2.1c-0.2,0-0.3,0-0.5,0c-2,0-2.7,0.9-2.7,3.1v2.9c0,1.8-0.1,2.9-1.2,3.5c-0.8,0.5-1.9,0.6-3.4,0.6h-0.5v-2.1c0.2,0,0.4,0,0.5,0
		c1.9,0,2.2-0.7,2.2-2.6v-2.8c0-2.2,0.4-3.2,2.4-3.7c-2-0.5-2.4-1.5-2.4-3.7v-2.9c0-1.9-0.3-2.5-2.2-2.5c-0.2,0-0.4,0-0.6,0v-2.1
		H105.2z"/>
</g>
<path fill="#C6F2FF" stroke="#009BE9" stroke-width="3" stroke-linecap="round" stroke-linejoin="round" stroke-miterlimit="10" d="
	M56.8,19.4H15.4c-2.5,0-4.6,2-4.6,4.6v27.9c0,2.5,2,4.6,4.6,4.6h14l12.2,12.2V56.5h15.3c2.5,0,4.6-2,4.6-4.6V24
	C61.3,21.5,59.3,19.4,56.8,19.4z"/>
<path fill="#FFFFFF" stroke="#009BE9" stroke-width="3" stroke-linecap="round" stroke-linejoin="round" stroke-miterlimit="10" d="
	M67.6,46.6h-6.2V29.3h6.2c1.4,0,2.6,1.1,2.6,2.6v12.2C70.1,45.5,69,46.6,67.6,46.6z"/>
<path fill="#FFFFFF" stroke="#009BE9" stroke-width="3" stroke-linecap="round" stroke-linejoin="round" stroke-miterlimit="10" d="
	M4.5,29.3h6.2v17.3H4.5c-1.4,0-2.6-1.1-2.6-2.6V31.9C1.9,30.5,3.1,29.3,4.5,29.3z"/>
<g>
	
		<circle fill="#FFFFFF" stroke="#009BE9" stroke-width="3" stroke-linecap="round" stroke-linejoin="round" stroke-miterlimit="10" cx="36.1" cy="7.9" r="5.4"/>
	<line fill="#009BE9" stroke="#009BE9" stroke-width="3" stroke-miterlimit="10" x1="36.5" y1="12.2" x2="36.5" y2="18.1"/>
</g>
<g>
	<path fill="none" stroke="#009BE9" stroke-width="3" stroke-linecap="round" stroke-linejoin="round" stroke-miterlimit="10" d="
		M28.6,44.1c0,0,6.4,4.5,15.2,0"/>
	<path fill="none" stroke="#009BE9" stroke-width="3" stroke-linecap="round" stroke-linejoin="round" stroke-miterlimit="10" d="
		M40.7,32.9c0-2.1,1.7-3.8,3.8-3.8s3.8,1.7,3.8,3.8"/>
	<path fill="none" stroke="#009BE9" stroke-width="3" stroke-linecap="round" stroke-linejoin="round" stroke-miterlimit="10" d="
		M23.8,32.9c0-2.1,1.7-3.8,3.8-3.8s3.8,1.7,3.8,3.8"/>
</g>
</svg>
