<?xml version="1.0" encoding="utf-8"?>
<!-- Generator: Adobe Illustrator 21.0.0, SVG Export Plug-In . SVG Version: 6.00 Build 0)  -->
<svg version="1.1" id="Camada_1" xmlns="http://www.w3.org/2000/svg" xmlns:xlink="http://www.w3.org/1999/xlink" x="0px" y="0px"
	 viewBox="0 0 104 104.3" enable-background="new 0 0 104 104.3" xml:space="preserve">
<circle fill="#FFFFFF" stroke="#009CEA" stroke-width="3" stroke-linecap="round" stroke-linejoin="round" stroke-miterlimit="10" cx="52" cy="52.1" r="49.5"/>
<polygon fill="#C7F3FF" stroke="#009CEA" stroke-width="3" stroke-linecap="round" stroke-linejoin="round" stroke-miterlimit="10" points="
	97.1,52.1 52,91.2 6.9,52.1 52,13.1 "/>
<g>
	
		<path fill="#FFFFFF" stroke="#009CEA" stroke-width="3" stroke-linecap="round" stroke-linejoin="round" stroke-miterlimit="10" d="
		M72.9,52.1C72.9,63.7,63.5,73,52,73c-11.5,0-20.9-9.3-20.9-20.9c0-11.5,9.3-20.9,20.9-20.9C63.5,31.3,72.9,40.6,72.9,52.1
		L72.9,52.1z M72.9,52.1"/>
	
		<path fill="#C7F3FF" stroke="#009CEA" stroke-width="3" stroke-linecap="round" stroke-linejoin="round" stroke-miterlimit="10" d="
		M63.9,68.1v1.2C60.5,71.6,56.4,73,52,73c-4.4,0-8.5-1.4-11.9-3.7v-1.2c0-6.6,5.3-11.9,11.9-11.9c3.3,0,6.3,1.3,8.4,3.5
		C62.6,61.8,63.9,64.8,63.9,68.1L63.9,68.1z M63.9,68.1"/>
	
		<path fill="#C7F3FF" stroke="#009CEA" stroke-width="3" stroke-linecap="round" stroke-linejoin="round" stroke-miterlimit="10" d="
		M59.9,48.3c0,4.4-3.5,7.9-7.9,7.9c-4.4,0-7.9-3.5-7.9-7.9c0-4.4,3.5-7.9,7.9-7.9C56.4,40.4,59.9,43.9,59.9,48.3L59.9,48.3z
		 M59.9,48.3"/>
</g>
</svg>
