<?xml version="1.0" encoding="utf-8"?>
<!-- Generator: Adobe Illustrator 21.0.0, SVG Export Plug-In . SVG Version: 6.00 Build 0)  -->
<svg version="1.1" id="Camada_1" xmlns="http://www.w3.org/2000/svg" xmlns:xlink="http://www.w3.org/1999/xlink" x="0px" y="0px"
	 viewBox="0 0 129.8 128.9" enable-background="new 0 0 129.8 128.9" xml:space="preserve">
<g>
	
		<path fill="#FFFFFF" stroke="#009CEA" stroke-width="3" stroke-linecap="round" stroke-linejoin="round" stroke-miterlimit="10" d="
		M218.5,175.2c-0.7-26.6-22.5-47.9-49.5-47.9c-26.6,0-48.3,20.8-49.4,46.9c-0.1,0.7-0.1,1.4-0.1,2.1c0,9.3,2.6,18,7.1,25.4
		l-8.9,26.3l27.4-8.7c7.1,3.9,15.3,6.1,23.9,6.1c27.3,0,49.5-21.9,49.5-49.1C218.6,176,218.5,175.6,218.5,175.2z M169.1,217.8
		c-8.4,0-16.3-2.5-22.9-6.8l-16,5.1l5.1-15.4c-5-6.8-7.9-15.2-7.9-24.2c0-1.3,0.1-2.6,0.3-4c2-20.9,19.8-37.3,41.4-37.3
		c21.9,0,39.8,16.8,41.5,38.1c0.1,1.1,0.1,2.2,0.1,3.2C210.7,199.2,192,217.8,169.1,217.8z"/>
</g>
<g>
	
		<path fill="#FFFFFF" stroke="#009CEA" stroke-width="3" stroke-linecap="round" stroke-linejoin="round" stroke-miterlimit="10" d="
		M36.2,108H6.2c-2.4,0-4.4-2-4.4-4.4V25.7c0-2.4,2-4.4,4.4-4.4h29.9c2.4,0,4.4,2,4.4,4.4v77.9C40.6,106,38.6,108,36.2,108z"/>
	
		<line fill="#009CFF" stroke="#009CEA" stroke-width="3" stroke-linecap="round" stroke-linejoin="round" stroke-miterlimit="10" x1="1.8" y1="32.9" x2="39.8" y2="32.9"/>
	<path fill="#C7F3FF" d="M5.6,38.8v12.5c0,0.8,0.7,1.4,1.6,1.4h27.7c0.9,0,1.6-0.6,1.6-1.4V38.8c0-0.8-0.7-1.4-1.6-1.4H7.1
		C6.3,37.4,5.6,38,5.6,38.8z"/>
	<path fill="#C7F3FF" d="M5.6,56v12.5c0,0.8,0.7,1.4,1.6,1.4h27.7c0.9,0,1.6-0.6,1.6-1.4V56c0-0.8-0.7-1.4-1.6-1.4H7.1
		C6.3,54.6,5.6,55.2,5.6,56z"/>
	<path fill="#C7F3FF" d="M5.6,73.2v12.5c0,0.8,0.7,1.4,1.6,1.4h27.7c0.9,0,1.6-0.6,1.6-1.4V73.2c0-0.8-0.7-1.4-1.6-1.4H7.1
		C6.3,71.8,5.6,72.4,5.6,73.2z"/>
	<path fill="#C7F3FF" d="M5.6,90.4v12.5c0,0.8,0.7,1.4,1.6,1.4h27.7c0.9,0,1.6-0.6,1.6-1.4V90.4c0-0.8-0.7-1.4-1.6-1.4H7.1
		C6.3,89.1,5.6,89.7,5.6,90.4z"/>
</g>
<g>
	
		<path fill="#FFFFFF" stroke="#009CEA" stroke-width="3" stroke-linecap="round" stroke-linejoin="round" stroke-miterlimit="10" d="
		M79.9,108H49.9c-2.4,0-4.4-2-4.4-4.4V25.7c0-2.4,2-4.4,4.4-4.4h29.9c2.4,0,4.4,2,4.4,4.4v77.9C84.3,106,82.3,108,79.9,108z"/>
	
		<line fill="#009CFF" stroke="#009CEA" stroke-width="3" stroke-linecap="round" stroke-linejoin="round" stroke-miterlimit="10" x1="45.5" y1="32.9" x2="83.5" y2="32.9"/>
	<path fill="#C7F3FF" d="M49.3,38.8v12.5c0,0.8,0.7,1.4,1.6,1.4h27.7c0.9,0,1.6-0.6,1.6-1.4V38.8c0-0.8-0.7-1.4-1.6-1.4H50.8
		C50,37.4,49.3,38,49.3,38.8z"/>
	<path fill="#C7F3FF" d="M49.3,56v12.5c0,0.8,0.7,1.4,1.6,1.4h27.7c0.9,0,1.6-0.6,1.6-1.4V56c0-0.8-0.7-1.4-1.6-1.4H50.8
		C50,54.6,49.3,55.2,49.3,56z"/>
	<path fill="#C7F3FF" d="M49.3,73.2v12.5c0,0.8,0.7,1.4,1.6,1.4h27.7c0.9,0,1.6-0.6,1.6-1.4V73.2c0-0.8-0.7-1.4-1.6-1.4H50.8
		C50,71.8,49.3,72.4,49.3,73.2z"/>
	<path fill="#C7F3FF" d="M49.3,90.4v12.5c0,0.8,0.7,1.4,1.6,1.4h27.7c0.9,0,1.6-0.6,1.6-1.4V90.4c0-0.8-0.7-1.4-1.6-1.4H50.8
		C50,89.1,49.3,89.7,49.3,90.4z"/>
</g>
<g>
	
		<path fill="#FFFFFF" stroke="#009CEA" stroke-width="3" stroke-linecap="round" stroke-linejoin="round" stroke-miterlimit="10" d="
		M123.6,108H93.6c-2.4,0-4.4-2-4.4-4.4V25.7c0-2.4,2-4.4,4.4-4.4h29.9c2.4,0,4.4,2,4.4,4.4v77.9C128,106,126,108,123.6,108z"/>
	
		<line fill="#009CFF" stroke="#009CEA" stroke-width="3" stroke-linecap="round" stroke-linejoin="round" stroke-miterlimit="10" x1="89.2" y1="32.9" x2="127.2" y2="32.9"/>
	<path fill="#C7F3FF" d="M93,38.8v12.5c0,0.8,0.7,1.4,1.6,1.4h27.7c0.9,0,1.6-0.6,1.6-1.4V38.8c0-0.8-0.7-1.4-1.6-1.4H94.5
		C93.7,37.4,93,38,93,38.8z"/>
	<path fill="#C7F3FF" d="M93,56v12.5c0,0.8,0.7,1.4,1.6,1.4h27.7c0.9,0,1.6-0.6,1.6-1.4V56c0-0.8-0.7-1.4-1.6-1.4H94.5
		C93.7,54.6,93,55.2,93,56z"/>
	<path fill="#C7F3FF" d="M93,73.2v12.5c0,0.8,0.7,1.4,1.6,1.4h27.7c0.9,0,1.6-0.6,1.6-1.4V73.2c0-0.8-0.7-1.4-1.6-1.4H94.5
		C93.7,71.8,93,72.4,93,73.2z"/>
	<path fill="#C7F3FF" d="M93,90.4v12.5c0,0.8,0.7,1.4,1.6,1.4h27.7c0.9,0,1.6-0.6,1.6-1.4V90.4c0-0.8-0.7-1.4-1.6-1.4H94.5
		C93.7,89.1,93,89.7,93,90.4z"/>
</g>
<g>
	
		<path fill="#FFFFFF" stroke="#009CEA" stroke-width="3" stroke-linecap="round" stroke-linejoin="round" stroke-miterlimit="10" d="
		M20,80V54.5c0-1.8,1.4-3.2,3.2-3.2h49.1c1.8,0,3.2,1.4,3.2,3.2V80c0,1.8-1.4,3.2-3.2,3.2H23.2C21.4,83.2,20,81.8,20,80z"/>
	<path fill="#009CEA" d="M49.7,73.4V71c0-0.4,0.3-0.7,0.7-0.7h18.8c0.4,0,0.7,0.3,0.7,0.7v2.5c0,0.4-0.3,0.7-0.7,0.7H50.3
		C50,74.1,49.7,73.8,49.7,73.4z"/>
	<path fill="#009CEA" d="M49.7,64.8v-2.5c0-0.4,0.3-0.7,0.7-0.7h18.8c0.4,0,0.7,0.3,0.7,0.7v2.5c0,0.4-0.3,0.7-0.7,0.7H50.3
		C50,65.4,49.7,65.2,49.7,64.8z"/>
	<g>
		
			<path fill="#FFFFFF" stroke="#009CEA" stroke-width="3" stroke-linecap="round" stroke-linejoin="round" stroke-miterlimit="10" d="
			M43.1,67.3c0,4.5-3.7,8.2-8.2,8.2c-4.5,0-8.2-3.7-8.2-8.2c0-4.5,3.7-8.2,8.2-8.2C39.4,59.1,43.1,62.8,43.1,67.3L43.1,67.3z
			 M43.1,67.3"/>
		
			<path fill="#C7F3FF" stroke="#009CEA" stroke-width="3" stroke-linecap="round" stroke-linejoin="round" stroke-miterlimit="10" d="
			M39.6,73.6V74c-1.3,0.9-2.9,1.5-4.7,1.5c-1.7,0-3.3-0.5-4.7-1.5v-0.5c0-2.6,2.1-4.7,4.7-4.7c1.3,0,2.5,0.5,3.3,1.4
			C39.1,71.1,39.6,72.3,39.6,73.6L39.6,73.6z M39.6,73.6"/>
		
			<path fill="#C7F3FF" stroke="#009CEA" stroke-width="3" stroke-linecap="round" stroke-linejoin="round" stroke-miterlimit="10" d="
			M38,65.8c0,1.7-1.4,3.1-3.1,3.1c-1.7,0-3.1-1.4-3.1-3.1c0-1.7,1.4-3.1,3.1-3.1C36.6,62.7,38,64.1,38,65.8L38,65.8z M38,65.8"/>
	</g>
</g>
</svg>
