<?xml version="1.0" encoding="utf-8"?>
<!-- Generator: Adobe Illustrator 26.5.0, SVG Export Plug-In . SVG Version: 6.00 Build 0)  -->
<svg version="1.1" id="Camada_1" xmlns="http://www.w3.org/2000/svg" xmlns:xlink="http://www.w3.org/1999/xlink" x="0px" y="0px"
	 viewBox="0 0 129.8 128.9" enable-background="new 0 0 129.8 128.9" xml:space="preserve">
<g>
	
		<path fill="#FFFFFF" stroke="#009BE9" stroke-width="3" stroke-linecap="round" stroke-linejoin="round" stroke-miterlimit="10" d="
		M218.5,175.2c-0.7-26.6-22.5-47.9-49.5-47.9c-26.6,0-48.3,20.8-49.4,46.9c-0.1,0.7-0.1,1.4-0.1,2.1c0,9.3,2.6,18,7.1,25.4
		l-8.9,26.3l27.4-8.7c7.1,3.9,15.3,6.1,23.9,6.1c27.3,0,49.5-21.9,49.5-49.1C218.6,176,218.5,175.6,218.5,175.2z M169.1,217.8
		c-8.4,0-16.3-2.5-22.9-6.8l-16,5.1l5.1-15.4c-5-6.8-7.9-15.2-7.9-24.2c0-1.3,0.1-2.6,0.3-4c2-20.9,19.8-37.3,41.4-37.3
		c21.9,0,39.8,16.8,41.5,38.1c0.1,1.1,0.1,2.2,0.1,3.2C210.7,199.2,192,217.8,169.1,217.8z"/>
</g>
<g>
	
		<path fill="#FFFFFF" stroke="#009BE9" stroke-width="3" stroke-linecap="round" stroke-linejoin="round" stroke-miterlimit="10" d="
		M58.6,116.7h-54c-1.4,0-2.6-1.1-2.6-2.6V78.1c0-1.4,1.1-2.6,2.6-2.6h54c1.4,0,2.6,1.1,2.6,2.6v36.1
		C61.2,115.6,60.1,116.7,58.6,116.7z"/>
	
		<path fill="#C6F2FF" stroke="#009BE9" stroke-width="3" stroke-linecap="round" stroke-linejoin="round" stroke-miterlimit="10" d="
		M56.5,93.5H6.8c-0.5,0-0.8-0.4-0.8-0.8V82c0-0.5,0.4-0.8,0.8-0.8h49.7c0.5,0,0.8,0.4,0.8,0.8v10.7C57.3,93.1,57,93.5,56.5,93.5z"/>
</g>
<g>
	
		<path fill="#FFFFFF" stroke="#009BE9" stroke-width="3" stroke-linecap="round" stroke-linejoin="round" stroke-miterlimit="10" d="
		M91.6,52.7h-54c-1.4,0-2.6-1.1-2.6-2.6V14c0-1.4,1.1-2.6,2.6-2.6h54c1.4,0,2.6,1.1,2.6,2.6v36.1C94.1,51.5,93,52.7,91.6,52.7z"/>
	
		<path fill="#C6F2FF" stroke="#009BE9" stroke-width="3" stroke-linecap="round" stroke-linejoin="round" stroke-miterlimit="10" d="
		M89.4,29.4H39.7c-0.5,0-0.8-0.4-0.8-0.8V17.9c0-0.5,0.4-0.8,0.8-0.8h49.7c0.5,0,0.8,0.4,0.8,0.8v10.7
		C90.2,29.1,89.9,29.4,89.4,29.4z"/>
</g>
<g>
	
		<path fill="#FFFFFF" stroke="#009BE9" stroke-width="3" stroke-linecap="round" stroke-linejoin="round" stroke-miterlimit="10" d="
		M125.2,116.7h-54c-1.4,0-2.6-1.1-2.6-2.6V78.1c0-1.4,1.1-2.6,2.6-2.6h54c1.4,0,2.6,1.1,2.6,2.6v36.1
		C127.8,115.6,126.6,116.7,125.2,116.7z"/>
	
		<path fill="#C6F2FF" stroke="#009BE9" stroke-width="3" stroke-linecap="round" stroke-linejoin="round" stroke-miterlimit="10" d="
		M123.1,93.5H73.3c-0.5,0-0.8-0.4-0.8-0.8V82c0-0.5,0.4-0.8,0.8-0.8h49.7c0.5,0,0.8,0.4,0.8,0.8v10.7
		C123.9,93.1,123.5,93.5,123.1,93.5z"/>
</g>
<path fill="none" stroke="#009BE9" stroke-width="3" stroke-linecap="round" stroke-linejoin="round" stroke-miterlimit="10" d="
	M98.8,74.7v-2.5c0-1.8-1.5-3.3-3.3-3.3H68.4c-1.8,0-3.3-1.5-3.3-3.3V53.3"/>
<path fill="none" stroke="#009BE9" stroke-width="3" stroke-linecap="round" stroke-linejoin="round" stroke-miterlimit="10" d="
	M31,74.7v-2.5c0-1.8,1.5-3.3,3.3-3.3h27.1c1.8,0,3.3-1.5,3.3-3.3V53.3"/>
</svg>
