<svg width="54" height="52" viewBox="0 0 54 52" fill="none" xmlns="http://www.w3.org/2000/svg">
<g clip-path="url(#clip0_10_393)">
<path d="M42.45 13.81H11.18C9.28 13.81 7.74 15.35 7.74 17.25V38.37C7.74 40.27 9.28 41.81 11.18 41.81H21.73L30.92 51V41.81H42.45C44.35 41.81 45.89 40.27 45.89 38.37V17.25C45.89 15.35 44.35 13.81 42.45 13.81Z" fill="#C6F2FF" stroke="#009BE9" stroke-width="2" stroke-linecap="round" stroke-linejoin="round"/>
<path d="M45.89 21.28H50.6C51.67 21.28 52.54 22.15 52.54 23.22V32.41C52.54 33.48 51.67 34.35 50.6 34.35H45.89V21.28Z" fill="white" stroke="#009BE9" stroke-width="2" stroke-linecap="round" stroke-linejoin="round"/>
<path d="M7.65 34.34H2.94C1.87 34.34 1 33.47 1 32.4L1 23.21C1 22.14 1.87 21.27 2.94 21.27H7.65L7.65 34.34Z" fill="white" stroke="#009BE9" stroke-width="2" stroke-linecap="round" stroke-linejoin="round"/>
<path d="M26.82 9.2C29.0844 9.2 30.92 7.36437 30.92 5.1C30.92 2.83563 29.0844 1 26.82 1C24.5556 1 22.72 2.83563 22.72 5.1C22.72 7.36437 24.5556 9.2 26.82 9.2Z" fill="white" stroke="#009BE9" stroke-width="2" stroke-linecap="round" stroke-linejoin="round"/>
<path d="M27.1 8.31V12.83" stroke="#009BE9" stroke-width="2" stroke-miterlimit="10"/>
<path d="M21.12 32.45C21.12 32.45 25.95 35.86 32.6 32.45" stroke="#009BE9" stroke-width="2" stroke-linecap="round" stroke-linejoin="round"/>
<path d="M30.32 23.96C30.32 22.37 31.61 21.07 33.21 21.07C34.81 21.07 36.1 22.36 36.1 23.96" stroke="#009BE9" stroke-width="2" stroke-linecap="round" stroke-linejoin="round"/>
<path d="M17.54 23.96C17.54 22.37 18.83 21.07 20.43 21.07C22.03 21.07 23.32 22.36 23.32 23.96" stroke="#009BE9" stroke-width="2" stroke-linecap="round" stroke-linejoin="round"/>
</g>
<defs>
<clipPath id="clip0_10_393">
<rect width="53.54" height="52" fill="white"/>
</clipPath>
</defs>
</svg>
