<?xml version="1.0" encoding="utf-8"?>
<!-- Generator: Adobe Illustrator 21.0.0, SVG Export Plug-In . SVG Version: 6.00 Build 0)  -->
<svg version="1.1" id="Camada_1" xmlns="http://www.w3.org/2000/svg" xmlns:xlink="http://www.w3.org/1999/xlink" x="0px" y="0px"
	 viewBox="0 0 114.9 104" enable-background="new 0 0 114.9 104" xml:space="preserve">
<g>
	
		<path fill="#C7F3FF" stroke="#009CEA" stroke-width="3" stroke-linecap="round" stroke-linejoin="round" stroke-miterlimit="10" d="
		M79.5,102.2v-9.4h-44v9.4C35.5,102.2,78.5,102.2,79.5,102.2z"/>
	
		<path fill="#C7F3FF" stroke="#009CEA" stroke-width="3" stroke-linecap="round" stroke-linejoin="round" stroke-miterlimit="10" d="
		M66.4,92.8v-9.4H48.5v9.4C48.5,92.8,66,92.8,66.4,92.8z"/>
	
		<path fill="#FFFFFF" stroke="#009CEA" stroke-width="3" stroke-linecap="round" stroke-linejoin="round" stroke-miterlimit="10" d="
		M105.8,83.9H9.1c-4,0-7.3-3.3-7.3-7.3V9.1c0-4,3.3-7.3,7.3-7.3h96.8c4,0,7.3,3.3,7.3,7.3v67.5C113.1,80.6,109.9,83.9,105.8,83.9z"
		/>
	
		<path fill="#FFFFFF" stroke="#009CEA" stroke-width="3" stroke-linecap="round" stroke-linejoin="round" stroke-miterlimit="10" d="
		M104.3,78.5H10.6c-2.5,0-4.5-2-4.5-4.5V11c0-2.5,2-4.5,4.5-4.5h93.7c2.5,0,4.5,2,4.5,4.5v63C108.8,76.5,106.8,78.5,104.3,78.5z"/>
	<g>
		<polygon fill="#009CEA" points="92.6,36.3 75,16.2 69.8,21.4 87.3,41.6 69.8,61.8 75,67 97.8,41.6 		"/>
		<polygon fill="#009CEA" points="45.1,21.4 39.9,16.2 17.1,41.6 39.9,67 45.1,61.8 27.6,41.6 		"/>
		
			<rect x="53.6" y="19.2" transform="matrix(0.9587 0.2845 -0.2845 0.9587 14.1356 -14.6071)" fill="#009CEA" width="7.4" height="44.3"/>
	</g>
</g>
</svg>
