<svg width="70" height="70" viewBox="0 0 70 70" fill="none" xmlns="http://www.w3.org/2000/svg">
<path d="M0 0H70V70H0V0Z" fill="#232323"/>
<path d="M25.4954 51C21.4808 51 18.2064 50.4685 15.7162 49.8002C19.4821 48.4605 24.0525 45.8804 28.2755 41.1233C29.4324 39.82 30.5334 38.5185 31.6178 37.2365C34.7836 33.4942 37.8088 29.9178 41.6768 26.9475C45.701 23.8572 50.6161 21.4702 57.4351 20.6315C55.0973 23.1318 52.5067 26.5595 50.6447 30.6882C46.7821 39.2531 40.319 51 25.4954 51ZM35.9662 20.2363C36.8669 20.1366 37.7577 20.0734 38.6251 20.0376C37.0551 21.02 35.6366 22.0831 34.2837 23.2818C31.1883 26.0246 28.5113 29.4149 25.1699 33.9485C21.658 38.7134 17.4103 41.6354 13.6554 43.2262C14.4372 42.0356 15.1004 40.7826 15.5323 39.9667C15.6975 39.6546 15.8288 39.4064 15.92 39.2502C16.6222 38.047 17.2219 36.746 17.7906 35.4655C17.9157 35.1839 18.039 34.9037 18.162 34.6244C18.6104 33.6062 19.0534 32.6004 19.5528 31.5815C20.8091 29.0181 22.3352 26.5641 24.7479 24.4798C27.7458 21.8897 31.8413 20.6927 35.9662 20.2363Z" stroke="white" stroke-width="4" stroke-linejoin="round"/>
</svg>
