<?xml version="1.0" encoding="utf-8"?>
<!-- Generator: Adobe Illustrator 26.5.0, SVG Export Plug-In . SVG Version: 6.00 Build 0)  -->
<svg version="1.1" id="Camada_1" xmlns="http://www.w3.org/2000/svg" xmlns:xlink="http://www.w3.org/1999/xlink" x="0px" y="0px"
	 viewBox="0 0 129.8 128.9" enable-background="new 0 0 129.8 128.9" xml:space="preserve">
<g>
	
		<path fill="#FFFFFF" stroke="#009BE9" stroke-width="3" stroke-linecap="round" stroke-linejoin="round" stroke-miterlimit="10" d="
		M218.5,175.2c-0.7-26.6-22.5-47.9-49.5-47.9c-26.6,0-48.3,20.8-49.4,46.9c-0.1,0.7-0.1,1.4-0.1,2.1c0,9.3,2.6,18,7.1,25.4
		l-8.9,26.3l27.4-8.7c7.1,3.9,15.3,6.1,23.9,6.1c27.3,0,49.5-21.9,49.5-49.1C218.6,176,218.5,175.6,218.5,175.2z M169.1,217.8
		c-8.4,0-16.3-2.5-22.9-6.8l-16,5.1l5.1-15.4c-5-6.8-7.9-15.2-7.9-24.2c0-1.3,0.1-2.6,0.3-4c2-20.9,19.8-37.3,41.4-37.3
		c21.9,0,39.8,16.8,41.5,38.1c0.1,1.1,0.1,2.2,0.1,3.2C210.7,199.2,192,217.8,169.1,217.8z"/>
</g>
<path fill="#FFFFFF" stroke="#009BE9" stroke-width="2.9396" stroke-linecap="round" stroke-linejoin="round" stroke-miterlimit="10" d="
	M125.6,111.6H93.1c-1.5,0-2.8-1.2-2.8-2.8v-29c0-1.5,1.2-2.8,2.8-2.8h32.5c1.5,0,2.8,1.2,2.8,2.8v29
	C128.4,110.4,127.1,111.6,125.6,111.6z"/>
<line fill="#009BFF" stroke="#009BE9" stroke-width="2.9396" stroke-linecap="round" stroke-linejoin="round" stroke-miterlimit="10" x1="90.4" y1="88.6" x2="127.6" y2="88.6"/>
<path fill="#C6F2FF" d="M94.1,94.3v12.3c0,0.7,0.7,1.3,1.5,1.3h27.1c0.8,0,1.5-0.6,1.5-1.3V94.3c0-0.7-0.7-1.3-1.5-1.3H95.6
	C94.8,93,94.1,93.6,94.1,94.3z"/>
<path fill="#FFFFFF" stroke="#009BE9" stroke-width="2.9396" stroke-linecap="round" stroke-linejoin="round" stroke-miterlimit="10" d="
	M81.2,111.6H48.7c-1.5,0-2.8-1.2-2.8-2.8v-29c0-1.5,1.2-2.8,2.8-2.8h32.5c1.5,0,2.8,1.2,2.8,2.8v29
	C83.9,110.4,82.7,111.6,81.2,111.6z"/>
<line fill="#009BFF" stroke="#009BE9" stroke-width="2.9396" stroke-linecap="round" stroke-linejoin="round" stroke-miterlimit="10" x1="45.9" y1="88.6" x2="83.2" y2="88.6"/>
<path fill="#C6F2FF" d="M49.7,94.3v12.3c0,0.7,0.7,1.3,1.5,1.3h27.1c0.8,0,1.5-0.6,1.5-1.3V94.3c0-0.7-0.7-1.3-1.5-1.3H51.2
	C50.3,93,49.7,93.6,49.7,94.3z"/>
<path fill="#FFFFFF" stroke="#009BE9" stroke-width="2.9396" stroke-linecap="round" stroke-linejoin="round" stroke-miterlimit="10" d="
	M36.8,111.6H4.3c-1.5,0-2.8-1.2-2.8-2.8v-29c0-1.5,1.2-2.8,2.8-2.8h32.5c1.5,0,2.8,1.2,2.8,2.8v29C39.5,110.4,38.3,111.6,36.8,111.6
	z"/>
<line fill="#009BFF" stroke="#009BE9" stroke-width="2.9396" stroke-linecap="round" stroke-linejoin="round" stroke-miterlimit="10" x1="1.5" y1="88.6" x2="38.7" y2="88.6"/>
<path fill="#C6F2FF" d="M5.2,94.3v12.3c0,0.7,0.7,1.3,1.5,1.3h27.1c0.8,0,1.5-0.6,1.5-1.3V94.3c0-0.7-0.7-1.3-1.5-1.3H6.8
	C5.9,93,5.2,93.6,5.2,94.3z"/>
<g>
	
		<path fill="#FFFFFF" stroke="#009BE9" stroke-width="3" stroke-linecap="round" stroke-linejoin="round" stroke-miterlimit="10" d="
		M36.8,42.4V17c0-1.8,1.4-3.2,3.2-3.2h49.1c1.8,0,3.2,1.4,3.2,3.2v25.4c0,1.8-1.4,3.2-3.2,3.2H40C38.2,45.6,36.8,44.2,36.8,42.4z"/>
	<path fill="#009BE9" d="M66.5,35.9v-2.5c0-0.4,0.3-0.7,0.7-0.7h18.8c0.4,0,0.7,0.3,0.7,0.7v2.5c0,0.4-0.3,0.7-0.7,0.7H67.1
		C66.8,36.5,66.5,36.3,66.5,35.9z"/>
	<path fill="#009BE9" d="M66.5,27.2v-2.5c0-0.4,0.3-0.7,0.7-0.7h18.8c0.4,0,0.7,0.3,0.7,0.7v2.5c0,0.4-0.3,0.7-0.7,0.7H67.1
		C66.8,27.9,66.5,27.6,66.5,27.2z"/>
	<g>
		
			<path fill="#FFFFFF" stroke="#009BE9" stroke-width="3" stroke-linecap="round" stroke-linejoin="round" stroke-miterlimit="10" d="
			M59.9,29.8c0,4.5-3.7,8.2-8.2,8.2c-4.5,0-8.2-3.7-8.2-8.2c0-4.5,3.7-8.2,8.2-8.2C56.3,21.6,59.9,25.3,59.9,29.8L59.9,29.8z
			 M59.9,29.8"/>
		
			<path fill="#C6F2FF" stroke="#009BE9" stroke-width="3" stroke-linecap="round" stroke-linejoin="round" stroke-miterlimit="10" d="
			M56.4,36v0.5c-1.3,0.9-2.9,1.5-4.7,1.5c-1.7,0-3.3-0.5-4.7-1.5V36c0-2.6,2.1-4.7,4.7-4.7c1.3,0,2.5,0.5,3.3,1.4
			C55.9,33.6,56.4,34.7,56.4,36L56.4,36z M56.4,36"/>
		
			<path fill="#C6F2FF" stroke="#009BE9" stroke-width="3" stroke-linecap="round" stroke-linejoin="round" stroke-miterlimit="10" d="
			M54.8,28.3c0,1.7-1.4,3.1-3.1,3.1c-1.7,0-3.1-1.4-3.1-3.1c0-1.7,1.4-3.1,3.1-3.1C53.4,25.2,54.8,26.6,54.8,28.3L54.8,28.3z
			 M54.8,28.3"/>
	</g>
</g>
<line fill="#FFFFFF" stroke="#009BE9" stroke-width="3" stroke-linecap="round" stroke-linejoin="round" stroke-miterlimit="10" x1="64.8" y1="57.6" x2="64.8" y2="70.9"/>
<polyline fill="none" stroke="#009BE9" stroke-width="3" stroke-linecap="round" stroke-linejoin="round" stroke-miterlimit="10" points="
	71.1,65.3 64.7,71.7 58.2,65.3 "/>
<line fill="#FFFFFF" stroke="#009BE9" stroke-width="3" stroke-linecap="round" stroke-linejoin="round" stroke-miterlimit="10" x1="20.4" y1="57.6" x2="20.4" y2="70.9"/>
<polyline fill="none" stroke="#009BE9" stroke-width="3" stroke-linecap="round" stroke-linejoin="round" stroke-miterlimit="10" points="
	26.8,65.3 20.4,71.7 13.9,65.3 "/>
<line fill="#FFFFFF" stroke="#009BE9" stroke-width="3" stroke-linecap="round" stroke-linejoin="round" stroke-miterlimit="10" x1="109.5" y1="57.6" x2="109.5" y2="70.9"/>
<polyline fill="none" stroke="#009BE9" stroke-width="3" stroke-linecap="round" stroke-linejoin="round" stroke-miterlimit="10" points="
	115.8,65.3 109.4,71.7 102.9,65.3 "/>
</svg>
