<svg width="50" height="50" viewBox="0 0 50 50" fill="none" xmlns="http://www.w3.org/2000/svg">
<g clip-path="url(#clip0_10_374)">
<path d="M9.87382 24.3931L6.34677 41.4644C6.07913 42.7739 7.2357 43.9304 8.5452 43.6628L25.6643 40.1262L25.1386 27.6047L9.87382 24.4026V24.3931Z" fill="#C6F2FF" stroke="#009BE9" stroke-width="2.31" stroke-linecap="round" stroke-linejoin="round"/>
<path d="M19.0977 28.9237L16.8228 29.0862C16.3449 29.1244 15.8765 28.9715 15.5133 28.6752L1.78743 17.4345C0.583072 16.4404 1.06099 14.4905 2.59034 14.1751L46.6641 1.147C47.9736 0.879367 49.1302 2.03593 48.8626 3.34543L35.8249 47.4192C35.5095 48.9486 33.5596 49.4265 32.5655 48.2221L21.3439 34.5249C21.0476 34.1617 20.8947 33.6934 20.9233 33.225L21.0763 30.9214C21.1528 29.7935 20.216 28.8568 19.0881 28.9428L19.0977 28.9237Z" fill="#C6F2FF" stroke="#009BE9" stroke-width="2.31" stroke-linecap="round" stroke-linejoin="round"/>
<path d="M48.3559 1.65363L20.6175 29.3921" stroke="#009BE9" stroke-width="2.31" stroke-linecap="round" stroke-linejoin="round"/>
<path d="M17.1669 32.8331L7.02542 42.9842" stroke="#009BE9" stroke-width="2.31" stroke-linecap="round" stroke-linejoin="round"/>
</g>
<defs>
<clipPath id="clip0_10_374">
<rect width="50" height="50" fill="white"/>
</clipPath>
</defs>
</svg>
