<?xml version="1.0" encoding="utf-8"?>
<!-- Generator: Adobe Illustrator 21.0.0, SVG Export Plug-In . SVG Version: 6.00 Build 0)  -->
<svg version="1.1" id="Camada_1" xmlns="http://www.w3.org/2000/svg" xmlns:xlink="http://www.w3.org/1999/xlink" x="0px" y="0px"
	 viewBox="0 0 91.8 104" enable-background="new 0 0 91.8 104" xml:space="preserve">
<path fill="#C7F3FF" stroke="#009CEA" stroke-width="3" stroke-linecap="round" stroke-linejoin="round" stroke-miterlimit="10" d="
	M55.2,52c14.9-4,25.9-17.6,25.9-33.8c0-0.8,0-1.6-0.1-2.4H11.1C11,16.6,11,17.4,11,18.2C11,34.4,22,48,36.9,52
	C22,56,11,69.6,11,85.8c0,0.8,0,1.6,0.1,2.4H81c0.1-0.8,0.1-1.6,0.1-2.4C81.1,69.6,70.1,56,55.2,52z"/>
<path fill="#FFFFFF" stroke="#009CEA" stroke-width="3" stroke-linecap="round" stroke-linejoin="round" stroke-miterlimit="10" d="
	M86.9,1.2H5.2c-1.8,0-3.2,1.5-3.2,3.2v8.7c0,1.8,1.5,3.2,3.2,3.2h81.8c1.8,0,3.2-1.5,3.2-3.2V4.4C90.2,2.7,88.7,1.2,86.9,1.2z"/>
<path fill="#FFFFFF" stroke="#009CEA" stroke-width="3" stroke-linecap="round" stroke-linejoin="round" stroke-miterlimit="10" d="
	M49.3,55.3v-6.6c9-0.9,16.8-5.7,21.9-12.6c0,0-22.8,1.6-50.3,0c4,5.4,13.4,12,22.7,12.7v6.5c-16,1.2-28.7,14.6-28.7,31
	c0,2.4,0.3,4.8,0.8,7h60.6c0.5-2.3,0.8-4.6,0.8-7C77.2,70.2,65,56.9,49.3,55.3z"/>
<path fill="#FFFFFF" stroke="#009CEA" stroke-width="3" stroke-linecap="round" stroke-linejoin="round" stroke-miterlimit="10" d="
	M86.9,102.8H5.2c-1.8,0-3.2-1.5-3.2-3.2v-8.7c0-1.8,1.5-3.2,3.2-3.2h81.8c1.8,0,3.2,1.5,3.2,3.2v8.7
	C90.2,101.4,88.7,102.8,86.9,102.8z"/>
</svg>
