<?xml version="1.0" encoding="utf-8"?>
<!-- Generator: Adobe Illustrator 27.0.1, SVG Export Plug-In . SVG Version: 6.00 Build 0)  -->
<svg version="1.1" id="Layer_1" xmlns="http://www.w3.org/2000/svg" xmlns:xlink="http://www.w3.org/1999/xlink" x="0px" y="0px"
	 viewBox="0 0 89.4 92.3" style="enable-background:new 0 0 89.4 92.3;" xml:space="preserve">
<style type="text/css">
	.st0{fill:#FFFFFF;stroke:#009BE9;stroke-width:2.5986;stroke-linecap:round;stroke-linejoin:round;stroke-miterlimit:10;}
	.st1{fill:#C6F2FF;stroke:#009BE9;stroke-width:2.907;stroke-linecap:round;stroke-linejoin:round;stroke-miterlimit:10;}
	.st2{fill:#FFFFFF;stroke:#009BE9;stroke-width:2.907;stroke-linecap:round;stroke-linejoin:round;stroke-miterlimit:10;}
	.st3{fill:#009BE9;stroke:#009BE9;stroke-width:2.907;stroke-miterlimit:10;}
	.st4{fill:none;stroke:#009BE9;stroke-width:2.907;stroke-linecap:round;stroke-linejoin:round;stroke-miterlimit:10;}
	.st5{fill:#C6F2FF;stroke:#009BE9;stroke-width:1.4707;stroke-linecap:round;stroke-linejoin:round;stroke-miterlimit:10;}
	.st6{fill:none;stroke:#28A5F9;stroke-width:2;stroke-linecap:round;stroke-miterlimit:10;}
	.st7{fill:none;stroke:#28A5F9;stroke-width:1.704;stroke-linecap:round;stroke-miterlimit:10;}
	.st8{fill:#C6F2FF;stroke:#009BE9;stroke-width:2;stroke-linecap:round;stroke-linejoin:round;stroke-miterlimit:10;}
	
		.st9{fill-rule:evenodd;clip-rule:evenodd;fill:#FFFFFF;stroke:#009BE9;stroke-width:2;stroke-linecap:round;stroke-linejoin:round;stroke-miterlimit:10;}
	.st10{fill:#28A5F9;}
	.st11{fill-rule:evenodd;clip-rule:evenodd;fill:#FFFFFF;}
	.st12{fill:#009BE9;}
</style>
<path class="st0" d="M-74.4,35.6h-47.7c-3.2,0-5.8,2.6-5.8,5.8v28.7c0,3.2,2.6,5.8,5.8,5.8h5.3V91l15.1-15.1h27.3
	c3.2,0,5.8-2.6,5.8-5.8V41.4C-68.6,38.2-71.2,35.6-74.4,35.6z"/>
<g>
	<path class="st1" d="M-102.2,17.9h-40.1c-2.4,0-4.4,2-4.4,4.4v27.1c0,2.4,2,4.4,4.4,4.4h13.5l11.8,11.8V53.8h14.8
		c2.4,0,4.4-2,4.4-4.4V22.3C-97.7,19.9-99.7,17.9-102.2,17.9z"/>
	<path class="st2" d="M-91.7,44.2h-6V27.5h6c1.4,0,2.5,1.1,2.5,2.5v11.8C-89.2,43.1-90.3,44.2-91.7,44.2z"/>
	<path class="st2" d="M-152.8,27.5h6v16.8h-6c-1.4,0-2.5-1.1-2.5-2.5V29.9C-155.3,28.6-154.2,27.5-152.8,27.5z"/>
	<g>
		<circle class="st2" cx="-122.2" cy="6.7" r="5.3"/>
		<line class="st3" x1="-121.8" y1="10.8" x2="-121.8" y2="16.6"/>
	</g>
	<g>
		<path class="st4" d="M-129.5,41.8c0,0,6.2,4.4,14.7,0"/>
		<path class="st4" d="M-117.7,30.9c0-2,1.7-3.7,3.7-3.7c2,0,3.7,1.7,3.7,3.7"/>
		<path class="st4" d="M-134.1,30.9c0-2,1.7-3.7,3.7-3.7s3.7,1.7,3.7,3.7"/>
	</g>
</g>
<g>
	<path class="st5" d="M159.8,68h-33c-0.8,0-1.5-0.7-1.5-1.5V45.7c0-0.8,0.7-1.5,1.5-1.5h33c0.8,0,1.5,0.7,1.5,1.5v20.8
		C161.3,67.3,160.6,68,159.8,68z"/>
	<polyline class="st5" points="160.5,44.5 143.2,61.9 126.1,44.7 	"/>
</g>
<g>
	<line class="st6" x1="25.1" y1="54.3" x2="13.3" y2="66.1"/>
	<line class="st6" x1="9.7" y1="69.7" x2="4.7" y2="74.7"/>
</g>
<g>
	<line class="st7" x1="30.4" y1="65.7" x2="21.8" y2="74.3"/>
	<line class="st7" x1="19.2" y1="76.9" x2="15.6" y2="80.5"/>
</g>
<g>
	<line class="st6" x1="27.1" y1="60.1" x2="12.4" y2="74.7"/>
	<line class="st6" x1="8" y1="79.1" x2="1.8" y2="85.3"/>
</g>
<g>
	<path class="st8" d="M34.6,33.4l-4.2,20.4c-0.3,1.6,1.1,2.9,2.6,2.6l20.5-4.2l-0.6-15L34.6,33.4z"/>
	<path class="st8" d="M45.6,38.8L42.9,39c-0.6,0-1.1-0.1-1.6-0.5L24.9,25.1c-1.4-1.2-0.9-3.5,1-3.9L78.6,5.6
		c1.6-0.3,2.9,1.1,2.6,2.6L65.6,60.9c-0.4,1.8-2.7,2.4-3.9,1L48.3,45.5c-0.4-0.4-0.5-1-0.5-1.6l0.2-2.8C48.1,39.8,47,38.7,45.6,38.8
		z"/>
	<line class="st8" x1="80.6" y1="6.2" x2="47.4" y2="39.3"/>
	<line class="st8" x1="43.3" y1="43.5" x2="31.2" y2="55.6"/>
</g>
<path class="st9" d="M88.1,41.4c0,7.7-6.3,14-14,14c-2.8,0-5.5-0.8-7.7-2.3c-0.8-0.5-4.1,1.8-4.8,1.2c-0.6-0.6,1.4-4.2,0.9-5
	c-1.5-2.2-2.4-5-2.4-7.9c0-7.7,6.3-14,14-14S88.1,33.7,88.1,41.4z"/>
<g>
	<path class="st10" d="M67.7,39.3c0.1,0.1,0.2,0.3,0.2,0.5c0,0.4-0.3,0.6-0.6,0.6c-0.2,0-0.5-0.1-0.7-0.3c-0.2-0.2-0.5-0.3-0.7-0.3
		c-0.4,0-0.6,0.2-0.6,0.4c0,0.1,0,0.3,0.5,0.5l0.7,0.2c0.9,0.3,1.7,0.7,1.7,1.7c0,1.3-1.2,1.9-2.4,1.9c-1.1,0-1.6-0.4-2-0.8
		c-0.1-0.1-0.4-0.4-0.4-0.8c0-0.3,0.2-0.6,0.6-0.6c0.3,0,0.5,0.2,0.7,0.4c0.3,0.4,0.7,0.5,1,0.5c0.5,0,0.7-0.2,0.7-0.5
		c0-0.1,0-0.4-0.6-0.5l-0.6-0.2c-1.2-0.3-1.7-1-1.7-1.8c0-1.2,1.1-1.8,2.2-1.8C66.5,38.5,67.3,38.8,67.7,39.3z"/>
	<path class="st10" d="M79,41.3v2.5c0,0.5-0.4,0.8-0.8,0.8c-0.5,0-0.8-0.4-0.8-0.8v-2.5c0-1-0.5-1.4-1.1-1.4c-1,0-1.3,1-1.3,1.2v0
		v0.2v2.5c0,0.5-0.4,0.8-0.8,0.8c-0.4,0-0.8-0.4-0.8-0.8v-2.5c0-1-0.5-1.4-1.1-1.4c-1,0-1.3,1-1.3,1.2v2.7c0,0.5-0.4,0.8-0.8,0.8
		s-0.8-0.4-0.8-0.8v-4.4c0-0.5,0.4-0.8,0.8-0.8s0.8,0.4,0.8,0.8v0.5c0-0.4,0.7-1.3,1.9-1.3c0.8,0,1.6,0.4,1.9,1.4
		c0.3-0.7,1-1.4,2.1-1.4C78,38.5,79,39.3,79,41.3z"/>
	<path class="st10" d="M84.4,39.3c0.1,0.1,0.2,0.3,0.2,0.5c0,0.4-0.3,0.6-0.6,0.6c-0.2,0-0.5-0.1-0.7-0.3c-0.2-0.2-0.5-0.3-0.7-0.3
		c-0.4,0-0.6,0.2-0.6,0.4c0,0.1,0,0.3,0.5,0.5l0.7,0.2c0.9,0.3,1.7,0.7,1.7,1.7c0,1.3-1.2,1.9-2.4,1.9c-1.1,0-1.6-0.4-2-0.8
		c-0.1-0.1-0.4-0.4-0.4-0.8c0-0.3,0.2-0.6,0.6-0.6c0.3,0,0.5,0.2,0.7,0.4c0.3,0.4,0.7,0.5,1,0.5c0.5,0,0.7-0.2,0.7-0.5
		c0-0.1,0-0.4-0.6-0.5l-0.6-0.2c-1.2-0.3-1.7-1-1.7-1.8c0-1.2,1.1-1.8,2.2-1.8C83.2,38.5,84,38.8,84.4,39.3z"/>
</g>
<path class="st11" d="M34.6,18.2c0,6.6-5.4,12-12,12c-2.4,0-4.7-0.7-6.6-2c-0.7-0.4-3.5,1.6-4.1,1c-0.6-0.5,1.2-3.6,0.8-4.3
	c-1.3-1.9-2.1-4.3-2.1-6.8c0-6.6,5.4-12,12-12S34.6,11.6,34.6,18.2z"/>
<g>
	<path class="st11" d="M12.7,25.1c0.1-0.3,0.1-0.6-0.1-0.8c-1.1-1.8-1.7-3.9-1.7-6.1c0-0.1,0-0.3,0-0.4c0.3-6.4,5.5-11.3,11.8-11.3
		c6.5,0,11.7,5,11.8,11.4c0,0.1,0,0.2,0,0.2c0,6.5-5.3,11.8-11.8,11.8c-2,0-4-0.5-5.7-1.5c-0.1-0.1-0.3-0.1-0.5-0.1
		c-0.1,0-0.2,0-0.3,0L11,30.1L12.7,25.1z M16.6,28.3c1.8,1.1,3.9,1.7,6.1,1.7c6.5,0,11.8-5.3,11.8-11.7c0-0.3,0-0.6,0-0.9
		c-0.5-6-5.6-10.8-11.8-10.8c-6.1,0-11.1,4.5-11.7,10.6c0,0.4-0.1,0.7-0.1,1.1c0,2.3,0.7,4.5,1.9,6.4l-1.2,3.5c-0.1,0.4,0,0.8,0.2,1
		c0.2,0.2,0.4,0.3,0.7,0.3c0.1,0,0.2,0,0.3,0L16.6,28.3z M26.2,23.3c-0.3,0-1-0.1-2.7-0.8c-2.5-1-4.2-3.3-4.8-4.3
		c0,0-0.1-0.1-0.1-0.1c-0.5-0.7-0.8-1.3-1-1.8c-0.1-0.3-0.1-0.6-0.1-0.8c0-1.1,0.5-1.6,0.8-1.9c0,0,0.1-0.1,0.1-0.1
		c0.1,0,0.2,0,0.3,0c0,0,0.2,0,0.2,0c0.2,0.4,0.5,1.1,0.7,1.6c0.1,0.2,0.2,0.4,0.2,0.5c0,0,0,0,0,0.1c0,0-0.1,0.1-0.1,0.1
		c-0.2,0.2-0.3,0.3-0.3,0.4c0,0-0.1,0.1-0.1,0.1c-0.5,0.6-0.6,1.2-0.3,1.8c0.1,0.3,0.8,1.4,2,2.4c1.2,1,2.2,1.4,2.6,1.6l0.1,0.1
		c0.3,0.1,0.5,0.2,0.8,0.2c0.4,0,0.8-0.2,1.1-0.5c0.1-0.1,0.5-0.6,0.8-1c0.3,0.1,1.9,0.9,1.9,0.9c0,0.2-0.1,0.3-0.1,0.6
		c-0.1,0.3-0.9,0.8-1.3,0.8c-0.1,0-0.3,0-0.4,0.1C26.3,23.2,26.3,23.3,26.2,23.3z"/>
	<path class="st12" d="M19.2,14.5L19.2,14.5L19.2,14.5 M18.5,15.2c0,0.1,0.1,0.2,0.1,0.2c0,0-0.1,0.1-0.1,0.1c0,0,0-0.1,0-0.1
		C18.4,15.4,18.4,15.3,18.5,15.2 M27.4,21.1L27.4,21.1L27.4,21.1 M26.6,22.1c0,0,0.1,0,0.1,0.1C26.7,22.1,26.6,22.2,26.6,22.1
		C26.6,22.2,26.5,22.2,26.6,22.1C26.5,22.1,26.6,22.1,26.6,22.1 M22.7,5.5c-6.9,0-12.5,5.4-12.8,12.2c0,0.2,0,0.4,0,0.5
		c0,2.4,0.7,4.7,1.8,6.6l-2.3,6.8l7.1-2.3c1.8,1,4,1.6,6.2,1.6c7.1,0,12.8-5.7,12.8-12.7c0-0.1,0-0.2,0-0.3
		C35.3,11,29.7,5.5,22.7,5.5L22.7,5.5z M12.6,28.5l1.3-4c-1.3-1.7-2.1-3.9-2.1-6.3c0-0.3,0-0.7,0.1-1c0.5-5.4,5.1-9.7,10.7-9.7
		c5.7,0,10.3,4.4,10.8,9.9c0,0.3,0,0.6,0,0.8c0,5.9-4.8,10.7-10.8,10.7c-2.2,0-4.2-0.7-5.9-1.8L12.6,28.5L12.6,28.5z M18.4,12.4
		c-0.2,0-0.5,0.1-0.8,0.4c-0.3,0.3-1.1,1-1.1,2.6c0,0.4,0.1,0.7,0.2,1.1c0.3,1.1,1,2,1.1,2.2c0.2,0.2,2.2,3.5,5.4,4.7
		c1.9,0.7,2.7,0.9,3.1,0.9c0.3,0,0.5-0.1,0.7-0.1c0.6,0,1.9-0.7,2.1-1.5c0.3-0.7,0.3-1.4,0.2-1.5c-0.1-0.1-0.3-0.2-0.6-0.3
		c-0.3-0.2-1.9-0.9-2.1-1c-0.1,0-0.2-0.1-0.3-0.1c-0.1,0-0.3,0.1-0.4,0.2c-0.2,0.3-0.8,1-1,1.2c-0.1,0.1-0.2,0.2-0.3,0.2
		c-0.1,0-0.2,0-0.3-0.1c-0.3-0.2-1.3-0.5-2.5-1.6c-0.9-0.8-1.6-1.8-1.8-2.1c-0.2-0.3,0-0.5,0.1-0.7c0.2-0.1,0.3-0.4,0.5-0.5
		c0,0,0.1-0.1,0.1-0.1c0.1-0.1,0.1-0.2,0.2-0.4c0.1-0.2,0.1-0.4,0-0.5c-0.1-0.2-0.7-1.7-1-2.3c-0.2-0.5-0.4-0.5-0.5-0.5
		c-0.1,0-0.1,0-0.2,0C18.8,12.5,18.6,12.4,18.4,12.4L18.4,12.4z"/>
</g>
<circle class="st9" cx="40.8" cy="70.1" r="11.6"/>
<g>
	<g>
		<path class="st10" d="M44.3,67.3v3.2c0,0.7,0.2,0.9,0.5,0.9c0.7,0,0.9-1.1,0.9-1.8c0-3.3-2.2-4.8-4.8-4.8c-2.7,0-4.9,2-4.9,5.2
			c0,3,2.2,5,4.7,5c0.7,0,1.4-0.1,2.1-0.5c0.2-0.1,0.6-0.2,0.8-0.2c0.8,0,1.2,0.5,1.2,1.2c0,0.5-0.2,0.8-0.6,1.1
			c-1.1,0.7-2.2,0.9-3.3,0.9c-4.1,0-7.6-3.1-7.6-7.4c0-4.5,3.8-7.6,7.6-7.6c3.9,0,7.4,3.1,7.4,7.4c0,2.7-1.5,4.1-3.4,4.1
			c-1,0-1.6-0.5-2.1-1.3c-0.3,0.7-1.2,1.4-2.3,1.4c-1.6,0-3.5-1.3-3.5-3.9c0-2.6,1.9-3.8,3.4-3.8c1.2,0,1.9,0.8,1.9,1.1v-0.2
			c0-0.4,0.3-0.8,0.9-0.8C43.9,66.3,44.3,66.7,44.3,67.3z M39.5,70c0,0.5,0.3,1.5,1.3,1.5c0.9,0,1.3-0.9,1.3-1.5
			c0-0.6-0.3-1.5-1.3-1.5C39.8,68.6,39.5,69.5,39.5,70z"/>
	</g>
</g>
</svg>
