<svg width="28" height="27" viewBox="0 0 28 27" fill="none" xmlns="http://www.w3.org/2000/svg">
<path d="M23.4698 0H4.40571C1.99438 0 0.0396118 1.89877 0.0396118 4.24103V22.759C0.0396118 25.1012 1.99438 27 4.40571 27H23.4698C25.8811 27 27.8359 25.1012 27.8359 22.759V4.24103C27.8359 1.89877 25.8811 0 23.4698 0Z" fill="url(#paint0_linear_45_3)"/>
<path fill-rule="evenodd" clip-rule="evenodd" d="M14.0954 20.4115C12.5932 20.4115 11.1971 19.9743 10.0275 19.2308L7.18935 20.1052L8.10385 17.4514C7.21801 16.2847 6.69339 14.8255 6.69339 13.2661C6.69339 13.0322 6.70773 12.815 6.73926 12.5811C7.10047 8.9638 10.2654 6.13738 14.0954 6.13738C17.9254 6.13738 21.1821 9.03898 21.4802 12.7147C21.4946 12.9041 21.4946 13.0934 21.4946 13.2689C21.4946 17.2064 18.1777 20.4143 14.0925 20.4143L14.0954 20.4115ZM18.1347 14.987C17.9111 14.884 16.859 14.3744 16.664 14.302C16.4548 14.2435 16.3172 14.1989 16.1681 14.4189C16.0333 14.6222 15.6119 15.09 15.4915 15.2209C15.3568 15.3657 15.2364 15.3824 15.0271 15.2794C14.8006 15.1764 14.1126 14.9592 13.287 14.2435C12.642 13.6894 12.2062 13.0183 12.0858 12.815C11.9654 12.595 12.0715 12.4947 12.1747 12.3778C12.2807 12.2915 12.4011 12.1439 12.5043 12.013C12.5359 11.9851 12.5646 11.9545 12.5789 11.9267C12.6391 11.8403 12.6678 11.7652 12.7136 11.6788C12.7882 11.534 12.7595 11.4171 12.6993 11.314C12.6534 11.211 12.2177 10.1779 12.0371 9.76856C11.8565 9.3453 11.6758 9.4177 11.5554 9.4177C11.4207 9.4177 11.286 9.40377 11.1369 9.40377C10.9878 9.40377 10.7613 9.44833 10.5664 9.66553C10.3571 9.86881 9.80098 10.3645 9.80098 11.4004C9.80098 11.6343 9.84685 11.8821 9.92138 12.0993C10.1307 12.8428 10.6123 13.4415 10.6868 13.5418C10.7929 13.6866 12.1718 15.8447 14.3649 16.6773C16.5723 17.5071 16.5723 17.2314 16.9622 17.2036C17.3521 17.173 18.2379 16.7079 18.4185 16.2123C18.5991 15.7305 18.5991 15.3072 18.5389 15.2209C18.493 15.1485 18.344 15.09 18.1347 14.987ZM22.8935 13.0628C22.7731 8.47092 18.8858 4.79517 14.0954 4.79517C9.30503 4.79517 5.50941 8.38181 5.31447 12.9041C5.30014 13.021 5.30014 13.1519 5.30014 13.2689C5.30014 14.8728 5.76456 16.3738 6.56152 17.6575L4.97046 22.2076L9.84971 20.7067C11.1111 21.3778 12.5674 21.7565 14.0983 21.7565C18.9632 21.7565 22.9107 17.9666 22.9107 13.2689C22.9107 13.1965 22.8964 13.138 22.8964 13.0656L22.8935 13.0628Z" fill="#FDFDFD"/>
<defs>
<linearGradient id="paint0_linear_45_3" x1="1.31819" y1="25.758" x2="25.8239" y2="0.529598" gradientUnits="userSpaceOnUse">
<stop stop-color="#449F5E"/>
<stop offset="1" stop-color="#49BC60"/>
</linearGradient>
</defs>
</svg>
