<svg xmlns="http://www.w3.org/2000/svg" width="100.243" height="126.745" viewBox="0 0 100.243 126.745">
  <g id="Grupo_635" data-name="Grupo 635" transform="translate(-2359.5 -1143.343)">
    <path id="Caminho_817" data-name="Caminho 817" d="M2409.645,1144.872c-.005-.009-.01-.02-.016-.029l-.007.007,0,0a.089.089,0,0,0-.018.027c-23.789,23.765-48.6,20.87-48.6,20.87v51.526c0,17.8,10.967,26.074,10.967,26.074l37.646,25.235v.011l.008,0,.007,0,0-.011,37.646-25.235s10.967-8.277,10.967-26.074v-51.526S2433.432,1168.638,2409.645,1144.872Z" fill="#fff" stroke="#009cea" stroke-linecap="round" stroke-linejoin="round" stroke-width="3"/>
    <path id="Caminho_818" data-name="Caminho 818" d="M2409.968,1146.7c-.006-.009-.01-.019-.016-.029l0,0-.009,0-.015.029c-23.243,23.22-47.485,20.392-47.485,20.392v50.345c0,17.389,10.716,25.476,10.716,25.476l36.783,24.657v.011l.007,0,.007,0,0-.011S2409.968,1188.7,2409.968,1146.7Z" transform="translate(-0.322 -0.41)" fill="#c7f3ff"/>
    <g id="Grupo_634" data-name="Grupo 634" transform="translate(2381.268 1178.362)">
      <path id="Caminho_819" data-name="Caminho 819" d="M2443.83,1216.4a28.354,28.354,0,1,1-28.355-28.352,28.355,28.355,0,0,1,28.355,28.352Zm0,0" transform="translate(-2387.123 -1188.044)" fill="#fff" stroke="#009cea" stroke-linecap="round" stroke-linejoin="round" stroke-width="3"/>
      <path id="Caminho_820" data-name="Caminho 820" d="M2435.181,1247.888v1.569a28.358,28.358,0,0,1-32.387,0v-1.569a16.193,16.193,0,1,1,32.387,0Zm0,0" transform="translate(-2390.635 -1197.827)" fill="#c7f3ff" stroke="#009cea" stroke-linecap="round" stroke-linejoin="round" stroke-width="3"/>
      <path id="Caminho_821" data-name="Caminho 821" d="M2431.286,1214.791a10.715,10.715,0,1,1-10.716-10.715,10.716,10.716,0,0,1,10.716,10.715Zm0,0" transform="translate(-2392.218 -1191.637)" fill="#c7f3ff" stroke="#009cea" stroke-linecap="round" stroke-linejoin="round" stroke-width="3"/>
    </g>
  </g>
</svg>
