<?xml version="1.0" encoding="utf-8"?>
<!-- Generator: Adobe Illustrator 21.0.0, SVG Export Plug-In . SVG Version: 6.00 Build 0)  -->
<svg version="1.1" id="Camada_1" xmlns="http://www.w3.org/2000/svg" xmlns:xlink="http://www.w3.org/1999/xlink" x="0px" y="0px"
	 viewBox="0 0 135.1 135.1" enable-background="new 0 0 135.1 135.1" xml:space="preserve">
<path fill="#C7F3FF" stroke="#009CEA" stroke-width="3" stroke-linecap="round" stroke-linejoin="round" stroke-miterlimit="10" d="
	M133.6,86.2c-5.8-4.2-9.6-11-9.6-18.7c0-6.5,2.7-12.4,7.1-16.6c-5.9-1.5-11.2-5.3-14.4-11c-3.2-5.6-3.7-12-2-17.7
	c-5.8,1.4-12.1,0.7-17.6-2.7c-6.6-4-10.4-10.9-10.9-18c-4.2,5.8-11,9.6-18.7,9.6C61,11.1,55.1,8.4,50.9,4c-1.5,5.9-5.3,11.2-11,14.4
	c-5.6,3.2-12,3.7-17.7,2c1.4,5.8,0.7,12.1-2.7,17.6c-4,6.6-10.9,10.4-18,10.9c5.8,4.2,9.6,11,9.6,18.7c0,6.5-2.7,12.4-7.1,16.6
	c5.9,1.5,11.2,5.3,14.4,11c3.2,5.6,3.7,12,2,17.7c5.8-1.4,12.1-0.7,17.6,2.7c6.6,4,10.4,10.9,10.9,18c4.2-5.8,11-9.6,18.7-9.6
	c6.5,0,12.4,2.7,16.6,7.1c1.5-5.9,5.3-11.2,11-14.4c5.6-3.2,12-3.7,17.7-2c-1.4-5.8-0.7-12.1,2.7-17.6
	C119.6,90.5,126.4,86.7,133.6,86.2z"/>
<circle fill="#FFFFFF" stroke="#009CEA" stroke-width="3" stroke-linecap="round" stroke-linejoin="round" stroke-miterlimit="10" cx="67.5" cy="67.5" r="40.3"/>
<path fill="#FFFFFF" stroke="#009CEA" stroke-width="3" stroke-linecap="round" stroke-linejoin="round" stroke-miterlimit="10" d="
	M92.7,46.8c4.6,5.6,7.4,12.9,7.4,20.7c0,18-14.6,32.6-32.6,32.6c-2.3,0-4.5-0.2-6.7-0.7"/>
<path fill="#FFFFFF" stroke="#009CEA" stroke-width="3" stroke-linecap="round" stroke-linejoin="round" stroke-miterlimit="10" d="
	M88.2,42.3c0.6,0.5,1.2,1,1.8,1.6"/>
<g>
	
		<path fill="#FFFFFF" stroke="#009CEA" stroke-width="3" stroke-linecap="round" stroke-linejoin="round" stroke-miterlimit="10" d="
		M221.5,182.3c-0.7-26.6-22.5-47.9-49.5-47.9c-26.6,0-48.3,20.8-49.4,46.9c-0.1,0.7-0.1,1.4-0.1,2.1c0,9.3,2.6,18,7.1,25.4
		l-8.9,26.3l27.4-8.7c7.1,3.9,15.3,6.1,23.9,6.1c27.3,0,49.5-21.9,49.5-49.1C221.6,183.1,221.5,182.7,221.5,182.3z M172.1,224.8
		c-8.4,0-16.3-2.5-22.9-6.8l-16,5.1l5.1-15.4c-5-6.8-7.9-15.2-7.9-24.2c0-1.3,0.1-2.6,0.3-4c2-20.9,19.8-37.3,41.4-37.3
		c21.9,0,39.8,16.8,41.5,38.1c0.1,1.1,0.1,2.2,0.1,3.2C213.7,206.3,195,224.8,172.1,224.8z"/>
</g>
</svg>
