<?xml version="1.0" encoding="utf-8"?>
<!-- Generator: Adobe Illustrator 27.0.1, SVG Export Plug-In . SVG Version: 6.00 Build 0)  -->
<svg version="1.1" id="Layer_1" xmlns="http://www.w3.org/2000/svg" xmlns:xlink="http://www.w3.org/1999/xlink" x="0px" y="0px"
	 viewBox="0 0 200 200" style="enable-background:new 0 0 200 200;" xml:space="preserve">
<style type="text/css">
	.st0{fill:#C6F2FF;stroke:#009BE9;stroke-width:3;stroke-miterlimit:10;}
	.st1{fill:#FFFFFF;stroke:#009BE9;stroke-width:4;stroke-linecap:round;stroke-linejoin:round;stroke-miterlimit:10;}
	.st2{fill:#FFFFFF;stroke:#009BE9;stroke-width:1.6255;stroke-linecap:round;stroke-linejoin:round;stroke-miterlimit:10;}
	.st3{fill:#009BE9;}
	.st4{fill:#C6F2FF;stroke:#009BE9;stroke-width:4;stroke-linecap:round;stroke-linejoin:round;stroke-miterlimit:10;}
	.st5{fill:#C6F2FF;stroke:#009BE9;stroke-width:1.6255;stroke-linecap:round;stroke-linejoin:round;stroke-miterlimit:10;}
	.st6{fill-rule:evenodd;clip-rule:evenodd;fill:#C6F2FF;}
	
		.st7{fill-rule:evenodd;clip-rule:evenodd;fill:#FFFFFF;stroke:#009BE9;stroke-width:2.9852;stroke-linecap:round;stroke-linejoin:round;stroke-miterlimit:10;}
	.st8{fill:#FFFFFF;stroke:#009BE9;stroke-width:3;stroke-linecap:round;stroke-linejoin:round;stroke-miterlimit:10;}
	.st9{fill:#C6F2FF;}
	.st10{fill:#26A5FD;}
	.st11{fill:none;stroke:#009BE9;stroke-width:3;stroke-linecap:round;stroke-linejoin:round;stroke-miterlimit:10;}
	.st12{fill:#FFFFFF;stroke:#009BE9;stroke-width:1.734;stroke-linecap:round;stroke-linejoin:round;stroke-miterlimit:10;}
	.st13{fill:#C6F2FF;stroke:#009BE9;stroke-width:1.3423;stroke-linecap:round;stroke-linejoin:round;stroke-miterlimit:10;}
	.st14{fill:#FBFBFB;}
	.st15{fill:#009BE9;stroke:#009BE9;stroke-width:4;stroke-miterlimit:10;}
	.st16{fill:none;stroke:#009BE9;stroke-width:4;stroke-linecap:round;stroke-linejoin:round;stroke-miterlimit:10;}
</style>
<path class="st0" d="M265.2,148.1h16.8c5.6,0,10.1,4.5,10.1,10.1V175c0,5.6-4.5,10.1-10.1,10.1h-16.8c-5.6,0-10.1-4.5-10.1-10.1
	v-16.8C255.1,152.6,259.6,148.1,265.2,148.1z"/>
<path class="st1" d="M-194.5-103.1h-113c-3.5,0-6.4,2.8-6.4,6.4v42.8c0,3.5,2.8,6.4,6.4,6.4h7.5V-29l18.5-18.5h87
	c3.5,0,6.4-2.8,6.4-6.4v-42.8C-188.1-100.2-190.9-103.1-194.5-103.1z"/>
<g>
	<path class="st2" d="M-29.1,176.6h-53.6c-4.4,0-7.9-3.5-7.9-7.9V29.4c0-4.4,3.5-7.9,7.9-7.9h53.6c4.4,0,7.9,3.5,7.9,7.9v139.3
		C-21.2,173.1-24.8,176.6-29.1,176.6z"/>
	<line class="st2" x1="-90.6" y1="42.4" x2="-21.3" y2="42.4"/>
	<path class="st2" d="M-83.8,52.9v22.4c0,1.3,1.2,2.4,2.8,2.4h49.5c1.5,0,2.8-1.1,2.8-2.4V52.9c0-1.3-1.2-2.4-2.8-2.4H-81
		C-82.6,50.4-83.8,51.5-83.8,52.9z"/>
	<path class="st2" d="M-83.8,83.7v22.4c0,1.3,1.2,2.4,2.8,2.4h49.5c1.5,0,2.8-1.1,2.8-2.4V83.7c0-1.3-1.2-2.4-2.8-2.4H-81
		C-82.6,81.2-83.8,82.3-83.8,83.7z"/>
	<path class="st2" d="M-83.8,114.5v22.4c0,1.3,1.2,2.4,2.8,2.4h49.5c1.5,0,2.8-1.1,2.8-2.4v-22.4c0-1.3-1.2-2.4-2.8-2.4H-81
		C-82.6,112-83.8,113.1-83.8,114.5z"/>
	<path class="st2" d="M-83.8,145.2v22.4c0,1.3,1.2,2.4,2.8,2.4h49.5c1.5,0,2.8-1.1,2.8-2.4v-22.4c0-1.3-1.2-2.4-2.8-2.4H-81
		C-82.6,142.8-83.8,143.9-83.8,145.2z"/>
</g>
<g>
	<path class="st3" d="M-55,64.6v-1c0-0.3,0.2-0.5,0.5-0.5h20.7c0.3,0,0.5,0.2,0.5,0.5v1c0,0.3-0.2,0.5-0.5,0.5h-20.7
		C-54.8,65.1-55,64.9-55,64.6z"/>
	<path class="st3" d="M-55,59.6v-1c0-0.3,0.2-0.5,0.5-0.5h20.7c0.3,0,0.5,0.2,0.5,0.5v1c0,0.3-0.2,0.5-0.5,0.5h-20.7
		C-54.8,60.1-55,59.9-55,59.6z"/>
	<path class="st3" d="M-55,69.7v-1c0-0.3,0.2-0.5,0.5-0.5h20.7c0.3,0,0.5,0.2,0.5,0.5v1c0,0.3-0.2,0.5-0.5,0.5h-20.7
		C-54.8,70.2-55,69.9-55,69.7z"/>
</g>
<g>
	<path class="st3" d="M-292-74.8v-1.1c0-0.7,0.6-1.3,1.3-1.3h79.3c0.7,0,1.3,0.6,1.3,1.3v1.1c0,0.7-0.6,1.3-1.3,1.3h-79.3
		C-291.4-73.4-292-74-292-74.8z"/>
	<path class="st3" d="M-292-84.4v-1.1c0-0.7,0.6-1.3,1.3-1.3h79.3c0.7,0,1.3,0.6,1.3,1.3v1.1c0,0.7-0.6,1.3-1.3,1.3h-79.3
		C-291.4-83-292-83.6-292-84.4z"/>
	<path class="st3" d="M-292-65.2v-1.1c0-0.7,0.6-1.3,1.3-1.3h79.3c0.7,0,1.3,0.6,1.3,1.3v1.1c0,0.7-0.6,1.3-1.3,1.3h-79.3
		C-291.4-63.8-292-64.4-292-65.2z"/>
</g>
<path class="st4" d="M-278.5-32.4h84.1c3.5,0,6.4,2.8,6.4,6.4v42.8c0,3.5-2.8,6.4-6.4,6.4h-7.5v18.5l-18.5-18.5h-58.1
	c-3.5,0-6.4-2.8-6.4-6.4V-26C-284.9-29.5-282-32.4-278.5-32.4z"/>
<g>
	<path class="st3" d="M-206.6-3.9v-1.5c0-0.6-0.5-1.1-1.1-1.1h-57.8c-0.6,0-1.1,0.5-1.1,1.1v1.5c0,0.6,0.5,1.1,1.1,1.1h57.8
		C-207.1-2.7-206.6-3.2-206.6-3.9z"/>
	<path class="st3" d="M-206.6-13.4v-1.5c0-0.6-0.5-1.1-1.1-1.1h-57.8c-0.6,0-1.1,0.5-1.1,1.1v1.5c0,0.6,0.5,1.1,1.1,1.1h57.8
		C-207.1-12.3-206.6-12.8-206.6-13.4z"/>
	<path class="st3" d="M-206.6,5.7V4.3c0-0.6-0.5-1.1-1.1-1.1h-57.8c-0.6,0-1.1,0.5-1.1,1.1v1.5c0,0.6,0.5,1.1,1.1,1.1h57.8
		C-207.1,6.9-206.6,6.4-206.6,5.7z"/>
</g>
<g>
	<path class="st2" d="M-61.1,64.1c0,4.9-4,8.8-8.8,8.8c-4.9,0-8.8-4-8.8-8.8c0-4.9,4-8.8,8.8-8.8C-65.1,55.3-61.1,59.3-61.1,64.1
		L-61.1,64.1z M-61.1,64.1"/>
	<path class="st5" d="M-64.9,70.9v0.5c-1.4,1-3.2,1.6-5,1.6c-1.9,0-3.6-0.6-5-1.6v-0.5c0-2.8,2.3-5,5-5c1.4,0,2.7,0.6,3.6,1.5
		C-65.5,68.3-64.9,69.5-64.9,70.9L-64.9,70.9z M-64.9,70.9"/>
	<path class="st5" d="M-66.6,62.5c0,1.8-1.5,3.3-3.3,3.3c-1.8,0-3.3-1.5-3.3-3.3c0-1.8,1.5-3.3,3.3-3.3
		C-68.1,59.2-66.6,60.7-66.6,62.5L-66.6,62.5z M-66.6,62.5"/>
</g>
<g>
	<path class="st3" d="M-55,95.4v-1c0-0.3,0.2-0.5,0.5-0.5h20.7c0.3,0,0.5,0.2,0.5,0.5v1c0,0.3-0.2,0.5-0.5,0.5h-20.7
		C-54.8,95.9-55,95.6-55,95.4z"/>
	<path class="st3" d="M-55,90.3v-1c0-0.3,0.2-0.5,0.5-0.5h20.7c0.3,0,0.5,0.2,0.5,0.5v1c0,0.3-0.2,0.5-0.5,0.5h-20.7
		C-54.8,90.8-55,90.6-55,90.3z"/>
	<path class="st3" d="M-55,100.4v-1c0-0.3,0.2-0.5,0.5-0.5h20.7c0.3,0,0.5,0.2,0.5,0.5v1c0,0.3-0.2,0.5-0.5,0.5h-20.7
		C-54.8,100.9-55,100.6-55,100.4z"/>
</g>
<g>
	<path class="st2" d="M-61.1,94.9c0,4.9-4,8.8-8.8,8.8c-4.9,0-8.8-4-8.8-8.8c0-4.9,4-8.8,8.8-8.8C-65.1,86-61.1,90-61.1,94.9
		L-61.1,94.9z M-61.1,94.9"/>
	<path class="st5" d="M-64.9,101.6v0.5c-1.4,1-3.2,1.6-5,1.6c-1.9,0-3.6-0.6-5-1.6v-0.5c0-2.8,2.3-5,5-5c1.4,0,2.7,0.6,3.6,1.5
		C-65.5,99-64.9,100.2-64.9,101.6L-64.9,101.6z M-64.9,101.6"/>
	<path class="st5" d="M-66.6,93.2c0,1.8-1.5,3.3-3.3,3.3c-1.8,0-3.3-1.5-3.3-3.3c0-1.8,1.5-3.3,3.3-3.3
		C-68.1,89.9-66.6,91.4-66.6,93.2L-66.6,93.2z M-66.6,93.2"/>
</g>
<g>
	<path class="st3" d="M-55,126.1v-1c0-0.3,0.2-0.5,0.5-0.5h20.7c0.3,0,0.5,0.2,0.5,0.5v1c0,0.3-0.2,0.5-0.5,0.5h-20.7
		C-54.8,126.6-55,126.3-55,126.1z"/>
	<path class="st3" d="M-55,121.1v-1c0-0.3,0.2-0.5,0.5-0.5h20.7c0.3,0,0.5,0.2,0.5,0.5v1c0,0.3-0.2,0.5-0.5,0.5h-20.7
		C-54.8,121.6-55,121.3-55,121.1z"/>
	<path class="st3" d="M-55,131.1v-1c0-0.3,0.2-0.5,0.5-0.5h20.7c0.3,0,0.5,0.2,0.5,0.5v1c0,0.3-0.2,0.5-0.5,0.5h-20.7
		C-54.8,131.6-55,131.4-55,131.1z"/>
</g>
<g>
	<path class="st2" d="M-61.1,125.6c0,4.9-4,8.8-8.8,8.8c-4.9,0-8.8-4-8.8-8.8c0-4.9,4-8.8,8.8-8.8
		C-65.1,116.7-61.1,120.7-61.1,125.6L-61.1,125.6z M-61.1,125.6"/>
	<path class="st5" d="M-64.9,132.3v0.5c-1.4,1-3.2,1.6-5,1.6c-1.9,0-3.6-0.6-5-1.6v-0.5c0-2.8,2.3-5,5-5c1.4,0,2.7,0.6,3.6,1.5
		C-65.5,129.7-64.9,130.9-64.9,132.3L-64.9,132.3z M-64.9,132.3"/>
	<path class="st5" d="M-66.6,124c0,1.8-1.5,3.3-3.3,3.3c-1.8,0-3.3-1.5-3.3-3.3c0-1.8,1.5-3.3,3.3-3.3
		C-68.1,120.6-66.6,122.1-66.6,124L-66.6,124z M-66.6,124"/>
</g>
<g>
	<path class="st1" d="M-154.8,46.3c0,9.8-8,17.8-17.8,17.8c-9.8,0-17.8-8-17.8-17.8c0-9.8,8-17.8,17.8-17.8
		C-162.8,28.5-154.8,36.5-154.8,46.3L-154.8,46.3z M-154.8,46.3"/>
	<path class="st4" d="M-162.4,59.9v1c-2.9,2-6.4,3.2-10.1,3.2c-3.8,0-7.3-1.2-10.1-3.2v-1c0-5.6,4.5-10.1,10.1-10.1
		c2.8,0,5.3,1.1,7.2,3C-163.6,54.6-162.4,57.1-162.4,59.9L-162.4,59.9z M-162.4,59.9"/>
	<path class="st4" d="M-165.9,43c0,3.7-3,6.7-6.7,6.7c-3.7,0-6.7-3-6.7-6.7c0-3.7,3-6.7,6.7-6.7C-168.9,36.3-165.9,39.3-165.9,43
		L-165.9,43z M-165.9,43"/>
</g>
<g>
	<path class="st1" d="M-311.9-24.6c0,9.8-8,17.8-17.8,17.8c-9.8,0-17.8-8-17.8-17.8c0-9.8,8-17.8,17.8-17.8
		C-319.9-42.4-311.9-34.5-311.9-24.6L-311.9-24.6z M-311.9-24.6"/>
	<path class="st4" d="M-319.5-11v1c-2.9,2-6.4,3.2-10.1,3.2c-3.8,0-7.3-1.2-10.1-3.2v-1c0-5.6,4.5-10.1,10.1-10.1
		c2.8,0,5.3,1.1,7.2,3C-320.7-16.4-319.5-13.8-319.5-11L-319.5-11z M-319.5-11"/>
	<path class="st4" d="M-323-27.9c0,3.7-3,6.7-6.7,6.7c-3.7,0-6.7-3-6.7-6.7c0-3.7,3-6.7,6.7-6.7C-326-34.6-323-31.6-323-27.9
		L-323-27.9z M-323-27.9"/>
</g>
<g>
	<path class="st3" d="M-55,156.8v-1c0-0.3,0.2-0.5,0.5-0.5h20.7c0.3,0,0.5,0.2,0.5,0.5v1c0,0.3-0.2,0.5-0.5,0.5h-20.7
		C-54.8,157.3-55,157.1-55,156.8z"/>
	<path class="st3" d="M-55,151.8v-1c0-0.3,0.2-0.5,0.5-0.5h20.7c0.3,0,0.5,0.2,0.5,0.5v1c0,0.3-0.2,0.5-0.5,0.5h-20.7
		C-54.8,152.3-55,152-55,151.8z"/>
	<path class="st3" d="M-55,161.8v-1c0-0.3,0.2-0.5,0.5-0.5h20.7c0.3,0,0.5,0.2,0.5,0.5v1c0,0.3-0.2,0.5-0.5,0.5h-20.7
		C-54.8,162.3-55,162.1-55,161.8z"/>
</g>
<g>
	<path class="st2" d="M-61.1,156.3c0,4.9-4,8.8-8.8,8.8c-4.9,0-8.8-4-8.8-8.8c0-4.9,4-8.8,8.8-8.8
		C-65.1,147.5-61.1,151.4-61.1,156.3L-61.1,156.3z M-61.1,156.3"/>
	<path class="st5" d="M-64.9,163.1v0.5c-1.4,1-3.2,1.6-5,1.6c-1.9,0-3.6-0.6-5-1.6v-0.5c0-2.8,2.3-5,5-5c1.4,0,2.7,0.6,3.6,1.5
		C-65.5,160.4-64.9,161.7-64.9,163.1L-64.9,163.1z M-64.9,163.1"/>
	<path class="st5" d="M-66.6,154.7c0,1.8-1.5,3.3-3.3,3.3c-1.8,0-3.3-1.5-3.3-3.3c0-1.8,1.5-3.3,3.3-3.3
		C-68.1,151.3-66.6,152.8-66.6,154.7L-66.6,154.7z M-66.6,154.7"/>
</g>
<path class="st6" d="M287.3,89.5c0,13.4-10.8,24.2-24.2,24.2c-4.9,0-9.5-1.5-13.3-4c-1.3-0.9-7.1,3.1-8.2,2
	c-1.1-1.1,2.4-7.3,1.5-8.6c-2.6-3.9-4.2-8.6-4.2-13.6c0-13.4,10.8-24.2,24.2-24.2C276.4,65.3,287.3,76.2,287.3,89.5z"/>
<path class="st7" d="M263.3,112.5c-4.7,0-9.1-1.4-12.7-3.8l-8.9,2.8l2.9-8.5c-2.8-3.8-4.4-8.4-4.4-13.5c0-0.8,0-1.5,0.1-2.2
	c1.1-11.6,11-20.7,23-20.7c12.1,0,22.1,9.3,23.1,21.1c0,0.6,0,1.2,0,1.8C286.4,102.2,276.1,112.5,263.3,112.5L263.3,112.5z
	 M275.9,95.1c-0.7-0.3-4-2-4.6-2.2c-0.7-0.2-1.1-0.3-1.5,0.4c-0.4,0.7-1.7,2.2-2.1,2.6c-0.4,0.5-0.8,0.5-1.5,0.2
	c-0.7-0.3-2.9-1-5.4-3.3c-2-1.8-3.4-3.9-3.8-4.6c-0.4-0.7,0-1,0.3-1.4c0.3-0.3,0.7-0.8,1-1.2c0.1-0.1,0.2-0.2,0.2-0.3
	c0.2-0.3,0.3-0.5,0.4-0.8c0.2-0.5,0.1-0.8,0-1.2c-0.1-0.3-1.5-3.7-2.1-5c-0.6-1.4-1.1-1.1-1.5-1.1c-0.4,0-0.8,0-1.3,0
	c-0.5,0-1.2,0.1-1.8,0.8c-0.7,0.7-2.4,2.3-2.4,5.6c0,0.8,0.1,1.5,0.4,2.3c0.7,2.4,2.2,4.3,2.4,4.6c0.3,0.5,4.6,7.4,11.5,10.1
	c6.9,2.7,6.9,1.8,8.1,1.7c1.2-0.1,4-1.6,4.6-3.2c0.6-1.5,0.6-2.9,0.4-3.2C277.1,95.6,276.6,95.4,275.9,95.1L275.9,95.1z M290.8,88.9
	c-0.4-14.8-12.5-26.6-27.5-26.6c-14.8,0-26.8,11.5-27.4,26.1c0,0.4,0,0.8,0,1.2c0,5.2,1.5,10,3.9,14.1l-5,14.6l15.2-4.8
	c3.9,2.2,8.5,3.4,13.3,3.4c15.2,0,27.5-12.2,27.5-27.3C290.8,89.3,290.8,89.1,290.8,88.9L290.8,88.9z"/>
<path class="st8" d="M-129.9,117.2h-32.5c-2.3,0-4,1.9-4,4.2v4.1v57.3v4.1c0,2.3,1.8,4,4.1,4h32.5c2.3,0,4.1-1.8,4.1-4.1v-4.1v-57.3
	v-4.1C-125.7,119-127.7,117.2-129.9,117.2z"/>
<path class="st9" d="M-144.8,117.8h-16.6c-2.2,0-3.5,1.5-3.5,3.7v4.5v56.3v4.5c0,2.2,1.4,3.5,3.6,3.5h16.4V117.8z"/>
<path class="st10" d="M-144.7,121.6c0,0.8-0.6,1.4-1.4,1.4c-0.8,0-1.4-0.6-1.4-1.4c0-0.8,0.6-1.4,1.4-1.4
	C-145.4,120.2-144.7,120.8-144.7,121.6L-144.7,121.6z M-144.7,121.6"/>
<path class="st11" d="M-125.7,125.3v-4c0-2.3-2-4.1-4.3-4.1h-32.5c-2.3,0-4,1.9-4,4.2v3.9H-125.7z"/>
<path class="st11" d="M-166.4,182.9v4c0,2.3,2,4.1,4.3,4.1h32.5c2.3,0,4-1.9,4-4.2v-3.9H-166.4z"/>
<path class="st10" d="M-147.9,188h4c0.6,0,1.1-0.5,1.1-1.1c0-0.6-0.5-1.1-1.1-1.1h-4c-0.6,0-1.1,0.5-1.1,1.1
	C-149,187.5-148.5,188-147.9,188L-147.9,188z M-147.9,188"/>
<path class="st12" d="M335.4-74.6H241c-5,0-9.1,4.1-9.1,9.1v54.7c0,5,4.1,9.1,9.1,9.1h8.3v23.6l23.6-23.6h62.6c5,0,9.1-4.1,9.1-9.1
	v-54.7C344.5-70.6,340.4-74.6,335.4-74.6z"/>
<path class="st13" d="M196.2-97.4h74.4c5,0,9.1,4.1,9.1,9.1v44.7c0,5-4.1,9.1-9.1,9.1h-8.3v23.6l-23.6-23.6h-42.6
	c-5,0-9.1-4.1-9.1-9.1v-44.7C187.2-93.3,191.2-97.4,196.2-97.4z"/>
<circle class="st14" cx="395.1" cy="161.3" r="55.1"/>
<g>
	<path class="st9" d="M-26.6,203.9c-0.8,0-1.6-0.4-2.2-1l-3.4-3.8l-7.5,4.1c-0.3,0.2-0.6,0.2-0.9,0.2c-0.8,0-1.4-0.5-1.8-1.2
		c-0.3-0.7-0.2-1.5,0.3-2.1l8.9-9.8c0.6-0.6,1.4-1,2.2-1c0.8,0,1.6,0.3,2.2,0.9l3.5,3.7l7.6-3.8c0.3-0.1,0.6-0.2,0.9-0.2
		c0.8,0,1.5,0.5,1.8,1.2c0.3,0.7,0.2,1.5-0.4,2.1l-9.1,9.7C-25.1,203.6-25.9,203.9-26.6,203.9z"/>
	<path class="st3" d="M-30.9,191c0.4,0,0.8,0.2,1.1,0.5l4,4.2c0.1,0.1,0.2,0.1,0.3,0.1c0.1,0,0.1,0,0.2,0l8.3-4.1c0.1,0,0.1,0,0.2,0
		c0.3,0,0.6,0.4,0.3,0.7l-9.1,9.7c-0.3,0.3-0.6,0.4-1,0.4c-0.4,0-0.8-0.2-1.1-0.5l-3.9-4.5c-0.1-0.1-0.2-0.1-0.3-0.1
		c-0.1,0-0.1,0-0.2,0.1l-8.2,4.5c-0.1,0-0.1,0.1-0.2,0.1c-0.3,0-0.6-0.4-0.3-0.7l8.9-9.8C-31.7,191.1-31.3,191-30.9,191 M-30.9,188
		C-30.9,188-30.9,188-30.9,188c-1.3,0-2.5,0.5-3.3,1.5l-8.9,9.8c-0.9,1-1.1,2.4-0.6,3.7c0.5,1.2,1.8,2,3.1,2c0.6,0,1.1-0.1,1.6-0.4
		l6.4-3.5l2.6,2.9c0.8,0.9,2,1.5,3.3,1.5c1.2,0,2.4-0.5,3.2-1.4l9.1-9.7c0.9-1,1.2-2.4,0.7-3.7c-0.5-1.3-1.8-2.1-3.1-2.1
		c-0.5,0-1.1,0.1-1.5,0.4l-6.6,3.3l-2.7-2.8C-28.5,188.5-29.7,188-30.9,188L-30.9,188z"/>
</g>
<g>
	<path class="st3" d="M282.4,186.9h-17.5c-6.4,0-11.5-5.2-11.5-11.5v-17.5c0-6.4,5.2-11.5,11.5-11.5h17.5c6.4,0,11.5,5.2,11.5,11.5
		v17.5C293.9,181.7,288.7,186.9,282.4,186.9z M264.9,149.8c-4.4,0-8.1,3.6-8.1,8.1v17.5c0,4.4,3.6,8.1,8.1,8.1h17.5
		c4.4,0,8.1-3.6,8.1-8.1v-17.5c0-4.4-3.6-8.1-8.1-8.1H264.9z"/>
</g>
<g>
	<path class="st3" d="M273.6,177c-5.7,0-10.4-4.7-10.4-10.4c0-5.7,4.7-10.4,10.4-10.4c5.7,0,10.4,4.7,10.4,10.4
		C284,172.4,279.4,177,273.6,177z M273.6,159.7c-3.8,0-6.9,3.1-6.9,6.9c0,3.8,3.1,6.9,6.9,6.9c3.8,0,6.9-3.1,6.9-6.9
		C280.6,162.8,277.5,159.7,273.6,159.7z"/>
</g>
<g>
	<path class="st3" d="M287,155.7c0,1.4-1.1,2.5-2.5,2.5c-1.4,0-2.5-1.1-2.5-2.5c0-1.4,1.1-2.5,2.5-2.5
		C285.9,153.2,287,154.3,287,155.7z"/>
</g>
<path class="st1" d="M178.5,80H80.1c-6.6,0-12,5.4-12,12v59.2c0,6.6,5.4,12,12,12H91v31.2l31.2-31.2h56.3c6.6,0,12-5.4,12-12V92
	C190.5,85.4,185.1,80,178.5,80z"/>
<g>
	<path class="st4" d="M121.2,43.4H38.5c-5,0-9.1,4.1-9.1,9.1v55.9c0,5,4.1,9.1,9.1,9.1h27.9l24.3,24.3v-24.3h30.5
		c5,0,9.1-4.1,9.1-9.1V52.5C130.4,47.5,126.3,43.4,121.2,43.4z"/>
	<path class="st1" d="M142.8,97.8h-12.5V63.2h12.5c2.8,0,5.1,2.3,5.1,5.1v24.3C148,95.5,145.7,97.8,142.8,97.8z"/>
	<path class="st1" d="M16.6,63.2h12.5v34.6H16.6c-2.8,0-5.1-2.3-5.1-5.1V68.3C11.5,65.5,13.8,63.2,16.6,63.2z"/>
	<g>
		<circle class="st1" cx="79.8" cy="20.3" r="10.9"/>
		<line class="st15" x1="80.6" y1="28.8" x2="80.6" y2="40.8"/>
	</g>
	<g>
		<path class="st16" d="M64.8,92.7c0,0,12.8,9,30.4,0"/>
		<path class="st16" d="M89.1,70.3c0-4.2,3.4-7.6,7.6-7.6s7.6,3.4,7.6,7.6"/>
		<path class="st16" d="M55.3,70.3c0-4.2,3.4-7.6,7.6-7.6c4.2,0,7.6,3.4,7.6,7.6"/>
	</g>
</g>
</svg>
