<?xml version="1.0" encoding="utf-8"?>
<!-- Generator: Adobe Illustrator 21.0.0, SVG Export Plug-In . SVG Version: 6.00 Build 0)  -->
<svg version="1.1" id="Camada_1" xmlns="http://www.w3.org/2000/svg" xmlns:xlink="http://www.w3.org/1999/xlink" x="0px" y="0px"
	 viewBox="0 0 129.8 128.9" enable-background="new 0 0 129.8 128.9" xml:space="preserve">
<g>
	
		<path fill="#FFFFFF" stroke="#009CEA" stroke-width="3" stroke-linecap="round" stroke-linejoin="round" stroke-miterlimit="10" d="
		M218.5,175.2c-0.7-26.6-22.5-47.9-49.5-47.9c-26.6,0-48.3,20.8-49.4,46.9c-0.1,0.7-0.1,1.4-0.1,2.1c0,9.3,2.6,18,7.1,25.4
		l-8.9,26.3l27.4-8.7c7.1,3.9,15.3,6.1,23.9,6.1c27.3,0,49.5-21.9,49.5-49.1C218.6,176,218.5,175.6,218.5,175.2z M169.1,217.8
		c-8.4,0-16.3-2.5-22.9-6.8l-16,5.1l5.1-15.4c-5-6.8-7.9-15.2-7.9-24.2c0-1.3,0.1-2.6,0.3-4c2-20.9,19.8-37.3,41.4-37.3
		c21.9,0,39.8,16.8,41.5,38.1c0.1,1.1,0.1,2.2,0.1,3.2C210.7,199.2,192,217.8,169.1,217.8z"/>
</g>
<path fill="#C7F3FF" stroke="#009CEA" stroke-width="3" stroke-linecap="round" stroke-linejoin="round" stroke-miterlimit="10" d="
	M45.9,119.5c0,0-12.2-26.4,16-56.6s66.4-26.2,66.4-26.2s-14.6,6.7-13.5,44.4c1.1,37.7-34.9,45.3-34.9,45.3s-13.9,3.3-29.7-2.2
	c11.8-3,32.9-14.8,35.5-41.7C80.3,99.3,71.3,109.6,45.9,119.5z"/>
<g>
	
		<path fill="#FFFFFF" stroke="#009CEA" stroke-width="3" stroke-linecap="round" stroke-linejoin="round" stroke-miterlimit="10" d="
		M40,115.1c-1.1-6.3-1.4-16,2.8-27.5c-9.5-5.7-15.9-16.1-15.9-28.1c0-18.1,14.6-32.7,32.7-32.7c11.3,0,21.3,5.8,27.2,14.5
		c9.2-4.4,18.2-6.7,25.7-7.9c-1.3-2.6-2.7-5-4.3-7.3c-2.1,1.8-4.7,2.9-7.7,2.9c-6.4,0-11.6-5.2-11.6-11.6c0-2.8,1-5.4,2.7-7.4
		c-5.7-3.7-12.1-6.4-19-8c-0.2,2.6-1.3,5.2-3.4,7.3c-4.5,4.5-11.9,4.5-16.4,0c-2.2-2.2-3.3-5-3.4-7.8c-7.8,1.4-15.1,4.3-21.5,8.4
		c1.7,2,2.8,4.7,2.8,7.5c0,6.4-5.2,11.6-11.6,11.6c-3,0-5.8-1.2-7.9-3.1C6.3,32.9,3,40.9,1.5,49.6c2.8,0.1,5.5,1.3,7.6,3.4
		c4.5,4.5,4.5,11.9,0,16.4c-2,2-4.4,3.1-7,3.3c1.7,7.6,5,14.7,9.3,20.9c2-1.7,4.7-2.8,7.5-2.8c6.4,0,11.6,5.2,11.6,11.6
		c0,2.7-0.9,5.1-2.4,7.1C31.9,111.7,35.8,113.6,40,115.1z"/>
</g>
</svg>
