<?xml version="1.0" encoding="utf-8"?>
<!-- Generator: Adobe Illustrator 21.0.0, SVG Export Plug-In . SVG Version: 6.00 Build 0)  -->
<svg version="1.1" id="Camada_1" xmlns="http://www.w3.org/2000/svg" xmlns:xlink="http://www.w3.org/1999/xlink" x="0px" y="0px"
	 viewBox="0 0 164.1 164.1" enable-background="new 0 0 164.1 164.1" xml:space="preserve">
<g>
	
		<polygon fill="#FFFFFF" stroke="#009CEA" stroke-width="3" stroke-linecap="round" stroke-linejoin="round" stroke-miterlimit="10" points="
		2.2,107.8 42.1,90.9 42.2,107.8 80.8,90.9 80.7,107.8 119,90.9 119.1,107.8 161.9,86.3 161.9,161.2 2.2,161.2 	"/>
	<g>
		
			<path fill="#C7F3FF" stroke="#009CEA" stroke-width="3" stroke-linecap="round" stroke-linejoin="round" stroke-miterlimit="10" d="
			M32.3,142.4H20.3c-1.2,0-2.2-1-2.2-2.2v-12.1c0-1.2,1-2.2,2.2-2.2h12.1c1.2,0,2.2,1,2.2,2.2v12.1
			C34.5,141.4,33.5,142.4,32.3,142.4z"/>
		
			<path fill="#C7F3FF" stroke="#009CEA" stroke-width="3" stroke-linecap="round" stroke-linejoin="round" stroke-miterlimit="10" d="
			M69.5,142.4H57.5c-1.2,0-2.2-1-2.2-2.2v-12.1c0-1.2,1-2.2,2.2-2.2h12.1c1.2,0,2.2,1,2.2,2.2v12.1
			C71.7,141.4,70.7,142.4,69.5,142.4z"/>
		
			<path fill="#C7F3FF" stroke="#009CEA" stroke-width="3" stroke-linecap="round" stroke-linejoin="round" stroke-miterlimit="10" d="
			M106.7,142.4H94.6c-1.2,0-2.2-1-2.2-2.2v-12.1c0-1.2,1-2.2,2.2-2.2h12.1c1.2,0,2.2,1,2.2,2.2v12.1
			C108.9,141.4,107.9,142.4,106.7,142.4z"/>
		
			<path fill="#C7F3FF" stroke="#009CEA" stroke-width="3" stroke-linecap="round" stroke-linejoin="round" stroke-miterlimit="10" d="
			M143.9,142.4h-12.1c-1.2,0-2.2-1-2.2-2.2v-12.1c0-1.2,1-2.2,2.2-2.2h12.1c1.2,0,2.2,1,2.2,2.2v12.1
			C146,141.4,145.1,142.4,143.9,142.4z"/>
	</g>
	
		<rect x="111.4" y="50.9" fill="#FFFFFF" stroke="#009CEA" stroke-width="3" stroke-linecap="round" stroke-linejoin="round" stroke-miterlimit="10" width="12.6" height="7.3"/>
	
		<rect x="35.1" y="31.2" fill="#FFFFFF" stroke="#009CEA" stroke-width="3" stroke-linecap="round" stroke-linejoin="round" stroke-miterlimit="10" width="12.6" height="6.3"/>
	
		<polygon fill="#FFFFFF" stroke="#009CEA" stroke-width="3" stroke-linecap="round" stroke-linejoin="round" stroke-miterlimit="10" points="
		119.1,90.9 119.1,107.8 133.7,100.5 124,58.2 111.4,58.2 102.2,98.3 	"/>
	
		<polygon fill="#FFFFFF" stroke="#009CEA" stroke-width="3" stroke-linecap="round" stroke-linejoin="round" stroke-miterlimit="10" points="
		42.2,90.4 42.2,107.5 60,100 47.7,37.4 35.1,37.4 23.8,98.7 	"/>
	
		<path fill="#FFFFFF" stroke="#009CEA" stroke-width="3" stroke-linecap="round" stroke-linejoin="round" stroke-miterlimit="10" d="
		M69.8,6.1c-1.8,0-3.5,0.7-4.8,1.9c0-2.8-2.3-5-5-5c-2.8,0-5,2.3-5,5c0,0.1,0,0.1,0,0.2c-1.3-1.3-3.1-2.1-5-2.1
		c-3.9,0-7.1,3.2-7.1,7.1c0,0.5,0,0.9,0.1,1.3c-0.2,0-0.4,0-0.6,0c-2.8,0-5,2.3-5,5c0,1.7,0.9,3.2,2.2,4.1c-0.8,0.5-1.3,1.4-1.3,2.4
		c0,1.6,1.3,3,3,3c1.6,0,3-1.3,3-3c0-0.6-0.2-1.2-0.5-1.7c2.1-0.5,3.6-2.4,3.7-4.6c0.8,0.3,1.7,0.5,2.6,0.5c0.9,0,1.8-0.2,2.6-0.5
		c1.2,2,3.3,3.3,5.8,3.3c3.1,0,5.6-2.1,6.4-4.9c1.3,1.3,3.1,2.1,5,2.1c3.9,0,7.1-3.2,7.1-7.1C76.9,9.2,73.7,6.1,69.8,6.1z"/>
	
		<path fill="#FFFFFF" stroke="#009CEA" stroke-width="3" stroke-linecap="round" stroke-linejoin="round" stroke-miterlimit="10" d="
		M146.4,25.9c-1.8,0-3.5,0.7-4.8,1.9c0-2.8-2.3-5-5-5c-2.8,0-5,2.3-5,5c0,0.1,0,0.1,0,0.2c-1.3-1.3-3.1-2.1-5-2.1
		c-3.9,0-7.1,3.2-7.1,7.1c0,0.5,0,0.9,0.1,1.3c-0.2,0-0.4,0-0.6,0c-2.8,0-5,2.3-5,5c0,1.7,0.9,3.2,2.2,4.1c-0.8,0.5-1.3,1.4-1.3,2.4
		c0,1.6,1.3,3,3,3s3-1.3,3-3c0-0.6-0.2-1.2-0.5-1.7c2.1-0.5,3.6-2.4,3.7-4.6c0.8,0.3,1.7,0.5,2.6,0.5c0.9,0,1.8-0.2,2.6-0.5
		c1.2,2,3.3,3.3,5.8,3.3c3.1,0,5.6-2.1,6.4-4.9c1.3,1.3,3.1,2.1,5,2.1c3.9,0,7.1-3.2,7.1-7.1C153.6,29.1,150.4,25.9,146.4,25.9z"/>
	<polygon fill="#C7F3FF" points="117.6,59.1 112.1,59.1 103.5,96.9 117.6,90.6 	"/>
	<polygon fill="#C7F3FF" points="41.7,38.3 35.8,38.3 25,97.2 41.7,89.7 	"/>
</g>
</svg>
