<svg width="20" height="20" viewBox="0 0 20 20" fill="none" xmlns="http://www.w3.org/2000/svg">
<path d="M15.34 3.46098C15.1027 3.46098 14.8707 3.53136 14.6733 3.66321C14.476 3.79507 14.3222 3.98249 14.2313 4.20176C14.1405 4.42103 14.1168 4.66231 14.1631 4.89508C14.2094 5.12786 14.3236 5.34168 14.4915 5.5095C14.6593 5.67733 14.8731 5.79162 15.1059 5.83792C15.3387 5.88422 15.5799 5.86046 15.7992 5.76963C16.0185 5.67881 16.2059 5.525 16.3378 5.32766C16.4696 5.13032 16.54 4.89831 16.54 4.66098C16.54 4.34272 16.4136 4.03749 16.1885 3.81245C15.9635 3.5874 15.6583 3.46098 15.34 3.46098ZM19.94 5.88098C19.9206 5.05127 19.7652 4.23038 19.48 3.45098C19.2257 2.78411 18.83 2.18026 18.32 1.68098C17.8248 1.1684 17.2196 0.775153 16.55 0.530977C15.7727 0.237137 14.9508 0.0781866 14.12 0.0609765C13.06 0.000976507 12.72 0.000976562 10 0.000976562C7.28 0.000976562 6.94 0.000976507 5.88 0.0609765C5.04915 0.0781866 4.22734 0.237137 3.45 0.530977C2.78168 0.777625 2.17693 1.17054 1.68 1.68098C1.16743 2.17615 0.774176 2.78142 0.53 3.45098C0.236161 4.22832 0.07721 5.05013 0.0599999 5.88098C-5.58794e-08 6.94098 0 7.28098 0 10.001C0 12.721 -5.58794e-08 13.061 0.0599999 14.121C0.07721 14.9518 0.236161 15.7736 0.53 16.551C0.774176 17.2205 1.16743 17.8258 1.68 18.321C2.17693 18.8314 2.78168 19.2243 3.45 19.471C4.22734 19.7648 5.04915 19.9238 5.88 19.941C6.94 20.001 7.28 20.001 10 20.001C12.72 20.001 13.06 20.001 14.12 19.941C14.9508 19.9238 15.7727 19.7648 16.55 19.471C17.2196 19.2268 17.8248 18.8335 18.32 18.321C18.8322 17.8236 19.2283 17.2192 19.48 16.551C19.7652 15.7716 19.9206 14.9507 19.94 14.121C19.94 13.061 20 12.721 20 10.001C20 7.28098 20 6.94098 19.94 5.88098ZM18.14 14.001C18.1327 14.6357 18.0178 15.2647 17.8 15.861C17.6403 16.2962 17.3839 16.6894 17.05 17.011C16.7256 17.3415 16.3332 17.5974 15.9 17.761C15.3037 17.9787 14.6748 18.0937 14.04 18.101C13.04 18.151 12.67 18.161 10.04 18.161C7.41 18.161 7.04 18.161 6.04 18.101C5.38089 18.1133 4.72459 18.0118 4.1 17.801C3.68578 17.6291 3.31136 17.3738 3 17.051C2.66809 16.7297 2.41484 16.3362 2.26 15.901C2.01586 15.2961 1.88044 14.6529 1.86 14.001C1.86 13.001 1.8 12.631 1.8 10.001C1.8 7.37098 1.8 7.00098 1.86 6.00098C1.86448 5.35203 1.98295 4.70892 2.21 4.10098C2.38605 3.67889 2.65627 3.30263 3 3.00098C3.30381 2.65714 3.67929 2.38407 4.1 2.20098C4.70955 1.98102 5.352 1.86606 6 1.86098C7 1.86098 7.37 1.80098 10 1.80098C12.63 1.80098 13 1.80098 14 1.86098C14.6348 1.86826 15.2637 1.98322 15.86 2.20098C16.3144 2.36963 16.7223 2.64382 17.05 3.00098C17.3777 3.30816 17.6338 3.68371 17.8 4.10098C18.0223 4.70991 18.1373 5.35276 18.14 6.00098C18.19 7.00098 18.2 7.37098 18.2 10.001C18.2 12.631 18.19 13.001 18.14 14.001ZM10 4.87098C8.98581 4.87295 7.99496 5.1755 7.15265 5.74039C6.31035 6.30529 5.65438 7.10717 5.26763 8.04473C4.88089 8.98229 4.78072 10.0134 4.97979 11.0079C5.17886 12.0024 5.66824 12.9155 6.38608 13.632C7.10392 14.3484 8.01801 14.836 9.01286 15.0331C10.0077 15.2303 11.0387 15.1281 11.9755 14.7395C12.9123 14.3509 13.7129 13.6934 14.2761 12.85C14.8394 12.0066 15.14 11.0152 15.14 10.001C15.1413 9.32608 15.0092 8.65758 14.7512 8.03393C14.4933 7.41028 14.1146 6.84379 13.6369 6.36703C13.1592 5.89027 12.5919 5.51265 11.9678 5.25591C11.3436 4.99916 10.6749 4.86834 10 4.87098ZM10 13.331C9.34139 13.331 8.69757 13.1357 8.14995 12.7698C7.60234 12.4039 7.17552 11.8838 6.92348 11.2753C6.67144 10.6668 6.6055 9.99728 6.73398 9.35133C6.86247 8.70537 7.17963 8.11202 7.64533 7.64631C8.11104 7.1806 8.70439 6.86345 9.35035 6.73496C9.99631 6.60647 10.6659 6.67242 11.2743 6.92446C11.8828 7.1765 12.4029 7.60331 12.7688 8.15093C13.1347 8.69854 13.33 9.34237 13.33 10.001C13.33 10.4383 13.2439 10.8713 13.0765 11.2753C12.9092 11.6793 12.6639 12.0464 12.3547 12.3556C12.0454 12.6649 11.6784 12.9101 11.2743 13.0775C10.8703 13.2448 10.4373 13.331 10 13.331Z" fill="#F75708"/>
</svg>
