<svg xmlns="http://www.w3.org/2000/svg" width="79.451" height="79.451" viewBox="0 0 79.451 79.451"><g transform="translate(-5346.25 -2585.369)"><rect width="21.814" height="21.814" rx="4.875" transform="translate(5347.75 2586.869)" fill="#fff" stroke="#009cea" stroke-linecap="round" stroke-linejoin="round" stroke-width="3"/><rect width="21.814" height="21.814" rx="4.875" transform="translate(5347.75 2614.188)" fill="#fff" stroke="#009cea" stroke-linecap="round" stroke-linejoin="round" stroke-width="3"/><rect width="21.814" height="21.814" rx="4.875" transform="translate(5347.75 2641.506)" fill="#c7f3ff" stroke="#009cea" stroke-linecap="round" stroke-linejoin="round" stroke-width="3"/><rect width="21.814" height="21.814" rx="4.875" transform="translate(5375.068 2586.869)" fill="#fff" stroke="#009cea" stroke-linecap="round" stroke-linejoin="round" stroke-width="3"/><rect width="21.814" height="21.814" rx="4.875" transform="translate(5375.068 2614.188)" fill="#c7f3ff" stroke="#009cea" stroke-linecap="round" stroke-linejoin="round" stroke-width="3"/><rect width="21.814" height="21.814" rx="4.875" transform="translate(5375.068 2641.506)" fill="#fff" stroke="#009cea" stroke-linecap="round" stroke-linejoin="round" stroke-width="3"/><rect width="21.814" height="21.814" rx="4.875" transform="translate(5402.387 2586.869)" fill="#fff" stroke="#009cea" stroke-linecap="round" stroke-linejoin="round" stroke-width="3"/><rect width="21.814" height="21.814" rx="4.875" transform="translate(5402.387 2614.188)" fill="#c7f3ff" stroke="#009cea" stroke-linecap="round" stroke-linejoin="round" stroke-width="3"/><path d="M5434.016,2662.228h-5.81v-5.81a2.548,2.548,0,0,0-5.1,0v5.81H5417.3a2.548,2.548,0,0,0,0,5.1h5.811v5.81a2.548,2.548,0,0,0,5.1,0v-5.81h5.81a2.548,2.548,0,0,0,0-5.1Z" transform="translate(-12.363 -12.363)" fill="#fff" stroke="#009cea" stroke-linecap="round" stroke-linejoin="round" stroke-width="3"/></g></svg>