<svg width="52" height="52" viewBox="0 0 52 52" fill="none" xmlns="http://www.w3.org/2000/svg">
<g clip-path="url(#clip0_10_433)">
<path fill-rule="evenodd" clip-rule="evenodd" d="M49.12 25.17C49.12 37.89 38.81 48.2 26.09 48.2C21.41 48.2 17.06 46.8 13.42 44.41C12.16 43.58 6.66 47.39 5.6 46.34C4.53 45.29 7.89 39.37 7.05 38.12C4.53 34.43 3.06 29.97 3.06 25.17C3.06 12.45 13.37 2.14001 26.09 2.14001C38.81 2.14001 49.12 12.45 49.12 25.17Z" fill="#C6F2FF"/>
<path fill-rule="evenodd" clip-rule="evenodd" d="M26.3 45.69C22.11 45.69 18.22 44.43 14.95 42.3L7.04 44.81L9.59 37.19C7.12 33.84 5.65 29.65 5.65 25.17C5.65 24.5 5.69 23.87 5.78 23.2C6.78 12.81 15.62 4.69003 26.3 4.69003C36.98 4.69003 46.07 13.02 46.9 23.58C46.94 24.12 46.94 24.67 46.94 25.17C46.94 36.48 37.69 45.69 26.3 45.69ZM37.56 30.11C36.93 29.82 34 28.35 33.46 28.14C32.87 27.97 32.5 27.85 32.08 28.47C31.7 29.06 30.53 30.4 30.19 30.77C29.81 31.19 29.48 31.23 28.89 30.94C28.26 30.65 26.34 30.02 24.03 27.97C22.23 26.38 21.01 24.45 20.68 23.87C20.34 23.24 20.64 22.95 20.93 22.61C21.22 22.36 21.56 21.94 21.85 21.56C21.93 21.48 22.02 21.39 22.06 21.31C22.23 21.06 22.31 20.85 22.44 20.6C22.65 20.18 22.57 19.85 22.4 19.55C22.27 19.26 21.06 16.28 20.56 15.11C20.06 13.9 19.56 14.11 19.22 14.11C18.84 14.11 18.47 14.07 18.05 14.07C17.63 14.07 17 14.2 16.46 14.82C15.87 15.41 14.32 16.83 14.32 19.8C14.32 20.47 14.45 21.18 14.66 21.81C15.25 23.95 16.59 25.66 16.79 25.96C17.08 26.38 20.94 32.58 27.05 34.96C33.21 37.35 33.21 36.55 34.29 36.47C35.38 36.39 37.85 35.05 38.35 33.62C38.85 32.24 38.85 31.02 38.68 30.77C38.55 30.56 38.14 30.39 37.55 30.1L37.56 30.11ZM50.84 24.58C50.5 11.39 39.66 0.840027 26.3 0.840027C12.94 0.840027 2.34 11.14 1.8 24.12C1.76 24.45 1.76 24.83 1.76 25.17C1.76 29.78 3.06 34.09 5.28 37.77L0.839996 50.84L14.45 46.53C17.97 48.46 22.03 49.54 26.3 49.54C39.87 49.54 50.88 38.65 50.88 25.17C50.88 24.96 50.84 24.79 50.84 24.58Z" fill="white" stroke="#009BE9" stroke-width="1.67" stroke-linecap="round" stroke-linejoin="round"/>
</g>
<defs>
<clipPath id="clip0_10_433">
<rect width="51.71" height="51.67" fill="white"/>
</clipPath>
</defs>
</svg>
