<svg id="Camada_1" data-name="Camada 1" xmlns="http://www.w3.org/2000/svg" viewBox="0 0 129.58 93.59"><defs><style>.cls-1{fill:#c7f3ff;}.cls-1,.cls-2{stroke:#009cea;stroke-linecap:round;stroke-linejoin:round;stroke-width:3px;}.cls-2{fill:#fff;}</style></defs><title>missao</title><polygon class="cls-1" points="100.64 18.27 77.72 18.27 77.72 1.98 100.64 1.98 95.77 10.1 100.64 18.27"/><line class="cls-2" x1="77.67" y1="49.92" x2="77.67" y2="2.57"/><polygon class="cls-2" points="77.51 26.82 27.92 91.61 127.42 91.61 77.51 26.82"/><polygon class="cls-1" points="42.94 38.34 2.17 91.61 83.97 91.61 42.94 38.34"/><polygon class="cls-1" points="65.35 55.24 71.54 49.06 78.04 55.56 82.52 51.09 90.31 58.87 97.02 52.15 77.51 26.82 59.92 49.81 65.35 55.24"/><polygon class="cls-2" points="30.71 66.76 36.9 60.58 43.4 67.08 47.88 62.6 55.67 70.39 62.38 63.67 42.87 38.34 25.28 61.33 30.71 66.76"/></svg>