<svg width="18" height="20" viewBox="0 0 18 20" fill="none" xmlns="http://www.w3.org/2000/svg">
<path d="M9.40456 19.8844C10.112 19.4343 10.8216 18.9864 11.5291 18.5364C11.8494 18.3333 12.1738 18.1324 12.4857 17.9147C13.2267 17.3977 13.9216 16.8095 14.5391 16.1481C15.7615 14.8357 16.6908 13.2804 17.279 11.5871C17.7584 10.2035 17.9635 8.74456 17.9635 7.28354V4.49755C17.9635 4.12287 17.7018 3.79634 17.3481 3.68959C17.0927 3.61214 16.8395 3.5326 16.5946 3.43003C16.6615 3.45725 16.7285 3.48655 16.7955 3.51376C16.358 3.32747 15.9478 3.08885 15.571 2.79999L15.7405 2.93186C15.368 2.64301 15.0331 2.3102 14.7442 1.93761L14.8761 2.10716C14.5872 1.73039 14.3465 1.31804 14.1602 0.880568C14.1874 0.947549 14.2167 1.01453 14.2439 1.08151C14.1811 0.930804 14.1225 0.77591 14.0723 0.621017C13.9593 0.267273 13.6432 0.00562803 13.2643 0.00562803H5.752C5.40663 0.00562803 5.05916 -0.00483777 4.71379 0.00562803H4.69914C4.31819 0.00562803 4.00421 0.267273 3.89118 0.621017C3.84095 0.778003 3.78443 0.930804 3.71954 1.08151C3.74675 1.01453 3.77606 0.947549 3.80327 0.880568C3.61698 1.31804 3.37626 1.7283 3.08741 2.10716L3.21928 1.93761C2.93042 2.3102 2.59552 2.64301 2.22293 2.93186L2.39248 2.79999C2.01571 3.08885 1.60336 3.32747 1.16798 3.51376C1.23496 3.48655 1.30194 3.45725 1.36893 3.43003C1.12193 3.5326 0.870754 3.61214 0.615389 3.68959C0.261645 3.79634 0 4.12287 0 4.49755V7.02189C0 7.46564 0 7.90939 0.0313974 8.35314C0.0983784 9.25529 0.251179 10.1554 0.504451 11.024C1.00681 12.7488 1.87756 14.3375 3.03299 15.7085C3.93095 16.7739 5.01311 17.6363 6.18528 18.3794L8.50241 19.8488C8.52125 19.8613 8.54218 19.8739 8.56102 19.8864C8.93151 20.1209 9.50084 19.9764 9.70597 19.585C9.92366 19.1706 9.80017 18.6913 9.40456 18.4401C9.02779 18.2015 8.65102 17.9628 8.27635 17.7242C7.79492 17.4186 7.31559 17.1151 6.83416 16.8095C6.49716 16.596 6.16854 16.3678 5.85038 16.125L6.01992 16.2569C5.22871 15.6436 4.51704 14.9319 3.90374 14.1407L4.03561 14.3103C3.41185 13.5002 2.89274 12.6127 2.49295 11.6708C2.52016 11.7378 2.54947 11.8048 2.57668 11.8717C2.16851 10.9026 1.89012 9.88533 1.74988 8.84294C1.76035 8.9162 1.77081 8.99156 1.77918 9.06482C1.68918 8.38663 1.67453 7.70845 1.67453 7.02817V4.50592C1.4694 4.77594 1.26427 5.04386 1.05914 5.31388C1.78128 5.09619 2.48039 4.80733 3.09369 4.36568C3.82001 3.84239 4.43959 3.19769 4.90008 2.42741C5.15336 2.00459 5.35639 1.5441 5.5071 1.07523C5.23708 1.28036 4.96916 1.48549 4.69914 1.69062H12.2115C12.5569 1.69062 12.9043 1.69899 13.2497 1.69062H13.2643C12.9943 1.48549 12.7264 1.28036 12.4564 1.07523C12.9818 2.71417 14.1749 4.13962 15.7405 4.87641C16.1173 5.05433 16.5046 5.19247 16.9043 5.31388C16.6992 5.04386 16.4941 4.77594 16.289 4.50592V7.47402C16.289 8.00568 16.2534 8.53734 16.1843 9.06482C16.1948 8.99156 16.2052 8.9162 16.2136 8.84294C16.0713 9.88324 15.7929 10.9026 15.3868 11.8717C15.414 11.8048 15.4433 11.7378 15.4705 11.6708C15.0707 12.6127 14.5516 13.5002 13.9279 14.3103L14.0597 14.1407C13.4464 14.9319 12.7348 15.6436 11.9436 16.2569L12.1131 16.125C11.6442 16.4872 11.1461 16.799 10.6479 17.1172C10.0953 17.4688 9.54271 17.8184 8.99012 18.1701C8.84778 18.2601 8.70335 18.3522 8.56102 18.4422C8.37891 18.5573 8.23448 18.731 8.17588 18.9424C8.12145 19.1434 8.14657 19.4092 8.2596 19.5871C8.49822 19.9555 9.00895 20.1355 9.40456 19.8844Z" fill="#F75708"/>
<path d="M4.71589 9.96026L6.86557 12.1099L7.17117 12.4155C7.49142 12.7358 8.03564 12.7358 8.35589 12.4155L10.0158 10.7557L12.6427 8.12874L13.2476 7.52382C13.5574 7.21403 13.5804 6.64469 13.2476 6.33909C12.9127 6.0314 12.3936 6.00837 12.0629 6.33909L10.403 7.99897L7.77609 10.6259L7.17117 11.2308H8.35589L6.20622 9.08113L5.90062 8.77553C5.59083 8.46574 5.02149 8.44272 4.71589 8.77553C4.4082 9.11043 4.38517 9.62744 4.71589 9.96026Z" fill="#F75708"/>
</svg>
