<?xml version="1.0" encoding="utf-8"?>
<!-- Generator: Adobe Illustrator 21.0.0, SVG Export Plug-In . SVG Version: 6.00 Build 0)  -->
<svg version="1.1" id="Camada_1" xmlns="http://www.w3.org/2000/svg" xmlns:xlink="http://www.w3.org/1999/xlink" x="0px" y="0px"
	 viewBox="0 0 164.1 164.1" enable-background="new 0 0 164.1 164.1" xml:space="preserve">
<g>
	
		<path fill="#FFFFFF" stroke="#009CEA" stroke-width="3" stroke-linecap="round" stroke-linejoin="round" stroke-miterlimit="10" d="
		M62.5,140.3c0,0,17.8-4.2,25.9-12.3c4.7-4.7,32.8-32.9,34.7-34.7s3.7-6.3,0.4-9.9c-3.2-3.5-8-2.9-8.9-2.1
		c-0.9,0.9,5.7-4.5,2.1-10.4c-2.8-4.5-8.3-3-8.3-3s7.6-6.4,2.1-12c-4.2-3.8-8.2-1.8-8.2-1.8s4-5.6-0.7-9.6c-5-4.3-10.7,0.7-10.7,0.7
		L71.5,64.9L55.9,49.3l-17,17c0,0-4.7,4.7-4.3,9.7s-0.6,17.8-9.7,26.7C34.9,112.8,62.5,140.3,62.5,140.3z"/>
	
		<path fill="#C7F3FF" stroke="#009CEA" stroke-width="3" stroke-linecap="round" stroke-linejoin="round" stroke-miterlimit="10" d="
		M63.6,147.4l-13.2,13.2c-1.7,1.7-4.4,1.7-6.1,0L3.5,119.7c-1.7-1.7-1.7-4.4,0-6.1l13.2-13.2c1.7-1.7,4.4-1.7,6.1,0l40.9,40.9
		C65.3,143,65.3,145.7,63.6,147.4z"/>
	
		<line fill="#FFFFFF" stroke="#009CEA" stroke-width="3" stroke-linecap="round" stroke-linejoin="round" stroke-miterlimit="10" x1="82.8" y1="73.2" x2="102.3" y2="54.1"/>
	
		<line fill="#FFFFFF" stroke="#009CEA" stroke-width="3" stroke-linecap="round" stroke-linejoin="round" stroke-miterlimit="10" x1="92.3" y1="83.5" x2="108.7" y2="67.4"/>
	
		<line fill="#FFFFFF" stroke="#009CEA" stroke-width="3" stroke-linecap="round" stroke-linejoin="round" stroke-miterlimit="10" x1="101.8" y1="93.9" x2="115.1" y2="80.8"/>
	
		<path fill="#C7F3FF" stroke="#009CEA" stroke-width="3" stroke-linecap="round" stroke-linejoin="round" stroke-miterlimit="10" d="
		M119.4,114.8c0,0-6.1,12.7,3.5,22.6s22.5,6.6,22.5,6.6l-8.9-9.6l3-12.2l11.2-1.5l9.6,9.8c0,0,6.3-15.4-5.3-24.5
		c-11.7-9.1-24.7-3.8-24.7-3.8l-8.1-7.9l-11.6,11.6L119.4,114.8z"/>
	
		<path fill="#C7F3FF" stroke="#009CEA" stroke-width="3" stroke-linecap="round" stroke-linejoin="round" stroke-miterlimit="10" d="
		M61.8,32c0,0,6.1-12.7-3.5-22.6S35.9,2.8,35.9,2.8l8.9,9.6l-3,12.2l-11.2,1.5L21,16.3c0,0-6.3,15.4,5.3,24.5s24.7,3.8,24.7,3.8
		l20.5,20.3l11.6-11.6L61.8,32z"/>
</g>
</svg>
