<svg width="21" height="20" viewBox="0 0 21 20" fill="none" xmlns="http://www.w3.org/2000/svg">
<path d="M2.92624 19.9995H15.4673C16.2446 19.9972 16.9892 19.6867 17.5378 19.1361C18.0864 18.5855 18.3942 17.8396 18.3935 17.0624V10.7609C18.3935 10.5392 18.3054 10.3265 18.1486 10.1697C17.9918 10.0129 17.7792 9.92484 17.5574 9.92484C17.3357 9.92484 17.123 10.0129 16.9663 10.1697C16.8095 10.3265 16.7214 10.5392 16.7214 10.7609V17.0624C16.7225 17.3963 16.5911 17.7171 16.3559 17.9542C16.1208 18.1914 15.8012 18.3256 15.4673 18.3273H2.92624C2.59229 18.3256 2.27269 18.1914 2.03757 17.9542C1.80245 17.7171 1.67103 17.3963 1.67214 17.0624V4.54307C1.67103 4.20912 1.80245 3.88837 2.03757 3.65121C2.27269 3.41405 2.59229 3.27986 2.92624 3.27809H9.19676C9.4185 3.27809 9.63115 3.19001 9.78795 3.03322C9.94474 2.87642 10.0328 2.66376 10.0328 2.44203C10.0328 2.22029 9.94474 2.00763 9.78795 1.85084C9.63115 1.69404 9.4185 1.60596 9.19676 1.60596H2.92624C2.14895 1.60817 1.40429 1.91867 0.855682 2.46932C0.307072 3.01997 -0.000666423 3.76577 1.08364e-06 4.54307V17.0624C-0.000666423 17.8396 0.307072 18.5855 0.855682 19.1361C1.40429 19.6867 2.14895 19.9972 2.92624 19.9995Z" fill="#F75708"/>
<path d="M7.90502 8.75035L7.24536 11.7719C7.2155 11.909 7.2206 12.0513 7.2602 12.1859C7.29979 12.3204 7.37261 12.4429 7.47193 12.5419C7.57263 12.6385 7.69511 12.7093 7.82901 12.7485C7.96291 12.7876 8.10427 12.7939 8.24112 12.7668L11.256 12.1055C11.4125 12.0711 11.5559 11.9925 11.669 11.8789L19.2889 4.25899C19.5219 4.02607 19.7067 3.74955 19.8327 3.44522C19.9588 3.14088 20.0237 2.81469 20.0237 2.48527C20.0237 2.15585 19.9588 1.82966 19.8327 1.52532C19.7067 1.22098 19.5219 0.944464 19.2889 0.71155C18.8113 0.25517 18.1762 0.000488281 17.5156 0.000488281C16.855 0.000488281 16.2199 0.25517 15.7423 0.71155L8.1341 8.339C8.01991 8.45134 7.94039 8.59412 7.90502 8.75035ZM16.9245 1.89459C17.0836 1.74221 17.2954 1.65714 17.5156 1.65714C17.7359 1.65714 17.9477 1.74221 18.1067 1.89459C18.2614 2.05229 18.348 2.26438 18.348 2.48527C18.348 2.70616 18.2614 2.91824 18.1067 3.07595L17.5156 3.66705L16.3334 2.48485L16.9245 1.89459ZM9.48351 9.3473L15.147 3.66956L16.3175 4.84591L10.6515 10.5253L9.15076 10.8547L9.48351 9.3473Z" fill="#F75708"/>
</svg>
