<svg width="57" height="52" viewBox="0 0 57 52" fill="none" xmlns="http://www.w3.org/2000/svg">
<g clip-path="url(#clip0_10_428)">
<path d="M45.2 50.57C47.61 50.38 53.08 47.42 54.19 44.27C55.3 41.21 55.3 38.52 54.93 37.97C54.65 37.51 53.73 37.14 52.43 36.49C51.04 35.84 44.56 32.6 43.35 32.14C42.05 31.77 41.22 31.49 40.29 32.88C39.45 34.18 36.86 37.14 36.12 37.98C35.29 38.91 34.55 39 33.25 38.35C31.86 37.7 27.6 36.31 22.5 31.77C18.51 28.25 15.83 23.99 15.08 22.69C14.34 21.3 14.99 20.65 15.64 19.91C16.29 19.35 17.03 18.43 17.68 17.59C17.87 17.41 18.05 17.22 18.14 17.03C18.51 16.47 18.7 16.01 18.98 15.45C19.44 14.53 19.26 13.78 18.89 13.13C18.61 12.48 15.93 5.9 14.81 3.31C13.7 0.62 12.59 1.09 11.85 1.09C11.02 1.09 10.18 1 9.26 1C8.34 1 6.94 1.28 5.74 2.67C4.43 3.96 1 7.12 1 13.69C1 15.17 1.28 16.75 1.75 18.14C3.04 22.87 6.01 26.66 6.47 27.31C7.12 28.24 15.64 41.95 29.17 47.23C42.79 52.51 42.79 50.75 45.2 50.57Z" fill="#C6F2FF" stroke="#009BE9" stroke-width="2" stroke-linecap="round" stroke-linejoin="round"/>
</g>
<defs>
<clipPath id="clip0_10_428">
<rect width="56.15" height="52" fill="white"/>
</clipPath>
</defs>
</svg>
