<svg width="20" height="20" viewBox="0 0 20 20" fill="none" xmlns="http://www.w3.org/2000/svg">
<path d="M14.3754 12.0095C14.1784 11.9096 12.8984 11.3104 12.7015 11.2105C12.5046 11.1106 12.3077 11.1106 12.1107 11.3104C11.9138 11.5101 11.52 12.1094 11.3231 12.3091C11.2246 12.5089 11.0277 12.5089 10.8307 12.409C10.1415 12.1094 9.45229 11.7099 8.86152 11.2105C8.36922 10.7111 7.87691 10.1119 7.48306 9.51262C7.3846 9.31287 7.48306 9.11312 7.58152 9.01324C7.67999 8.91337 7.77845 8.71362 7.97537 8.61374C8.07383 8.51387 8.17229 8.31412 8.17229 8.21424C8.27075 8.11437 8.27075 7.91462 8.17229 7.81474C8.07383 7.71487 7.58152 6.51637 7.3846 6.01699C7.28614 5.31786 7.08922 5.31786 6.8923 5.31786H6.39999C6.20307 5.31786 5.90768 5.51761 5.80922 5.61749C5.21845 6.21674 4.92307 6.91587 4.92307 7.71487C5.02153 8.61374 5.31691 9.51262 5.90768 10.3116C6.99076 11.9096 8.36922 13.208 10.0431 14.007C10.5354 14.2068 10.9292 14.4065 11.4215 14.5064C11.9138 14.7061 12.4061 14.7061 12.9969 14.6063C13.6861 14.5064 14.2769 14.007 14.6707 13.4078C14.8677 13.0083 14.8677 12.6087 14.7692 12.2092L14.3754 12.0095ZM16.8369 2.92086C12.9969 -0.974271 6.79383 -0.974271 2.95384 2.92086C-0.196923 6.11687 -0.787691 11.0107 1.37846 14.9059L0 19.9995L5.21845 18.6013C6.69537 19.4003 8.27075 19.7998 9.84614 19.7998C15.2615 19.7998 19.5938 15.4053 19.5938 9.91212C19.6923 7.31537 18.6092 4.81849 16.8369 2.92086ZM14.1784 16.9034C12.8984 17.7024 11.4215 18.2018 9.84614 18.2018C8.36922 18.2018 6.99076 17.8023 5.71076 17.1031L5.41537 16.9034L2.36307 17.7024L3.15076 14.7061L2.95384 14.4065C0.590768 10.4115 1.7723 5.41774 5.6123 2.92086C9.45229 0.423981 14.3754 1.72236 16.7384 5.51761C19.1015 9.41275 18.0184 14.5064 14.1784 16.9034Z" fill="#F75708"/>
</svg>
