<?xml version="1.0" encoding="utf-8"?>
<!-- Generator: Adobe Illustrator 21.0.0, SVG Export Plug-In . SVG Version: 6.00 Build 0)  -->
<svg version="1.1" id="Camada_1" xmlns="http://www.w3.org/2000/svg" xmlns:xlink="http://www.w3.org/1999/xlink" x="0px" y="0px"
	 viewBox="0 0 104 110.7" enable-background="new 0 0 104 110.7" xml:space="preserve">
<path fill="#FFFFFF" stroke="#009CEA" stroke-width="3" stroke-linecap="round" stroke-linejoin="round" stroke-miterlimit="10" d="
	M91.5,109.5H11.9c-3.7,0-6.7-3-6.7-6.7V30.2h92.9v72.6C98.1,106.5,95.2,109.5,91.5,109.5L91.5,109.5z M91.5,109.5"/>
<path fill="#C7F3FF" stroke="#009CEA" stroke-width="3" stroke-linecap="round" stroke-linejoin="round" stroke-miterlimit="10" d="
	M98.1,30.3H5.2V13.1c0-2.5,2-4.5,4.5-4.5h84c2.5,0,4.5,2,4.5,4.5V30.3z M98.1,30.3"/>
<g>
	<path fill-rule="evenodd" clip-rule="evenodd" fill="#C7F3FF" d="M79.5,68.2c0,15.2-12.3,27.5-27.5,27.5c-5.6,0-10.8-1.7-15.1-4.5
		c-1.5-1-8.1,3.6-9.3,2.3c-1.3-1.3,2.7-8.3,1.7-9.8c-3-4.4-4.8-9.7-4.8-15.5C24.4,53,36.8,40.7,52,40.7S79.5,53,79.5,68.2z"/>
	
		<path fill-rule="evenodd" clip-rule="evenodd" fill="#FFFFFF" stroke="#009CEA" stroke-width="2" stroke-linecap="round" stroke-linejoin="round" stroke-miterlimit="10" d="
		M52.2,92.7c-5,0-9.7-1.5-13.6-4.1l-9.5,3l3.1-9.1c-3-4-4.7-9-4.7-14.4c0-0.8,0-1.6,0.1-2.4c1.2-12.4,11.8-22.1,24.5-22.1
		c13,0,23.6,10,24.6,22.6c0.1,0.7,0.1,1.3,0.1,1.9C76.9,81.7,65.8,92.7,52.2,92.7L52.2,92.7z M65.7,74.1c-0.7-0.4-4.3-2.1-4.9-2.4
		c-0.7-0.2-1.2-0.4-1.7,0.4c-0.5,0.7-1.9,2.3-2.3,2.8c-0.5,0.5-0.9,0.6-1.6,0.2c-0.8-0.4-3.1-1.1-5.8-3.6c-2.2-1.9-3.6-4.2-4-4.9
		c-0.4-0.8-0.1-1.1,0.3-1.5c0.4-0.3,0.8-0.8,1.1-1.3c0.1-0.1,0.2-0.2,0.3-0.3c0.2-0.3,0.3-0.5,0.5-0.9c0.2-0.5,0.2-0.9,0-1.3
		c-0.2-0.4-1.6-3.9-2.2-5.3c-0.6-1.5-1.2-1.2-1.6-1.2c-0.5,0-0.9-0.1-1.4-0.1c-0.5,0-1.3,0.2-1.9,0.9c-0.7,0.7-2.6,2.4-2.6,6
		c0,0.8,0.2,1.7,0.4,2.4c0.7,2.6,2.3,4.6,2.6,5c0.3,0.5,5,7.9,12.3,10.8c7.4,2.9,7.4,1.9,8.7,1.8c1.3-0.1,4.3-1.7,4.9-3.4
		c0.6-1.7,0.6-3.1,0.4-3.4C66.9,74.7,66.4,74.5,65.7,74.1L65.7,74.1z M81.5,67.5c-0.4-15.8-13.4-28.4-29.3-28.4
		c-15.8,0-28.6,12.3-29.3,27.8c-0.1,0.4-0.1,0.9-0.1,1.3c0,5.5,1.6,10.7,4.2,15.1l-5.3,15.6L38,93.7c4.2,2.3,9.1,3.6,14.2,3.6
		c16.2,0,29.4-13,29.4-29.1C81.6,68,81.5,67.8,81.5,67.5L81.5,67.5z"/>
</g>
<g>
	
		<path fill="#FFFFFF" stroke="#009CEA" stroke-width="3" stroke-linecap="round" stroke-linejoin="round" stroke-miterlimit="10" d="
		M71.5,2L71.5,2C74,2,76,3.6,76,5.5v12.6c0,2-2,3.5-4.5,3.5h0c-2.5,0-4.5-1.6-4.5-3.5V5.5C67.1,3.6,69,2,71.5,2z"/>
	
		<path fill="#FFFFFF" stroke="#009CEA" stroke-width="3" stroke-linecap="round" stroke-linejoin="round" stroke-miterlimit="10" d="
		M31.8,2L31.8,2c2.5,0,4.5,1.6,4.5,3.5v12.6c0,2-2,3.5-4.5,3.5h0c-2.5,0-4.5-1.6-4.5-3.5V5.5C27.4,3.6,29.4,2,31.8,2z"/>
</g>
</svg>
