<?xml version="1.0" encoding="utf-8"?>
<!-- Generator: Adobe Illustrator 27.0.0, SVG Export Plug-In . SVG Version: 6.00 Build 0)  -->
<svg version="1.1" id="Layer_1" xmlns="http://www.w3.org/2000/svg" xmlns:xlink="http://www.w3.org/1999/xlink" x="0px" y="0px"
	 viewBox="0 0 85.9 85.9" style="enable-background:new 0 0 85.9 85.9;" xml:space="preserve">
<style type="text/css">
	.st0{opacity:0.2;fill:#FFFFFF;}
	.st1{fill:#FFFFFF;}
</style>
<polygon class="st0" points="42.9,43.1 74.1,49.7 85.3,43.2 74.3,36.8 42.9,43.1 73.3,33.4 79.8,22.2 67.1,22.1 42.9,43.1 
	42.9,43.1 42.9,43.1 64.4,19.5 64.4,6.6 53.3,12.8 42.9,43.1 42.9,43.1 42.9,43.1 49.5,11.9 42.9,0.7 36.6,11.7 42.9,43.1 
	32.9,12.7 21.9,6.3 21.7,19.2 42.9,43.1 19,21.8 6.3,21.7 12.6,33 42.9,43.1 11.5,36.8 0.5,43.2 11.6,49.7 42.9,43.1 42.9,43.1 
	42.9,43.1 42.9,43.1 42.9,43.1 42.9,43.1 12.5,53.1 6,64.1 19,64.3 42.9,43.1 42.9,43.1 42.9,43.1 21.5,67 21.5,79.7 32.8,73.4 
	42.9,43.1 42.9,43.1 42.9,43.1 36.6,74.5 42.9,85.5 49.5,74.4 42.9,43.1 42.9,43.1 42.9,43.1 42.9,43.1 42.9,43.1 42.9,43.1 
	52.6,73.6 63.8,80 63.9,67.3 42.9,43.1 66.5,64.6 79.4,64.6 73.2,53.5 "/>
<g>
	
		<image style="overflow:visible;opacity:0.3;" width="68" height="53" xlink:href="60218D3F.png"  transform="matrix(1 0 0 1 9.0722 20.7079)">
	</image>
	<g>
		<path class="st1" d="M69.5,29c0.6-0.4,0.9-1.3,0.4-1.9c-0.6-0.8-1.4-0.3-3.9,1.7c-4,3.2-5.2,1.8-11.3,3.8c-6.1,2-7.6,5.8-7.6,5.8
			c0-1.4-0.5-2.5-1.2-3.2c0,0,0,0,0,0c0,0,0,0-0.1-0.1c0,0,0,0-0.1-0.1c-0.4-0.4-1.4-1.7-0.3-2.9c1.5,0.1,2.3-0.5,2.3-0.5
			s-1.4-0.4-1.8-1.3c-0.4-0.9-1.2-1.9-3-1.9s-2.8,1.4-2.8,2.9c0,1.5,0.9,2.2-0.6,4.2c0,0,0,0,0,0c-0.5,0.7-0.9,1.6-0.9,2.8
			c0,0-1.5-3.9-7.6-5.8c-6.1-2-7.3-0.6-11.3-3.8c-2.4-2-3.2-2.5-3.9-1.7c-0.5,0.6-0.2,1.5,0.4,1.9c-0.3,0.2-0.5,0.6-0.5,1
			c0,0.6,0.5,1.1,1.1,1.2c-0.1,0.2-0.2,0.5-0.2,0.8c0,0.8,0.5,1.4,1.3,1.6c-0.1,0.2-0.2,0.5-0.2,0.7c0,0.8,0.6,1.5,1.4,1.6
			c0,0.2-0.1,0.3-0.1,0.5c0,1,0.7,1.9,1.7,2c-0.1,0.2-0.1,0.5-0.1,0.7c0,1.1,0.9,2.1,2.1,2.1c0,0,0,0,0,0c0,0.1,0,0.2,0,0.3
			c0,1.4,1.1,2.5,2.5,2.5c0,0,0,0,0,0c0,0.1,0,0.3,0,0.4c0,1.4,1.1,2.5,2.5,2.5c0.3,0,0.6-0.1,0.8-0.2c0,0.2-0.1,0.4-0.1,0.6
			c0,1.4,1.1,2.5,2.5,2.5c0.3,0,0.6-0.1,0.9-0.2c0.3,1.1,1.3,2,2.5,2c0.4,0,0.8-0.1,1.1-0.3c0.3,1.1,1.2,1.9,2.4,1.9l-6.2,4.9
			c0,0-0.1,0-0.1,0.1c-0.1,0.1-0.1,0.1-0.2,0.2l0,0l0,0c-0.4,0.4-0.4,1-0.1,1.5c0.2,0.3,0.5,0.5,0.9,0.5c-0.1,0.3,0,0.7,0.2,1
			c0.3,0.4,0.9,0.6,1.3,0.4c0,0.1,0,0.2,0,0.3c0,0.6,0.5,1.2,1.2,1.2c0.2,0,0.4-0.1,0.6-0.2c0,0.1,0,0.1,0,0.2
			c0,0.6,0.5,1.2,1.2,1.2c0.2,0,0.4-0.1,0.6-0.2c0.1,0.6,0.6,1,1.2,1c0.2,0,0.4-0.1,0.6-0.2c0,0.6,0.5,1.1,1.2,1.1
			c0.3,0,0.6-0.1,0.8-0.3c0.1,0.5,0.6,0.9,1.1,0.9c0.3,0,0.6-0.1,0.9-0.4c0.2,0.2,0.5,0.4,0.9,0.4c0.5,0,1-0.4,1.1-0.9
			c0.2,0.2,0.5,0.3,0.8,0.3c0.6,0,1.1-0.5,1.2-1.1c0.2,0.1,0.4,0.2,0.6,0.2c0.6,0,1.1-0.5,1.2-1c0.2,0.1,0.4,0.2,0.6,0.2
			c0.6,0,1.2-0.5,1.2-1.2c0-0.1,0-0.1,0-0.2c0.2,0.1,0.4,0.2,0.6,0.2c0.6,0,1.2-0.5,1.2-1.2c0-0.1,0-0.2,0-0.3c0.5,0.2,1,0,1.3-0.4
			c0.2-0.3,0.3-0.7,0.2-1c0.3,0,0.7-0.2,0.9-0.5c0.3-0.4,0.3-1.1-0.1-1.5l0,0l0,0c-0.1-0.1-0.1-0.1-0.2-0.2c0,0-0.1-0.1-0.1-0.1
			l-6.2-4.9c1.2,0,2.1-0.8,2.4-1.9c0.3,0.2,0.7,0.3,1.1,0.3c1.2,0,2.2-0.8,2.5-2c0.3,0.1,0.6,0.2,0.9,0.2c1.4,0,2.5-1.1,2.5-2.5
			c0-0.2,0-0.4-0.1-0.6c0.3,0.1,0.5,0.2,0.8,0.2c1.4,0,2.5-1.1,2.5-2.5c0-0.1,0-0.3,0-0.4c0,0,0,0,0,0c1.4,0,2.5-1.1,2.5-2.5
			c0-0.1,0-0.2,0-0.3c0,0,0,0,0,0c1.1,0,2.1-0.9,2.1-2.1c0-0.3-0.1-0.5-0.1-0.7c1-0.2,1.7-1,1.7-2c0-0.2,0-0.3-0.1-0.5
			c0.8-0.1,1.4-0.8,1.4-1.6c0-0.3-0.1-0.5-0.2-0.7c0.7-0.1,1.3-0.8,1.3-1.6c0-0.3-0.1-0.6-0.2-0.8c0.6-0.1,1.1-0.6,1.1-1.2
			C70,29.6,69.8,29.2,69.5,29z M42.9,64.8C42.9,64.8,42.9,64.8,42.9,64.8L42.9,64.8L42.9,64.8C42.9,64.8,42.9,64.8,42.9,64.8z"/>
	</g>
</g>
</svg>
