<?xml version="1.0" encoding="utf-8"?>
<!-- Generator: Adobe Illustrator 27.0.0, SVG Export Plug-In . SVG Version: 6.00 Build 0)  -->
<svg version="1.1" id="Layer_1" xmlns="http://www.w3.org/2000/svg" xmlns:xlink="http://www.w3.org/1999/xlink" x="0px" y="0px"
	 viewBox="0 0 261.1 73.7" enable-background="new 0 0 261.1 73.7" xml:space="preserve">
<path fill="#00ADD9" d="M65.5,0.7c1.1,0,1.4,0.4,1.4,1.4c0.5,13.9,1.1,27.7,1.6,41.6c0.2,4.6,0.3,9.2,0.6,13.9
	c0.1,1.2-0.3,1.7-1.5,1.8C60.8,60.1,53.9,61,47,61.6c-2.1,0.2-3.5,1.1-5,2.5c-3.4,3.4-7,6.5-10.3,9.6C32.1,49.6,32.5,24.8,33,0
	C40.5,0,62.5,0.7,65.5,0.7z"/>
<path fill="#00ACD8" d="M0.6,25.8C4.3,11.8,14.9,5.3,27.5,0.5c0.1,1.4,0.2,2.6,0.2,3.8c0.6,18,1.1,36,1.7,54c0.1,2.1,0,2.1-2.1,2.2
	C15.6,61,6.4,54.6,2.2,43.1c-0.8-2.1-1.4-4.3-1.8-6.5C-0.6,30.5,0.5,26,0.6,25.8z"/>
<path fill="#FFFFFF" d="M260.5,14.5c-1.1,2.4-3.7,3.5-6.3,3c-2.4-0.5-4.1-2.6-4.3-5.1c-0.1-2.8,1.2-5,3.7-5.9c2.5-0.8,5,0.1,6.6,2.3
	C260.6,9.3,261.9,11.5,260.5,14.5z"/>
<path fill="#FFFFFF" d="M203.2,39.2c0,4.6,0,9.2,0,13.7c0,9.4-5.2,15.4-14.6,16.5c-5.6,0.7-10.9-0.4-15.9-3.3
	c-1.1-0.7-1.2-1.3-0.6-2.3c0.9-1.4,1.7-2.8,2.4-4.3c0.5-1.1,1.1-1.3,2.1-0.6c3.3,1.9,6.9,2.5,10.7,2.2c3.4-0.3,5.4-2.3,6.1-5.6
	c0.2-1.3,0-1.5-1.2-1c-5.2,1.9-10.2,1.4-14.9-1.4c-6.6-4-9.7-12.2-7.6-19.9c2-7.4,8.3-12.3,16.1-12.5c0.7,0,1.5,0,2.1,0.2
	c4.4,1.5,9,0.7,13.4,0.7c1.4,0,1.9,0.4,1.9,1.9C203.2,28.6,203.2,33.9,203.2,39.2z M194.8,38.1c0-4.8-3.6-8.5-8.4-8.6
	c-4.8,0-8.6,3.8-8.6,8.6c0,4.7,3.8,8.5,8.5,8.6C191,46.7,194.7,43,194.8,38.1z"/>
<path fill="#00ACD8" d="M77.1,58.6c-5.4,0-5.4,0-5.4-4.8c-0.2-13.6-0.4-27.1-0.6-40.7c0-2,0-2,1.9-1.4c7,2.3,13.5,5.4,19,10.3
	c3.9,3.5,6.9,7.6,7.6,12.9c1.4,10.8-5.3,20.3-16,22.9C81.3,58.3,79,58.6,77.1,58.6z"/>
<path fill="#FFFFFF" d="M134.1,40.7c-3.4,0-6.9,0-10.3,0c-1.8,0-2.1,0.4-1.3,2c1.6,3.4,4.6,4.7,8.1,4.8c2.9,0.1,5.7-0.6,8.4-1.7
	c1.1-0.4,1.7-0.3,2.1,0.8c0.6,1.4,1.4,2.8,2.2,4.2c0.4,0.7,0.4,1.1-0.3,1.6c-6.7,4.9-17.9,5-24.1-0.2c-5.9-4.8-7.3-11.3-5.8-18.5
	c1.5-7,6.1-11.4,13.1-12.8c10.3-2.2,19.1,4.6,19.7,15.1c0,0.2,0,0.3,0,0.5c0.3,4.1,0.3,4.1-3.9,4.1
	C139.4,40.7,136.8,40.7,134.1,40.7z M129,34.1C129,34.1,129,34.1,129,34.1c1.8,0,3.6,0,5.4,0c1.4,0,1.5-0.6,1.1-1.7
	c-1-2.6-3.1-3.8-6.4-3.7c-3.2,0.1-5.7,1.8-6.5,4.4c-0.3,0.9,0.1,1.1,0.8,1.1C125.3,34.1,127.2,34.1,129,34.1z"/>
<path fill="#FFFFFF" d="M207.3,38.1c0.2-9.9,7.9-17.5,17.5-17.4c9.5,0.1,17.2,8.2,17,17.9c-0.2,9.6-8.1,17.1-17.9,16.9
	C214.8,55.3,207.1,47.2,207.3,38.1z M224.7,29.5c-4.8-0.1-8.7,3.6-8.8,8.4c-0.1,4.6,3.7,8.6,8.2,8.7c4.9,0.1,8.7-3.6,8.8-8.4
	C233.1,33.4,229.5,29.6,224.7,29.5z"/>
<path fill="#FFFFFF" d="M260.4,38.3c0,4.9,0,9.8,0,14.7c0,1.3-0.4,1.9-1.7,1.8c-2.1-0.1-4.3-0.1-6.4,0c-1.4,0.1-1.7-0.5-1.7-1.8
	c0.1-6.9,0-13.8,0.1-20.8c0-1.5-0.5-2-2-1.9c-3.3,0.1-3,0.4-3-2.9c0-1.5,0-2.9,0-4.4c0-0.9,0.2-1.4,1.3-1.4c4,0,8.1,0,12.1,0
	c1.3,0,1.3,0.8,1.3,1.7C260.4,28.3,260.4,33.3,260.4,38.3C260.4,38.3,260.4,38.3,260.4,38.3z"/>
<path fill="#FFFFFF" d="M158.2,32.2c1.8,0,3.7,0,5.5,0c1.2,0,1.7,0.3,1.7,1.6c-0.1,1.9,0,3.8,0,5.7c0,1-0.4,1.4-1.4,1.4
	c-4,0-7.9,0-11.9,0c-1,0-1.3-0.5-1.3-1.4c0-1.9,0-3.8,0-5.7c0-1.1,0.4-1.6,1.5-1.5C154.2,32.2,156.2,32.2,158.2,32.2z"/>
</svg>
