<?xml version="1.0" encoding="utf-8"?>
<!-- Generator: Adobe Illustrator 27.0.0, SVG Export Plug-In . SVG Version: 6.00 Build 0)  -->
<svg version="1.1" id="Layer_1" xmlns="http://www.w3.org/2000/svg" xmlns:xlink="http://www.w3.org/1999/xlink" x="0px" y="0px"
	 viewBox="0 0 506.3 115.9" style="enable-background:new 0 0 506.3 115.9;" xml:space="preserve">
<style type="text/css">
	.st0{fill:#00ADEC;}
	.st1{fill:#FFFFFF;}
</style>
<path class="st0" d="M181.4,115.8H9.3c-4.6,0-8.3-3.7-8.3-8.3V39.1c0-4.6,3.7-8.3,8.3-8.3h172.1c4.6,0,8.3,3.7,8.3,8.3v68.4
	C189.6,112.1,185.9,115.8,181.4,115.8z"/>
<g>
	<path class="st1" d="M32.3,88.3h14.2v6.8H23.6v-43h8.6V88.3z"/>
	<path class="st1" d="M83.4,80.7h-25c0.2,2.5,1.1,4.4,2.6,5.8c1.5,1.4,3.4,2.1,5.6,2.1c3.2,0,5.5-1.4,6.8-4.1h9.3
		c-1,3.3-2.9,6-5.7,8.1c-2.8,2.1-6.2,3.2-10.3,3.2c-3.3,0-6.2-0.7-8.8-2.2c-2.6-1.5-4.6-3.5-6.1-6.2c-1.5-2.7-2.2-5.8-2.2-9.2
		c0-3.5,0.7-6.6,2.2-9.3c1.4-2.7,3.5-4.7,6-6.2c2.6-1.4,5.6-2.2,8.9-2.2c3.2,0,6.2,0.7,8.7,2.1c2.6,1.4,4.6,3.4,6,5.9
		c1.4,2.6,2.1,5.5,2.1,8.8C83.7,78.6,83.6,79.7,83.4,80.7z M74.7,74.9c0-2.2-0.8-4-2.4-5.3c-1.6-1.3-3.5-2-5.7-2
		c-2.1,0-3.9,0.6-5.4,1.9c-1.5,1.3-2.4,3.1-2.7,5.4H74.7z"/>
	<path class="st1" d="M89.8,68.8c1.4-2.7,3.2-4.7,5.6-6.2c2.4-1.4,5-2.2,7.9-2.2c2.5,0,4.8,0.5,6.7,1.5c1.9,1,3.4,2.3,4.6,3.9V61
		h8.7v34.1h-8.7v-5c-1.1,1.6-2.6,2.9-4.6,4c-2,1-4.2,1.6-6.7,1.6c-2.9,0-5.5-0.7-7.9-2.2C93,92,91.2,90,89.8,87.3
		c-1.4-2.7-2.1-5.8-2.1-9.3C87.7,74.5,88.4,71.5,89.8,68.8z M113.4,72.7c-0.8-1.5-1.9-2.6-3.3-3.5c-1.4-0.8-2.9-1.2-4.5-1.2
		c-1.6,0-3.1,0.4-4.4,1.2c-1.4,0.8-2.5,1.9-3.3,3.4c-0.8,1.5-1.3,3.3-1.3,5.3c0,2.1,0.4,3.9,1.3,5.4c0.8,1.5,2,2.7,3.3,3.5
		c1.4,0.8,2.8,1.2,4.4,1.2c1.6,0,3.1-0.4,4.5-1.2c1.4-0.8,2.5-2,3.3-3.5c0.8-1.5,1.2-3.3,1.2-5.4S114.2,74.2,113.4,72.7z"/>
	<path class="st1" d="M131.6,68.8c1.4-2.7,3.3-4.7,5.6-6.2s5-2.2,8-2.2c2.2,0,4.3,0.5,6.3,1.4c2,1,3.6,2.2,4.8,3.9V49.6h8.8v45.6
		h-8.8v-5.1c-1.1,1.7-2.6,3-4.5,4.1c-1.9,1-4.2,1.5-6.7,1.5c-2.9,0-5.5-0.7-7.9-2.2c-2.4-1.5-4.3-3.6-5.6-6.3
		c-1.4-2.7-2.1-5.8-2.1-9.3C129.5,74.5,130.2,71.5,131.6,68.8z M155.2,72.7c-0.8-1.5-1.9-2.6-3.3-3.5c-1.4-0.8-2.9-1.2-4.5-1.2
		c-1.6,0-3.1,0.4-4.4,1.2c-1.4,0.8-2.5,1.9-3.3,3.4s-1.3,3.3-1.3,5.3c0,2.1,0.4,3.9,1.3,5.4c0.8,1.5,2,2.7,3.3,3.5
		c1.4,0.8,2.8,1.2,4.4,1.2c1.6,0,3.1-0.4,4.5-1.2c1.4-0.8,2.5-2,3.3-3.5c0.8-1.5,1.2-3.3,1.2-5.4S156,74.2,155.2,72.7z"/>
</g>
<path class="st1" d="M232.2,52.1c3.2-2,6.9-3,11.1-3c3.4,0,6.4,0.6,9.1,1.9c2.7,1.3,5.3,3.2,7.7,5.8c2.6,2.8,5.3,3.4,7.1,3.4
	c1.8,0,3.5-0.5,5.1-1.6c3.4-2.4,4.2-5.4,4.2-7.4c0-2.1-0.7-4.1-2.1-5.7c-7.9-9.7-18.4-14.7-31.1-14.7c-7.6,0-14.6,1.9-20.7,5.5
	c-6.1,3.7-11,8.8-14.4,15.3c-3.4,6.4-5.2,13.7-5.2,21.7c0,7.8,1.8,15,5.4,21.5c3.6,6.4,8.6,11.6,14.9,15.3
	c6.3,3.7,13.5,5.6,21.3,5.6c11.1,0,20.5-3.5,27.8-10.3c1.8-1.7,2.8-3.8,2.8-6.2c0-1.8-0.6-4.6-3.4-7l-0.1-0.1c-1.7-1.3-3.7-2-5.7-2
	c-2.3,0-4.5,0.9-6.6,2.6c-3.7,3.2-8.5,4.8-14.8,4.8c-4.5,0-8.4-1-11.8-3.1c-3.4-2.1-6-4.8-8-8.5c-1.9-3.7-2.9-7.9-2.9-12.5
	c0-4.8,0.9-9.1,2.8-12.8C226.5,56.9,228.9,54.1,232.2,52.1z"/>
<path class="st1" d="M342,36c-5.8-3.1-12.3-4.6-19.5-4.6c-5.6,0-10.9,1.1-15.7,3.2c-1.7,0.8-3.3,1.6-4.8,2.6V9.9
	c0-2.7-0.9-5-2.6-6.8c-1.8-1.9-4.2-2.8-6.9-2.8c-2.7,0-5.1,1-6.9,2.8c-1.8,1.8-2.8,4.2-2.8,6.9v96.2c0,2.7,1,5.1,2.8,6.9
	c1.8,1.7,4.2,2.6,6.8,2.6c2.7,0,5.1-0.9,6.8-2.7c1.8-1.8,2.7-4.1,2.7-6.8V65.7c0-2.9,0.8-5.4,2.4-7.7c1.7-2.4,3.9-4.3,6.8-5.7
	c3-1.4,6.4-2.2,10.2-2.2c6.2,0,11,1.7,14.7,5.2c3.6,3.4,5.4,8.4,5.4,15.3v35.5c0,2.6,1,5,2.8,6.8c1.8,1.8,4.2,2.8,6.9,2.8
	c2.6,0,4.9-1,6.8-2.8c1.8-1.8,2.8-4.2,2.8-6.8V70.6c0-8-1.7-15-4.9-20.9C352.5,43.8,347.9,39.2,342,36z"/>
<path class="st1" d="M503.2,99.4L503.2,99.4c-1.7-1.9-4.1-2.9-6.8-2.9h-3.7c-3.1,0-5.4-1-7.3-3c-2-2.1-2.9-4.9-2.9-8.5V52.8h11.1
	c3.3,0,5.4-1.4,6.6-2.6c1.7-1.7,2.6-3.9,2.6-6.3c0-2.5-0.9-4.7-2.6-6.4c-1.2-1.2-3.3-2.6-6.6-2.6h-11.1V18.1c0-2.7-1-5.1-2.8-6.9
	c-1.8-1.8-4.2-2.8-6.9-2.8c-2.7,0-5.1,1-6.9,2.9c-1.7,1.8-2.6,4.2-2.6,6.8V35h-4.5c-3.3,0-5.4,1.4-6.6,2.6c-1.7,1.7-2.6,3.9-2.6,6.4
	c0,2.4,0.9,4.6,2.6,6.3c1.2,1.2,3.3,2.6,6.6,2.6h4.5V85c0,5.7,1.3,10.9,3.7,15.5c2.5,4.6,6,8.4,10.5,11.1c4.5,2.7,9.6,4.1,15.2,4.1
	h2.9c2.7,0,5.2-0.9,7-2.6c2-1.8,3.1-4.2,3.1-6.9C505.7,103.5,504.8,101.2,503.2,99.4z"/>
<path class="st1" d="M447.4,51.8c-3.7-6.5-8.8-11.6-15.3-15.3l0,0c-6.4-3.7-13.7-5.6-21.5-5.6c-7.8,0-15.1,1.9-21.5,5.6
	c-0.4,0.2-0.7,0.4-1,0.6c-0.1,0.1-0.3,0.2-0.4,0.3c-0.4,0.2-0.8,0.5-1.2,0.7c-11.4,7.6-18.8,20.5-18.8,35.1c0,8.9,2.8,17.1,7.4,23.9
	c3.5,5.4,8,9.7,13.4,13c6.3,3.7,13.3,5.6,21,5.6c6.6,0,12.7-1.4,18.2-4.2c0.5-0.3,1-0.6,1.5-0.9c1.6-0.8,3.1-1.8,4.6-2.8
	c0.4,1.8,1.3,4,2.6,5.2c1.8,1.7,4.2,2.6,6.8,2.6c2.7,0,5.1-1,6.9-2.8c1.8-1.8,2.8-4.2,2.8-6.8V73.4C452.9,65.5,451,58.3,447.4,51.8z
	 M409.8,97.9c-3.4,0-6.6-0.7-9.6-1.9l-7.9,3.7l1.4-7.7c-5.3-4.5-8.6-11.2-8.6-18.7c0-13.6,11.1-24.7,24.7-24.7
	c13.6,0,24.7,11.1,24.7,24.7C434.4,86.9,423.4,97.9,409.8,97.9z"/>
<g>
	<circle class="st0" cx="398.1" cy="73.2" r="4.8"/>
	<circle class="st0" cx="409.8" cy="73.2" r="4.8"/>
	<circle class="st0" cx="421.4" cy="73.2" r="4.8"/>
</g>
</svg>
