<?xml version="1.0" encoding="utf-8"?>
<!-- Generator: Adobe Illustrator 27.0.0, SVG Export Plug-In . SVG Version: 6.00 Build 0)  -->
<svg version="1.1" id="Layer_1" xmlns="http://www.w3.org/2000/svg" xmlns:xlink="http://www.w3.org/1999/xlink" x="0px" y="0px"
	 viewBox="0 0 502.2 115.9" style="enable-background:new 0 0 502.2 115.9;" xml:space="preserve">
<style type="text/css">
	.st0{fill:#662D91;}
	.st1{fill:#00ADEC;}
	.st2{fill:#FFFFFF;}
</style>
<g>
	<path class="st0" d="M443.8,52c-3.7-6.4-8.8-11.5-15.1-15.2l0,0c-6.4-3.7-13.5-5.5-21.3-5.5c-7.8,0-14.9,1.9-21.3,5.5
		c-0.4,0.2-0.7,0.4-1,0.6c-0.1,0.1-0.3,0.2-0.4,0.3c-0.4,0.2-0.8,0.5-1.2,0.7c-11.3,7.5-18.7,20.3-18.7,34.8c0,8.8,2.7,17,7.4,23.7
		c3.4,5.3,7.9,9.6,13.3,12.9c6.2,3.7,13.2,5.5,20.8,5.5c6.5,0,12.6-1.4,18.1-4.2c0.5-0.3,1-0.6,1.5-0.8c1.6-0.8,3.1-1.8,4.6-2.8
		c0.4,1.8,1.3,4,2.6,5.2c1.8,1.7,4.1,2.6,6.8,2.6c2.7,0,5-1,6.8-2.8c1.8-1.8,2.8-4.1,2.8-6.7V73.4C449.3,65.6,447.4,58.4,443.8,52z"
		/>
	<path class="st1" d="M179.9,115.4H9.4c-4.6,0-8.3-3.7-8.3-8.3V39.5c0-4.6,3.7-8.3,8.3-8.3h170.5c4.6,0,8.3,3.7,8.3,8.3v67.7
		C188.2,111.7,184.5,115.4,179.9,115.4z"/>
	<g>
		<path class="st2" d="M32.2,88.3h14.1V95H23.6V52.4h8.6V88.3z"/>
		<path class="st2" d="M82.9,80.7H58.1c0.2,2.4,1.1,4.4,2.6,5.7c1.5,1.4,3.4,2.1,5.6,2.1c3.2,0,5.4-1.4,6.8-4.1h9.2
			c-1,3.3-2.9,5.9-5.6,8c-2.8,2.1-6.2,3.1-10.2,3.1c-3.3,0-6.2-0.7-8.8-2.2c-2.6-1.4-4.6-3.5-6-6.1c-1.4-2.6-2.2-5.7-2.2-9.2
			c0-3.5,0.7-6.6,2.1-9.2c1.4-2.6,3.4-4.7,6-6.1c2.6-1.4,5.5-2.1,8.9-2.1c3.2,0,6.1,0.7,8.6,2.1c2.5,1.4,4.5,3.4,5.9,5.9
			c1.4,2.5,2.1,5.5,2.1,8.8C83.1,78.6,83,79.7,82.9,80.7z M74.3,74.9c0-2.2-0.8-4-2.4-5.3c-1.5-1.3-3.4-2-5.7-2
			c-2.1,0-3.9,0.6-5.3,1.9c-1.4,1.3-2.3,3.1-2.7,5.3H74.3z"/>
		<path class="st2" d="M89.2,68.9c1.4-2.6,3.2-4.7,5.6-6.1c2.3-1.4,5-2.1,7.9-2.1c2.5,0,4.7,0.5,6.6,1.5c1.9,1,3.4,2.3,4.6,3.8v-4.8
			h8.6V95h-8.6v-4.9c-1.1,1.6-2.6,2.9-4.6,3.9c-1.9,1-4.2,1.6-6.7,1.6c-2.9,0-5.4-0.7-7.8-2.2c-2.3-1.5-4.2-3.5-5.6-6.2
			c-1.4-2.7-2-5.7-2-9.2C87.2,74.6,87.8,71.5,89.2,68.9z M112.6,72.8c-0.8-1.5-1.9-2.6-3.3-3.4c-1.4-0.8-2.9-1.2-4.5-1.2
			c-1.6,0-3.1,0.4-4.4,1.2c-1.3,0.8-2.4,1.9-3.3,3.4c-0.8,1.5-1.3,3.2-1.3,5.3c0,2,0.4,3.8,1.3,5.3c0.8,1.5,1.9,2.7,3.3,3.5
			c1.4,0.8,2.8,1.2,4.4,1.2c1.6,0,3.1-0.4,4.5-1.2c1.4-0.8,2.5-1.9,3.3-3.4c0.8-1.5,1.2-3.3,1.2-5.3C113.8,76,113.4,74.3,112.6,72.8
			z"/>
		<path class="st2" d="M130.6,68.9c1.4-2.6,3.2-4.7,5.6-6.1c2.4-1.4,5-2.1,7.9-2.1c2.2,0,4.3,0.5,6.3,1.4c2,1,3.6,2.2,4.8,3.8V49.8
			h8.7V95h-8.7v-5c-1.1,1.7-2.5,3-4.5,4c-1.9,1-4.1,1.5-6.7,1.5c-2.9,0-5.5-0.7-7.8-2.2c-2.4-1.5-4.2-3.5-5.6-6.2
			c-1.4-2.7-2-5.7-2-9.2C128.6,74.6,129.3,71.5,130.6,68.9z M154,72.8c-0.8-1.5-1.9-2.6-3.3-3.4c-1.4-0.8-2.9-1.2-4.5-1.2
			c-1.6,0-3.1,0.4-4.4,1.2c-1.3,0.8-2.4,1.9-3.3,3.4c-0.8,1.5-1.3,3.2-1.3,5.3c0,2,0.4,3.8,1.3,5.3c0.8,1.5,1.9,2.7,3.3,3.5
			c1.4,0.8,2.8,1.2,4.4,1.2c1.6,0,3.1-0.4,4.5-1.2c1.4-0.8,2.5-1.9,3.3-3.4c0.8-1.5,1.2-3.3,1.2-5.3C155.2,76,154.8,74.3,154,72.8z"
			/>
	</g>
	<path class="st0" d="M230.4,52.3c3.2-2,6.8-3,11-3c3.3,0,6.4,0.6,9,1.8c2.7,1.2,5.2,3.2,7.6,5.7c2.6,2.8,5.3,3.4,7.1,3.4
		c1.8,0,3.4-0.5,5.1-1.6c3.4-2.4,4.1-5.3,4.1-7.3c0-2.1-0.7-4-2.1-5.6c-7.9-9.6-18.2-14.5-30.8-14.5c-7.5,0-14.4,1.8-20.5,5.5
		c-6.1,3.6-10.9,8.7-14.3,15.1c-3.4,6.3-5.1,13.6-5.1,21.5c0,7.8,1.8,14.9,5.4,21.3c3.6,6.4,8.5,11.5,14.8,15.2
		c6.2,3.7,13.4,5.5,21.2,5.5c11,0,20.3-3.4,27.5-10.2c1.8-1.6,2.8-3.8,2.8-6.2c0-1.8-0.6-4.5-3.4-6.9l-0.1-0.1c-1.7-1.3-3.6-2-5.7-2
		c-2.3,0-4.5,0.8-6.5,2.6c-3.6,3.2-8.4,4.8-14.6,4.8c-4.5,0-8.3-1-11.7-3c-3.4-2-6-4.8-7.9-8.4c-1.9-3.6-2.9-7.8-2.9-12.4
		c0-4.7,0.9-9,2.7-12.7C224.7,57,227.2,54.3,230.4,52.3z"/>
	<path class="st0" d="M339.3,36.4c-5.7-3-12.2-4.6-19.3-4.6c-5.6,0-10.8,1.1-15.6,3.2c-1.7,0.7-3.3,1.6-4.8,2.6V10.5
		c0-2.6-0.9-5-2.6-6.8c-1.8-1.8-4.1-2.8-6.8-2.8c-2.7,0-5,1-6.8,2.8c-1.8,1.8-2.8,4.2-2.8,6.8v95.4c0,2.7,1,5.1,2.8,6.8
		c1.8,1.7,4.1,2.6,6.8,2.6c2.7,0,5-0.9,6.8-2.7c1.8-1.8,2.7-4.1,2.7-6.8V65.8c0-2.8,0.8-5.3,2.4-7.7c1.7-2.4,3.9-4.3,6.8-5.7
		c3-1.4,6.4-2.1,10.1-2.1c6.1,0,10.9,1.7,14.6,5.1c3.6,3.4,5.3,8.4,5.3,15.2v35.2c0,2.6,1,4.9,2.8,6.7c1.8,1.8,4.2,2.8,6.8,2.8
		c2.6,0,4.9-1,6.7-2.8c1.8-1.8,2.8-4.1,2.8-6.7V70.7c0-7.9-1.6-14.9-4.9-20.7C349.7,44,345.1,39.5,339.3,36.4z"/>
	<path class="st0" d="M499.1,99.2L499.1,99.2c-1.7-1.9-4.1-2.9-6.7-2.9h-3.7c-3.1,0-5.4-1-7.3-3c-2-2.1-2.9-4.9-2.9-8.4V53h11
		c3.3,0,5.3-1.4,6.5-2.6c1.7-1.7,2.6-3.8,2.6-6.2c0-2.5-0.9-4.7-2.6-6.4c-1.2-1.2-3.2-2.5-6.5-2.5h-11V18.7c0-2.7-1-5-2.8-6.8
		c-1.8-1.8-4.2-2.8-6.8-2.8c-2.7,0-5.1,1-6.8,2.8c-1.7,1.8-2.6,4.1-2.6,6.8v16.7H455c-3.3,0-5.3,1.4-6.5,2.5
		c-1.7,1.7-2.6,3.9-2.6,6.4c0,2.4,0.9,4.6,2.5,6.2c1.2,1.2,3.2,2.6,6.5,2.6h4.5v31.9c0,5.7,1.2,10.8,3.7,15.4c2.5,4.6,6,8.3,10.4,11
		c4.5,2.7,9.5,4.1,15.1,4.1h2.8c2.7,0,5.1-0.9,7-2.6c2-1.8,3-4.2,3-6.8C501.6,103.3,500.7,101,499.1,99.2z"/>
	<path class="st2" d="M406.5,48.8c-13.5,0-24.5,11-24.5,24.5c0,7.4,3.3,14.1,8.5,18.6l-1.4,7.7l7.8-3.7c2.9,1.2,6.1,1.9,9.5,1.9
		c13.5,0,24.5-11,24.5-24.5C430.9,59.7,420,48.8,406.5,48.8z"/>
	<g>
		<circle class="st1" cx="394.9" cy="73.3" r="4.8"/>
		<circle class="st1" cx="406.5" cy="73.3" r="4.8"/>
		<circle class="st1" cx="418.1" cy="73.3" r="4.8"/>
	</g>
</g>
</svg>
