<?xml version="1.0" encoding="utf-8"?>
<!-- Generator: Adobe Illustrator 27.5.0, SVG Export Plug-In . SVG Version: 6.00 Build 0)  -->
<svg version="1.1" id="Layer_1" xmlns="http://www.w3.org/2000/svg" xmlns:xlink="http://www.w3.org/1999/xlink" x="0px" y="0px"
	 viewBox="0 0 300 73.7" style="enable-background:new 0 0 300 73.7;" xml:space="preserve">
<style type="text/css">
	.st0{fill:#0043FF;}
	.st1{fill:#0094FF;}
	.st2{fill:#FFFFFF;}
	.st3{fill:#662D91;}
	.st4{fill:#8F4ABC;}
	.st5{fill:#24A4B5;}
	.st6{fill:#00C4CE;}
	.st7{fill:#007BEA;}
	.st8{fill:#00AEED;}
</style>
<g>
	<path class="st0" d="M649,68.9h-39.8c-2.1,0-3.8-1.7-3.8-3.8V25.3c0-2.1,1.7-3.8,3.8-3.8H649c2.1,0,3.8,1.7,3.8,3.8v39.8
		C652.9,67.2,651.2,68.9,649,68.9z"/>
	<g>
		<g>
			<path class="st1" d="M544.1,33.7c3.4,0,6.1-2.7,6.1-6.1c0-3.4-2.7-6.1-6.1-6.1h-12.8V10.9c0-3.4-2.7-6.1-6.1-6.1
				c-3.4,0-6.1,2.7-6.1,6.1v36.3c0,12.4,8.6,21.6,20,21.6h5c3.4,0,6.1-2.7,6.1-6.1c0-3.4-2.7-6.1-6.1-6.1h-5c-6.1,0-7.8-5.9-7.8-9.4
				V33.7H544.1z"/>
			<path class="st1" d="M402.1,21.4c-5.1,0-9.7,2-13.1,5.2c-3.5-3.2-8.1-5.2-13.2-5.2c-10.7,0-19.3,8.7-19.3,19.3v21.9
				c0,3.4,2.7,6.1,6.1,6.1c3.4,0,6.1-2.7,6.1-6.1V40.7c0-3.9,3.1-7.1,7.1-7.1s7.1,3.1,7.1,7.1v21.9c0,3.4,2.7,6.1,6.1,6.1
				c3.4,0,6.1-2.7,6.2-6.1V40.7c0-0.1,0-0.3,0-0.4c0.2-3.7,3.2-6.7,7-6.7c3.9,0,7.1,3.1,7.1,7.1v21.9c0,3.4,2.7,6.1,6.1,6.1
				c3.4,0,6.1-2.7,6.1-6.1V40.7C421.4,30.1,412.7,21.4,402.1,21.4z"/>
			<path class="st1" d="M587.2,47.9c-0.9-1.6-2.2-2.9-3.7-4c-1.5-1-3-1.9-4.8-2.5c-1.6-0.6-3.2-1.2-4.8-1.6
				c-1.3-0.4-2.6-0.8-3.8-1.2c-1.1-0.3-2.1-0.8-2.9-1.2c-0.6-0.3-1.2-0.8-1.5-1.2c-0.2-0.2-0.3-0.5-0.3-0.8v-0.1
				c0-0.9,0.3-1.5,1.1-2.2c0.9-0.8,2.3-1.1,4.1-1.1c1.7,0,3.4,0.3,5.2,0.9c0.8,0.3,1.6,0.6,2.4,1c0.6,0.2,1.3,0.4,2,0.4
				c2.9,0,5.2-2.3,5.2-5.2c0-1.9-1-3.6-2.5-4.5c-0.1-0.1-0.1-0.1-0.1-0.1c-0.1,0-0.1-0.1-0.1-0.1c-0.3-0.2-0.6-0.3-0.9-0.4
				c-0.9-0.3-1.8-0.7-2.7-1c-2.8-0.9-5.7-1.3-8.4-1.3c-2.3,0-4.4,0.3-6.4,0.9c-2,0.6-3.8,1.6-5.2,2.9c-1.5,1.3-2.7,2.8-3.6,4.6
				c-0.8,1.8-1.3,3.7-1.3,5.9V36c0,2.4,0.5,4.4,1.6,6.1c1,1.6,2.3,2.9,3.9,3.9c1.5,0.9,3.1,1.7,4.9,2.4c1.6,0.6,3.3,1.1,4.9,1.6
				c1.3,0.3,2.5,0.8,3.7,1.1c1,0.3,2,0.8,2.8,1.2c0.6,0.3,1.1,0.8,1.5,1.2c0.1,0.2,0.3,0.5,0.3,1v0.2c0,1.2-0.4,1.9-1.3,2.6
				c-1.1,0.8-2.6,1.2-4.5,1.2c-2.1,0-4.2-0.4-6.2-1.2c-1.7-0.6-3.4-1.6-5.1-2.7c-0.8-0.5-1.7-0.7-2.6-0.7c-2.9,0-5.3,2.4-5.3,5.3
				c0,1.6,0.8,3.1,1.9,4.1v0.1c0.1,0.1,0.2,0.1,0.2,0.2c0.2,0.1,0.3,0.2,0.5,0.3c2,1.3,4.2,2.4,6.6,3.3c3.3,1.2,6.5,1.7,9.7,1.7
				c2.3,0,4.5-0.3,6.5-0.9c2-0.6,3.9-1.6,5.4-2.9c1.6-1.3,2.8-2.9,3.7-4.7c0.9-1.9,1.4-4,1.4-6.3V54
				C588.7,51.5,588.3,49.5,587.2,47.9z"/>
			<path class="st1" d="M465.7,32.3c-1-1.6-2.2-3.1-3.6-4.4c-1.4-1.3-2.9-2.5-4.5-3.4c-1.6-1-3.4-1.7-5.3-2.2
				c-1.9-0.5-3.8-0.8-5.8-0.8c-2.2,0-4.3,0.3-6.2,0.9c-2,0.6-3.8,1.4-5.5,2.4c-1.7,1-3.2,2.3-4.5,3.7c-1.3,1.5-2.5,3-3.4,4.8
				c-0.9,1.7-1.7,3.6-2.2,5.6c-0.5,2-0.8,4-0.8,6.2c0,3.4,0.6,6.5,1.9,9.4c1.3,2.9,3,5.4,5.2,7.5c2.2,2.2,4.8,3.8,7.8,5
				c2.9,1.2,6.1,1.8,9.3,1.8c3,0,5.8-0.5,8.4-1.6c2.6-1.1,5-2.6,7.2-4.5c0.3-0.3,0.6-0.6,0.9-1c0,0,0,0,0-0.1
				c0.8-0.9,1.3-2.2,1.3-3.5c0-3-2.4-5.5-5.5-5.5c-1.4,0-2.7,0.5-3.6,1.4c-0.1,0.1-0.1,0.1-0.1,0.1c-0.5,0.4-1,0.8-1.7,1.2
				c-0.7,0.4-1.5,0.8-2.3,1c-0.9,0.3-1.7,0.5-2.7,0.7c-0.9,0.2-1.8,0.3-2.7,0.3c-1,0-2-0.1-3.1-0.4c-1.1-0.3-2.1-0.7-3.1-1.3
				c-1-0.6-1.8-1.5-2.6-2.4c-0.8-1-1.2-2.3-1.5-3.8h26c1.5,0,2.7-0.1,3.4-0.3c0.8-0.2,1.3-0.5,1.7-1s0.5-1.1,0.6-1.9
				c0.1-0.8,0.1-1.8,0.1-3.1c0.1-1.9-0.2-3.7-0.8-5.5C467.4,35.7,466.7,34,465.7,32.3z M437.5,39c0.4-0.8,0.9-1.6,1.5-2.4
				c0.6-0.8,1.3-1.5,2.1-2.2c0.8-0.6,1.6-1.1,2.4-1.5c0.9-0.3,1.8-0.6,2.7-0.6c1.3,0,2.4,0.2,3.4,0.5s1.9,0.8,2.6,1.4
				c0.8,0.6,1.5,1.3,2,2.1c0.6,0.8,1.2,1.6,1.6,2.6H437.5z"/>
			<path class="st1" d="M513.1,32.3c-1-1.6-2.2-3.1-3.6-4.4c-1.4-1.3-2.9-2.5-4.5-3.4c-1.6-1-3.4-1.7-5.3-2.2
				c-1.9-0.5-3.8-0.8-5.8-0.8c-2.2,0-4.3,0.3-6.2,0.9c-2,0.6-3.8,1.4-5.5,2.4c-1.7,1-3.2,2.3-4.5,3.7c-1.3,1.5-2.5,3-3.4,4.8
				c-0.9,1.7-1.7,3.6-2.2,5.6c-0.5,2-0.8,4-0.8,6.2c0,3.4,0.6,6.5,1.9,9.4c1.3,2.9,3,5.4,5.2,7.5c2.2,2.2,4.8,3.8,7.8,5
				c2.9,1.2,6.1,1.8,9.3,1.8c3,0,5.8-0.5,8.4-1.6c2.6-1.1,5-2.6,7.2-4.5c0.3-0.3,0.6-0.6,0.9-1c0,0,0,0,0-0.1
				c0.8-0.9,1.3-2.2,1.3-3.5c0-3-2.4-5.5-5.5-5.5c-1.4,0-2.7,0.5-3.6,1.4c-0.1,0.1-0.1,0.1-0.1,0.1c-0.5,0.4-1,0.8-1.7,1.2
				c-0.7,0.4-1.5,0.8-2.3,1c-0.9,0.3-1.7,0.5-2.7,0.7c-0.9,0.2-1.8,0.3-2.7,0.3c-1,0-2-0.1-3.1-0.4c-1.1-0.3-2.1-0.7-3.1-1.3
				c-1-0.6-1.8-1.5-2.6-2.4c-0.8-1-1.2-2.3-1.5-3.8h26c1.5,0,2.7-0.1,3.4-0.3c0.8-0.2,1.3-0.5,1.7-1c0.3-0.5,0.5-1.1,0.6-1.9
				c0.1-0.8,0.1-1.8,0.1-3.1c0.1-1.9-0.2-3.7-0.8-5.5C514.8,35.7,514.1,34,513.1,32.3z M484.9,39c0.4-0.8,0.9-1.6,1.5-2.4
				c0.6-0.8,1.3-1.5,2.1-2.2c0.8-0.6,1.6-1.1,2.4-1.5c0.9-0.3,1.8-0.6,2.7-0.6c1.3,0,2.4,0.2,3.4,0.5s1.9,0.8,2.6,1.4
				c0.8,0.6,1.5,1.3,2,2.1c0.6,0.8,1.2,1.6,1.6,2.6H484.9z"/>
		</g>
		<g>
			<path class="st1" d="M595.8,21.7l-1.7-3h-0.7v3h-1.5v-7.7h2.9c0.6,0,1.1,0.1,1.5,0.3c0.4,0.2,0.7,0.5,0.9,0.9
				c0.2,0.4,0.3,0.8,0.3,1.2c0,0.5-0.1,1-0.4,1.4c-0.3,0.4-0.7,0.7-1.3,0.8l1.8,3.1H595.8z M593.4,17.5h1.3c0.4,0,0.7-0.1,0.9-0.3
				c0.2-0.2,0.3-0.5,0.3-0.8c0-0.4-0.1-0.6-0.3-0.8c-0.2-0.2-0.5-0.3-0.9-0.3h-1.3V17.5z"/>
		</g>
		<g>
			<path class="st1" d="M594.4,25.7c-4.4,0-7.9-3.6-7.9-7.9s3.6-7.9,7.9-7.9s7.9,3.6,7.9,7.9S598.7,25.7,594.4,25.7z M594.4,11.1
				c-3.7,0-6.7,3-6.7,6.7s3,6.7,6.7,6.7c3.7,0,6.7-3,6.7-6.7S598.1,11.1,594.4,11.1z"/>
		</g>
	</g>
	<g>
		<path class="st2" d="M616.4,55h2.3V41.8h-2.3v-2.3h5V55h2.3v2.3h-7.3V55z M617.9,34.6c0-0.6,0.2-1.1,0.5-1.5
			c0.3-0.3,0.8-0.5,1.4-0.5c0.6,0,1,0.2,1.4,0.5c0.4,0.4,0.5,0.8,0.5,1.4c0,0.6-0.2,1.1-0.5,1.4c-0.4,0.4-0.9,0.5-1.5,0.5
			c-0.6,0-1-0.2-1.4-0.5C618.1,35.6,617.9,35.2,617.9,34.6z"/>
		<path class="st2" d="M627.3,40.8c2.1-1.2,4.2-1.8,6.4-1.8c1.9,0,3.3,0.4,4.4,1.3c1,0.9,1.5,2.2,1.5,4.1V55h2.3v2.3h-4.7l-0.1-2.1
			l-0.1,0c-1.5,1.7-3.3,2.6-5.4,2.6c-1.6,0-2.8-0.5-3.8-1.4c-0.9-0.9-1.4-2.1-1.4-3.5c0-1.9,0.8-3.3,2.5-4.3
			c1.7-0.9,4.1-1.4,7.2-1.4h0.8v-2.7c0-1.1-0.3-1.9-0.8-2.4c-0.5-0.5-1.4-0.7-2.7-0.7c-1.5,0-2.7,0.2-3.7,0.7v2.5h-2.4V40.8z
			 M635.8,49.1c-2.1,0-3.7,0.3-4.8,0.8c-1.1,0.5-1.7,1.5-1.7,2.8c0,1,0.3,1.7,0.8,2.1c0.5,0.4,1.2,0.7,2.1,0.7
			c1.8,0,3.4-0.7,4.7-2.2v-4.1H635.8z"/>
	</g>
</g>
<g>
	<g>
		<path class="st3" d="M657.2,164.6h-58.6c-2.4,0-4.4-2-4.4-4.4v-34.8c0-2.4,2-4.4,4.4-4.4h58.6c2.4,0,4.4,2,4.4,4.4v34.8
			C661.5,162.6,659.6,164.6,657.2,164.6z"/>
		<circle class="st3" cx="627.9" cy="110.7" r="6.7"/>
		
			<rect x="626.6" y="113.5" transform="matrix(-1 -1.224647e-16 1.224647e-16 -1 1255.7124 245.7791)" class="st3" width="2.6" height="18.7"/>
	</g>
	<g>
		<g>
			<path class="st4" d="M537.8,132.2c3.1,0,5.6-2.5,5.6-5.6c0-3.1-2.5-5.6-5.6-5.6h-11.7v-9.6c0-3.1-2.5-5.6-5.6-5.6
				s-5.6,2.5-5.6,5.6v33.3c0,11.4,7.9,19.9,18.4,19.9h4.6c3.1,0,5.6-2.5,5.6-5.6c0-3.1-2.5-5.6-5.6-5.6h-4.6c-5.6,0-7.1-5.4-7.1-8.6
				v-12.4H537.8z"/>
			<path class="st4" d="M407.4,121c-4.7,0-8.9,1.8-12.1,4.8c-3.2-3-7.4-4.8-12.1-4.8c-9.8,0-17.7,8-17.7,17.7v20.1
				c0,3.1,2.5,5.6,5.6,5.6c3.1,0,5.6-2.5,5.6-5.6v-20.1c0-3.6,2.9-6.5,6.5-6.5c3.6,0,6.5,2.9,6.5,6.5v20.1c0,3.1,2.5,5.6,5.6,5.6
				c3.1,0,5.6-2.5,5.7-5.6v-20.1c0-0.1,0-0.2,0-0.4c0.2-3.4,3-6.1,6.4-6.1c3.6,0,6.5,2.9,6.5,6.5v20.1c0,3.1,2.5,5.6,5.6,5.6
				s5.6-2.5,5.6-5.6v-20.1C425.2,128.9,417.2,121,407.4,121z"/>
			<path class="st4" d="M577.4,145.2c-0.9-1.4-2-2.7-3.4-3.7c-1.3-0.9-2.8-1.7-4.4-2.3c-1.4-0.5-2.9-1.1-4.4-1.5
				c-1.2-0.4-2.4-0.7-3.5-1.1c-1-0.3-1.9-0.7-2.7-1.1c-0.6-0.3-1.1-0.7-1.4-1.1c-0.2-0.2-0.3-0.4-0.3-0.7v-0.1c0-0.8,0.3-1.4,1-2
				c0.9-0.7,2.1-1,3.7-1c1.6,0,3.2,0.3,4.8,0.9c0.7,0.3,1.5,0.5,2.2,0.9c0.6,0.2,1.2,0.4,1.9,0.4c2.7,0,4.8-2.1,4.8-4.8
				c0-1.8-0.9-3.3-2.3-4.1c-0.1-0.1-0.1-0.1-0.1-0.1c-0.1,0-0.1-0.1-0.1-0.1c-0.3-0.2-0.6-0.3-0.9-0.4c-0.8-0.3-1.7-0.6-2.5-0.9
				c-2.6-0.8-5.2-1.2-7.7-1.2c-2.1,0-4,0.3-5.8,0.9c-1.9,0.6-3.5,1.4-4.8,2.6c-1.4,1.2-2.5,2.6-3.3,4.2c-0.7,1.7-1.2,3.4-1.2,5.4
				v0.2c0,2.2,0.5,4.1,1.5,5.6c0.9,1.4,2.1,2.6,3.6,3.6c1.3,0.9,2.8,1.6,4.5,2.2c1.5,0.5,3,1,4.5,1.4c1.2,0.3,2.3,0.7,3.4,1
				c1,0.3,1.8,0.7,2.6,1.1c0.6,0.3,1,0.7,1.3,1.1c0.1,0.2,0.3,0.4,0.3,0.9v0.2c0,1.1-0.4,1.8-1.2,2.4c-1,0.7-2.4,1.1-4.1,1.1
				c-1.9,0-3.9-0.4-5.7-1.1c-1.6-0.6-3.2-1.4-4.7-2.5c-0.7-0.4-1.6-0.6-2.4-0.6c-2.7,0-4.9,2.2-4.9,4.9c0,1.5,0.7,2.9,1.8,3.7v0.1
				c0.1,0.1,0.2,0.1,0.2,0.2c0.2,0.1,0.3,0.2,0.4,0.3c1.8,1.2,3.9,2.2,6.1,3c3,1.1,6,1.6,8.9,1.6c2.1,0,4.1-0.3,5.9-0.9
				c1.9-0.6,3.6-1.5,5-2.6c1.4-1.2,2.6-2.6,3.4-4.3c0.9-1.7,1.3-3.6,1.3-5.8v-0.2C578.8,148.6,578.4,146.8,577.4,145.2z"/>
			<path class="st4" d="M465.9,131c-0.9-1.4-2-2.8-3.3-4.1c-1.3-1.2-2.6-2.3-4.2-3.2c-1.5-0.9-3.2-1.6-4.9-2
				c-1.7-0.5-3.5-0.7-5.4-0.7c-2,0-3.9,0.3-5.7,0.8c-1.8,0.5-3.5,1.3-5,2.2c-1.6,1-2.9,2.1-4.2,3.4c-1.2,1.3-2.3,2.8-3.2,4.4
				c-0.9,1.6-1.6,3.3-2,5.1c-0.5,1.8-0.7,3.7-0.7,5.7c0,3.1,0.6,6,1.8,8.7c1.2,2.7,2.8,5,4.8,6.9c2,2,4.4,3.5,7.1,4.6
				c2.7,1.1,5.6,1.7,8.6,1.7c2.7,0,5.3-0.5,7.7-1.5c2.4-1,4.6-2.4,6.6-4.2c0.3-0.3,0.6-0.6,0.9-0.9c0,0,0,0,0-0.1
				c0.7-0.9,1.2-2,1.2-3.2c0-2.8-2.2-5-5-5c-1.3,0-2.5,0.5-3.3,1.3c-0.1,0.1-0.1,0.1-0.1,0.1c-0.4,0.4-1,0.7-1.6,1.1s-1.4,0.7-2.1,1
				c-0.8,0.3-1.6,0.5-2.5,0.6c-0.9,0.2-1.7,0.3-2.5,0.3c-0.9,0-1.8-0.1-2.8-0.4c-1-0.3-1.9-0.6-2.8-1.2c-0.9-0.6-1.7-1.3-2.4-2.2
				c-0.7-0.9-1.1-2.1-1.3-3.5h23.9c1.4,0,2.5-0.1,3.2-0.3c0.7-0.2,1.2-0.5,1.6-0.9c0.3-0.4,0.5-1,0.5-1.8c0.1-0.7,0.1-1.7,0.1-2.8
				c0.1-1.7-0.2-3.4-0.7-5.1C467.5,134,466.8,132.5,465.9,131z M439.9,137.1c0.4-0.7,0.8-1.5,1.4-2.2c0.6-0.7,1.2-1.4,1.9-2
				c0.7-0.6,1.4-1,2.2-1.4c0.8-0.3,1.7-0.5,2.5-0.5c1.2,0,2.2,0.2,3.2,0.5c0.9,0.3,1.7,0.7,2.4,1.3c0.7,0.5,1.3,1.2,1.9,1.9
				c0.5,0.7,1.1,1.5,1.5,2.4H439.9z"/>
			<path class="st4" d="M509.4,131c-0.9-1.4-2-2.8-3.3-4.1c-1.3-1.2-2.6-2.3-4.2-3.2c-1.5-0.9-3.2-1.6-4.9-2
				c-1.7-0.5-3.5-0.7-5.4-0.7c-2,0-3.9,0.3-5.7,0.8c-1.8,0.5-3.5,1.3-5,2.2c-1.6,1-2.9,2.1-4.2,3.4c-1.2,1.3-2.3,2.8-3.2,4.4
				c-0.9,1.6-1.6,3.3-2,5.1c-0.5,1.8-0.7,3.7-0.7,5.7c0,3.1,0.6,6,1.8,8.7c1.2,2.7,2.8,5,4.8,6.9c2,2,4.4,3.5,7.1,4.6
				c2.7,1.1,5.6,1.7,8.6,1.7c2.7,0,5.3-0.5,7.7-1.5c2.4-1,4.6-2.4,6.6-4.2c0.3-0.3,0.6-0.6,0.9-0.9c0,0,0,0,0-0.1
				c0.7-0.9,1.2-2,1.2-3.2c0-2.8-2.2-5-5-5c-1.3,0-2.5,0.5-3.3,1.3c-0.1,0.1-0.1,0.1-0.1,0.1c-0.4,0.4-1,0.7-1.6,1.1
				c-0.6,0.4-1.4,0.7-2.1,1c-0.8,0.3-1.6,0.5-2.5,0.6c-0.9,0.2-1.7,0.3-2.5,0.3c-0.9,0-1.8-0.1-2.8-0.4c-1-0.3-1.9-0.6-2.8-1.2
				c-0.9-0.6-1.7-1.3-2.4-2.2c-0.7-0.9-1.1-2.1-1.3-3.5h23.9c1.4,0,2.5-0.1,3.2-0.3c0.7-0.2,1.2-0.5,1.6-0.9c0.3-0.4,0.5-1,0.5-1.8
				c0.1-0.7,0.1-1.7,0.1-2.8c0.1-1.7-0.2-3.4-0.7-5.1C511,134,510.3,132.5,509.4,131z M483.5,137.1c0.4-0.7,0.8-1.5,1.4-2.2
				c0.6-0.7,1.2-1.4,1.9-2c0.7-0.6,1.4-1,2.2-1.4c0.8-0.3,1.7-0.5,2.5-0.5c1.2,0,2.2,0.2,3.2,0.5c0.9,0.3,1.7,0.7,2.4,1.3
				c0.7,0.5,1.3,1.2,1.9,1.9c0.5,0.7,1.1,1.5,1.5,2.4H483.5z"/>
		</g>
		<g>
			<path class="st4" d="M585.4,121.2l-1.6-2.8h-0.7v2.8h-1.4v-7.1h2.7c0.5,0,1,0.1,1.4,0.3c0.4,0.2,0.7,0.5,0.9,0.8s0.3,0.7,0.3,1.1
				c0,0.5-0.1,0.9-0.4,1.3c-0.3,0.4-0.7,0.6-1.2,0.8l1.7,2.9H585.4z M583.1,117.3h1.2c0.4,0,0.7-0.1,0.9-0.3
				c0.2-0.2,0.3-0.4,0.3-0.8c0-0.3-0.1-0.6-0.3-0.8c-0.2-0.2-0.5-0.3-0.9-0.3h-1.2V117.3z"/>
		</g>
		<g>
			<path class="st4" d="M584,124.9c-4,0-7.3-3.3-7.3-7.3c0-4,3.3-7.3,7.3-7.3c4,0,7.3,3.3,7.3,7.3C591.3,121.6,588,124.9,584,124.9z
				 M584,111.4c-3.4,0-6.2,2.8-6.2,6.2s2.8,6.2,6.2,6.2c3.4,0,6.2-2.8,6.2-6.2S587.4,111.4,584,111.4z"/>
		</g>
	</g>
	<text transform="matrix(1 0 0 1 607.4899 151.8087)" class="st2" style="font-family:'Poppins-SemiBold'; font-size:24.2302px;">Bot</text>
</g>
<g>
	<g>
		<path class="st5" d="M629.8-27.5h-77.5c-2.6,0-4.8-2.1-4.8-4.8v-30.1c0-2.6,2.1-4.8,4.8-4.8h77.5c2.6,0,4.8,2.1,4.8,4.8v30.1
			C634.6-29.6,632.5-27.5,629.8-27.5z"/>
		<path class="st5" d="M607.3-17.7h-1.6v-17.8h17.8v1.6C623.5-25,616.3-17.7,607.3-17.7z"/>
	</g>
	<g>
		<g>
			<path class="st6" d="M496.3-56.9c2.8,0,5.1-2.3,5.1-5.1c0-2.8-2.3-5.1-5.1-5.1h-10.7v-8.8c0-2.8-2.3-5.1-5.1-5.1
				c-2.8,0-5.1,2.3-5.1,5.1v30.3c0,10.3,7.2,18.1,16.7,18.1h4.2c2.8,0,5.1-2.3,5.1-5.1c0-2.8-2.3-5.1-5.1-5.1h-4.2
				c-5.1,0-6.5-4.9-6.5-7.8v-11.3H496.3z"/>
			<path class="st6" d="M377.7-67.1c-4.3,0-8.1,1.7-11,4.4c-2.9-2.7-6.7-4.4-11-4.4c-8.9,0-16.1,7.3-16.1,16.1v18.3
				c0,2.8,2.2,5.1,5.1,5.1c2.8,0,5.1-2.3,5.1-5.1V-51c0-3.3,2.6-5.9,5.9-5.9s5.9,2.6,5.9,5.9v18.3c0,2.8,2.3,5.1,5.1,5.1
				c2.8,0,5.1-2.3,5.2-5.1V-51c0-0.1,0-0.2,0-0.3c0.2-3.1,2.7-5.6,5.9-5.6c3.3,0,5.9,2.6,5.9,5.9v18.3c0,2.8,2.3,5.1,5.1,5.1
				c2.8,0,5.1-2.3,5.1-5.1V-51C393.8-59.9,386.6-67.1,377.7-67.1z"/>
			<path class="st6" d="M532.4-45c-0.8-1.3-1.9-2.4-3.1-3.4c-1.2-0.8-2.5-1.6-4-2.1c-1.3-0.5-2.7-1-4-1.4c-1.1-0.3-2.2-0.7-3.2-1
				c-0.9-0.3-1.8-0.6-2.4-1c-0.5-0.3-1-0.6-1.3-1c-0.1-0.2-0.2-0.4-0.2-0.7v-0.1c0-0.7,0.3-1.3,0.9-1.8c0.8-0.6,1.9-0.9,3.4-0.9
				c1.4,0,2.9,0.2,4.4,0.8c0.7,0.2,1.4,0.5,2,0.8c0.5,0.2,1.1,0.3,1.7,0.3c2.4,0,4.4-1.9,4.4-4.4c0-1.6-0.8-3-2.1-3.8
				c0,0,0,0-0.1-0.1c0,0,0,0-0.1,0c-0.2-0.1-0.5-0.2-0.8-0.3c-0.7-0.3-1.5-0.6-2.3-0.8c-2.3-0.7-4.7-1.1-7-1.1
				c-1.9,0-3.7,0.2-5.3,0.8c-1.7,0.5-3.2,1.3-4.4,2.4c-1.3,1.1-2.3,2.3-3,3.8c-0.7,1.5-1.1,3.1-1.1,4.9v0.1c0,2,0.4,3.7,1.4,5.1
				c0.8,1.3,1.9,2.4,3.3,3.3c1.2,0.8,2.6,1.5,4.1,2c1.4,0.5,2.7,0.9,4.1,1.3c1.1,0.3,2.1,0.6,3.1,0.9c0.9,0.3,1.7,0.6,2.3,1
				c0.5,0.3,0.9,0.6,1.2,1c0.1,0.1,0.2,0.4,0.2,0.8v0.1c0,1-0.3,1.6-1.1,2.1c-0.9,0.7-2.2,1-3.8,1c-1.8,0-3.5-0.3-5.2-1
				c-1.5-0.5-2.9-1.3-4.2-2.2c-0.6-0.4-1.4-0.6-2.2-0.6c-2.4,0-4.4,2-4.4,4.4c0,1.4,0.6,2.6,1.6,3.4v0c0,0,0.1,0.1,0.2,0.1
				c0.1,0.1,0.2,0.2,0.4,0.2c1.7,1.1,3.5,2,5.5,2.7c2.7,1,5.5,1.5,8.1,1.5c1.9,0,3.8-0.2,5.4-0.8c1.7-0.5,3.3-1.4,4.5-2.4
				c1.3-1.1,2.3-2.4,3.1-3.9c0.8-1.6,1.2-3.3,1.2-5.3v-0.1C533.6-42,533.3-43.6,532.4-45z"/>
			<path class="st6" d="M430.8-58c-0.8-1.3-1.8-2.6-3-3.7c-1.2-1.1-2.4-2.1-3.8-2.9c-1.4-0.8-2.9-1.4-4.4-1.9
				c-1.6-0.4-3.2-0.7-4.9-0.7c-1.9,0-3.6,0.2-5.2,0.7c-1.7,0.5-3.2,1.2-4.6,2c-1.4,0.9-2.7,1.9-3.8,3.1c-1.1,1.2-2.1,2.5-2.9,4
				c-0.8,1.5-1.4,3-1.9,4.7c-0.4,1.7-0.6,3.4-0.6,5.2c0,2.8,0.5,5.5,1.6,7.9c1.1,2.4,2.5,4.5,4.4,6.3c1.9,1.8,4,3.2,6.5,4.2
				c2.4,1,5.1,1.5,7.8,1.5c2.5,0,4.8-0.4,7-1.4c2.2-0.9,4.2-2.2,6-3.8c0.3-0.3,0.5-0.5,0.8-0.8c0,0,0,0,0,0c0.7-0.8,1.1-1.8,1.1-2.9
				c0-2.5-2-4.6-4.6-4.6c-1.2,0-2.2,0.4-3,1.2c0,0-0.1,0-0.1,0.1c-0.4,0.3-0.9,0.7-1.5,1s-1.3,0.6-1.9,0.9c-0.7,0.2-1.5,0.4-2.2,0.6
				c-0.8,0.1-1.5,0.2-2.2,0.2c-0.8,0-1.7-0.1-2.6-0.3c-0.9-0.2-1.8-0.6-2.6-1.1c-0.8-0.5-1.5-1.2-2.1-2c-0.6-0.8-1-1.9-1.2-3.2h21.7
				c1.3,0,2.2-0.1,2.9-0.2c0.6-0.1,1.1-0.4,1.4-0.8s0.4-0.9,0.5-1.6c0-0.7,0-1.5,0-2.6c0-1.6-0.2-3.1-0.6-4.6
				C432.3-55.2,431.7-56.6,430.8-58z M407.3-52.4c0.3-0.7,0.7-1.4,1.3-2c0.5-0.7,1.1-1.3,1.8-1.8c0.6-0.5,1.3-0.9,2-1.3
				c0.7-0.3,1.5-0.5,2.3-0.5c1.1,0,2,0.1,2.9,0.4c0.8,0.3,1.6,0.7,2.2,1.2c0.6,0.5,1.2,1.1,1.7,1.8c0.5,0.7,1,1.4,1.4,2.2H407.3z"/>
			<path class="st6" d="M470.5-58c-0.8-1.3-1.8-2.6-3-3.7c-1.2-1.1-2.4-2.1-3.8-2.9c-1.4-0.8-2.9-1.4-4.4-1.9
				c-1.6-0.4-3.2-0.7-4.9-0.7c-1.9,0-3.6,0.2-5.2,0.7c-1.7,0.5-3.2,1.2-4.6,2c-1.4,0.9-2.7,1.9-3.8,3.1c-1.1,1.2-2.1,2.5-2.9,4
				c-0.8,1.5-1.4,3-1.9,4.7c-0.4,1.7-0.6,3.4-0.6,5.2c0,2.8,0.5,5.5,1.6,7.9c1.1,2.4,2.5,4.5,4.4,6.3c1.9,1.8,4,3.2,6.5,4.2
				c2.4,1,5.1,1.5,7.8,1.5c2.5,0,4.8-0.4,7-1.4c2.2-0.9,4.2-2.2,6-3.8c0.3-0.3,0.5-0.5,0.8-0.8c0,0,0,0,0,0c0.7-0.8,1.1-1.8,1.1-2.9
				c0-2.5-2-4.6-4.6-4.6c-1.2,0-2.2,0.4-3,1.2c0,0-0.1,0-0.1,0.1c-0.4,0.3-0.9,0.7-1.5,1s-1.3,0.6-1.9,0.9c-0.7,0.2-1.5,0.4-2.2,0.6
				c-0.8,0.1-1.5,0.2-2.2,0.2c-0.8,0-1.7-0.1-2.6-0.3c-0.9-0.2-1.8-0.6-2.6-1.1c-0.8-0.5-1.5-1.2-2.1-2c-0.6-0.8-1-1.9-1.2-3.2h21.7
				c1.3,0,2.2-0.1,2.9-0.2c0.6-0.1,1.1-0.4,1.4-0.8s0.4-0.9,0.5-1.6c0-0.7,0-1.5,0-2.6c0-1.6-0.1-3.1-0.6-4.6
				C471.9-55.2,471.3-56.6,470.5-58z M446.9-52.4c0.3-0.7,0.7-1.4,1.3-2c0.5-0.7,1.1-1.3,1.8-1.8c0.6-0.5,1.3-0.9,2-1.3
				c0.7-0.3,1.5-0.5,2.3-0.5c1.1,0,2,0.1,2.9,0.4c0.8,0.3,1.6,0.7,2.2,1.2c0.6,0.5,1.2,1.1,1.7,1.8c0.5,0.7,1,1.4,1.4,2.2H446.9z"/>
		</g>
		<g>
			<path class="st6" d="M539.6-66.9l-1.4-2.5h-0.6v2.5h-1.3v-6.5h2.4c0.5,0,0.9,0.1,1.3,0.3c0.4,0.2,0.6,0.4,0.8,0.7
				c0.2,0.3,0.3,0.6,0.3,1c0,0.4-0.1,0.8-0.4,1.2c-0.2,0.3-0.6,0.6-1.1,0.7l1.5,2.6H539.6z M537.5-70.4h1.1c0.4,0,0.6-0.1,0.8-0.3
				c0.2-0.2,0.3-0.4,0.3-0.7c0-0.3-0.1-0.5-0.3-0.7c-0.2-0.2-0.4-0.2-0.8-0.2h-1.1V-70.4z"/>
		</g>
		<g>
			<path class="st6" d="M538.4-63.5c-3.7,0-6.6-3-6.6-6.6c0-3.7,3-6.6,6.6-6.6c3.7,0,6.6,3,6.6,6.6C545-66.5,542-63.5,538.4-63.5z
				 M538.4-75.8c-3.1,0-5.6,2.5-5.6,5.6c0,3.1,2.5,5.6,5.6,5.6c3.1,0,5.6-2.5,5.6-5.6C544-73.3,541.5-75.8,538.4-75.8z"/>
		</g>
	</g>
	<text transform="matrix(1 0 0 1 557.3386 -39.8389)" class="st2" style="font-family:'Poppins-SemiBold'; font-size:22.0467px;">Atend</text>
</g>
<path class="st7" d="M294.2,66.4h-58.9c-2.4,0-4.4-2-4.4-4.4V27.1c0-2.4,2-4.4,4.4-4.4h58.9c2.4,0,4.4,2,4.4,4.4V62
	C298.7,64.4,296.7,66.4,294.2,66.4z"/>
<g>
	<path class="st2" d="M241.7,41c0.6-1.1,1.5-2,2.6-2.6s2.4-0.9,3.8-0.9c1.6,0,3,0.4,4.3,1.2c1.2,0.8,2.1,2,2.6,3.5h-3.4
		c-0.3-0.7-0.8-1.2-1.4-1.6s-1.3-0.5-2.1-0.5c-0.8,0-1.6,0.2-2.3,0.6c-0.7,0.4-1.2,1-1.5,1.7c-0.4,0.7-0.6,1.6-0.6,2.5
		c0,1,0.2,1.8,0.6,2.5s0.9,1.3,1.5,1.7c0.7,0.4,1.4,0.6,2.3,0.6c0.8,0,1.5-0.2,2.1-0.5c0.6-0.4,1.1-0.9,1.4-1.6h3.4
		c-0.5,1.5-1.3,2.6-2.6,3.5c-1.2,0.8-2.6,1.2-4.3,1.2c-1.4,0-2.6-0.3-3.8-0.9c-1.1-0.6-2-1.5-2.6-2.6c-0.6-1.1-1-2.4-1-3.8
		S241,42.2,241.7,41z"/>
	<path class="st2" d="M264.9,52.2l-3.2-5.7h-1.4v5.7h-2.9V37.6h5.5c1.1,0,2.1,0.2,2.9,0.6s1.4,0.9,1.8,1.6c0.4,0.7,0.6,1.4,0.6,2.3
		c0,1-0.3,1.8-0.8,2.6c-0.6,0.8-1.4,1.3-2.5,1.6l3.5,5.9H264.9z M260.3,44.3h2.4c0.8,0,1.4-0.2,1.8-0.6s0.6-0.9,0.6-1.6
		c0-0.7-0.2-1.2-0.6-1.6s-1-0.6-1.8-0.6h-2.4V44.3z"/>
	<path class="st2" d="M286.6,37.6v14.5h-2.9v-9.5l-3.9,9.5h-2.2l-3.9-9.5v9.5h-2.9V37.6h3.3l4.6,10.8l4.6-10.8H286.6z"/>
</g>
<g>
	<g>
		<g>
			<path class="st8" d="M174.4,33.9c3.1,0,5.6-2.5,5.6-5.6c0-3.1-2.5-5.6-5.6-5.6h-11.8V13c0-3.1-2.5-5.6-5.6-5.6
				c-3.1,0-5.6,2.5-5.6,5.6v33.5c0,11.4,7.9,20,18.4,20h4.6c3.1,0,5.6-2.5,5.6-5.6c0-3.1-2.5-5.6-5.6-5.6h-4.6
				c-5.6,0-7.2-5.4-7.2-8.7V33.9H174.4z"/>
			<path class="st8" d="M43.4,22.6c-4.7,0-8.9,1.8-12.1,4.8c-3.2-3-7.4-4.8-12.1-4.8c-9.8,0-17.8,8-17.8,17.8v20.2
				c0,3.1,2.5,5.6,5.6,5.6c3.1,0,5.6-2.5,5.6-5.6V40.4c0-3.6,2.9-6.5,6.5-6.5s6.5,2.9,6.5,6.5v20.2c0,3.1,2.5,5.6,5.6,5.6
				c3.1,0,5.6-2.5,5.7-5.6V40.4c0-0.1,0-0.2,0-0.4c0.2-3.4,3-6.2,6.5-6.2c3.6,0,6.5,2.9,6.5,6.5v20.2c0,3.1,2.5,5.6,5.6,5.6
				c3.1,0,5.6-2.5,5.6-5.6V40.4C61.2,30.6,53.3,22.6,43.4,22.6z"/>
			<path class="st8" d="M214.2,47c-0.9-1.5-2-2.7-3.4-3.7c-1.3-0.9-2.8-1.7-4.4-2.3c-1.5-0.5-3-1.1-4.5-1.5
				c-1.2-0.4-2.4-0.8-3.5-1.1c-1-0.3-1.9-0.7-2.7-1.1c-0.6-0.3-1.1-0.7-1.4-1.1c-0.2-0.2-0.3-0.4-0.3-0.8v-0.1c0-0.8,0.3-1.4,1-2
				c0.9-0.7,2.2-1,3.8-1c1.6,0,3.2,0.3,4.8,0.9c0.8,0.3,1.5,0.5,2.3,0.9c0.6,0.2,1.2,0.4,1.9,0.4c2.7,0,4.8-2.2,4.8-4.8
				c0-1.8-0.9-3.3-2.3-4.1c-0.1-0.1-0.1-0.1-0.1-0.1c-0.1,0-0.1-0.1-0.1-0.1c-0.3-0.2-0.6-0.3-0.9-0.4c-0.8-0.3-1.7-0.6-2.5-0.9
				c-2.6-0.8-5.2-1.2-7.7-1.2c-2.1,0-4,0.3-5.9,0.9c-1.9,0.6-3.5,1.5-4.8,2.6c-1.4,1.2-2.5,2.6-3.3,4.2c-0.8,1.7-1.2,3.4-1.2,5.4
				v0.2c0,2.2,0.5,4.1,1.5,5.6c0.9,1.5,2.2,2.6,3.6,3.6c1.3,0.9,2.9,1.6,4.5,2.2c1.5,0.5,3,1,4.5,1.5c1.2,0.3,2.3,0.7,3.4,1
				c1,0.3,1.8,0.7,2.6,1.1c0.6,0.3,1,0.7,1.3,1.1c0.1,0.2,0.3,0.4,0.3,0.9v0.2c0,1.1-0.4,1.8-1.2,2.4c-1,0.8-2.4,1.1-4.1,1.1
				c-1.9,0-3.9-0.4-5.8-1.1c-1.6-0.6-3.2-1.5-4.7-2.5c-0.7-0.4-1.6-0.6-2.4-0.6c-2.7,0-4.9,2.2-4.9,4.9c0,1.5,0.7,2.9,1.8,3.8v0.1
				c0.1,0.1,0.2,0.1,0.2,0.2c0.2,0.1,0.3,0.2,0.4,0.3c1.8,1.2,3.9,2.2,6.1,3c3,1.1,6,1.6,9,1.6c2.1,0,4.1-0.3,6-0.9
				c1.9-0.6,3.6-1.5,5-2.6c1.5-1.2,2.6-2.6,3.4-4.3c0.9-1.7,1.3-3.7,1.3-5.8v-0.2C215.6,50.4,215.1,48.6,214.2,47z"/>
			<path class="st8" d="M102.1,32.7c-0.9-1.5-2-2.9-3.3-4.1c-1.3-1.2-2.6-2.3-4.2-3.2c-1.5-0.9-3.2-1.6-4.9-2
				c-1.7-0.5-3.5-0.8-5.4-0.8c-2,0-3.9,0.3-5.8,0.8c-1.8,0.5-3.5,1.3-5.1,2.2c-1.6,1-3,2.1-4.2,3.4c-1.2,1.3-2.3,2.8-3.2,4.4
				c-0.9,1.6-1.6,3.3-2,5.2c-0.5,1.8-0.7,3.7-0.7,5.7c0,3.1,0.6,6,1.8,8.7c1.2,2.7,2.8,5,4.8,6.9c2,2,4.4,3.5,7.2,4.6
				c2.7,1.1,5.6,1.7,8.6,1.7c2.7,0,5.3-0.5,7.7-1.5c2.4-1,4.6-2.4,6.6-4.2c0.3-0.3,0.6-0.6,0.9-0.9c0,0,0,0,0-0.1
				c0.8-0.9,1.2-2,1.2-3.2c0-2.8-2.3-5.1-5.1-5.1c-1.3,0-2.5,0.5-3.3,1.3c-0.1,0.1-0.1,0.1-0.1,0.1c-0.4,0.4-1,0.8-1.6,1.1
				c-0.6,0.4-1.4,0.7-2.2,1c-0.8,0.3-1.6,0.5-2.5,0.6c-0.9,0.2-1.7,0.3-2.5,0.3c-0.9,0-1.8-0.1-2.9-0.4c-1-0.3-1.9-0.6-2.9-1.2
				c-0.9-0.6-1.7-1.3-2.4-2.3c-0.7-0.9-1.1-2.2-1.3-3.5h24c1.4,0,2.5-0.1,3.2-0.3c0.7-0.2,1.2-0.5,1.6-0.9c0.3-0.4,0.5-1,0.5-1.8
				c0.1-0.8,0.1-1.7,0.1-2.9c0.1-1.7-0.2-3.4-0.7-5.1C103.7,35.8,103,34.2,102.1,32.7z M76.1,38.9c0.4-0.8,0.8-1.5,1.4-2.2
				c0.6-0.8,1.2-1.4,1.9-2c0.7-0.6,1.5-1,2.3-1.4c0.8-0.3,1.7-0.5,2.5-0.5c1.2,0,2.3,0.2,3.2,0.5s1.7,0.8,2.4,1.3
				c0.7,0.5,1.3,1.2,1.9,1.9c0.5,0.8,1.1,1.5,1.5,2.4H76.1z"/>
			<path class="st8" d="M145.8,32.7c-0.9-1.5-2-2.9-3.3-4.1c-1.3-1.2-2.6-2.3-4.2-3.2c-1.5-0.9-3.2-1.6-4.9-2
				c-1.7-0.5-3.5-0.8-5.4-0.8c-2,0-3.9,0.3-5.8,0.8c-1.8,0.5-3.5,1.3-5.1,2.2c-1.6,1-3,2.1-4.2,3.4c-1.2,1.3-2.3,2.8-3.2,4.4
				c-0.9,1.6-1.6,3.3-2,5.2c-0.5,1.8-0.7,3.7-0.7,5.7c0,3.1,0.6,6,1.8,8.7c1.2,2.7,2.8,5,4.8,6.9c2,2,4.4,3.5,7.2,4.6
				c2.7,1.1,5.6,1.7,8.6,1.7c2.7,0,5.3-0.5,7.7-1.5c2.4-1,4.6-2.4,6.6-4.2c0.3-0.3,0.6-0.6,0.9-0.9c0,0,0,0,0-0.1
				c0.8-0.9,1.2-2,1.2-3.2c0-2.8-2.3-5.1-5.1-5.1c-1.3,0-2.5,0.5-3.3,1.3c-0.1,0.1-0.1,0.1-0.1,0.1c-0.4,0.4-1,0.8-1.6,1.1
				c-0.6,0.4-1.4,0.7-2.2,1c-0.8,0.3-1.6,0.5-2.5,0.6c-0.9,0.2-1.7,0.3-2.5,0.3c-0.9,0-1.8-0.1-2.9-0.4c-1-0.3-1.9-0.6-2.9-1.2
				c-0.9-0.6-1.7-1.3-2.4-2.3c-0.7-0.9-1.1-2.2-1.3-3.5h24c1.4,0,2.5-0.1,3.2-0.3c0.7-0.2,1.2-0.5,1.6-0.9s0.5-1,0.5-1.8
				c0.1-0.8,0.1-1.7,0.1-2.9c0.1-1.7-0.2-3.4-0.7-5.1C147.4,35.8,146.7,34.2,145.8,32.7z M119.8,38.9c0.4-0.8,0.8-1.5,1.4-2.2
				c0.6-0.8,1.2-1.4,1.9-2c0.7-0.6,1.5-1,2.3-1.4c0.8-0.3,1.7-0.5,2.5-0.5c1.2,0,2.3,0.2,3.2,0.5c0.9,0.3,1.7,0.8,2.4,1.3
				c0.7,0.5,1.3,1.2,1.9,1.9c0.5,0.8,1.1,1.5,1.5,2.4H119.8z"/>
		</g>
		<g>
			<path class="st8" d="M222.1,22.8l-1.6-2.8h-0.7v2.8h-1.4v-7.1h2.7c0.6,0,1,0.1,1.4,0.3c0.4,0.2,0.7,0.5,0.9,0.8s0.3,0.7,0.3,1.1
				c0,0.5-0.1,0.9-0.4,1.3c-0.3,0.4-0.7,0.6-1.2,0.8l1.7,2.9H222.1z M219.9,19h1.2c0.4,0,0.7-0.1,0.9-0.3c0.2-0.2,0.3-0.4,0.3-0.8
				c0-0.3-0.1-0.6-0.3-0.8c-0.2-0.2-0.5-0.3-0.9-0.3h-1.2V19z"/>
		</g>
		<g>
			<path class="st8" d="M220.8,26.6c-4,0-7.3-3.3-7.3-7.3s3.3-7.3,7.3-7.3c4,0,7.3,3.3,7.3,7.3S224.8,26.6,220.8,26.6z M220.8,13.1
				c-3.4,0-6.2,2.8-6.2,6.2s2.8,6.2,6.2,6.2c3.4,0,6.2-2.8,6.2-6.2S224.2,13.1,220.8,13.1z"/>
		</g>
	</g>
</g>
</svg>
