<?xml version="1.0" encoding="utf-8"?>
<!-- Generator: Adobe Illustrator 27.5.0, SVG Export Plug-In . SVG Version: 6.00 Build 0)  -->
<svg version="1.1" id="Layer_1" xmlns="http://www.w3.org/2000/svg" xmlns:xlink="http://www.w3.org/1999/xlink" x="0px" y="0px"
	 viewBox="0 0 300 73.7" style="enable-background:new 0 0 300 73.7;" xml:space="preserve">
<style type="text/css">
	.st0{fill:#0043FF;}
	.st1{fill:#0094FF;}
	.st2{fill:#FFFFFF;}
	.st3{fill:#662D91;}
	.st4{fill:#8F4ABC;}
	.st5{fill:#24A4B5;}
	.st6{fill:#00C4CE;}
	.st7{fill:#007BEA;}
	.st8{fill:#00AEED;}
</style>
<g>
	<path class="st0" d="M649,68.9h-39.8c-2.1,0-3.8-1.7-3.8-3.8V25.3c0-2.1,1.7-3.8,3.8-3.8H649c2.1,0,3.8,1.7,3.8,3.8v39.8
		C652.9,67.2,651.2,68.9,649,68.9z"/>
	<g>
		<g>
			<path class="st1" d="M544.1,33.7c3.4,0,6.1-2.7,6.1-6.1c0-3.4-2.7-6.1-6.1-6.1h-12.8V10.9c0-3.4-2.7-6.1-6.1-6.1
				c-3.4,0-6.1,2.7-6.1,6.1v36.3c0,12.4,8.6,21.6,20,21.6h5c3.4,0,6.1-2.7,6.1-6.1c0-3.4-2.7-6.1-6.1-6.1h-5c-6.1,0-7.8-5.9-7.8-9.4
				V33.7H544.1z"/>
			<path class="st1" d="M402.1,21.4c-5.1,0-9.7,2-13.1,5.2c-3.5-3.2-8.1-5.2-13.2-5.2c-10.7,0-19.3,8.7-19.3,19.3v21.9
				c0,3.4,2.7,6.1,6.1,6.1c3.4,0,6.1-2.7,6.1-6.1V40.7c0-3.9,3.1-7.1,7.1-7.1s7.1,3.1,7.1,7.1v21.9c0,3.4,2.7,6.1,6.1,6.1
				c3.4,0,6.1-2.7,6.2-6.1V40.7c0-0.1,0-0.3,0-0.4c0.2-3.7,3.2-6.7,7-6.7c3.9,0,7.1,3.1,7.1,7.1v21.9c0,3.4,2.7,6.1,6.1,6.1
				c3.4,0,6.1-2.7,6.1-6.1V40.7C421.4,30.1,412.7,21.4,402.1,21.4z"/>
			<path class="st1" d="M587.2,47.9c-0.9-1.6-2.2-2.9-3.7-4c-1.5-1-3-1.9-4.8-2.5c-1.6-0.6-3.2-1.2-4.8-1.6
				c-1.3-0.4-2.6-0.8-3.8-1.2c-1.1-0.3-2.1-0.8-2.9-1.2c-0.6-0.3-1.2-0.8-1.5-1.2c-0.2-0.2-0.3-0.5-0.3-0.8v-0.1
				c0-0.9,0.3-1.5,1.1-2.2c0.9-0.8,2.3-1.1,4.1-1.1c1.7,0,3.4,0.3,5.2,0.9c0.8,0.3,1.6,0.6,2.4,1c0.6,0.2,1.3,0.4,2,0.4
				c2.9,0,5.2-2.3,5.2-5.2c0-1.9-1-3.6-2.5-4.5c-0.1-0.1-0.1-0.1-0.1-0.1c-0.1,0-0.1-0.1-0.1-0.1c-0.3-0.2-0.6-0.3-0.9-0.4
				c-0.9-0.3-1.8-0.7-2.7-1c-2.8-0.9-5.7-1.3-8.4-1.3c-2.3,0-4.4,0.3-6.4,0.9c-2,0.6-3.8,1.6-5.2,2.9c-1.5,1.3-2.7,2.8-3.6,4.6
				c-0.8,1.8-1.3,3.7-1.3,5.9V36c0,2.4,0.5,4.4,1.6,6.1c1,1.6,2.3,2.9,3.9,3.9c1.5,0.9,3.1,1.7,4.9,2.4c1.6,0.6,3.3,1.1,4.9,1.6
				c1.3,0.3,2.5,0.8,3.7,1.1c1,0.3,2,0.8,2.8,1.2c0.6,0.3,1.1,0.8,1.5,1.2c0.1,0.2,0.3,0.5,0.3,1v0.2c0,1.2-0.4,1.9-1.3,2.6
				c-1.1,0.8-2.6,1.2-4.5,1.2c-2.1,0-4.2-0.4-6.2-1.2c-1.7-0.6-3.4-1.6-5.1-2.7c-0.8-0.5-1.7-0.7-2.6-0.7c-2.9,0-5.3,2.4-5.3,5.3
				c0,1.6,0.8,3.1,1.9,4.1v0.1c0.1,0.1,0.2,0.1,0.2,0.2c0.2,0.1,0.3,0.2,0.5,0.3c2,1.3,4.2,2.4,6.6,3.3c3.3,1.2,6.5,1.7,9.7,1.7
				c2.3,0,4.5-0.3,6.5-0.9c2-0.6,3.9-1.6,5.4-2.9c1.6-1.3,2.8-2.9,3.7-4.7c0.9-1.9,1.4-4,1.4-6.3V54
				C588.7,51.5,588.3,49.5,587.2,47.9z"/>
			<path class="st1" d="M465.7,32.3c-1-1.6-2.2-3.1-3.6-4.4c-1.4-1.3-2.9-2.5-4.5-3.4c-1.6-1-3.4-1.7-5.3-2.2
				c-1.9-0.5-3.8-0.8-5.8-0.8c-2.2,0-4.3,0.3-6.2,0.9c-2,0.6-3.8,1.4-5.5,2.4c-1.7,1-3.2,2.3-4.5,3.7c-1.3,1.5-2.5,3-3.4,4.8
				c-0.9,1.7-1.7,3.6-2.2,5.6c-0.5,2-0.8,4-0.8,6.2c0,3.4,0.6,6.5,1.9,9.4c1.3,2.9,3,5.4,5.2,7.5c2.2,2.2,4.8,3.8,7.8,5
				c2.9,1.2,6.1,1.8,9.3,1.8c3,0,5.8-0.5,8.4-1.6c2.6-1.1,5-2.6,7.2-4.5c0.3-0.3,0.6-0.6,0.9-1c0,0,0,0,0-0.1
				c0.8-0.9,1.3-2.2,1.3-3.5c0-3-2.4-5.5-5.5-5.5c-1.4,0-2.7,0.5-3.6,1.4c-0.1,0.1-0.1,0.1-0.1,0.1c-0.5,0.4-1,0.8-1.7,1.2
				c-0.7,0.4-1.5,0.8-2.3,1c-0.9,0.3-1.7,0.5-2.7,0.7c-0.9,0.2-1.8,0.3-2.7,0.3c-1,0-2-0.1-3.1-0.4c-1.1-0.3-2.1-0.7-3.1-1.3
				c-1-0.6-1.8-1.5-2.6-2.4c-0.8-1-1.2-2.3-1.5-3.8h26c1.5,0,2.7-0.1,3.4-0.3c0.8-0.2,1.3-0.5,1.7-1s0.5-1.1,0.6-1.9
				c0.1-0.8,0.1-1.8,0.1-3.1c0.1-1.9-0.2-3.7-0.8-5.5C467.4,35.7,466.7,34,465.7,32.3z M437.5,39c0.4-0.8,0.9-1.6,1.5-2.4
				c0.6-0.8,1.3-1.5,2.1-2.2c0.8-0.6,1.6-1.1,2.4-1.5c0.9-0.3,1.8-0.6,2.7-0.6c1.3,0,2.4,0.2,3.4,0.5s1.9,0.8,2.6,1.4
				c0.8,0.6,1.5,1.3,2,2.1c0.6,0.8,1.2,1.6,1.6,2.6H437.5z"/>
			<path class="st1" d="M513.1,32.3c-1-1.6-2.2-3.1-3.6-4.4c-1.4-1.3-2.9-2.5-4.5-3.4c-1.6-1-3.4-1.7-5.3-2.2
				c-1.9-0.5-3.8-0.8-5.8-0.8c-2.2,0-4.3,0.3-6.2,0.9c-2,0.6-3.8,1.4-5.5,2.4c-1.7,1-3.2,2.3-4.5,3.7c-1.3,1.5-2.5,3-3.4,4.8
				c-0.9,1.7-1.7,3.6-2.2,5.6c-0.5,2-0.8,4-0.8,6.2c0,3.4,0.6,6.5,1.9,9.4c1.3,2.9,3,5.4,5.2,7.5c2.2,2.2,4.8,3.8,7.8,5
				c2.9,1.2,6.1,1.8,9.3,1.8c3,0,5.8-0.5,8.4-1.6c2.6-1.1,5-2.6,7.2-4.5c0.3-0.3,0.6-0.6,0.9-1c0,0,0,0,0-0.1
				c0.8-0.9,1.3-2.2,1.3-3.5c0-3-2.4-5.5-5.5-5.5c-1.4,0-2.7,0.5-3.6,1.4c-0.1,0.1-0.1,0.1-0.1,0.1c-0.5,0.4-1,0.8-1.7,1.2
				c-0.7,0.4-1.5,0.8-2.3,1c-0.9,0.3-1.7,0.5-2.7,0.7c-0.9,0.2-1.8,0.3-2.7,0.3c-1,0-2-0.1-3.1-0.4c-1.1-0.3-2.1-0.7-3.1-1.3
				c-1-0.6-1.8-1.5-2.6-2.4c-0.8-1-1.2-2.3-1.5-3.8h26c1.5,0,2.7-0.1,3.4-0.3c0.8-0.2,1.3-0.5,1.7-1c0.3-0.5,0.5-1.1,0.6-1.9
				c0.1-0.8,0.1-1.8,0.1-3.1c0.1-1.9-0.2-3.7-0.8-5.5C514.8,35.7,514.1,34,513.1,32.3z M484.9,39c0.4-0.8,0.9-1.6,1.5-2.4
				c0.6-0.8,1.3-1.5,2.1-2.2c0.8-0.6,1.6-1.1,2.4-1.5c0.9-0.3,1.8-0.6,2.7-0.6c1.3,0,2.4,0.2,3.4,0.5s1.9,0.8,2.6,1.4
				c0.8,0.6,1.5,1.3,2,2.1c0.6,0.8,1.2,1.6,1.6,2.6H484.9z"/>
		</g>
		<g>
			<path class="st1" d="M595.8,21.7l-1.7-3h-0.7v3h-1.5v-7.7h2.9c0.6,0,1.1,0.1,1.5,0.3c0.4,0.2,0.7,0.5,0.9,0.9
				c0.2,0.4,0.3,0.8,0.3,1.2c0,0.5-0.1,1-0.4,1.4c-0.3,0.4-0.7,0.7-1.3,0.8l1.8,3.1H595.8z M593.4,17.5h1.3c0.4,0,0.7-0.1,0.9-0.3
				c0.2-0.2,0.3-0.5,0.3-0.8c0-0.4-0.1-0.6-0.3-0.8c-0.2-0.2-0.5-0.3-0.9-0.3h-1.3V17.5z"/>
		</g>
		<g>
			<path class="st1" d="M594.4,25.7c-4.4,0-7.9-3.6-7.9-7.9s3.6-7.9,7.9-7.9s7.9,3.6,7.9,7.9S598.7,25.7,594.4,25.7z M594.4,11.1
				c-3.7,0-6.7,3-6.7,6.7s3,6.7,6.7,6.7c3.7,0,6.7-3,6.7-6.7S598.1,11.1,594.4,11.1z"/>
		</g>
	</g>
	<g>
		<path class="st2" d="M616.4,55h2.3V41.8h-2.3v-2.3h5V55h2.3v2.3h-7.3V55z M617.9,34.6c0-0.6,0.2-1.1,0.5-1.5
			c0.3-0.3,0.8-0.5,1.4-0.5c0.6,0,1,0.2,1.4,0.5c0.4,0.4,0.5,0.8,0.5,1.4c0,0.6-0.2,1.1-0.5,1.4c-0.4,0.4-0.9,0.5-1.5,0.5
			c-0.6,0-1-0.2-1.4-0.5C618.1,35.6,617.9,35.2,617.9,34.6z"/>
		<path class="st2" d="M627.3,40.8c2.1-1.2,4.2-1.8,6.4-1.8c1.9,0,3.3,0.4,4.4,1.3c1,0.9,1.5,2.2,1.5,4.1V55h2.3v2.3h-4.7l-0.1-2.1
			l-0.1,0c-1.5,1.7-3.3,2.6-5.4,2.6c-1.6,0-2.8-0.5-3.8-1.4c-0.9-0.9-1.4-2.1-1.4-3.5c0-1.9,0.8-3.3,2.5-4.3
			c1.7-0.9,4.1-1.4,7.2-1.4h0.8v-2.7c0-1.1-0.3-1.9-0.8-2.4c-0.5-0.5-1.4-0.7-2.7-0.7c-1.5,0-2.7,0.2-3.7,0.7v2.5h-2.4V40.8z
			 M635.8,49.1c-2.1,0-3.7,0.3-4.8,0.8c-1.1,0.5-1.7,1.5-1.7,2.8c0,1,0.3,1.7,0.8,2.1c0.5,0.4,1.2,0.7,2.1,0.7
			c1.8,0,3.4-0.7,4.7-2.2v-4.1H635.8z"/>
	</g>
</g>
<g>
	<g>
		<path class="st3" d="M293.6,67.1H235c-2.4,0-4.4-2-4.4-4.4V28c0-2.4,2-4.4,4.4-4.4h58.6c2.4,0,4.4,2,4.4,4.4v34.8
			C298,65.2,296,67.1,293.6,67.1z"/>
		<circle class="st3" cx="264.3" cy="13.3" r="6.7"/>
		
			<rect x="263" y="16.1" transform="matrix(-1 -1.224647e-16 1.224647e-16 -1 528.6013 50.9607)" class="st3" width="2.6" height="18.7"/>
	</g>
	<g>
		<g>
			<path class="st4" d="M174.3,34.8c3.1,0,5.6-2.5,5.6-5.6c0-3.1-2.5-5.6-5.6-5.6h-11.7v-9.6c0-3.1-2.5-5.6-5.6-5.6
				c-3.1,0-5.6,2.5-5.6,5.6v33.3c0,11.4,7.9,19.9,18.4,19.9h4.6c3.1,0,5.6-2.5,5.6-5.6c0-3.1-2.5-5.6-5.6-5.6h-4.6
				c-5.6,0-7.1-5.4-7.1-8.6V34.8H174.3z"/>
			<path class="st4" d="M43.9,23.6c-4.7,0-8.9,1.8-12.1,4.8c-3.2-3-7.4-4.8-12.1-4.8C9.9,23.6,2,31.5,2,41.3v20.1
				C2,64.5,4.5,67,7.6,67c3.1,0,5.6-2.5,5.6-5.6V41.3c0-3.6,2.9-6.5,6.5-6.5s6.5,2.9,6.5,6.5v20.1c0,3.1,2.5,5.6,5.6,5.6
				c3.1,0,5.6-2.5,5.7-5.6V41.3c0-0.1,0-0.2,0-0.4c0.2-3.4,3-6.1,6.4-6.1c3.6,0,6.5,2.9,6.5,6.5v20.1c0,3.1,2.5,5.6,5.6,5.6
				c3.1,0,5.6-2.5,5.6-5.6V41.3C61.6,31.5,53.7,23.6,43.9,23.6z"/>
			<path class="st4" d="M213.9,47.8c-0.9-1.4-2-2.7-3.4-3.7c-1.3-0.9-2.8-1.7-4.4-2.3c-1.4-0.5-2.9-1.1-4.4-1.5
				c-1.2-0.4-2.4-0.7-3.5-1.1c-1-0.3-1.9-0.7-2.7-1.1c-0.6-0.3-1.1-0.7-1.4-1.1c-0.2-0.2-0.3-0.4-0.3-0.7v-0.1c0-0.8,0.3-1.4,1-2
				c0.9-0.7,2.1-1,3.7-1c1.6,0,3.2,0.3,4.8,0.9c0.7,0.3,1.5,0.5,2.2,0.9c0.6,0.2,1.2,0.4,1.9,0.4c2.7,0,4.8-2.1,4.8-4.8
				c0-1.8-0.9-3.3-2.3-4.1c-0.1-0.1-0.1-0.1-0.1-0.1c-0.1,0-0.1-0.1-0.1-0.1c-0.3-0.2-0.6-0.3-0.9-0.4c-0.8-0.3-1.7-0.6-2.5-0.9
				c-2.6-0.8-5.2-1.2-7.7-1.2c-2.1,0-4,0.3-5.8,0.9c-1.9,0.6-3.5,1.4-4.8,2.6c-1.4,1.2-2.5,2.6-3.3,4.2c-0.7,1.7-1.2,3.4-1.2,5.4
				v0.2c0,2.2,0.5,4.1,1.5,5.6c0.9,1.4,2.1,2.6,3.6,3.6c1.3,0.9,2.8,1.6,4.5,2.2c1.5,0.5,3,1,4.5,1.4c1.2,0.3,2.3,0.7,3.4,1
				c1,0.3,1.8,0.7,2.6,1.1c0.6,0.3,1,0.7,1.3,1.1c0.1,0.2,0.3,0.4,0.3,0.9v0.2c0,1.1-0.4,1.8-1.2,2.4c-1,0.7-2.4,1.1-4.1,1.1
				c-1.9,0-3.9-0.4-5.7-1.1c-1.6-0.6-3.2-1.4-4.7-2.5c-0.7-0.4-1.6-0.6-2.4-0.6c-2.7,0-4.9,2.2-4.9,4.9c0,1.5,0.7,2.9,1.8,3.7v0.1
				c0.1,0.1,0.2,0.1,0.2,0.2c0.2,0.1,0.3,0.2,0.4,0.3c1.8,1.2,3.9,2.2,6.1,3c3,1.1,6,1.6,8.9,1.6c2.1,0,4.1-0.3,5.9-0.9
				c1.9-0.6,3.6-1.5,5-2.6c1.4-1.2,2.6-2.6,3.4-4.3c0.9-1.7,1.3-3.6,1.3-5.8v-0.2C215.3,51.2,214.9,49.4,213.9,47.8z"/>
			<path class="st4" d="M102.3,33.6c-0.9-1.4-2-2.8-3.3-4.1c-1.3-1.2-2.6-2.3-4.2-3.2c-1.5-0.9-3.2-1.6-4.9-2
				c-1.7-0.5-3.5-0.7-5.4-0.7c-2,0-3.9,0.3-5.7,0.8c-1.8,0.5-3.5,1.3-5,2.2c-1.6,1-2.9,2.1-4.2,3.4c-1.2,1.3-2.3,2.8-3.2,4.4
				c-0.9,1.6-1.6,3.3-2,5.1c-0.5,1.8-0.7,3.7-0.7,5.7c0,3.1,0.6,6,1.8,8.7c1.2,2.7,2.8,5,4.8,6.9c2,2,4.4,3.5,7.1,4.6
				c2.7,1.1,5.6,1.7,8.6,1.7c2.7,0,5.3-0.5,7.7-1.5c2.4-1,4.6-2.4,6.6-4.2c0.3-0.3,0.6-0.6,0.9-0.9c0,0,0,0,0-0.1
				c0.7-0.9,1.2-2,1.2-3.2c0-2.8-2.2-5-5-5c-1.3,0-2.5,0.5-3.3,1.3C94,53.5,94,53.5,94,53.5c-0.4,0.4-1,0.7-1.6,1.1
				c-0.6,0.4-1.4,0.7-2.1,1c-0.8,0.3-1.6,0.5-2.5,0.6c-0.9,0.2-1.7,0.3-2.5,0.3c-0.9,0-1.8-0.1-2.8-0.4c-1-0.3-1.9-0.6-2.8-1.2
				c-0.9-0.6-1.7-1.3-2.4-2.2c-0.7-0.9-1.1-2.1-1.3-3.5h23.9c1.4,0,2.5-0.1,3.2-0.3c0.7-0.2,1.2-0.5,1.6-0.9s0.5-1,0.5-1.8
				c0.1-0.7,0.1-1.7,0.1-2.8c0.1-1.7-0.2-3.4-0.7-5.1C103.9,36.6,103.2,35.1,102.3,33.6z M76.4,39.7c0.4-0.7,0.8-1.5,1.4-2.2
				c0.6-0.7,1.2-1.4,1.9-2c0.7-0.6,1.4-1,2.2-1.4c0.8-0.3,1.7-0.5,2.5-0.5c1.2,0,2.2,0.2,3.2,0.5c0.9,0.3,1.7,0.7,2.4,1.3
				c0.7,0.5,1.3,1.2,1.9,1.9c0.5,0.7,1.1,1.5,1.5,2.4H76.4z"/>
			<path class="st4" d="M145.8,33.6c-0.9-1.4-2-2.8-3.3-4.1c-1.3-1.2-2.6-2.3-4.2-3.2c-1.5-0.9-3.2-1.6-4.9-2
				c-1.7-0.5-3.5-0.7-5.4-0.7c-2,0-3.9,0.3-5.7,0.8c-1.8,0.5-3.5,1.3-5,2.2c-1.6,1-2.9,2.1-4.2,3.4c-1.2,1.3-2.3,2.8-3.2,4.4
				c-0.9,1.6-1.6,3.3-2,5.1c-0.5,1.8-0.7,3.7-0.7,5.7c0,3.1,0.6,6,1.8,8.7c1.2,2.7,2.8,5,4.8,6.9c2,2,4.4,3.5,7.1,4.6
				c2.7,1.1,5.6,1.7,8.6,1.7c2.7,0,5.3-0.5,7.7-1.5c2.4-1,4.6-2.4,6.6-4.2c0.3-0.3,0.6-0.6,0.9-0.9c0,0,0,0,0-0.1
				c0.7-0.9,1.2-2,1.2-3.2c0-2.8-2.2-5-5-5c-1.3,0-2.5,0.5-3.3,1.3c-0.1,0.1-0.1,0.1-0.1,0.1c-0.4,0.4-1,0.7-1.6,1.1
				c-0.6,0.4-1.4,0.7-2.1,1c-0.8,0.3-1.6,0.5-2.5,0.6c-0.9,0.2-1.7,0.3-2.5,0.3c-0.9,0-1.8-0.1-2.8-0.4c-1-0.3-1.9-0.6-2.8-1.2
				c-0.9-0.6-1.7-1.3-2.4-2.2c-0.7-0.9-1.1-2.1-1.3-3.5h23.9c1.4,0,2.5-0.1,3.2-0.3c0.7-0.2,1.2-0.5,1.6-0.9s0.5-1,0.5-1.8
				c0.1-0.7,0.1-1.7,0.1-2.8c0.1-1.7-0.2-3.4-0.7-5.1C147.4,36.6,146.7,35.1,145.8,33.6z M119.9,39.7c0.4-0.7,0.8-1.5,1.4-2.2
				c0.6-0.7,1.2-1.4,1.9-2c0.7-0.6,1.4-1,2.2-1.4c0.8-0.3,1.7-0.5,2.5-0.5c1.2,0,2.2,0.2,3.2,0.5c0.9,0.3,1.7,0.7,2.4,1.3
				c0.7,0.5,1.3,1.2,1.9,1.9c0.5,0.7,1.1,1.5,1.5,2.4H119.9z"/>
		</g>
		<g>
			<path class="st4" d="M221.8,23.8l-1.6-2.8h-0.7v2.8h-1.4v-7.1h2.7c0.5,0,1,0.1,1.4,0.3c0.4,0.2,0.7,0.5,0.9,0.8
				c0.2,0.3,0.3,0.7,0.3,1.1c0,0.5-0.1,0.9-0.4,1.3c-0.3,0.4-0.7,0.6-1.2,0.8l1.7,2.9H221.8z M219.6,19.9h1.2c0.4,0,0.7-0.1,0.9-0.3
				c0.2-0.2,0.3-0.4,0.3-0.8c0-0.3-0.1-0.6-0.3-0.8c-0.2-0.2-0.5-0.3-0.9-0.3h-1.2V19.9z"/>
		</g>
		<g>
			<path class="st4" d="M220.5,27.5c-4,0-7.3-3.3-7.3-7.3s3.3-7.3,7.3-7.3c4,0,7.3,3.3,7.3,7.3S224.5,27.5,220.5,27.5z M220.5,14
				c-3.4,0-6.2,2.8-6.2,6.2s2.8,6.2,6.2,6.2c3.4,0,6.2-2.8,6.2-6.2S223.9,14,220.5,14z"/>
		</g>
	</g>
	<g>
		<path class="st2" d="M257.6,47.2c0.6,0.8,0.9,1.7,0.9,2.7c0,0.9-0.2,1.7-0.7,2.4c-0.4,0.7-1.1,1.2-1.9,1.6c-0.8,0.4-1.8,0.6-3,0.6
			h-7.3V37.5h7c1.1,0,2.1,0.2,3,0.6c0.8,0.4,1.5,0.9,1.9,1.6c0.4,0.7,0.6,1.4,0.6,2.3c0,1-0.3,1.8-0.8,2.5c-0.5,0.7-1.2,1.1-2.1,1.4
			C256.2,45.9,256.9,46.4,257.6,47.2z M249,44.5h3.1c0.8,0,1.4-0.2,1.9-0.5c0.4-0.4,0.7-0.9,0.7-1.6c0-0.7-0.2-1.2-0.7-1.6
			s-1.1-0.6-1.9-0.6H249V44.5z M254.3,51.1c0.5-0.4,0.7-0.9,0.7-1.6c0-0.7-0.2-1.3-0.7-1.7c-0.5-0.4-1.1-0.6-2-0.6H249v4.6h3.4
			C253.2,51.6,253.9,51.4,254.3,51.1z"/>
		<path class="st2" d="M263.7,53.8c-1-0.6-1.8-1.4-2.4-2.4s-0.9-2.3-0.9-3.6s0.3-2.6,0.9-3.6c0.6-1,1.4-1.9,2.5-2.4s2.2-0.9,3.5-0.9
			c1.3,0,2.5,0.3,3.5,0.9c1,0.6,1.9,1.4,2.5,2.4c0.6,1.1,0.9,2.3,0.9,3.6s-0.3,2.6-0.9,3.6s-1.5,1.9-2.5,2.4
			c-1.1,0.6-2.2,0.9-3.5,0.9C265.9,54.6,264.7,54.3,263.7,53.8z M268.9,51.2c0.5-0.3,1-0.7,1.3-1.3s0.5-1.3,0.5-2.2
			c0-1.3-0.3-2.3-1-2.9c-0.7-0.7-1.5-1-2.5-1c-1,0-1.8,0.3-2.4,1c-0.7,0.7-1,1.7-1,2.9s0.3,2.3,1,2.9c0.6,0.7,1.4,1,2.4,1
			C267.8,51.7,268.3,51.5,268.9,51.2z"/>
		<path class="st2" d="M280.6,43.8v6.5c0,0.5,0.1,0.8,0.3,1c0.2,0.2,0.6,0.3,1.1,0.3h1.6v2.9h-2.1c-2.9,0-4.3-1.4-4.3-4.2v-6.5h-1.6
			V41h1.6v-3.3h3.4V41h3v2.8H280.6z"/>
	</g>
</g>
<g>
	<path class="st5" d="M292.7-42.7h-77.5c-2.6,0-4.8-2.1-4.8-4.8v-30.1c0-2.6,2.1-4.8,4.8-4.8h77.5c2.6,0,4.8,2.1,4.8,4.8v30.1
		C297.5-44.8,295.4-42.7,292.7-42.7z"/>
	<path class="st5" d="M270.3-32.9h-1.6v-17.8h17.8v1.6C286.4-40.2,279.2-32.9,270.3-32.9z"/>
</g>
<g>
	<g>
		<path class="st6" d="M159.2-72.1c2.8,0,5.1-2.3,5.1-5.1c0-2.8-2.3-5.1-5.1-5.1h-10.7v-8.8c0-2.8-2.3-5.1-5.1-5.1
			c-2.8,0-5.1,2.3-5.1,5.1v30.3c0,10.3,7.2,18.1,16.7,18.1h4.2c2.8,0,5.1-2.3,5.1-5.1c0-2.8-2.3-5.1-5.1-5.1H155
			c-5.1,0-6.5-4.9-6.5-7.8v-11.3H159.2z"/>
		<path class="st6" d="M40.6-82.3c-4.3,0-8.1,1.7-11,4.4c-2.9-2.7-6.7-4.4-11-4.4c-8.9,0-16.1,7.3-16.1,16.1v18.3
			c0,2.8,2.2,5.1,5.1,5.1c2.8,0,5.1-2.3,5.1-5.1v-18.3c0-3.3,2.6-5.9,5.9-5.9s5.9,2.6,5.9,5.9v18.3c0,2.8,2.3,5.1,5.1,5.1
			c2.8,0,5.1-2.3,5.2-5.1v-18.3c0-0.1,0-0.2,0-0.3c0.2-3.1,2.7-5.6,5.9-5.6c3.3,0,5.9,2.6,5.9,5.9v18.3c0,2.8,2.3,5.1,5.1,5.1
			c2.8,0,5.1-2.3,5.1-5.1v-18.3C56.7-75.1,49.5-82.3,40.6-82.3z"/>
		<path class="st6" d="M195.3-60.3c-0.8-1.3-1.9-2.4-3.1-3.4c-1.2-0.8-2.5-1.6-4-2.1c-1.3-0.5-2.7-1-4-1.4c-1.1-0.3-2.2-0.7-3.2-1
			c-0.9-0.3-1.8-0.6-2.4-1c-0.5-0.3-1-0.6-1.3-1c-0.1-0.2-0.2-0.4-0.2-0.7v-0.1c0-0.7,0.3-1.3,0.9-1.8c0.8-0.6,1.9-0.9,3.4-0.9
			c1.4,0,2.9,0.2,4.4,0.8c0.7,0.2,1.4,0.5,2,0.8c0.5,0.2,1.1,0.3,1.7,0.3c2.4,0,4.4-1.9,4.4-4.4c0-1.6-0.8-3-2.1-3.8
			c0,0,0,0-0.1-0.1c0,0,0,0-0.1,0c-0.2-0.1-0.5-0.2-0.8-0.3c-0.7-0.3-1.5-0.6-2.3-0.8c-2.3-0.7-4.7-1.1-7-1.1
			c-1.9,0-3.7,0.2-5.3,0.8c-1.7,0.5-3.2,1.3-4.4,2.4c-1.3,1.1-2.3,2.3-3,3.8c-0.7,1.5-1.1,3.1-1.1,4.9v0.1c0,2,0.4,3.7,1.4,5.1
			c0.8,1.3,1.9,2.4,3.3,3.3c1.2,0.8,2.6,1.5,4.1,2c1.4,0.5,2.7,0.9,4.1,1.3c1.1,0.3,2.1,0.6,3.1,0.9c0.9,0.3,1.7,0.6,2.3,1
			c0.5,0.3,0.9,0.6,1.2,1c0.1,0.1,0.2,0.4,0.2,0.8v0.1c0,1-0.3,1.6-1.1,2.1c-0.9,0.7-2.2,1-3.8,1c-1.8,0-3.5-0.3-5.2-1
			c-1.5-0.5-2.9-1.3-4.2-2.2c-0.6-0.4-1.4-0.6-2.2-0.6c-2.4,0-4.4,2-4.4,4.4c0,1.4,0.6,2.6,1.6,3.4v0c0,0,0.1,0.1,0.2,0.1
			c0.1,0.1,0.2,0.2,0.4,0.2c1.7,1.1,3.5,2,5.5,2.7c2.7,1,5.5,1.5,8.1,1.5c1.9,0,3.8-0.2,5.4-0.8c1.7-0.5,3.3-1.4,4.5-2.4
			c1.3-1.1,2.3-2.4,3.1-3.9c0.8-1.6,1.2-3.3,1.2-5.3v-0.1C196.6-57.2,196.2-58.8,195.3-60.3z"/>
		<path class="st6" d="M93.8-73.2c-0.8-1.3-1.8-2.6-3-3.7C89.6-78,88.4-79,87-79.8c-1.4-0.8-2.9-1.4-4.4-1.9
			c-1.6-0.4-3.2-0.7-4.9-0.7c-1.9,0-3.6,0.2-5.2,0.7c-1.7,0.5-3.2,1.2-4.6,2c-1.4,0.9-2.7,1.9-3.8,3.1c-1.1,1.2-2.1,2.5-2.9,4
			c-0.8,1.5-1.4,3-1.9,4.7c-0.4,1.7-0.6,3.4-0.6,5.2c0,2.8,0.5,5.5,1.6,7.9c1.1,2.4,2.5,4.5,4.4,6.3c1.9,1.8,4,3.2,6.5,4.2
			c2.4,1,5.1,1.5,7.8,1.5c2.5,0,4.8-0.4,7-1.4c2.2-0.9,4.2-2.2,6-3.8c0.3-0.3,0.5-0.5,0.8-0.8c0,0,0,0,0,0c0.7-0.8,1.1-1.8,1.1-2.9
			c0-2.5-2-4.6-4.6-4.6c-1.2,0-2.2,0.4-3,1.2c0,0-0.1,0-0.1,0.1c-0.4,0.3-0.9,0.7-1.5,1c-0.6,0.3-1.3,0.6-1.9,0.9
			c-0.7,0.2-1.5,0.4-2.2,0.6c-0.8,0.1-1.5,0.2-2.2,0.2c-0.8,0-1.7-0.1-2.6-0.3c-0.9-0.2-1.8-0.6-2.6-1.1c-0.8-0.5-1.5-1.2-2.1-2
			c-0.6-0.8-1-1.9-1.2-3.2h21.7c1.3,0,2.2-0.1,2.9-0.2c0.6-0.1,1.1-0.4,1.4-0.8c0.3-0.4,0.4-0.9,0.5-1.6c0-0.7,0-1.5,0-2.6
			c0-1.6-0.2-3.1-0.6-4.6C95.2-70.4,94.6-71.9,93.8-73.2z M70.2-67.6c0.3-0.7,0.7-1.4,1.3-2c0.5-0.7,1.1-1.3,1.8-1.8
			c0.6-0.5,1.3-0.9,2-1.3c0.7-0.3,1.5-0.5,2.3-0.5c1.1,0,2,0.1,2.9,0.4c0.8,0.3,1.6,0.7,2.2,1.2c0.6,0.5,1.2,1.1,1.7,1.8
			c0.5,0.7,1,1.4,1.4,2.2H70.2z"/>
		<path class="st6" d="M133.4-73.2c-0.8-1.3-1.8-2.6-3-3.7c-1.2-1.1-2.4-2.1-3.8-2.9c-1.4-0.8-2.9-1.4-4.4-1.9s-3.2-0.7-4.9-0.7
			c-1.9,0-3.6,0.2-5.2,0.7c-1.7,0.5-3.2,1.2-4.6,2c-1.4,0.9-2.7,1.9-3.8,3.1c-1.1,1.2-2.1,2.5-2.9,4c-0.8,1.5-1.4,3-1.9,4.7
			c-0.4,1.7-0.6,3.4-0.6,5.2c0,2.8,0.5,5.5,1.6,7.9c1.1,2.4,2.5,4.5,4.4,6.3c1.9,1.8,4,3.2,6.5,4.2c2.4,1,5.1,1.5,7.8,1.5
			c2.5,0,4.8-0.4,7-1.4c2.2-0.9,4.2-2.2,6-3.8c0.3-0.3,0.5-0.5,0.8-0.8c0,0,0,0,0,0c0.7-0.8,1.1-1.8,1.1-2.9c0-2.5-2-4.6-4.6-4.6
			c-1.2,0-2.2,0.4-3,1.2c0,0-0.1,0-0.1,0.1c-0.4,0.3-0.9,0.7-1.5,1c-0.6,0.3-1.3,0.6-1.9,0.9c-0.7,0.2-1.5,0.4-2.2,0.6
			c-0.8,0.1-1.5,0.2-2.2,0.2c-0.8,0-1.7-0.1-2.6-0.3c-0.9-0.2-1.8-0.6-2.6-1.1c-0.8-0.5-1.5-1.2-2.1-2c-0.6-0.8-1-1.9-1.2-3.2h21.7
			c1.3,0,2.2-0.1,2.9-0.2c0.6-0.1,1.1-0.4,1.4-0.8c0.3-0.4,0.4-0.9,0.5-1.6c0-0.7,0-1.5,0-2.6c0-1.6-0.1-3.1-0.6-4.6
			C134.8-70.4,134.2-71.9,133.4-73.2z M109.8-67.6c0.3-0.7,0.7-1.4,1.3-2c0.5-0.7,1.1-1.3,1.8-1.8c0.6-0.5,1.3-0.9,2-1.3
			c0.7-0.3,1.5-0.5,2.3-0.5c1.1,0,2,0.1,2.9,0.4c0.8,0.3,1.6,0.7,2.2,1.2c0.6,0.5,1.2,1.1,1.7,1.8c0.5,0.7,1,1.4,1.4,2.2H109.8z"/>
	</g>
	<g>
		<path class="st6" d="M202.5-82.1l-1.4-2.5h-0.6v2.5h-1.3v-6.5h2.4c0.5,0,0.9,0.1,1.3,0.3c0.4,0.2,0.6,0.4,0.8,0.7
			c0.2,0.3,0.3,0.6,0.3,1c0,0.4-0.1,0.8-0.4,1.2c-0.2,0.3-0.6,0.6-1.1,0.7l1.5,2.6H202.5z M200.5-85.6h1.1c0.4,0,0.6-0.1,0.8-0.3
			c0.2-0.2,0.3-0.4,0.3-0.7c0-0.3-0.1-0.5-0.3-0.7c-0.2-0.2-0.4-0.2-0.8-0.2h-1.1V-85.6z"/>
	</g>
	<g>
		<path class="st6" d="M201.3-78.7c-3.7,0-6.6-3-6.6-6.6c0-3.7,3-6.6,6.6-6.6c3.7,0,6.6,3,6.6,6.6C207.9-81.7,204.9-78.7,201.3-78.7
			z M201.3-91c-3.1,0-5.6,2.5-5.6,5.6c0,3.1,2.5,5.6,5.6,5.6c3.1,0,5.6-2.5,5.6-5.6C206.9-88.5,204.4-91,201.3-91z"/>
	</g>
</g>
<g>
	<path class="st2" d="M231.2-58h-6.1l-1,2.9h-3.2l5.5-15.4h3.6l5.5,15.4h-3.3L231.2-58z M230.4-60.5l-2.2-6.4l-2.2,6.4H230.4z"/>
	<path class="st2" d="M241.1-64.7v5.9c0,0.4,0.1,0.7,0.3,0.9c0.2,0.2,0.5,0.3,1,0.3h1.4v2.6h-1.9c-2.6,0-3.9-1.3-3.9-3.8v-5.9h-1.5
		v-2.5h1.5v-3h3.1v3h2.7v2.5H241.1z"/>
	<path class="st2" d="M257.4-60.2h-8.9c0.1,0.9,0.4,1.6,0.9,2.1s1.2,0.7,2,0.7c1.1,0,2-0.5,2.4-1.5h3.3c-0.4,1.2-1,2.1-2,2.9
		c-1,0.8-2.2,1.1-3.7,1.1c-1.2,0-2.2-0.3-3.2-0.8c-0.9-0.5-1.7-1.3-2.2-2.2c-0.5-1-0.8-2.1-0.8-3.3c0-1.3,0.3-2.4,0.8-3.3
		c0.5-1,1.2-1.7,2.2-2.2c0.9-0.5,2-0.8,3.2-0.8c1.2,0,2.2,0.2,3.1,0.7c0.9,0.5,1.6,1.2,2.1,2.1c0.5,0.9,0.8,2,0.8,3.2
		C257.5-61,257.4-60.6,257.4-60.2z M254.3-62.3c0-0.8-0.3-1.4-0.9-1.9c-0.6-0.5-1.2-0.7-2-0.7c-0.8,0-1.4,0.2-1.9,0.7
		c-0.5,0.5-0.8,1.1-1,1.9H254.3z"/>
	<path class="st2" d="M270-66.1c0.9,0.9,1.3,2.2,1.3,3.8v7.2h-3.1v-6.7c0-1-0.2-1.7-0.7-2.2c-0.5-0.5-1.1-0.8-2-0.8
		c-0.9,0-1.5,0.3-2,0.8c-0.5,0.5-0.7,1.3-0.7,2.2v6.7h-3.1v-12.2h3.1v1.5c0.4-0.5,0.9-0.9,1.6-1.2c0.6-0.3,1.3-0.5,2.1-0.5
		C267.9-67.4,269.1-67,270-66.1z"/>
	<path class="st2" d="M274.2-64.5c0.5-1,1.2-1.7,2-2.2c0.9-0.5,1.8-0.8,2.8-0.8c0.8,0,1.6,0.2,2.3,0.5c0.7,0.3,1.3,0.8,1.7,1.4v-5.8
		h3.1v16.3h-3.1v-1.8c-0.4,0.6-0.9,1.1-1.6,1.5c-0.7,0.4-1.5,0.6-2.4,0.6c-1,0-2-0.3-2.8-0.8s-1.5-1.3-2-2.2c-0.5-1-0.7-2.1-0.7-3.3
		C273.5-62.4,273.7-63.5,274.2-64.5z M282.7-63.1c-0.3-0.5-0.7-0.9-1.2-1.2c-0.5-0.3-1-0.4-1.6-0.4s-1.1,0.1-1.6,0.4
		c-0.5,0.3-0.9,0.7-1.2,1.2c-0.3,0.5-0.5,1.2-0.5,1.9s0.2,1.4,0.5,1.9c0.3,0.6,0.7,1,1.2,1.3s1,0.4,1.6,0.4c0.6,0,1.1-0.1,1.6-0.4
		c0.5-0.3,0.9-0.7,1.2-1.2c0.3-0.5,0.4-1.2,0.4-1.9S283-62.6,282.7-63.1z"/>
</g>
<path class="st7" d="M-53.8,66.4h-58.9c-2.4,0-4.4-2-4.4-4.4V27.1c0-2.4,2-4.4,4.4-4.4h58.9c2.4,0,4.4,2,4.4,4.4V62
	C-49.3,64.4-51.3,66.4-53.8,66.4z"/>
<g>
	<path class="st2" d="M-106.3,41c0.6-1.1,1.5-2,2.6-2.6s2.4-0.9,3.8-0.9c1.6,0,3,0.4,4.3,1.2c1.2,0.8,2.1,2,2.6,3.5h-3.4
		c-0.3-0.7-0.8-1.2-1.4-1.6s-1.3-0.5-2.1-0.5c-0.8,0-1.6,0.2-2.3,0.6c-0.7,0.4-1.2,1-1.5,1.7c-0.4,0.7-0.6,1.6-0.6,2.5
		c0,1,0.2,1.8,0.6,2.5s0.9,1.3,1.5,1.7c0.7,0.4,1.4,0.6,2.3,0.6c0.8,0,1.5-0.2,2.1-0.5c0.6-0.4,1.1-0.9,1.4-1.6h3.4
		c-0.5,1.5-1.3,2.6-2.6,3.5c-1.2,0.8-2.6,1.2-4.3,1.2c-1.4,0-2.6-0.3-3.8-0.9c-1.1-0.6-2-1.5-2.6-2.6c-0.6-1.1-1-2.4-1-3.8
		S-107,42.2-106.3,41z"/>
	<path class="st2" d="M-83.1,52.2l-3.2-5.7h-1.4v5.7h-2.9V37.6h5.5c1.1,0,2.1,0.2,2.9,0.6s1.4,0.9,1.8,1.6c0.4,0.7,0.6,1.4,0.6,2.3
		c0,1-0.3,1.8-0.8,2.6c-0.6,0.8-1.4,1.3-2.5,1.6l3.5,5.9H-83.1z M-87.7,44.3h2.4c0.8,0,1.4-0.2,1.8-0.6s0.6-0.9,0.6-1.6
		c0-0.7-0.2-1.2-0.6-1.6s-1-0.6-1.8-0.6h-2.4V44.3z"/>
	<path class="st2" d="M-61.4,37.6v14.5h-2.9v-9.5l-3.9,9.5h-2.2l-3.9-9.5v9.5h-2.9V37.6h3.3l4.6,10.8l4.6-10.8H-61.4z"/>
</g>
<g>
	<g>
		<g>
			<path class="st8" d="M-173.6,33.9c3.1,0,5.6-2.5,5.6-5.6c0-3.1-2.5-5.6-5.6-5.6h-11.8V13c0-3.1-2.5-5.6-5.6-5.6
				c-3.1,0-5.6,2.5-5.6,5.6v33.5c0,11.4,7.9,20,18.4,20h4.6c3.1,0,5.6-2.5,5.6-5.6c0-3.1-2.5-5.6-5.6-5.6h-4.6
				c-5.6,0-7.2-5.4-7.2-8.7V33.9H-173.6z"/>
			<path class="st8" d="M-304.6,22.6c-4.7,0-8.9,1.8-12.1,4.8c-3.2-3-7.4-4.8-12.1-4.8c-9.8,0-17.8,8-17.8,17.8v20.2
				c0,3.1,2.5,5.6,5.6,5.6c3.1,0,5.6-2.5,5.6-5.6V40.4c0-3.6,2.9-6.5,6.5-6.5c3.6,0,6.5,2.9,6.5,6.5v20.2c0,3.1,2.5,5.6,5.6,5.6
				c3.1,0,5.6-2.5,5.7-5.6V40.4c0-0.1,0-0.2,0-0.4c0.2-3.4,3-6.2,6.5-6.2c3.6,0,6.5,2.9,6.5,6.5v20.2c0,3.1,2.5,5.6,5.6,5.6
				s5.6-2.5,5.6-5.6V40.4C-286.8,30.6-294.7,22.6-304.6,22.6z"/>
			<path class="st8" d="M-133.8,47c-0.9-1.5-2-2.7-3.4-3.7c-1.3-0.9-2.8-1.7-4.4-2.3c-1.5-0.5-3-1.1-4.5-1.5
				c-1.2-0.4-2.4-0.8-3.5-1.1c-1-0.3-1.9-0.7-2.7-1.1c-0.6-0.3-1.1-0.7-1.4-1.1c-0.2-0.2-0.3-0.4-0.3-0.8v-0.1c0-0.8,0.3-1.4,1-2
				c0.9-0.7,2.2-1,3.8-1c1.6,0,3.2,0.3,4.8,0.9c0.8,0.3,1.5,0.5,2.3,0.9c0.6,0.2,1.2,0.4,1.9,0.4c2.7,0,4.8-2.2,4.8-4.8
				c0-1.8-0.9-3.3-2.3-4.1c-0.1-0.1-0.1-0.1-0.1-0.1c-0.1,0-0.1-0.1-0.1-0.1c-0.3-0.2-0.6-0.3-0.9-0.4c-0.8-0.3-1.7-0.6-2.5-0.9
				c-2.6-0.8-5.2-1.2-7.7-1.2c-2.1,0-4,0.3-5.9,0.9c-1.9,0.6-3.5,1.5-4.8,2.6c-1.4,1.2-2.5,2.6-3.3,4.2c-0.8,1.7-1.2,3.4-1.2,5.4
				v0.2c0,2.2,0.5,4.1,1.5,5.6c0.9,1.5,2.2,2.6,3.6,3.6c1.3,0.9,2.9,1.6,4.5,2.2c1.5,0.5,3,1,4.5,1.5c1.2,0.3,2.3,0.7,3.4,1
				c1,0.3,1.8,0.7,2.6,1.1c0.6,0.3,1,0.7,1.3,1.1c0.1,0.2,0.3,0.4,0.3,0.9v0.2c0,1.1-0.4,1.8-1.2,2.4c-1,0.8-2.4,1.1-4.1,1.1
				c-1.9,0-3.9-0.4-5.8-1.1c-1.6-0.6-3.2-1.5-4.7-2.5c-0.7-0.4-1.6-0.6-2.4-0.6c-2.7,0-4.9,2.2-4.9,4.9c0,1.5,0.7,2.9,1.8,3.8v0.1
				c0.1,0.1,0.2,0.1,0.2,0.2c0.2,0.1,0.3,0.2,0.4,0.3c1.8,1.2,3.9,2.2,6.1,3c3,1.1,6,1.6,9,1.6c2.1,0,4.1-0.3,6-0.9
				c1.9-0.6,3.6-1.5,5-2.6c1.5-1.2,2.6-2.6,3.4-4.3c0.9-1.7,1.3-3.7,1.3-5.8v-0.2C-132.4,50.4-132.9,48.6-133.8,47z"/>
			<path class="st8" d="M-245.9,32.7c-0.9-1.5-2-2.9-3.3-4.1c-1.3-1.2-2.6-2.3-4.2-3.2c-1.5-0.9-3.2-1.6-4.9-2
				c-1.7-0.5-3.5-0.8-5.4-0.8c-2,0-3.9,0.3-5.8,0.8c-1.8,0.5-3.5,1.3-5.1,2.2c-1.6,1-3,2.1-4.2,3.4c-1.2,1.3-2.3,2.8-3.2,4.4
				c-0.9,1.6-1.6,3.3-2,5.2c-0.5,1.8-0.7,3.7-0.7,5.7c0,3.1,0.6,6,1.8,8.7c1.2,2.7,2.8,5,4.8,6.9c2,2,4.4,3.5,7.2,4.6
				c2.7,1.1,5.6,1.7,8.6,1.7c2.7,0,5.3-0.5,7.7-1.5c2.4-1,4.6-2.4,6.6-4.2c0.3-0.3,0.6-0.6,0.9-0.9c0,0,0,0,0-0.1
				c0.8-0.9,1.2-2,1.2-3.2c0-2.8-2.3-5.1-5.1-5.1c-1.3,0-2.5,0.5-3.3,1.3c-0.1,0.1-0.1,0.1-0.1,0.1c-0.4,0.4-1,0.8-1.6,1.1
				c-0.6,0.4-1.4,0.7-2.2,1c-0.8,0.3-1.6,0.5-2.5,0.6c-0.9,0.2-1.7,0.3-2.5,0.3c-0.9,0-1.8-0.1-2.9-0.4c-1-0.3-1.9-0.6-2.9-1.2
				c-0.9-0.6-1.7-1.3-2.4-2.3c-0.7-0.9-1.1-2.2-1.3-3.5h24c1.4,0,2.5-0.1,3.2-0.3c0.7-0.2,1.2-0.5,1.6-0.9c0.3-0.4,0.5-1,0.5-1.8
				c0.1-0.8,0.1-1.7,0.1-2.9c0.1-1.7-0.2-3.4-0.7-5.1C-244.3,35.8-245,34.2-245.9,32.7z M-271.9,38.9c0.4-0.8,0.8-1.5,1.4-2.2
				c0.6-0.8,1.2-1.4,1.9-2c0.7-0.6,1.5-1,2.3-1.4c0.8-0.3,1.7-0.5,2.5-0.5c1.2,0,2.3,0.2,3.2,0.5c0.9,0.3,1.7,0.8,2.4,1.3
				c0.7,0.5,1.3,1.2,1.9,1.9c0.5,0.8,1.1,1.5,1.5,2.4H-271.9z"/>
			<path class="st8" d="M-202.2,32.7c-0.9-1.5-2-2.9-3.3-4.1c-1.3-1.2-2.6-2.3-4.2-3.2c-1.5-0.9-3.2-1.6-4.9-2
				c-1.7-0.5-3.5-0.8-5.4-0.8c-2,0-3.9,0.3-5.8,0.8c-1.8,0.5-3.5,1.3-5.1,2.2c-1.6,1-3,2.1-4.2,3.4c-1.2,1.3-2.3,2.8-3.2,4.4
				c-0.9,1.6-1.6,3.3-2,5.2c-0.5,1.8-0.7,3.7-0.7,5.7c0,3.1,0.6,6,1.8,8.7c1.2,2.7,2.8,5,4.8,6.9c2,2,4.4,3.5,7.2,4.6
				c2.7,1.1,5.6,1.7,8.6,1.7c2.7,0,5.3-0.5,7.7-1.5c2.4-1,4.6-2.4,6.6-4.2c0.3-0.3,0.6-0.6,0.9-0.9c0,0,0,0,0-0.1
				c0.8-0.9,1.2-2,1.2-3.2c0-2.8-2.3-5.1-5.1-5.1c-1.3,0-2.5,0.5-3.3,1.3c-0.1,0.1-0.1,0.1-0.1,0.1c-0.4,0.4-1,0.8-1.6,1.1
				c-0.6,0.4-1.4,0.7-2.2,1c-0.8,0.3-1.6,0.5-2.5,0.6c-0.9,0.2-1.7,0.3-2.5,0.3c-0.9,0-1.8-0.1-2.9-0.4c-1-0.3-1.9-0.6-2.9-1.2
				c-0.9-0.6-1.7-1.3-2.4-2.3c-0.7-0.9-1.1-2.2-1.3-3.5h24c1.4,0,2.5-0.1,3.2-0.3c0.7-0.2,1.2-0.5,1.6-0.9s0.5-1,0.5-1.8
				c0.1-0.8,0.1-1.7,0.1-2.9c0.1-1.7-0.2-3.4-0.7-5.1C-200.6,35.8-201.3,34.2-202.2,32.7z M-228.2,38.9c0.4-0.8,0.8-1.5,1.4-2.2
				c0.6-0.8,1.2-1.4,1.9-2c0.7-0.6,1.5-1,2.3-1.4c0.8-0.3,1.7-0.5,2.5-0.5c1.2,0,2.3,0.2,3.2,0.5c0.9,0.3,1.7,0.8,2.4,1.3
				c0.7,0.5,1.3,1.2,1.9,1.9c0.5,0.8,1.1,1.5,1.5,2.4H-228.2z"/>
		</g>
		<g>
			<path class="st8" d="M-125.9,22.8l-1.6-2.8h-0.7v2.8h-1.4v-7.1h2.7c0.6,0,1,0.1,1.4,0.3c0.4,0.2,0.7,0.5,0.9,0.8s0.3,0.7,0.3,1.1
				c0,0.5-0.1,0.9-0.4,1.3c-0.3,0.4-0.7,0.6-1.2,0.8l1.7,2.9H-125.9z M-128.1,19h1.2c0.4,0,0.7-0.1,0.9-0.3c0.2-0.2,0.3-0.4,0.3-0.8
				c0-0.3-0.1-0.6-0.3-0.8c-0.2-0.2-0.5-0.3-0.9-0.3h-1.2V19z"/>
		</g>
		<g>
			<path class="st8" d="M-127.2,26.6c-4,0-7.3-3.3-7.3-7.3s3.3-7.3,7.3-7.3s7.3,3.3,7.3,7.3S-123.2,26.6-127.2,26.6z M-127.2,13.1
				c-3.4,0-6.2,2.8-6.2,6.2s2.8,6.2,6.2,6.2c3.4,0,6.2-2.8,6.2-6.2S-123.8,13.1-127.2,13.1z"/>
		</g>
	</g>
</g>
</svg>
