<?xml version="1.0" encoding="utf-8"?>
<!-- Generator: Adobe Illustrator 21.0.0, SVG Export Plug-In . SVG Version: 6.00 Build 0)  -->
<svg version="1.1" id="Camada_1" xmlns="http://www.w3.org/2000/svg" xmlns:xlink="http://www.w3.org/1999/xlink" x="0px" y="0px"
	 viewBox="0 0 280 280" enable-background="new 0 0 280 280" xml:space="preserve">
<path fill="#20242F" d="M249.8,200.5V79.5c0-6.1-3.3-11.8-8.5-14.8L136.5,4.3c-5.3-3.1-11.8-3.1-17.1,0L14.7,64.7
	c-5.3,3.1-8.5,8.7-8.5,14.8v120.9c0,6.1,3.3,11.8,8.5,14.8l104.7,60.5c5.3,3.1,11.8,3.1,17.1,0l104.7-60.5
	C246.5,212.2,249.8,206.6,249.8,200.5z"/>
<path fill="#00BC59" d="M149.1,104.6c0,1.2-0.4,1.5-1.6,1.2c-13.4-4-24.6-11.3-32.3-23.2c-0.4-0.6-4.3-6.6-6.4-13.4
	c-2.1-6.1-3.3-12.3-3.7-18.7c-0.2-3.5-0.3-7-0.2-10.5c0.1-1.4,0.4-1.7,1.8-1.5c8.5,1.6,15.9,5.5,22.1,11.6
	c4.9,4.7,8.8,10.2,11.7,16.3c0.1,0.2,2,4,2.2,4.8C144.8,76.7,149.1,90.8,149.1,104.6z"/>
<g>
	<path fill="#FFFFFF" d="M151.1,201.5c0-25.9,0-51.9,0-77.8c0-5.6-2.8-6-4.7-6c-11.9,0-23.8,0-35.7,0l0,0l0,0
		c-2.9-0.1-5.9,2.2-5.9,5.6c0,2.7,0,8,0,10.7c0,1.1-0.2,5.6,5,5.6c4.3,0,13.5,0,16.1,0c1,0,2.2,0.2,2.2,3.4c0,15.9,0,31.7,0,47.6
		c0,4.6-0.1,9.2,0,13.8c0,2.7-1.9,7-4.2,9.5c-2,2.2-4.4,3.7-7.1,4.7l0,0v0l0,0h0c-2.5,0.6-5,0.8-7.5,0.9c-0.6,0-1.2,0.2-1.7,0.5l0,0
		c-0.5,0.2-0.9,0.5-1.2,0.9c-0.4,0.1-0.5,0.4-0.6,0.7l0,0l0,0v0l0,0l0,0c-0.8,0.9-0.9,2.1-0.9,3.2c0,3.8,0,7.7,0,11.5
		c0,0.7,0.5,5.2,5.3,5.2c9.8,0.3,18.6-2.4,26.3-8.5c11.4-8.5,13.5-20.9,14.2-25C151,206.1,151.1,201.8,151.1,201.5z M105.9,221.6
		c0-0.1,0.1-0.1,0.1-0.1C106,221.6,105.9,221.6,105.9,221.6C105.9,221.6,105.9,221.6,105.9,221.6L105.9,221.6L105.9,221.6
		L105.9,221.6z M150.8,205L150.8,205c0-0.1,0-0.1,0.1-0.1C150.8,204.9,150.8,204.9,150.8,205z"/>
</g>
<g>
	
		<image overflow="visible" opacity="0.52" width="93" height="89" xlink:href="51A9D83F.png"  transform="matrix(1 0 0 1 145.5896 126)">
	</image>
	<g>
		<path fill="#F5F8F9" d="M218.1,140.1h-50.8c-3.1,0-5.6,2.5-5.6,5.6v38.4c0,3.1,2.5,5.6,5.6,5.6h32.4v9.1l12.6-9.1h5.9
			c3.1,0,5.6-2.5,5.6-5.6v-38.4C223.6,142.6,221.1,140.1,218.1,140.1L218.1,140.1z M218.1,140.1"/>
	</g>
</g>
<path fill="#E8EDF2" d="M223.6,182.9v1.3c0,3.1-2.5,5.6-5.6,5.6h-5.9l-12.6,9.1v-9.1h-32.4c-3.1,0-5.6-2.5-5.6-5.6v-38.4
	c0-3.1,2.5-5.6,5.6-5.6h10.5v37.1c0,3.1,2.5,5.6,5.6,5.6L223.6,182.9L223.6,182.9z M223.6,182.9"/>
<g>
	
		<line fill="none" stroke="#666666" stroke-width="2" stroke-linecap="round" stroke-miterlimit="10" x1="172.2" y1="159.7" x2="215" y2="159.7"/>
	
		<line fill="none" stroke="#666666" stroke-width="2" stroke-linecap="round" stroke-miterlimit="10" x1="172.2" y1="166.2" x2="210.2" y2="166.2"/>
	
		<line fill="none" stroke="#666666" stroke-width="2" stroke-linecap="round" stroke-miterlimit="10" x1="172.2" y1="172.7" x2="187.7" y2="172.7"/>
</g>
<g>
	
		<image overflow="visible" opacity="0.52" width="109" height="105" xlink:href="51A9D83D.png"  transform="matrix(1 0 0 1 176.5896 76)">
	</image>
	<g>
		<path fill="#F5F8F9" d="M264.5,90.8h-63.9c-3.9,0-7,3.1-7,7v48.4c0,3.9,3.1,7,7,7h40.8v11.4l15.8-11.4h7.4c3.9,0,7-3.1,7-7V97.9
			C271.6,94,268.4,90.8,264.5,90.8L264.5,90.8z M264.5,90.8"/>
	</g>
</g>
<path fill="#E8EDF2" d="M271.6,144.6v1.6c0,3.9-3.1,7-7,7h-7.4l-15.8,11.4v-11.4h-40.8c-3.9,0-7-3.1-7-7V97.9c0-3.9,3.1-7,7-7h13.2
	v46.7c0,3.9,3.1,7,7,7L271.6,144.6L271.6,144.6z M271.6,144.6"/>
<g>
	
		<line fill="none" stroke="#666666" stroke-width="2" stroke-linecap="round" stroke-miterlimit="10" x1="206.9" y1="115.5" x2="260.7" y2="115.5"/>
	
		<line fill="none" stroke="#666666" stroke-width="2" stroke-linecap="round" stroke-miterlimit="10" x1="206.9" y1="123.7" x2="254.6" y2="123.7"/>
	
		<line fill="none" stroke="#666666" stroke-width="2" stroke-linecap="round" stroke-miterlimit="10" x1="206.9" y1="131.8" x2="226.4" y2="131.8"/>
</g>
<g>
	
		<image overflow="visible" opacity="0.52" width="94" height="91" xlink:href="51A9D843.png"  transform="matrix(1 0 0 1 -0.4104 13)">
	</image>
	<g>
		<path fill="#F5F8F9" d="M73.4,27.8H22c-3.1,0-5.7,2.5-5.7,5.7v38.9c0,3.1,2.5,5.7,5.7,5.7h32.8v9.2l12.7-9.2h5.9
			c3.1,0,5.7-2.5,5.7-5.7V33.5C79.1,30.3,76.5,27.8,73.4,27.8L73.4,27.8z M73.4,27.8"/>
	</g>
</g>
<path fill="#E8EDF2" d="M79.1,71.1v1.3c0,3.1-2.5,5.7-5.7,5.7h-5.9l-12.7,9.2v-9.2H22c-3.1,0-5.7-2.5-5.7-5.7V33.5
	c0-3.1,2.5-5.7,5.7-5.7h10.6v37.6c0,3.1,2.5,5.7,5.7,5.7L79.1,71.1L79.1,71.1z M79.1,71.1"/>
<g>
	
		<line fill="none" stroke="#666666" stroke-width="2" stroke-linecap="round" stroke-miterlimit="10" x1="27" y1="47.7" x2="70.3" y2="47.7"/>
	
		<line fill="none" stroke="#666666" stroke-width="2" stroke-linecap="round" stroke-miterlimit="10" x1="27" y1="54.2" x2="65.5" y2="54.2"/>
	
		<line fill="none" stroke="#666666" stroke-width="2" stroke-linecap="round" stroke-miterlimit="10" x1="27" y1="60.8" x2="42.7" y2="60.8"/>
</g>
<g>
	
		<image overflow="visible" opacity="0.52" width="71" height="68" xlink:href="51A9D845.png"  transform="matrix(1 0 0 1 17.5896 200)">
	</image>
	<g>
		<path fill="#F5F8F9" d="M70.4,214.3H37.9c-2,0-3.6,1.6-3.6,3.6v24.6c0,2,1.6,3.6,3.6,3.6h20.7v5.8l8-5.8h3.7c2,0,3.6-1.6,3.6-3.6
			v-24.6C73.9,215.9,72.3,214.3,70.4,214.3L70.4,214.3z M70.4,214.3"/>
	</g>
</g>
<path fill="#E8EDF2" d="M73.9,241.6v0.8c0,2-1.6,3.6-3.6,3.6h-3.7l-8,5.8V246H37.9c-2,0-3.6-1.6-3.6-3.6v-24.6c0-2,1.6-3.6,3.6-3.6
	h6.7v23.7c0,2,1.6,3.6,3.6,3.6L73.9,241.6L73.9,241.6z M73.9,241.6"/>
<g>
	
		<line fill="none" stroke="#666666" stroke-width="2" stroke-linecap="round" stroke-miterlimit="10" x1="41.1" y1="226.9" x2="68.4" y2="226.9"/>
	
		<line fill="none" stroke="#666666" stroke-width="2" stroke-linecap="round" stroke-miterlimit="10" x1="41.1" y1="231" x2="65.3" y2="231"/>
	
		<line fill="none" stroke="#666666" stroke-width="2" stroke-linecap="round" stroke-miterlimit="10" x1="41.1" y1="235.1" x2="51" y2="235.1"/>
</g>
</svg>
