<?xml version="1.0" encoding="utf-8"?>
<!-- Generator: Adobe Illustrator 27.1.1, SVG Export Plug-In . SVG Version: 6.00 Build 0)  -->
<svg version="1.1" id="Layer_1" xmlns="http://www.w3.org/2000/svg" xmlns:xlink="http://www.w3.org/1999/xlink" x="0px" y="0px"
	 viewBox="0 0 150 99.9" style="enable-background:new 0 0 150 99.9;" xml:space="preserve">
<style type="text/css">
	.st0{fill:#C6F2FF;stroke:#009BE9;stroke-width:2;stroke-linecap:round;stroke-linejoin:round;stroke-miterlimit:10;}
	.st1{fill-rule:evenodd;clip-rule:evenodd;fill:#FFFFFF;stroke:#009BE9;stroke-width:2;stroke-miterlimit:10;}
	.st2{fill:#FFFFFF;stroke:#009BE9;stroke-width:2;stroke-miterlimit:10;}
	.st3{fill:none;stroke:#009BE9;stroke-width:2;stroke-miterlimit:10;}
	.st4{fill:#C6F2FF;stroke:#009BE9;stroke-width:2;stroke-miterlimit:10;}
	.st5{fill:#28A5F9;}
	.st6{fill-rule:evenodd;clip-rule:evenodd;fill:#C6F2FF;}
	
		.st7{fill-rule:evenodd;clip-rule:evenodd;fill:#FFFFFF;stroke:#009BE9;stroke-width:2;stroke-linecap:round;stroke-linejoin:round;stroke-miterlimit:10;}
	.st8{fill:#FFFFFF;stroke:#009BE9;stroke-width:2;stroke-linecap:round;stroke-linejoin:round;stroke-miterlimit:10;}
	.st9{fill:#C6F2FF;}
	.st10{fill:#FFFFFF;stroke:#009BE9;stroke-width:2.4194;stroke-linecap:round;stroke-linejoin:round;stroke-miterlimit:10;}
	.st11{fill:#C6F2FF;stroke:#009BE9;stroke-width:2.4194;stroke-linecap:round;stroke-linejoin:round;stroke-miterlimit:10;}
	.st12{fill:#009BFF;stroke:#009BE9;stroke-width:2;stroke-linecap:round;stroke-linejoin:round;stroke-miterlimit:10;}
	.st13{fill:#C6F2FF;stroke:#009BE9;stroke-width:2.0573;stroke-linecap:round;stroke-linejoin:round;stroke-miterlimit:10;}
</style>
<path class="st8" d="M147.5,50.1c0,19.6-15.9,35.6-35.6,35.6c-19.6,0-35.6-15.9-35.6-35.6c0-19.6,15.9-35.6,35.6-35.6
	C131.5,14.6,147.5,30.5,147.5,50.1L147.5,50.1z M147.5,50.1"/>
<path class="st8" d="M74,50.1c0,19.6-15.9,35.6-35.6,35.6c-19.6,0-35.6-15.9-35.6-35.6c0-19.6,15.9-35.6,35.6-35.6
	C58.1,14.6,74,30.5,74,50.1L74,50.1z M74,50.1"/>
<path class="st0" d="M132.2,77.3v2c-5.8,4-12.8,6.4-20.3,6.4c-7.5,0-14.6-2.4-20.3-6.4v-2c0-11.2,9.1-20.3,20.3-20.3
	c5.6,0,10.7,2.3,14.4,5.9C129.9,66.7,132.2,71.7,132.2,77.3L132.2,77.3z M132.2,77.3"/>
<path class="st0" d="M125.3,43.6c0,7.4-6,13.4-13.4,13.4c-7.4,0-13.4-6-13.4-13.4c0-7.4,6-13.4,13.4-13.4
	C119.3,30.2,125.3,36.2,125.3,43.6L125.3,43.6z M125.3,43.6"/>
<path class="st8" d="M61.9,50.1c0,7.6,6,13.8,13.6,14v0h10.3V36.1H75.4v0C67.9,36.3,61.9,42.5,61.9,50.1z"/>
<path class="st9" d="M65.3,50.1c0,5.4,4.3,9.9,9.7,10v0h0.7V40.1H75v0C69.6,40.3,65.3,44.7,65.3,50.1z"/>
<path class="st0" d="M85.9,60.3v-3.9h6c1.1,0,2,0.9,2,2v0c0,1.1-0.9,2-2,2H85.9z"/>
<path class="st0" d="M85.9,43.9V40h6c1.1,0,2,0.9,2,2v0c0,1.1-0.9,2-2,2H85.9z"/>
<g>
	<path class="st0" d="M58.6,71.6v-5.8H18.3v5.8C18.3,71.6,57.7,71.6,58.6,71.6z"/>
	<path class="st8" d="M56.5,39.3v26.6H20.4V39.3C20.4,39.3,55.7,39.3,56.5,39.3z"/>
	<path class="st8" d="M51.1,30.7v35.2H25.8V30.7C25.8,30.7,50.5,30.7,51.1,30.7z"/>
	<path class="st0" d="M46.7,30.7V27H30.2v3.6C30.2,30.7,46.3,30.7,46.7,30.7z"/>
	<g>
		<path class="st0" d="M42.2,37.6v-3H25.8v3C25.8,37.6,41.9,37.6,42.2,37.6z"/>
		<path class="st0" d="M44.8,37.6v-3H48v3C48,37.6,44.8,37.6,44.8,37.6z"/>
	</g>
	<g>
		<path class="st0" d="M42.2,46v-3H25.8v3C25.8,46,41.9,46,42.2,46z"/>
		<path class="st0" d="M44.8,46v-3H48v3C48,46,44.8,46,44.8,46z"/>
	</g>
	<g>
		<path class="st0" d="M42.2,54.3v-3H25.8v3C25.8,54.3,41.9,54.3,42.2,54.3z"/>
		<path class="st0" d="M44.8,54.3v-3H48v3C48,54.3,44.8,54.3,44.8,54.3z"/>
	</g>
	<g>
		<path class="st0" d="M42.2,62.7v-3H25.8v3C25.8,62.7,41.9,62.7,42.2,62.7z"/>
		<path class="st0" d="M44.8,62.7v-3H48v3C48,62.7,44.8,62.7,44.8,62.7z"/>
	</g>
	<path class="st8" d="M44.4,23.5V27H32.5v-3.5C32.5,23.5,44.1,23.5,44.4,23.5z"/>
</g>
</svg>
