<?xml version="1.0" encoding="utf-8"?>
<!-- Generator: Adobe Illustrator 27.1.1, SVG Export Plug-In . SVG Version: 6.00 Build 0)  -->
<svg version="1.1" id="Layer_1" xmlns="http://www.w3.org/2000/svg" xmlns:xlink="http://www.w3.org/1999/xlink" x="0px" y="0px"
	 viewBox="0 0 150 99.9" style="enable-background:new 0 0 150 99.9;" xml:space="preserve">
<style type="text/css">
	.st0{fill:#C6F2FF;stroke:#009BE9;stroke-width:2;stroke-linecap:round;stroke-linejoin:round;stroke-miterlimit:10;}
	.st1{fill-rule:evenodd;clip-rule:evenodd;fill:#FFFFFF;stroke:#009BE9;stroke-width:2;stroke-miterlimit:10;}
	.st2{fill:#FFFFFF;stroke:#009BE9;stroke-width:2;stroke-miterlimit:10;}
	.st3{fill:none;stroke:#009BE9;stroke-width:2;stroke-miterlimit:10;}
	.st4{fill:#C6F2FF;stroke:#009BE9;stroke-width:2;stroke-miterlimit:10;}
	.st5{fill:#28A5F9;}
	.st6{fill-rule:evenodd;clip-rule:evenodd;fill:#C6F2FF;}
	
		.st7{fill-rule:evenodd;clip-rule:evenodd;fill:#FFFFFF;stroke:#009BE9;stroke-width:2;stroke-linecap:round;stroke-linejoin:round;stroke-miterlimit:10;}
	.st8{fill:#FFFFFF;stroke:#009BE9;stroke-width:2;stroke-linecap:round;stroke-linejoin:round;stroke-miterlimit:10;}
	.st9{fill:#C6F2FF;}
	.st10{fill:#FFFFFF;stroke:#009BE9;stroke-width:2.4194;stroke-linecap:round;stroke-linejoin:round;stroke-miterlimit:10;}
	.st11{fill:#C6F2FF;stroke:#009BE9;stroke-width:2.4194;stroke-linecap:round;stroke-linejoin:round;stroke-miterlimit:10;}
	.st12{fill:#009BFF;stroke:#009BE9;stroke-width:2;stroke-linecap:round;stroke-linejoin:round;stroke-miterlimit:10;}
	.st13{fill:#C6F2FF;stroke:#009BE9;stroke-width:2.0573;stroke-linecap:round;stroke-linejoin:round;stroke-miterlimit:10;}
	.st14{fill:#FFFFFF;stroke:#009BE9;stroke-width:2.0611;stroke-linecap:round;stroke-linejoin:round;stroke-miterlimit:10;}
	.st15{fill:#C6F2FF;stroke:#009BE9;stroke-width:2.0611;stroke-linecap:round;stroke-linejoin:round;stroke-miterlimit:10;}
	.st16{fill:none;stroke:#009BE9;stroke-width:2.0611;stroke-linecap:round;stroke-linejoin:round;stroke-miterlimit:10;}
	.st17{fill:#009BE9;}
</style>
<g>
	<path class="st14" d="M129.6,95.2H20.4c-4.5,0-8.2-3.7-8.2-8.2V10.8c0-4.5,3.7-8.2,8.2-8.2h109.2c4.5,0,8.2,3.7,8.2,8.2V87
		C137.8,91.6,134.1,95.2,129.6,95.2z"/>
	<path class="st15" d="M145.8,95v-5.2H4.2V95c0,2.1,2.3,3.8,5.1,3.8h131.5C143.5,98.8,145.8,97.1,145.8,95z"/>
	<path class="st16" d="M127.5,83.8h-105c-2.7,0-4.8-2.2-4.8-4.8V12.8c0-2.7,2.2-4.8,4.8-4.8h105c2.7,0,4.8,2.2,4.8,4.8v66.1
		C132.3,81.6,130.2,83.8,127.5,83.8z"/>
	<line class="st16" x1="131.9" y1="19.5" x2="17.7" y2="19.5"/>
	<g>
		<circle class="st17" cx="25.2" cy="14" r="1.9"/>
		<circle class="st17" cx="31.4" cy="14" r="1.9"/>
		<circle class="st17" cx="37.6" cy="14" r="1.9"/>
	</g>
	<path class="st15" d="M70.2,48.1H24.7c-0.6,0-1.1-0.5-1.1-1.1V27.5c0-0.6,0.5-1.1,1.1-1.1h45.5c0.6,0,1.1,0.5,1.1,1.1V47
		C71.3,47.6,70.8,48.1,70.2,48.1z"/>
	<path class="st15" d="M125.2,48.1H79.7c-0.6,0-1.1-0.5-1.1-1.1V27.5c0-0.6,0.5-1.1,1.1-1.1h45.5c0.6,0,1.1,0.5,1.1,1.1V47
		C126.3,47.6,125.8,48.1,125.2,48.1z"/>
	<path class="st15" d="M51.1,77.1H26.2c-1.4,0-2.6-1.2-2.6-2.6V58c0-1.4,1.2-2.6,2.6-2.6h24.9c1.4,0,2.6,1.2,2.6,2.6v16.4
		C53.7,75.9,52.5,77.1,51.1,77.1z"/>
	<path class="st15" d="M87.4,77.1H62.5c-1.4,0-2.6-1.2-2.6-2.6V58c0-1.4,1.2-2.6,2.6-2.6h24.9c1.4,0,2.6,1.2,2.6,2.6v16.4
		C90,75.9,88.8,77.1,87.4,77.1z"/>
	<path class="st15" d="M123.7,77.1H98.8c-1.4,0-2.6-1.2-2.6-2.6V58c0-1.4,1.2-2.6,2.6-2.6h24.9c1.4,0,2.6,1.2,2.6,2.6v16.4
		C126.3,75.9,125.1,77.1,123.7,77.1z"/>
</g>
</svg>
