<?xml version="1.0" encoding="utf-8"?>
<!-- Generator: Adobe Illustrator 27.1.1, SVG Export Plug-In . SVG Version: 6.00 Build 0)  -->
<svg version="1.1" id="Layer_1" xmlns="http://www.w3.org/2000/svg" xmlns:xlink="http://www.w3.org/1999/xlink" x="0px" y="0px"
	 viewBox="0 0 150 99.9" style="enable-background:new 0 0 150 99.9;" xml:space="preserve">
<style type="text/css">
	.st0{fill:#C6F2FF;stroke:#009BE9;stroke-width:3;stroke-linecap:round;stroke-linejoin:round;stroke-miterlimit:10;}
	.st1{fill-rule:evenodd;clip-rule:evenodd;fill:#FFFFFF;stroke:#009BE9;stroke-width:3.0133;stroke-miterlimit:10;}
	.st2{fill:#FFFFFF;stroke:#009BE9;stroke-width:3;stroke-miterlimit:10;}
	.st3{fill:none;stroke:#009BE9;stroke-width:3;stroke-miterlimit:10;}
	.st4{fill:#C6F2FF;stroke:#009BE9;stroke-width:3;stroke-miterlimit:10;}
	.st5{fill:#28A5F9;}
	.st6{fill-rule:evenodd;clip-rule:evenodd;fill:#C6F2FF;}
	
		.st7{fill-rule:evenodd;clip-rule:evenodd;fill:#FFFFFF;stroke:#009BE9;stroke-width:2;stroke-linecap:round;stroke-linejoin:round;stroke-miterlimit:10;}
	.st8{fill:#FFFFFF;stroke:#009BE9;stroke-width:3.459;stroke-linecap:round;stroke-linejoin:round;stroke-miterlimit:10;}
	.st9{fill:#C6F2FF;stroke:#009BE9;stroke-width:3.459;stroke-linecap:round;stroke-linejoin:round;stroke-miterlimit:10;}
	.st10{fill:#FFFFFF;stroke:#009BE9;stroke-width:2.7303;stroke-linecap:round;stroke-linejoin:round;stroke-miterlimit:10;}
	.st11{fill:#C6F2FF;}
	.st12{fill:#C6F2FF;stroke:#009BE9;stroke-width:2.7303;stroke-linecap:round;stroke-linejoin:round;stroke-miterlimit:10;}
	.st13{fill:#C6F2FF;stroke:#009BE9;stroke-width:2;stroke-linecap:round;stroke-linejoin:round;stroke-miterlimit:10;}
	.st14{fill:#FFFFFF;stroke:#009BE9;stroke-width:2;stroke-linecap:round;stroke-linejoin:round;stroke-miterlimit:10;}
	.st15{fill:#FFFFFF;stroke:#009BE9;stroke-width:2.4194;stroke-linecap:round;stroke-linejoin:round;stroke-miterlimit:10;}
	.st16{fill:#C6F2FF;stroke:#009BE9;stroke-width:2.4194;stroke-linecap:round;stroke-linejoin:round;stroke-miterlimit:10;}
	.st17{fill:#009BFF;stroke:#009BE9;stroke-width:2;stroke-linecap:round;stroke-linejoin:round;stroke-miterlimit:10;}
	.st18{fill:#C6F2FF;stroke:#009BE9;stroke-width:2.0573;stroke-linecap:round;stroke-linejoin:round;stroke-miterlimit:10;}
</style>
<g>
	<polygon class="st15" points="85.4,11.5 5.9,11.5 16.4,32.2 75,32.2 	"/>
	<polygon class="st15" points="45.8,90 58.7,64.3 32.7,64.3 	"/>
	<polygon class="st16" points="16.4,32.2 32.7,64.3 58.7,64.3 75,32.2 	"/>
</g>
<path class="st15" d="M88.4,94.3H49.1c-1.8,0-3.3-1.5-3.3-3.3V11.2c0-1.8,1.5-3.3,3.3-3.3h39.3c1.8,0,3.3,1.5,3.3,3.3V91
	C91.7,92.9,90.2,94.3,88.4,94.3z"/>
<line class="st17" x1="45.8" y1="21.8" x2="91.5" y2="21.8"/>
<path class="st11" d="M50.3,50.7v14.8c0,0.9,0.8,1.6,1.8,1.6h32.8c1,0,1.8-0.7,1.8-1.6V50.7c0-0.9-0.8-1.6-1.8-1.6H52.1
	C51.1,49.1,50.3,49.8,50.3,50.7z"/>
<path class="st11" d="M50.3,72.7v14.8c0,0.9,0.8,1.6,1.8,1.6h32.8c1,0,1.8-0.7,1.8-1.6V72.7c0-0.9-0.8-1.6-1.8-1.6H52.1
	C51.1,71.1,50.3,71.8,50.3,72.7z"/>
<path class="st18" d="M101.2,94.1l40.7-12.7c1.6-0.5,2.4-2.1,1.9-3.7l-6.6-21.2c-0.5-1.6-2.1-2.4-3.7-1.9L92.8,67.2
	c-0.9,0.3-1.6,0.9-1.9,1.8l-5,13.2c-0.5,1.3,0,2.7,1.1,3.5l11.6,8C99.4,94.2,100.3,94.4,101.2,94.1z M96.6,84.2
	c-1.7,0.5-3.6-0.4-4.1-2.2s0.4-3.6,2.2-4.1s3.6,0.4,4.1,2.2C99.3,81.8,98.4,83.7,96.6,84.2z"/>
<path class="st18" d="M97.8,73.1l36.8-28.6c1.4-1.1,1.7-3.1,0.6-4.5l-14.9-19.1c-1.1-1.4-3.1-1.7-4.5-0.6L78.9,48.9
	c-0.8,0.6-1.2,1.5-1.2,2.5l-0.1,15.4c0,1.5,1,2.8,2.4,3.1l15,3.7C96,74,97,73.8,97.8,73.1z M89.3,64.8c-1.6,1.2-3.8,0.9-5.1-0.6
	c-1.2-1.6-0.9-3.8,0.6-5.1c1.6-1.2,3.8-0.9,5.1,0.6S90.9,63.6,89.3,64.8z"/>
<path class="st15" d="M70.5,28.7v14.8c0,0.9,0.8,1.6,1.8,1.6h32.8c1,0,1.8-0.7,1.8-1.6V28.7c0-0.9-0.8-1.6-1.8-1.6H72.4
	C71.4,27.1,70.5,27.8,70.5,28.7z"/>
</svg>
