<?xml version="1.0" encoding="utf-8"?>
<!-- Generator: Adobe Illustrator 27.1.1, SVG Export Plug-In . SVG Version: 6.00 Build 0)  -->
<svg version="1.1" id="Layer_1" xmlns="http://www.w3.org/2000/svg" xmlns:xlink="http://www.w3.org/1999/xlink" x="0px" y="0px"
	 viewBox="0 0 150 99.9" style="enable-background:new 0 0 150 99.9;" xml:space="preserve">
<style type="text/css">
	.st0{fill:#C6F2FF;stroke:#009BE9;stroke-width:2;stroke-linecap:round;stroke-linejoin:round;stroke-miterlimit:10;}
	.st1{fill-rule:evenodd;clip-rule:evenodd;fill:#FFFFFF;stroke:#009BE9;stroke-width:2;stroke-miterlimit:10;}
	.st2{fill:#FFFFFF;stroke:#009BE9;stroke-width:2;stroke-miterlimit:10;}
	.st3{fill:none;stroke:#009BE9;stroke-width:2;stroke-miterlimit:10;}
	.st4{fill:#C6F2FF;stroke:#009BE9;stroke-width:2;stroke-miterlimit:10;}
	.st5{fill:#28A5F9;}
	.st6{fill-rule:evenodd;clip-rule:evenodd;fill:#C6F2FF;}
	
		.st7{fill-rule:evenodd;clip-rule:evenodd;fill:#FFFFFF;stroke:#009BE9;stroke-width:2;stroke-linecap:round;stroke-linejoin:round;stroke-miterlimit:10;}
	.st8{fill:#FFFFFF;stroke:#009BE9;stroke-width:3.459;stroke-linecap:round;stroke-linejoin:round;stroke-miterlimit:10;}
	.st9{fill:#C6F2FF;stroke:#009BE9;stroke-width:3.459;stroke-linecap:round;stroke-linejoin:round;stroke-miterlimit:10;}
	.st10{fill:#FFFFFF;stroke:#009BE9;stroke-width:2.7303;stroke-linecap:round;stroke-linejoin:round;stroke-miterlimit:10;}
	.st11{fill:#C6F2FF;}
	.st12{fill:#C6F2FF;stroke:#009BE9;stroke-width:2.7303;stroke-linecap:round;stroke-linejoin:round;stroke-miterlimit:10;}
	.st13{fill:#FFFFFF;stroke:#009BE9;stroke-width:2;stroke-linecap:round;stroke-linejoin:round;stroke-miterlimit:10;}
	.st14{fill:#FFFFFF;stroke:#009BE9;stroke-width:2.4194;stroke-linecap:round;stroke-linejoin:round;stroke-miterlimit:10;}
	.st15{fill:#C6F2FF;stroke:#009BE9;stroke-width:2.4194;stroke-linecap:round;stroke-linejoin:round;stroke-miterlimit:10;}
	.st16{fill:#009BFF;stroke:#009BE9;stroke-width:2;stroke-linecap:round;stroke-linejoin:round;stroke-miterlimit:10;}
	.st17{fill:#C6F2FF;stroke:#009BE9;stroke-width:2.0573;stroke-linecap:round;stroke-linejoin:round;stroke-miterlimit:10;}
</style>
<path class="st0" d="M91.7,83.5c-18.8,18.8-49,19.1-67.4,0.7c-11.8-11.8-18.7-30-9.1-39.6c8.3-8.3,16.3-2.9,23-9.6
	c7.4-7.4-0.3-17.5,12-27.9c11.7-9.9,31-2.2,42.2,9C110.9,34.5,110.6,64.7,91.7,83.5z"/>
<path class="st1" d="M122.5,78.1c0,10.1-8.2,18.2-18.2,18.2c-3.7,0-7.2-1.1-10-3c-1-0.7-5.3,2.4-6.2,1.5c-0.8-0.8,1.8-5.5,1.1-6.5
	c-2-2.9-3.2-6.5-3.2-10.3c0-10.1,8.2-18.2,18.2-18.2S122.5,68,122.5,78.1z"/>
<g>
	<path class="st2" d="M141.4,63.3h-35.7c-0.9,0-1.6-0.7-1.6-1.6V39.2c0-0.9,0.7-1.6,1.6-1.6h35.7c0.9,0,1.6,0.7,1.6,1.6v22.5
		C143,62.5,142.3,63.3,141.4,63.3z"/>
	<polyline class="st3" points="143,38.6 124.3,57.4 105.7,38.9 	"/>
</g>
<g>
	<path class="st2" d="M62.6,46.1c0,0,10.7-0.2,12.8,8.2c2.1,8.4,3.5,13,9.2,14.6c-8.7,5.4-19.2,5.3-24.6,0.5
		c-3-2.6-4.7-5.5-6.8-11.7C57.8,52.3,62.6,46.1,62.6,46.1z"/>
	<path class="st4" d="M7.4,10.6c4.4,6.7,15.9,21.1,45.8,47.2c5-5.8,9.4-11.7,9.4-11.7S30.8,17.9,9.7,7.8C8,7,6.3,9,7.4,10.6z"/>
</g>
<g>
	<path class="st5" d="M95.9,75.3c0.1,0.1,0.3,0.3,0.3,0.7c0,0.5-0.4,0.8-0.8,0.8c-0.3,0-0.6-0.1-0.9-0.4S93.9,76,93.6,76
		c-0.5,0-0.8,0.2-0.8,0.6c0,0.1,0,0.4,0.7,0.6l0.9,0.3c1.1,0.3,2.2,0.9,2.2,2.3c0,1.7-1.6,2.5-3.1,2.5c-1.4,0-2.1-0.6-2.5-1
		c-0.1-0.1-0.5-0.5-0.5-1c0-0.4,0.2-0.8,0.8-0.8c0.4,0,0.7,0.3,0.9,0.5c0.4,0.5,0.9,0.6,1.3,0.6c0.7,0,0.9-0.3,0.9-0.6
		c0-0.1-0.1-0.5-0.8-0.7l-0.8-0.2c-1.5-0.4-2.2-1.3-2.2-2.3c0-1.6,1.4-2.3,2.8-2.3C94.4,74.3,95.4,74.6,95.9,75.3z"/>
	<path class="st5" d="M110.6,77.9v3.2c0,0.6-0.5,1.1-1.1,1.1s-1.1-0.5-1.1-1.1v-3.2c0-1.2-0.6-1.8-1.4-1.8c-1.3,0-1.6,1.3-1.7,1.5
		l0,0v0.3v3.2c0,0.6-0.5,1.1-1.1,1.1s-1.1-0.5-1.1-1.1v-3.2c0-1.2-0.6-1.8-1.4-1.8c-1.3,0-1.6,1.3-1.7,1.5V81c0,0.6-0.5,1.1-1.1,1.1
		s-1.1-0.5-1.1-1.1v-5.7c0-0.6,0.5-1.1,1.1-1.1s1.1,0.5,1.1,1.1V76c0.1-0.6,0.9-1.7,2.5-1.7c1.1,0,2.1,0.6,2.5,1.8
		c0.4-0.9,1.4-1.8,2.8-1.8C109.3,74.3,110.6,75.3,110.6,77.9z"/>
	<path class="st5" d="M117.6,75.3c0.1,0.1,0.3,0.3,0.3,0.7c0,0.5-0.4,0.8-0.8,0.8c-0.3,0-0.6-0.1-0.9-0.4s-0.6-0.4-0.9-0.4
		c-0.5,0-0.8,0.2-0.8,0.6c0,0.1,0,0.4,0.7,0.6l0.9,0.3c1.1,0.3,2.2,0.9,2.2,2.3c0,1.7-1.6,2.5-3.1,2.5c-1.4,0-2.1-0.6-2.5-1
		c-0.1-0.1-0.5-0.5-0.5-1c0-0.4,0.2-0.8,0.8-0.8c0.4,0,0.7,0.3,0.9,0.5c0.4,0.5,0.9,0.6,1.3,0.6c0.7,0,0.9-0.3,0.9-0.6
		c0-0.1-0.1-0.5-0.8-0.7l-0.8-0.2c-1.5-0.4-2.2-1.3-2.2-2.3c0-1.6,1.4-2.3,2.8-2.3C116.1,74.3,117.1,74.6,117.6,75.3z"/>
</g>
<circle class="st2" cx="29.5" cy="57.5" r="7.1"/>
<g>
	<path class="st6" d="M118,27.5c0,10.2-8.3,18.4-18.4,18.4c-3.7,0-7.2-1.1-10.1-3c-1-0.7-5.4,2.4-6.3,1.5s1.8-5.6,1.2-6.6
		c-2-3-3.2-6.5-3.2-10.4C81.2,17.2,89.5,9,99.6,9S118,17.3,118,27.5z"/>
	<path class="st7" d="M99.7,43.9c-3.4,0-6.5-1-9.1-2.7l-6.3,2l2-6.1c-2-2.7-3.1-6-3.1-9.6c0-0.5,0-1,0.1-1.6
		c0.8-8.3,7.9-14.8,16.4-14.8c8.7,0,15.8,6.7,16.5,15.1c0,0.4,0,0.9,0,1.3C116.3,36.5,108.9,43.9,99.7,43.9L99.7,43.9z M108.8,31.5
		c-0.5-0.2-2.8-1.4-3.3-1.6c-0.5-0.1-0.8-0.2-1.1,0.3c-0.3,0.5-1.2,1.5-1.5,1.8c-0.3,0.3-0.6,0.4-1,0.1c-0.5-0.2-2-0.7-3.9-2.4
		c-1.4-1.3-2.4-2.8-2.7-3.3c-0.3-0.5,0-0.7,0.2-1c0.2-0.2,0.5-0.5,0.7-0.8c0.1-0.1,0.1-0.1,0.2-0.2c0.1-0.2,0.2-0.4,0.3-0.6
		c0.2-0.3,0.1-0.6,0-0.8c-0.1-0.2-1.1-2.6-1.5-3.6s-0.8-0.8-1.1-0.8c-0.3,0-0.6,0-0.9,0s-0.8,0.1-1.3,0.6s-1.7,1.6-1.7,4
		c0,0.5,0.1,1.1,0.3,1.6c0.5,1.7,1.5,3.1,1.7,3.3c0.2,0.3,3.3,5.3,8.2,7.2c4.9,1.9,4.9,1.3,5.8,1.2s2.8-1.1,3.3-2.3
		c0.4-1.1,0.4-2.1,0.3-2.3C109.6,31.8,109.2,31.7,108.8,31.5L108.8,31.5z M119.4,27c-0.3-10.6-8.9-19-19.6-19
		c-10.6,0-19.2,8.3-19.7,18.7c0,0.3,0,0.6,0,0.8c0,3.7,1,7.1,2.8,10.1L79.4,48l10.9-3.5c2.8,1.5,6.1,2.4,9.5,2.4
		c10.9,0,19.7-8.7,19.7-19.5C119.4,27.3,119.4,27.2,119.4,27L119.4,27z"/>
</g>
</svg>
