<?xml version="1.0" encoding="utf-8"?>
<!-- Generator: Adobe Illustrator 21.0.0, SVG Export Plug-In . SVG Version: 6.00 Build 0)  -->
<svg version="1.1" id="Camada_1" xmlns="http://www.w3.org/2000/svg" xmlns:xlink="http://www.w3.org/1999/xlink" x="0px" y="0px"
	 viewBox="0 0 176.2 50.3" enable-background="new 0 0 176.2 50.3" xml:space="preserve">
<g>
	<g>
		<path fill="#FFFFFF" d="M141.7,49H138c-8.6,0-15-7-15-16.3V5.5c0-2.5,2.1-4.6,4.6-4.6c2.5,0,4.6,2.1,4.6,4.6v27.3
			c0,2.6,1.2,7.1,5.8,7.1h3.8c2.5,0,4.6,2.1,4.6,4.6C146.3,46.9,144.3,49,141.7,49z"/>
	</g>
	<g>
		<path fill="#FFFFFF" d="M141.7,22.6h-14.2c-2.5,0-4.6-2.1-4.6-4.6s2.1-4.6,4.6-4.6h14.2c2.5,0,4.6,2.1,4.6,4.6
			S144.3,22.6,141.7,22.6z"/>
	</g>
	<g>
		<path fill="#FFFFFF" d="M44.9,49c-2.5,0-4.6-2.1-4.6-4.6V27.9c0-2.9-2.4-5.3-5.3-5.3s-5.3,2.4-5.3,5.3c0,2.5-2.1,4.6-4.6,4.6
			s-4.6-2.1-4.6-4.6c0-8,6.5-14.5,14.5-14.5s14.5,6.5,14.5,14.5v16.5C49.5,46.9,47.4,49,44.9,49z"/>
	</g>
	<g>
		<path fill="#FFFFFF" d="M25.1,49c-2.5,0-4.6-2.1-4.6-4.6V27.9c0-2.9-2.4-5.3-5.3-5.3S9.9,25,9.9,27.9v16.5c0,2.5-2.1,4.6-4.6,4.6
			s-4.6-2.1-4.6-4.6V27.9c0-8,6.5-14.5,14.5-14.5s14.5,6.5,14.5,14.5v16.5C29.7,46.9,27.6,49,25.1,49z"/>
	</g>
	<path fill="#FFFFFF" d="M174.2,33.2L174.2,33.2c-0.7-1.2-1.7-2.2-2.8-3c-1.1-0.7-2.3-1.4-3.6-1.9c-1.2-0.4-2.4-0.9-3.6-1.2
		c-1-0.3-2-0.6-2.9-0.9c-0.8-0.3-1.6-0.6-2.2-0.9c-0.5-0.3-0.9-0.6-1.1-0.9c-0.1-0.2-0.2-0.4-0.2-0.6v-0.1c0-0.7,0.3-1.1,0.8-1.6
		c0.7-0.6,1.8-0.8,3.1-0.8s2.6,0.2,3.9,0.7c0.6,0.2,1.2,0.4,1.8,0.7l0,0c0.5,0.2,1,0.3,1.5,0.3c2.2,0,3.9-1.8,3.9-3.9
		c0-1.4-0.7-2.7-1.9-3.4c0,0,0,0-0.1-0.1c0,0,0,0-0.1,0c-0.2-0.1-0.5-0.2-0.7-0.3c-0.7-0.3-1.4-0.5-2.1-0.7c-2.1-0.7-4.3-1-6.3-1
		c-1.7,0-3.3,0.2-4.8,0.7s-2.8,1.2-3.9,2.1c-1.1,1-2.1,2.1-2.7,3.5c-0.6,1.4-1,2.8-1,4.4v0.1c0,1.8,0.4,3.3,1.2,4.6
		c0.7,1.2,1.8,2.1,2.9,2.9c1.1,0.7,2.3,1.3,3.7,1.8c1.2,0.4,2.5,0.8,3.7,1.2c1,0.3,1.9,0.6,2.8,0.8c0.8,0.3,1.5,0.6,2.1,0.9
		c0.5,0.3,0.8,0.6,1.1,0.9c0.1,0.1,0.2,0.4,0.2,0.7v0.1c0,0.9-0.3,1.4-1,1.9c-0.8,0.6-2,0.9-3.4,0.9c-1.6,0-3.2-0.3-4.7-0.9
		c-1.3-0.5-2.6-1.2-3.8-2l0,0c-0.6-0.4-1.3-0.5-2-0.5c-2.2,0-4,1.8-4,4c0,1.2,0.6,2.4,1.4,3.1l0,0c0,0,0.1,0.1,0.2,0.1
		c0.1,0.1,0.2,0.2,0.4,0.2c1.5,1,3.2,1.8,5,2.5c2.5,0.9,4.9,1.3,7.3,1.3c1.7,0,3.4-0.2,4.9-0.7s2.9-1.2,4.1-2.1
		c1.2-1,2.1-2.1,2.8-3.5s1.1-3,1.1-4.7v-0.1C175.3,36,175,34.5,174.2,33.2z"/>
	<path fill="#FFFFFF" d="M84.5,25.4c-0.4-1.4-1-2.6-1.7-3.9c-0.7-1.2-1.6-2.3-2.7-3.3s-2.1-1.9-3.4-2.6c-1.2-0.7-2.6-1.3-4-1.7
		s-2.8-0.6-4.4-0.6c-1.7,0-3.2,0.2-4.7,0.7c-1.5,0.4-2.8,1.1-4.1,1.8c-1.3,0.8-2.4,1.7-3.4,2.8s-1.9,2.3-2.6,3.6
		c-0.7,1.3-1.3,2.7-1.7,4.2s-0.6,3-0.6,4.6c0,2.5,0.5,4.9,1.4,7.1c1,2.2,2.3,4.1,3.9,5.7c1.7,1.6,3.6,2.8,5.8,3.8
		c2.2,0.9,4.6,1.4,7,1.4c2.2,0,4.3-0.4,6.3-1.2s3.8-2,5.4-3.4c0.3-0.3,0.5-0.5,0.7-0.7l0,0c0.6-0.7,1-1.6,1-2.6
		c0-2.3-1.8-4.1-4.1-4.1c-1.1,0-2,0.4-2.7,1.1c0,0-0.1,0-0.1,0.1c-0.4,0.3-0.8,0.6-1.3,0.9c-0.5,0.3-1.1,0.6-1.8,0.8
		c-0.7,0.2-1.3,0.4-2,0.5s-1.4,0.2-2,0.2c-0.7,0-1.5-0.1-2.3-0.3s-1.6-0.5-2.3-1c-0.7-0.5-1.4-1.1-1.9-1.8c-0.6-0.7-0.9-1.8-1.1-2.9
		h19.6c1.1,0,2-0.1,2.6-0.2c0.6-0.1,1-0.4,1.3-0.7c0.3-0.4,0.4-0.8,0.4-1.4s0-1.4,0-2.3C85.1,28.2,84.9,26.8,84.5,25.4z M61.6,26.6
		c0.3-0.6,0.7-1.2,1.1-1.8c0.5-0.6,1-1.1,1.6-1.6s1.2-0.8,1.8-1.1c0.7-0.3,1.4-0.4,2.1-0.4c1,0,1.8,0.1,2.6,0.4
		c0.7,0.3,1.4,0.6,2,1.1s1.1,1,1.5,1.6s0.9,1.2,1.2,2L61.6,26.6z"/>
	<path fill="#FFFFFF" d="M120.2,25.4c-0.4-1.4-1-2.6-1.7-3.9c-0.7-1.2-1.6-2.3-2.7-3.3s-2.1-1.9-3.4-2.6c-1.2-0.7-2.6-1.3-4-1.7
		s-2.8-0.6-4.4-0.6c-1.7,0-3.2,0.2-4.7,0.7c-1.5,0.4-2.8,1.1-4.1,1.8c-1.3,0.8-2.4,1.7-3.4,2.8s-1.9,2.3-2.6,3.6
		c-0.7,1.3-1.3,2.7-1.7,4.2c-0.4,1.5-0.6,3-0.6,4.6c0,2.5,0.5,4.9,1.4,7.1c1,2.2,2.3,4.1,3.9,5.7c1.7,1.6,3.6,2.8,5.8,3.8
		c2.2,0.9,4.6,1.4,7,1.4c2.2,0,4.3-0.4,6.3-1.2s3.8-2,5.4-3.4c0.3-0.3,0.5-0.5,0.7-0.7l0,0c0.6-0.7,1-1.6,1-2.6
		c0-2.3-1.8-4.1-4.1-4.1c-1.1,0-2,0.4-2.7,1.1c0,0-0.1,0-0.1,0.1c-0.4,0.3-0.8,0.6-1.3,0.9c-0.5,0.3-1.1,0.6-1.8,0.8
		c-0.7,0.2-1.3,0.4-2,0.5s-1.4,0.2-2,0.2c-0.7,0-1.5-0.1-2.3-0.3s-1.6-0.5-2.3-1c-0.7-0.5-1.4-1.1-1.9-1.8c-0.6-0.7-0.9-1.8-1.1-2.9
		h19.6c1.1,0,2-0.1,2.6-0.2c0.6-0.1,1-0.4,1.3-0.7c0.3-0.4,0.4-0.8,0.4-1.4c0-0.6,0-1.4,0-2.3C120.8,28.2,120.6,26.8,120.2,25.4z
		 M97.2,26.6c0.3-0.6,0.7-1.2,1.1-1.8c0.5-0.6,1-1.1,1.6-1.6s1.2-0.8,1.8-1.1c0.7-0.3,1.4-0.4,2.1-0.4c1,0,1.8,0.1,2.6,0.4
		c0.7,0.3,1.4,0.6,2,1.1s1.1,1,1.5,1.6s0.9,1.2,1.2,2L97.2,26.6z"/>
</g>
</svg>
