<svg width="133" height="62" viewBox="0 0 133 62" fill="none" xmlns="http://www.w3.org/2000/svg">
<path d="M114.386 21.0583C111.951 21.0583 109.666 21.4739 107.594 22.2141V9.40253C107.594 6.21424 105.01 3.63634 101.828 3.63634H101.146C98.2307 3.63634 95.8606 5.99996 95.8606 8.92202V33.6686C92.7956 28.4803 86.971 24.9544 79.8087 24.9544C77.3737 24.9544 75.088 25.37 73.0166 26.1102V13.2986C73.0166 10.1103 70.4322 7.53242 67.2504 7.53242H66.5685C63.6465 7.53242 61.2829 9.89604 61.2829 12.8181V27.3829C58.153 22.4349 52.4582 19.1103 45.4972 19.1103C37.9648 19.1103 31.8934 23.0258 28.9324 28.6427V21.2401C28.9324 17.9479 26.2636 15.2791 22.9714 15.2791C19.6792 15.2791 17.0104 17.9479 17.0104 21.2401V44.4932C17.0104 48.5062 15.0948 50.5451 12.0689 50.5451C10.7053 50.5451 9.52345 50.1555 8.40658 49.4347C6.28971 48.0646 3.52998 48.24 1.69233 49.9737C-0.866091 52.3893 -0.469997 56.5905 2.517 58.4477C5.16633 60.0905 8.51696 61.11 12.8026 61.11C17.7442 61.11 21.8221 59.5646 24.6597 56.7269C27.5428 53.8438 28.9 50.0386 28.9194 44.6556C31.861 50.2205 37.8869 54.0711 45.3609 54.0711C52.3738 54.0711 58.1205 50.6815 61.2699 45.6815V54.149C61.2699 57.3373 63.8543 59.9152 67.0361 59.9152H67.7179C69.2439 59.9152 70.6075 59.2659 71.575 58.2334C73.9776 59.3048 76.7113 59.9152 79.6724 59.9152C86.9321 59.9152 92.8411 56.2724 95.906 50.9802C96.2891 53.7919 98.6982 55.9607 101.614 55.9607H102.296C103.796 55.9607 105.146 55.3308 106.114 54.3243C108.529 55.4087 111.276 56.0191 114.257 56.0191C125.003 56.0191 132.782 48.0516 132.782 38.5387V38.4153C132.782 28.9024 125.062 21.0583 114.38 21.0583H114.386ZM52.4777 36.7141C52.4777 40.727 49.7635 44.1231 45.4972 44.1231C41.231 44.1231 38.3934 40.6621 38.3934 36.5907V36.4673C38.3934 32.4543 41.1077 29.0583 45.3739 29.0583C49.6401 29.0583 52.4777 32.5193 52.4777 36.5907V36.7141ZM86.7892 42.5582C86.7892 46.5711 84.0749 49.9672 79.8087 49.9672C75.5425 49.9672 72.7049 46.5062 72.7049 42.4348V42.3114C72.7049 38.2985 75.4191 34.9024 79.6853 34.9024C83.9515 34.9024 86.7892 38.3634 86.7892 42.4348V42.5582ZM121.367 38.6621C121.367 42.6751 118.653 46.0711 114.386 46.0711C110.12 46.0711 107.283 42.6101 107.283 38.5387V38.4153C107.283 34.4024 110.003 31.0063 114.263 31.0063C118.523 31.0063 121.367 34.4673 121.367 38.5387V38.6621Z" fill="white"/>
<path d="M22.9778 15.2856C27.1988 15.2856 30.6206 11.8638 30.6206 7.64281C30.6206 3.4218 27.1988 0 22.9778 0C18.7568 0 15.335 3.4218 15.335 7.64281C15.335 11.8638 18.7568 15.2856 22.9778 15.2856Z" fill="#F93F06"/>
</svg>
